#VRML V2.0 utf8
# 3D model generated by easyeda2kicad.py (https://github.com/uPesy/easyeda2kicad.py)

Shape{
    appearance Appearance {
        material  Material 	{
            diffuseColor 0.6666666666666666 0.6666666666666666 0.6666666666666666
            specularColor 0.4666666666666667 0.4666666666666667 0.4666666666666667
            ambientIntensity 0.6667
            transparency 0.0
            shininess 0.5
        }
    }
    geometry IndexedFaceSet {
        ccw TRUE
        solid FALSE
        coord DEF co Coordinate {
            point [
                0.9724 -1.2453 0.0394, 1.2677 -1.2453 0.0394, 1.2677 -1.9539 0.0394, -0.2065 -0.2417 0.0394, -0.2449 -0.2285 0.0394, -0.2449 -0.1756 0.0394, -0.2449 0.0908 0.0394, -0.2892 -0.1946 0.0394, -0.2519 0.0947 0.0394, -0.3371 -0.2008 0.0394, -0.3758 -0.1965 0.0394, -0.4053 -0.1859 0.0394, -0.4325 -0.1676 0.0394, -0.4563 -0.1414 0.0394, -0.4849 -0.0382 0.0394, -0.4809 0.0044 0.0394, -0.4702 0.0383 0.0394, -0.3828 0.1119 0.0394, -0.3459 0.116 0.0394, -0.4115 0.1013 0.0394, -0.4356 0.0849 0.0394, -0.4539 0.0656 0.0394, -0.2937 0.1102 0.0394, -0.4717 0.1207 0.0394, -0.5713 0.1112 0.0394, -0.44 0.141 0.0394, -0.4017 0.1542 0.0394, -0.4726 -0.111 0.0394, -0.483 -0.0688 0.0394, -0.5175 -0.1345 0.0394, -0.4946 -0.1715 0.0394, -0.7202 -0.2393 0.0394, -0.4594 -0.2058 0.0394, -0.4221 -0.2276 0.0394, -0.2449 0.134 0.0394, -0.2065 0.3413 0.0394, -0.2868 0.1513 0.0394, -0.3424 0.1591 0.0394, -0.5012 0.0896 0.0394, -0.5222 0.0521 0.0394, -0.7202 0.1112 0.0394, -0.5713 0.1544 0.0394, -1.2677 0.3413 0.0394, -0.773 0.1544 0.0394, -1.2677 -0.2417 0.0394, -0.773 -0.2393 0.0394, -0.366 -0.2417 0.0394, -0.3782 -0.2406 0.0394, -0.3532 0.1592 0.0394, -0.534 0.0104 0.0394, -0.5377 -0.035 0.0394, -0.5325 -0.089 0.0394, -0.9042 -0.4972 0.0394, -0.9168 -0.4809 0.0394, -0.9521 -1.2426 0.0394, -0.2065 -1.9539 0.0394, -0.9724 -1.2453 0.0394, -1.2677 -1.9539 0.0394, -1.2677 -1.2453 0.0394, -0.9331 -1.2347 0.0394, -0.9168 -1.2222 0.0394, -0.9042 -1.2059 0.0394, -0.8964 -0.5162 0.0394, -0.9331 -0.4684 0.0394, -0.9521 -0.4606 0.0394, -0.9724 -0.4579 0.0394, -1.2677 -0.4579 0.0394, -0.8964 -1.1869 0.0394, -0.8937 -1.1665 0.0394, -0.8937 -0.5366 0.0394, -0.3375 -0.2441 0.0394, -0.3027 -0.2417 0.0394, -0.2904 -0.2408 0.0394, 0.9521 -0.4606 0.0394, 0.9331 -0.4684 0.0394, 0.9168 -0.4809 0.0394, 0.9042 -0.4972 0.0394, 0.8964 -1.1869 0.0394, 0.9042 -1.2059 0.0394, 0.9168 -1.2222 0.0394, 0.9331 -1.2347 0.0394, 0.9521 -1.2426 0.0394, 0.9724 -0.4579 0.0394, 1.2677 -0.2417 0.0394, 1.2677 -0.4579 0.0394, 0.8964 -0.5162 0.0394, 0.8937 -0.5366 0.0394, 0.8937 -1.1665 0.0394, 0.4314 0.0051 0.0394, 0.4174 0.0463 0.0394, 0.4657 0.1544 0.0394, 0.0432 0.1544 0.0394, -0.168 0.1544 0.0394, 0.7236 0.044 0.0394, 0.5609 0.044 0.0394, 0.7634 0.1544 0.0394, 0.5233 0.1544 0.0394, 1.2677 0.3413 0.0394, 0.3948 0.0815 0.0394, 0.3625 0.1126 0.0394, 0.3215 0.1365 0.0394, 0.0336 -0.196 0.0394, -0.1152 -0.196 0.0394, -0.1152 -0.0664 0.0394, 0.2862 -0.2336 0.0394, 0.3323 -0.2179 0.0394, 0.6146 -0.2393 0.0394, 0.12 -0.2393 0.0394, 0.024 -0.0664 0.0394, 0.12 0.1544 0.0394, 0.024 -0.0232 0.0394, 0.2311 -0.2393 0.0394, 0.2761 0.1501 0.0394, 0.2271 0.1544 0.0394, 0.0432 0.1112 0.0394, -0.1152 0.1112 0.0394, -0.1152 -0.0232 0.0394, 0.0336 -0.2393 0.0394, -0.168 -0.2393 0.0394, 0.3758 -0.1893 0.0394, 0.3807 -0.1849 0.0394, 0.4074 -0.1539 0.0394, 0.4249 -0.1195 0.0394, 0.4347 -0.0805 0.0394, 0.4369 -0.0474 0.0394, 0.6674 -0.2393 0.0394, 0.821 0.1544 0.0394, 0.4331 0.5972 1.2835, 0.4331 0.5382 1.2835, 0.4331 0.5972 1.1654, 0.4331 0.5382 1.1654, 1.3509 0.9319 1.156, 1.456 0.9319 1.246, 1.3875 0.9319 1.1457, 1.5411 0.9319 1.2005, 1.6092 0.9319 1.1457, 1.189 0.9319 1.1654, 1.189 0.9319 1.2835, 1.2677 0.9319 1.1654, 1.2677 0.9319 1.2835, 1.3637 0.9319 1.274, 1.7598 0.9319 0.6732, 1.7598 0.9319 -0.2362, 1.6417 0.9319 0.6732, 1.6417 0.9319 -0.2362, 1.7598 -1.2453 0.5315, 1.7598 -1.9539 0.5315, 1.7504 -1.9539 0.4355, 1.7504 -1.2453 0.4355, 1.7224 -1.9539 0.3432, 1.7224 -1.2453 0.3432, 1.6769 -1.9539 0.2581, 1.6769 -1.2453 0.2581, 1.6157 -1.9539 0.1835, 1.6157 -1.2453 0.1835, 1.5411 -1.9539 0.1223, 1.5411 -1.2453 0.1223, 1.456 -1.9539 0.0768, 1.456 -1.2453 0.0768, 1.3637 -1.9539 0.0488, 1.3637 -1.2453 0.0488, 1.2677 -1.2453 0.1575, 1.2677 -1.9539 0.1575, 1.3509 -1.2453 0.1669, 1.3509 -1.9539 0.1669, 1.43 -1.2453 0.1945, 1.43 -1.9539 0.1945, 1.5009 -1.2453 0.2391, 1.5009 -1.9539 0.2391, 1.5601 -1.2453 0.2983, 1.5601 -1.9539 0.2983, 1.6047 -1.2453 0.3692, 1.6047 -1.9539 0.3692, 1.6324 -1.2453 0.4483, 1.6324 -1.9539 0.4483, 1.6417 -1.2453 0.5315, 1.6417 -1.9539 0.5315, 1.7564 0.344 0.4731, 1.7574 0.3473 0.4829, 1.7598 -0.4579 0.5315, 1.7551 0.342 0.463, 1.7583 0.3519 0.4921, 1.7589 0.3576 0.5007, 1.7593 0.3644 0.5084, 1.7596 0.3721 0.5152, 1.7597 0.3807 0.5209, 1.7598 0.3899 0.5255, 1.7598 0.3997 0.5288, 1.7598 0.4098 0.5308, 1.7598 0.4201 0.5315, 1.3637 -0.4579 0.0488, 1.7535 0.3413 0.4528, 1.7504 -0.4579 0.4355, 1.7504 0.3413 0.4355, 1.7224 -0.4579 0.3432, 1.7224 0.3413 0.3432, 1.6769 -0.4579 0.2581, 1.6769 0.3413 0.2581, 1.6157 -0.4579 0.1835, 1.6157 0.3413 0.1835, 1.5411 -0.4579 0.1223, 1.5411 0.3413 0.1223, 1.456 -0.4579 0.0768, 1.456 0.3413 0.0768, 1.3637 0.3413 0.0488, -0.4561 0.6529 1.2835, 0.4358 0.6176 1.2835, -0.4724 0.6654 1.2835, -0.4907 0.9319 1.2835, -0.4907 0.6731 1.2835, 1.0997 0.4988 1.2835, 1.0872 0.4825 1.2835, 1.2677 -1.9539 1.2835, 1.0709 0.47 1.2835, 1.0519 0.4621 1.2835, 0.4436 0.6366 1.2835, 0.4561 0.6529 1.2835, 0.4907 0.9319 1.2835, 0.4724 0.6654 1.2835, 0.4907 0.6731 1.2835, -1.0519 0.4621 1.2835, -1.0709 0.47 1.2835, -1.2677 -1.9539 1.2835, -1.0872 0.4825 1.2835, -1.0997 0.4988 1.2835, -1.1076 0.5178 1.2835, -1.2677 0.9319 1.2835, -1.1102 0.5382 1.2835, -1.189 0.9319 1.2835, -1.1102 0.8531 1.2835, -0.4436 0.6366 1.2835, -0.4358 0.6176 1.2835, -0.4331 0.5972 1.2835, -0.4358 0.5178 1.2835, -0.4436 0.4988 1.2835, 0.4358 0.5178 1.2835, -0.4561 0.4825 1.2835, -0.4724 0.47 1.2835, 1.1076 0.5178 1.2835, 1.1102 0.5382 1.2835, 1.1102 0.8531 1.2835, 1.1686 0.9292 1.2835, 1.1496 0.9213 1.2835, 1.0315 0.4594 1.2835, 0.5118 0.4594 1.2835, 0.4914 0.4621 1.2835, 0.4724 0.47 1.2835, 0.4561 0.4825 1.2835, 0.4436 0.4988 1.2835, 1.1333 0.9088 1.2835, 1.1208 0.8925 1.2835, 1.1129 0.8735 1.2835, -0.4914 0.4621 1.2835, -0.5118 0.4594 1.2835, -1.0315 0.4594 1.2835, -1.1208 0.8925 1.2835, -1.1333 0.9088 1.2835, -1.1496 0.9213 1.2835, -1.1129 0.8735 1.2835, -1.1686 0.9292 1.2835, -0.4331 0.5382 1.2835, 1.6157 -1.9539 1.1393, 1.6595 0.6859 1.0891, 1.6522 0.7009 1.0985, 1.6495 0.709 1.1019, 1.6475 0.7175 1.1043, 1.6463 0.7262 1.1058, 1.6459 0.735 1.1063, 1.6433 0.9077 1.1093, 1.6414 0.9122 1.1116, 1.6285 0.9266 1.126, 1.6359 0.9204 1.1178, 1.6389 0.9166 1.1145, 1.6447 0.9027 1.1076, 1.6459 0.8925 1.1063, 1.6456 0.8977 1.1066, 1.6994 0.6563 1.0276, 1.6894 0.6583 1.0451, 1.6769 -1.9539 1.0647, 1.7224 0.6563 0.9797, 1.6789 0.6644 1.0616, 1.6769 0.6656 1.0647, 1.6687 0.6735 1.0767, 1.7224 -1.9539 0.9797, 1.7504 -1.9539 0.8873, 1.7504 0.6563 0.8873, 1.7598 -1.9539 0.7913, 1.7598 0.6563 0.7913, 1.6195 0.9305 1.1355, 1.6157 0.931 1.1393, 1.5411 -1.9539 1.2005, 1.456 -1.9539 1.246, 1.3637 -1.9539 1.274, 1.7598 -1.2426 0.5519, 1.7598 -1.1272 0.5997, 1.7598 -1.1109 0.5872, 1.7598 -1.0878 0.5315, 1.7598 -1.0878 -0.2362, 1.7598 -0.7728 -0.0394, 1.7598 -0.7702 -0.019, 1.7598 -0.7623 0.0, 1.7598 -1.0905 0.5519, 1.7598 -0.7498 0.0163, 1.7598 -1.0983 0.5709, 1.7598 -0.8896 -0.3883, 1.7598 -0.8516 -0.3726, 1.7598 -1.0667 -0.315, 1.7598 0.735 0.6732, 1.7598 0.4883 0.4921, 1.7598 0.7147 0.6759, 1.7598 -1.0824 -0.277, 1.7598 -1.2347 0.5709, 1.7598 -1.2222 0.5872, 1.7598 -1.2059 0.5997, 1.7598 -0.819 -0.3476, 1.7598 -0.7939 -0.315, 1.7598 -1.1869 0.6076, 1.7598 -1.1665 0.6102, 1.7598 -1.1462 0.6076, 1.7598 -1.0417 -0.3476, 1.7598 -1.0091 -0.3726, 1.7598 -0.7782 -0.277, 1.7598 -0.7728 -0.2362, 1.7598 -0.6127 0.5519, 1.7598 -0.6154 0.5315, 1.7598 -0.6048 0.5709, 1.7598 -0.5923 0.5872, 1.7598 -0.576 0.5997, 1.7598 -0.4972 0.5997, 1.7598 -0.4809 0.5872, 1.7598 -0.4684 0.5709, 1.7598 -0.4606 0.5519, 1.7598 0.6668 0.7126, 1.7598 0.4405 0.5288, 1.7598 0.659 0.7316, 1.7598 0.6563 0.752, 1.7598 0.6563 -0.3937, 1.7598 0.7744 -0.3937, 1.7598 -0.9711 -0.3883, 1.7598 -0.9303 -0.3937, 1.7598 0.5776 -0.3726, 1.7598 0.4988 -0.2362, 1.7598 0.5449 -0.3476, 1.7598 0.5042 -0.277, 1.7598 0.5199 -0.315, 1.7598 -0.557 0.6076, 1.7598 -0.5366 0.6102, 1.7598 -0.5162 0.6076, 1.7598 0.4594 0.5209, 1.7598 0.4758 0.5084, 1.7598 0.6794 0.6963, 1.7598 0.6957 0.6838, 1.7598 0.4961 0.4731, 1.7598 0.4988 0.4528, 1.7598 0.6155 -0.3883, 1.7598 0.8531 -0.3726, 1.7598 0.8858 -0.3476, 1.7598 0.9108 -0.315, 1.7598 0.8152 -0.3883, 1.7598 0.9265 -0.277, 1.7598 -0.6259 0.0787, 1.7598 -0.6737 0.0421, 1.7598 -0.6384 0.0624, 1.7598 -0.6547 0.0499, 1.7598 -0.7335 0.0288, 1.7598 -0.7145 0.0367, 1.7598 -0.6941 0.0394, 1.7598 -0.6154 0.1181, 1.7598 -0.618 0.0977, -1.5601 -1.9539 0.2983, -1.6157 -1.9539 0.1835, -1.5009 -1.9539 0.2391, -1.5411 -1.9539 0.1223, -1.43 -1.9539 0.1945, -1.456 -1.9539 0.0768, -1.3509 -1.9539 0.1669, -1.3637 -1.9539 0.0488, -1.2677 -1.9539 0.1575, -1.5009 -1.9539 1.0838, -1.6157 -1.9539 1.1393, -1.5601 -1.9539 1.0245, -1.6769 -1.9539 1.0647, -1.6047 -1.9539 0.9536, -1.7224 -1.9539 0.9797, -1.6324 -1.9539 0.8746, -1.7504 -1.9539 0.8873, -1.6417 -1.9539 0.7913, -1.7598 -1.9539 0.7913, -1.6417 -1.9539 0.5315, -1.7598 -1.9539 0.5315, -1.6324 -1.9539 0.4483, -1.7504 -1.9539 0.4355, -1.6047 -1.9539 0.3692, -1.7224 -1.9539 0.3432, -1.6769 -1.9539 0.2581, 1.6417 -1.9539 0.7913, 1.6324 -1.9539 0.8746, 1.6047 -1.9539 0.9536, 1.5601 -1.9539 1.0245, 1.5009 -1.9539 1.0838, 1.43 -1.9539 1.1283, 1.3509 -1.9539 1.156, 1.2677 -1.9539 1.1654, -1.2677 -1.9539 1.1654, -1.3509 -1.9539 1.156, -1.3637 -1.9539 1.274, -1.43 -1.9539 1.1283, -1.456 -1.9539 1.246, -1.5411 -1.9539 1.2005, 1.6417 0.4201 0.5315, 1.6417 0.4098 0.5308, 1.6417 -0.4579 0.5315, 1.6417 0.3997 0.5288, 1.6417 0.3899 0.5255, 1.6416 0.3807 0.5209, 1.6414 0.3722 0.5152, 1.641 0.3644 0.5084, 1.6405 0.3576 0.5007, 1.6397 0.3519 0.4921, 1.6386 0.3473 0.4829, 1.6372 0.344 0.4731, 1.6354 0.342 0.463, 1.6324 -0.4579 0.4483, 1.2677 0.3413 0.1575, 1.2677 -0.4579 0.1575, 1.3509 0.3413 0.1669, 1.3509 -0.4579 0.1669, 1.43 0.3413 0.1945, 1.43 -0.4579 0.1945, 1.5009 0.3413 0.2391, 1.5009 -0.4579 0.2391, 1.5601 0.3413 0.2983, 1.5601 -0.4579 0.2983, 1.6047 0.3413 0.3692, 1.6047 -0.4579 0.3692, 1.6324 0.3413 0.4483, 1.6334 0.3413 0.4528, -0.9331 -1.2347 0.1575, -0.8964 -0.5162 0.1575, -0.9042 -0.4972 0.1575, -0.9168 -0.4809 0.1575, -0.9521 -1.2426 0.1575, -0.9724 -1.2453 0.1575, -1.2677 -1.2453 0.1575, -1.2677 -0.4579 0.1575, -0.9724 -0.4579 0.1575, -1.2677 0.3413 0.1575, -0.9521 -0.4606 0.1575, -0.9331 -0.4684 0.1575, 0.9042 -0.4972 0.1575, 0.9168 -0.4809 0.1575, -0.8964 -1.1869 0.1575, -0.9042 -1.2059 0.1575, -0.9168 -1.2222 0.1575, 0.9724 -1.2453 0.1575, 0.9521 -1.2426 0.1575, 0.9331 -1.2347 0.1575, 0.9168 -1.2222 0.1575, 0.9042 -1.2059 0.1575, 0.9724 -0.4579 0.1575, 0.9521 -0.4606 0.1575, 0.9331 -0.4684 0.1575, 0.8964 -1.1869 0.1575, 0.8937 -1.1665 0.1575, -0.8937 -1.1665 0.1575, -0.8937 -0.5366 0.1575, 0.8937 -0.5366 0.1575, 0.8964 -0.5162 0.1575, 0.4436 0.6366 1.1654, 0.4358 0.6176 1.1654, -0.4907 0.9319 1.1654, 0.4561 0.6529 1.1654, -1.0872 0.4825 1.1654, -1.0709 0.47 1.1654, 0.4724 0.6654 1.1654, 0.4907 0.9319 1.1654, 0.4907 0.6731 1.1654, 1.0872 0.4825 1.1654, 1.0997 0.4988 1.1654, 1.1076 0.5178 1.1654, 1.1102 0.5382 1.1654, 1.1102 0.8531 1.1654, 1.1686 0.9292 1.1654, 0.4358 0.5178 1.1654, -0.4724 0.47 1.1654, -0.4561 0.4825 1.1654, -0.4436 0.4988 1.1654, -0.4358 0.5178 1.1654, -0.4331 0.5382 1.1654, -0.4358 0.6176 1.1654, -0.4436 0.6366 1.1654, -0.4561 0.6529 1.1654, -0.4724 0.6654 1.1654, -0.4907 0.6731 1.1654, -1.1129 0.8735 1.1654, -1.1102 0.8531 1.1654, -1.189 0.9319 1.1654, -1.1102 0.5382 1.1654, -1.2677 0.9319 1.1654, -1.1076 0.5178 1.1654, -1.0997 0.4988 1.1654, 1.0315 0.4594 1.1654, 1.0519 0.4621 1.1654, 1.0709 0.47 1.1654, 1.1208 0.8925 1.1654, 1.1333 0.9088 1.1654, 1.1496 0.9213 1.1654, -1.0519 0.4621 1.1654, -1.0315 0.4594 1.1654, -0.5118 0.4594 1.1654, 1.1129 0.8735 1.1654, -1.1686 0.9292 1.1654, -1.1496 0.9213 1.1654, -1.1208 0.8925 1.1654, -1.1333 0.9088 1.1654, 0.4561 0.4825 1.1654, 0.4436 0.4988 1.1654, -0.4914 0.4621 1.1654, 0.4724 0.47 1.1654, 0.4914 0.4621 1.1654, 0.5118 0.4594 1.1654, -0.4331 0.5972 1.1654, 1.5261 0.6641 1.0617, 1.5425 0.6583 1.0451, 1.6417 0.6563 0.7913, 1.6324 0.6563 0.8746, 1.6047 0.6563 0.9536, 1.5601 0.6563 1.0245, 1.5577 0.6563 1.0276, 1.45 0.91 1.1179, 1.4609 0.9122 1.1116, 1.4645 0.9078 1.1094, 1.4673 0.9027 1.1076, 1.4689 0.8978 1.1067, 1.4694 0.8925 1.1063, 1.4347 0.9266 1.126, 1.4502 0.9204 1.1178, 1.4558 0.9167 1.1146, 1.4694 0.735 1.1063, 1.4299 0.9275 1.1282, 1.4702 0.7261 1.1058, 1.4725 0.7175 1.1043, 1.4763 0.7088 1.1018, 1.4811 0.7009 1.0985, 1.494 0.6859 1.0891, 1.5008 0.6805 1.0837, 1.5096 0.6735 1.0767, 1.4142 0.9305 1.1355, 1.6417 -1.2426 0.5519, 1.6417 -1.0824 -0.277, 1.6417 -1.0878 -0.2362, 1.6417 -0.8516 -0.3726, 1.6417 -0.6154 0.1181, 1.6417 -0.618 0.0977, 1.6417 -0.6154 0.5315, 1.6417 -0.6259 0.0787, 1.6417 -0.7623 0.0, 1.6417 -0.7702 -0.019, 1.6417 -1.0878 0.5315, 1.6417 -0.4809 0.5872, 1.6417 -0.4972 0.5997, 1.6417 -1.0905 0.5519, 1.6417 -1.0983 0.5709, 1.6417 -1.1109 0.5872, 1.6417 -1.1272 0.5997, 1.6417 -1.2059 0.5997, 1.6417 -1.2222 0.5872, 1.6417 -1.2347 0.5709, 1.6417 -0.6384 0.0624, 1.6417 -0.6547 0.0499, 1.6417 -0.6737 0.0421, 1.6417 0.6957 0.6838, 1.6417 0.7147 0.6759, 1.6417 0.4883 0.4921, 1.6417 0.735 0.6732, 1.6417 0.4961 0.4731, 1.6417 0.4988 0.4528, 1.6417 0.4988 -0.2362, 1.6417 -0.576 0.5997, 1.6417 -0.5923 0.5872, 1.6417 -0.7728 -0.0394, 1.6417 -0.7728 -0.2362, 1.6417 -1.1462 0.6076, 1.6417 -1.1665 0.6102, 1.6417 -1.1869 0.6076, 1.6417 0.4758 0.5084, 1.6417 0.4594 0.5209, 1.6417 0.6668 0.7126, 1.6417 -0.5162 0.6076, 1.6417 -0.5366 0.6102, 1.6417 -0.557 0.6076, 1.6417 -0.819 -0.3476, 1.6417 -0.6941 0.0394, 1.6417 -0.7145 0.0367, 1.6417 -0.6127 0.5519, 1.6417 -0.7335 0.0288, 1.6417 -0.7498 0.0163, 1.6417 0.4405 0.5288, 1.6417 0.659 0.7316, 1.6417 0.6563 0.752, 1.6417 -0.4606 0.5519, 1.6417 -0.4684 0.5709, 1.6417 -0.6048 0.5709, 1.6417 0.8152 -0.3883, 1.6417 0.7744 -0.3937, 1.6417 0.6563 -0.3937, 1.6417 0.9108 -0.315, 1.6417 0.8858 -0.3476, 1.6417 0.8531 -0.3726, 1.6417 0.5199 -0.315, 1.6417 0.5042 -0.277, 1.6417 0.5449 -0.3476, 1.6417 0.5776 -0.3726, 1.6417 0.6794 0.6963, 1.6417 -0.7782 -0.277, 1.6417 -0.7939 -0.315, 1.6417 -1.0667 -0.315, 1.6417 -0.8896 -0.3883, 1.6417 -0.9303 -0.3937, 1.6417 0.6155 -0.3883, 1.6417 -0.9711 -0.3883, 1.6417 -1.0091 -0.3726, 1.6417 -1.0417 -0.3476, 1.6417 0.9265 -0.277, -1.7535 0.3413 0.4528, -1.6334 0.3413 0.4528, -1.7504 0.3413 0.4355, -1.6324 0.3413 0.4483, -1.7224 0.3413 0.3432, -1.6047 0.3413 0.3692, -1.6769 0.3413 0.2581, -1.5601 0.3413 0.2983, -1.6157 0.3413 0.1835, -1.5009 0.3413 0.2391, -1.3509 0.3413 0.1669, -1.3637 0.3413 0.0488, -1.43 0.3413 0.1945, -1.456 0.3413 0.0768, -1.5411 0.3413 0.1223, -0.9239 0.9319 0.9274, -0.983 0.9319 1.0297, -0.5301 0.9319 1.1548, -0.5891 0.9319 1.2571, -0.5111 0.9319 1.1627, -0.5417 0.9319 1.2768, 0.5111 0.9319 1.1627, 0.5417 0.9319 1.2768, 0.5301 0.9319 1.1548, 0.5891 0.9319 1.2571, 0.9239 0.9319 0.9274, 0.983 0.9319 1.0297, 0.983 0.8925 0.8933, 0.9898 0.8735 0.8894, 0.9921 0.8531 0.888, 0.9239 0.676 0.9274, 0.5301 0.676 1.1548, 0.9722 0.9088 0.8996, 0.9416 0.9292 0.9172, 0.958 0.9213 0.9077, 0.958 0.6865 0.9077, 0.9898 0.7343 0.8894, 0.9722 0.699 0.8996, 0.983 0.7154 0.8933, 0.9921 0.7547 0.888, 0.9416 0.6787 0.9172, 1.0512 0.8531 0.9903, 1.0512 0.7547 0.9903, 0.5891 0.676 1.2571, 0.983 0.676 1.0297, 1.0312 0.9088 1.0019, 1.0006 0.9292 1.0195, 1.0171 0.9213 1.01, 1.0171 0.6865 1.01, 1.0312 0.699 1.0019, 1.042 0.7154 0.9956, 1.0489 0.8735 0.9917, 1.042 0.8925 0.9956, 1.0006 0.6787 1.0195, 1.0489 0.7343 0.9917, 0.4914 0.6733 1.2835, 0.5015 0.6753 1.2832, 0.5118 0.676 1.2823, 0.5417 0.676 1.2768, 0.4914 0.6733 1.1653, 0.5118 0.676 1.1625, 0.5111 0.676 1.1627, 0.5013 0.6753 1.1646, 0.4914 0.6733 1.2835, -1.3637 0.9319 1.274, -1.3509 0.9319 1.156, -1.456 0.9319 1.246, -1.3875 0.9319 1.1457, -1.5411 0.9319 1.2005, -1.6092 0.9319 1.1457, -1.7598 0.9319 -0.2362, -1.7598 0.9319 0.6732, -1.6417 0.9319 -0.2362, -1.6417 0.9319 0.6732, -1.3637 -1.2453 0.0488, -1.456 -1.2453 0.0768, -1.5411 -1.2453 0.1223, -1.6157 -1.2453 0.1835, -1.6769 -1.2453 0.2581, -1.7224 -1.2453 0.3432, -1.7504 -1.2453 0.4355, -1.7598 -1.2453 0.5315, -1.6417 -1.2453 0.5315, -1.6324 -1.2453 0.4483, -1.6047 -1.2453 0.3692, -1.5601 -1.2453 0.2983, -1.5009 -1.2453 0.2391, -1.43 -1.2453 0.1945, -1.3509 -1.2453 0.1669, -1.3637 -0.4579 0.0488, -1.7598 0.4201 0.5315, -1.7598 0.4098 0.5308, -1.7598 -0.4579 0.5315, -1.7598 0.3997 0.5288, -1.7598 0.3899 0.5255, -1.7597 0.3807 0.5209, -1.7596 0.3721 0.5152, -1.7593 0.3644 0.5084, -1.7589 0.3576 0.5007, -1.7583 0.3519 0.4921, -1.7574 0.3473 0.4829, -1.7564 0.344 0.4731, -1.7551 0.342 0.463, -1.7504 -0.4579 0.4355, -1.7224 -0.4579 0.3432, -1.6769 -0.4579 0.2581, -1.6157 -0.4579 0.1835, -1.5411 -0.4579 0.1223, -1.456 -0.4579 0.0768, -1.7504 0.6563 0.8873, -1.7598 0.6563 0.7913, -1.6789 0.6644 1.0616, -1.6894 0.6583 1.0451, -1.6994 0.6563 1.0276, -1.7224 0.6563 0.9797, -1.6389 0.9166 1.1145, -1.6414 0.9122 1.1116, -1.6312 0.9118 1.1232, -1.6433 0.9076 1.1093, -1.6447 0.9027 1.1076, -1.6456 0.8977 1.1066, -1.6459 0.8925 1.1063, -1.6195 0.9305 1.1355, -1.6285 0.9266 1.126, -1.6359 0.9204 1.1178, -1.6459 0.735 1.1063, -1.6157 0.931 1.1393, -1.6463 0.7262 1.1058, -1.6475 0.7175 1.1043, -1.6495 0.709 1.1019, -1.6522 0.7009 1.0985, -1.6595 0.6859 1.0891, -1.6687 0.6735 1.0767, -1.6769 0.6656 1.0647, -1.7598 -1.2426 0.5519, -1.7598 -0.6154 0.1181, -1.7598 -0.618 0.0977, -1.7598 -0.6154 0.5315, -1.7598 -0.6259 0.0787, -1.7598 -0.7623 0.0, -1.7598 -0.7702 -0.019, -1.7598 -1.0878 0.5315, -1.7598 -1.0905 0.5519, -1.7598 -0.576 0.5997, -1.7598 -0.5923 0.5872, -1.7598 -1.0983 0.5709, -1.7598 -1.1109 0.5872, -1.7598 -1.1272 0.5997, -1.7598 -1.0878 -0.2362, -1.7598 -0.7728 -0.0394, -1.7598 -0.7728 -0.2362, -1.7598 -0.6384 0.0624, -1.7598 -0.6547 0.0499, -1.7598 -0.6737 0.0421, -1.7598 0.6794 0.6963, -1.7598 0.6957 0.6838, -1.7598 0.4883 0.4921, -1.7598 -1.1462 0.6076, -1.7598 -1.1665 0.6102, -1.7598 -1.1869 0.6076, -1.7598 -1.2059 0.5997, -1.7598 -1.2222 0.5872, -1.7598 -1.2347 0.5709, -1.7598 0.6563 0.752, -1.7598 0.4594 0.5209, -1.7598 0.659 0.7316, -1.7598 0.6668 0.7126, -1.7598 0.4988 -0.2362, -1.7598 0.4988 0.4528, -1.7598 0.4961 0.4731, -1.7598 0.735 0.6732, -1.7598 0.7147 0.6759, -1.7598 -0.4606 0.5519, -1.7598 -0.4684 0.5709, -1.7598 -0.4809 0.5872, -1.7598 -0.4972 0.5997, -1.7598 -0.5162 0.6076, -1.7598 -0.5366 0.6102, -1.7598 -0.557 0.6076, -1.7598 -0.819 -0.3476, -1.7598 -0.8516 -0.3726, -1.7598 -1.0091 -0.3726, -1.7598 -0.6941 0.0394, -1.7598 -0.7145 0.0367, -1.7598 -0.6127 0.5519, -1.7598 -0.7335 0.0288, -1.7598 -0.7498 0.0163, -1.7598 0.8152 -0.3883, -1.7598 0.7744 -0.3937, -1.7598 0.4405 0.5288, -1.7598 -0.7939 -0.315, -1.7598 0.4758 0.5084, -1.7598 -0.6048 0.5709, -1.7598 -0.8896 -0.3883, -1.7598 -0.9303 -0.3937, -1.7598 -0.9711 -0.3883, -1.7598 -1.0417 -0.3476, -1.7598 -1.0667 -0.315, -1.7598 -1.0824 -0.277, -1.7598 0.9108 -0.315, -1.7598 0.8858 -0.3476, -1.7598 0.8531 -0.3726, -1.7598 0.5199 -0.315, -1.7598 0.5042 -0.277, -1.7598 0.5449 -0.3476, -1.7598 0.5776 -0.3726, -1.7598 -0.7782 -0.277, -1.7598 0.6563 -0.3937, -1.7598 0.6155 -0.3883, -1.7598 0.9265 -0.277, -1.6372 0.344 0.4731, -1.6386 0.3473 0.4829, -1.6417 -0.4579 0.5315, -1.6324 -0.4579 0.4483, -1.6354 0.342 0.463, -1.6397 0.3519 0.4921, -1.6405 0.3576 0.5007, -1.641 0.3644 0.5084, -1.6414 0.3722 0.5152, -1.6416 0.3807 0.5209, -1.6417 0.3899 0.5255, -1.6417 0.3997 0.5288, -1.6417 0.4098 0.5308, -1.6417 0.4201 0.5315, -1.3509 -0.4579 0.1669, -1.43 -0.4579 0.1945, -1.5009 -0.4579 0.2391, -1.5601 -0.4579 0.2983, -1.6047 -0.4579 0.3692, -1.4341 0.9263 1.1262, -1.43 0.9279 1.1283, -1.4694 0.735 1.1063, -1.5008 0.6805 1.0837, -1.494 0.6859 1.0891, -1.4811 0.7009 1.0985, -1.4763 0.7088 1.1018, -1.4725 0.7175 1.1043, -1.4702 0.7261 1.1058, -1.4609 0.9122 1.1116, -1.4558 0.9167 1.1146, -1.4521 0.9094 1.1168, -1.4502 0.9204 1.1178, -1.4689 0.8977 1.1066, -1.4673 0.9027 1.1076, -1.4645 0.9078 1.1094, -1.4694 0.8925 1.1063, -1.5425 0.6583 1.0451, -1.5261 0.6641 1.0617, -1.5096 0.6735 1.0767, -1.6417 0.6563 0.7913, -1.6324 0.6563 0.8746, -1.6047 0.6563 0.9536, -1.5601 0.6563 1.0245, -1.5577 0.6563 1.0276, -1.4142 0.9305 1.1355, -1.6417 -0.7498 0.0163, -1.6417 -1.0983 0.5709, -1.6417 -1.0905 0.5519, -1.6417 -1.2426 0.5519, -1.6417 -1.1272 0.5997, -1.6417 -1.1109 0.5872, -1.6417 -0.7623 0.0, -1.6417 -1.0878 0.5315, -1.6417 -0.7702 -0.019, -1.6417 -0.5923 0.5872, -1.6417 -0.576 0.5997, -1.6417 -0.6048 0.5709, -1.6417 0.6563 0.752, -1.6417 0.4594 0.5209, -1.6417 -1.2347 0.5709, -1.6417 -1.2222 0.5872, -1.6417 -1.2059 0.5997, -1.6417 -1.1869 0.6076, -1.6417 -1.1665 0.6102, -1.6417 -1.1462 0.6076, -1.6417 0.4405 0.5288, -1.6417 -0.7728 -0.0394, -1.6417 -1.0878 -0.2362, -1.6417 -0.7728 -0.2362, -1.6417 -1.0824 -0.277, -1.6417 -1.0667 -0.315, -1.6417 -0.9711 -0.3883, -1.6417 -0.9303 -0.3937, -1.6417 -1.0091 -0.3726, -1.6417 -0.8896 -0.3883, -1.6417 -0.8516 -0.3726, -1.6417 -0.819 -0.3476, -1.6417 -0.7939 -0.315, -1.6417 0.6155 -0.3883, -1.6417 0.6563 -0.3937, -1.6417 0.4988 -0.2362, -1.6417 -1.0417 -0.3476, -1.6417 -0.7782 -0.277, -1.6417 -0.6154 0.5315, -1.6417 -0.6127 0.5519, -1.6417 -0.557 0.6076, -1.6417 -0.5366 0.6102, -1.6417 -0.5162 0.6076, -1.6417 -0.4972 0.5997, -1.6417 -0.4809 0.5872, -1.6417 -0.4684 0.5709, -1.6417 -0.4606 0.5519, -1.6417 0.4961 0.4731, -1.6417 0.4883 0.4921, -1.6417 0.735 0.6732, -1.6417 0.7147 0.6759, -1.6417 0.4988 0.4528, -1.6417 0.5042 -0.277, -1.6417 0.5199 -0.315, -1.6417 0.5449 -0.3476, -1.6417 0.8152 -0.3883, -1.6417 0.8531 -0.3726, -1.6417 0.6957 0.6838, -1.6417 0.6794 0.6963, -1.6417 0.4758 0.5084, -1.6417 0.6668 0.7126, -1.6417 0.659 0.7316, -1.6417 0.5776 -0.3726, -1.6417 0.7744 -0.3937, -1.6417 -0.7335 0.0288, -1.6417 -0.7145 0.0367, -1.6417 -0.6941 0.0394, -1.6417 -0.6154 0.1181, -1.6417 -0.6737 0.0421, -1.6417 -0.6547 0.0499, -1.6417 -0.6384 0.0624, -1.6417 -0.6259 0.0787, -1.6417 -0.618 0.0977, -1.6417 0.8858 -0.3476, -1.6417 0.9108 -0.315, -1.6417 0.9265 -0.277, -0.5301 0.676 1.1548, -0.9239 0.676 0.9274, -0.9921 0.7547 0.888, -0.9921 0.8531 0.888, -0.983 0.8925 0.8933, -0.9722 0.9088 0.8996, -0.958 0.9213 0.9077, -0.9898 0.8735 0.8894, -0.9416 0.9292 0.9172, -0.9416 0.6787 0.9172, -0.958 0.6865 0.9077, -0.9898 0.7343 0.8894, -0.9722 0.699 0.8996, -0.983 0.7154 0.8933, -1.0512 0.7547 0.9903, -1.0512 0.8531 0.9903, -0.5891 0.676 1.2571, -0.983 0.676 1.0297, -1.0171 0.9213 1.01, -1.0312 0.9088 1.0019, -1.042 0.8925 0.9956, -1.0489 0.8735 0.9917, -1.0006 0.9292 1.0195, -1.042 0.7154 0.9956, -1.0312 0.699 1.0019, -1.0489 0.7343 0.9917, -1.0171 0.6865 1.01, -1.0006 0.6787 1.0195, -0.5417 0.676 1.2768, -0.5118 0.676 1.2823, -0.5015 0.6753 1.2832, -0.4914 0.6733 1.2835, -0.4914 0.6733 1.1653, -0.5013 0.6753 1.1646, -0.5111 0.676 1.1627, -0.5118 0.676 1.1625, -0.4914 0.6733 1.2835
            ]
        }
        coordIndex [
            0,1,2,-1,3,4,5,-1,6,7,8,-1,8,7,9,-1,8,9,10,-1,10,11,8,-1,8,11,12,-1,8,12,13,-1,14,15,8,-1,8,15,16,-1,17,18,19,-1,19,18,20,-1,16,21,8,-1,8,21,20,-1,8,20,22,-1,22,20,18,-1,23,24,25,-1,25,24,26,-1,13,27,8,-1,8,27,28,-1,8,28,14,-1,29,30,31,-1,31,30,32,-1,31,32,33,-1,6,34,35,-1,35,34,36,-1,35,36,37,-1,23,38,24,-1,24,38,39,-1,24,39,40,-1,35,41,42,-1,42,41,43,-1,42,43,44,-1,44,43,45,-1,44,45,46,-1,46,45,31,-1,46,31,47,-1,47,31,33,-1,24,41,26,-1,26,41,35,-1,26,35,48,-1,48,35,37,-1,39,49,40,-1,40,49,50,-1,40,50,31,-1,31,50,51,-1,31,51,29,-1,52,53,46,-1,54,55,56,-1,56,55,57,-1,56,57,58,-1,54,59,55,-1,55,59,60,-1,55,60,61,-1,52,46,62,-1,53,63,46,-1,46,63,64,-1,46,64,44,-1,44,64,65,-1,44,65,66,-1,61,67,55,-1,55,67,68,-1,55,68,3,-1,3,68,69,-1,3,69,62,-1,46,70,62,-1,62,70,71,-1,62,71,3,-1,3,71,72,-1,3,72,4,-1,73,74,3,-1,3,74,75,-1,3,75,76,-1,77,78,55,-1,78,79,55,-1,55,79,80,-1,55,80,2,-1,2,80,81,-1,2,81,0,-1,73,3,82,-1,82,3,83,-1,82,83,84,-1,76,85,3,-1,3,85,86,-1,3,86,55,-1,55,86,87,-1,55,87,77,-1,88,89,90,-1,91,92,35,-1,35,92,3,-1,35,3,6,-1,6,3,5,-1,6,5,7,-1,93,94,95,-1,95,94,96,-1,95,96,97,-1,97,96,90,-1,89,98,90,-1,90,98,99,-1,90,99,100,-1,101,102,103,-1,104,105,106,-1,107,108,109,-1,109,108,110,-1,104,106,111,-1,100,112,90,-1,90,112,113,-1,90,113,97,-1,97,113,109,-1,35,97,91,-1,91,97,109,-1,91,109,114,-1,114,109,110,-1,114,110,115,-1,115,110,116,-1,103,108,101,-1,101,108,107,-1,101,107,117,-1,117,107,3,-1,117,3,118,-1,118,3,92,-1,105,119,106,-1,106,119,120,-1,106,120,121,-1,121,122,106,-1,106,122,123,-1,106,123,90,-1,90,123,124,-1,90,124,88,-1,107,111,3,-1,3,111,106,-1,3,106,83,-1,83,106,125,-1,83,125,97,-1,97,125,126,-1,97,126,95,-1,127,128,129,-1,129,128,130,-1,131,132,133,-1,133,132,134,-1,133,134,135,-1,136,137,138,-1,138,137,139,-1,138,139,131,-1,131,139,140,-1,131,140,132,-1,141,142,143,-1,143,142,144,-1,145,146,147,-1,145,147,148,-1,148,147,149,-1,148,149,150,-1,150,149,151,-1,150,151,152,-1,152,151,153,-1,152,153,154,-1,154,153,155,-1,154,155,156,-1,156,155,157,-1,156,157,158,-1,158,157,159,-1,158,159,160,-1,160,159,2,-1,160,2,1,-1,161,162,163,-1,163,162,164,-1,163,164,165,-1,165,164,166,-1,165,166,167,-1,167,166,168,-1,167,168,169,-1,169,168,170,-1,169,170,171,-1,171,170,172,-1,171,172,173,-1,173,172,174,-1,173,174,175,-1,175,174,176,-1,177,178,179,-1,177,179,180,-1,178,181,179,-1,179,181,182,-1,179,182,183,-1,183,184,179,-1,179,184,185,-1,179,185,186,-1,186,187,179,-1,179,187,188,-1,179,188,189,-1,190,84,83,-1,180,179,191,-1,191,179,192,-1,191,192,193,-1,193,192,194,-1,193,194,195,-1,195,194,196,-1,195,196,197,-1,197,196,198,-1,197,198,199,-1,199,198,200,-1,199,200,201,-1,201,200,202,-1,201,202,203,-1,203,202,190,-1,203,190,204,-1,204,190,83,-1,204,83,97,-1,205,206,207,-1,207,206,208,-1,207,208,209,-1,210,211,212,-1,212,211,213,-1,212,213,214,-1,206,215,208,-1,208,215,216,-1,208,216,217,-1,217,216,218,-1,217,218,219,-1,220,221,222,-1,222,221,223,-1,223,224,222,-1,222,224,225,-1,222,225,226,-1,226,225,227,-1,226,227,228,-1,228,227,229,-1,205,230,206,-1,206,230,231,-1,206,231,232,-1,233,234,235,-1,235,234,236,-1,235,236,237,-1,210,212,238,-1,238,212,139,-1,238,139,239,-1,239,139,137,-1,239,137,240,-1,240,137,241,-1,240,241,242,-1,214,243,212,-1,212,243,244,-1,212,244,222,-1,222,244,245,-1,222,245,246,-1,246,247,222,-1,222,247,248,-1,222,248,235,-1,249,250,242,-1,242,250,251,-1,242,251,240,-1,237,252,235,-1,235,252,253,-1,235,253,222,-1,222,253,254,-1,222,254,220,-1,255,256,257,-1,229,258,228,-1,228,258,255,-1,228,255,259,-1,259,255,257,-1,233,235,260,-1,260,235,128,-1,260,128,232,-1,232,128,127,-1,232,127,206,-1,261,262,263,-1,263,264,261,-1,261,264,265,-1,261,265,266,-1,267,268,269,-1,270,266,271,-1,271,266,267,-1,271,267,272,-1,272,267,269,-1,268,267,273,-1,273,267,274,-1,273,274,275,-1,276,277,278,-1,276,278,279,-1,277,280,278,-1,278,280,281,-1,278,281,261,-1,261,281,282,-1,261,282,262,-1,278,283,279,-1,279,283,284,-1,279,284,285,-1,285,284,286,-1,285,286,287,-1,270,288,266,-1,266,288,289,-1,266,289,261,-1,261,289,135,-1,261,135,290,-1,135,134,290,-1,290,134,132,-1,290,132,291,-1,291,132,140,-1,291,140,292,-1,292,140,139,-1,292,139,212,-1,146,145,286,-1,286,145,293,-1,294,295,287,-1,296,297,298,-1,298,299,296,-1,296,299,300,-1,296,300,301,-1,301,300,302,-1,301,302,303,-1,304,305,306,-1,141,307,308,-1,308,307,309,-1,306,305,310,-1,293,311,286,-1,286,311,312,-1,286,312,313,-1,310,305,297,-1,297,305,314,-1,297,314,315,-1,313,316,286,-1,286,316,317,-1,286,317,287,-1,287,317,318,-1,287,318,294,-1,306,319,320,-1,315,321,297,-1,297,321,322,-1,297,322,298,-1,323,295,324,-1,324,295,303,-1,323,325,295,-1,295,325,326,-1,295,326,327,-1,328,329,287,-1,287,329,330,-1,287,330,331,-1,332,189,333,-1,189,332,179,-1,179,332,334,-1,179,334,331,-1,331,334,335,-1,331,335,287,-1,141,336,142,-1,142,336,337,-1,320,338,306,-1,306,338,339,-1,306,339,304,-1,340,341,342,-1,342,341,343,-1,342,343,344,-1,327,345,295,-1,295,345,346,-1,295,346,287,-1,287,346,347,-1,287,347,328,-1,333,348,332,-1,332,348,349,-1,332,349,350,-1,350,349,308,-1,350,308,351,-1,351,308,309,-1,308,352,141,-1,141,352,353,-1,141,353,336,-1,336,353,341,-1,336,341,354,-1,354,341,340,-1,355,356,357,-1,337,358,142,-1,142,358,355,-1,142,355,359,-1,359,355,357,-1,360,361,362,-1,362,361,363,-1,302,364,303,-1,303,364,365,-1,303,365,324,-1,324,365,366,-1,324,366,367,-1,367,366,361,-1,367,361,368,-1,368,361,360,-1,369,370,371,-1,371,370,372,-1,371,372,373,-1,373,372,374,-1,373,374,375,-1,375,374,376,-1,375,376,377,-1,378,379,380,-1,380,379,381,-1,380,381,382,-1,382,381,383,-1,382,383,384,-1,384,383,385,-1,384,385,386,-1,386,385,387,-1,386,387,388,-1,388,387,389,-1,388,389,390,-1,390,389,391,-1,390,391,392,-1,392,391,393,-1,392,393,369,-1,369,393,394,-1,369,394,370,-1,376,57,377,-1,377,57,55,-1,377,55,162,-1,162,55,2,-1,162,2,164,-1,164,2,159,-1,164,159,166,-1,166,159,157,-1,166,157,168,-1,157,155,168,-1,168,155,153,-1,168,153,170,-1,170,153,151,-1,170,151,172,-1,172,151,149,-1,172,149,174,-1,174,149,147,-1,174,147,176,-1,176,147,146,-1,176,146,395,-1,395,146,286,-1,395,286,396,-1,396,286,284,-1,396,284,397,-1,397,284,283,-1,397,283,398,-1,283,278,398,-1,398,278,261,-1,398,261,399,-1,399,261,290,-1,399,290,400,-1,400,290,291,-1,400,291,401,-1,401,291,292,-1,401,292,402,-1,402,292,212,-1,402,212,403,-1,403,212,222,-1,403,222,404,-1,404,222,405,-1,404,405,406,-1,406,405,407,-1,406,407,378,-1,378,407,408,-1,378,408,379,-1,409,410,411,-1,411,410,412,-1,411,412,413,-1,413,414,411,-1,411,414,415,-1,411,415,416,-1,416,417,411,-1,411,417,418,-1,411,418,419,-1,419,420,411,-1,411,420,421,-1,411,421,422,-1,423,424,425,-1,425,424,426,-1,425,426,427,-1,427,426,428,-1,427,428,429,-1,429,428,430,-1,429,430,431,-1,431,430,432,-1,431,432,433,-1,433,432,434,-1,433,434,435,-1,435,434,422,-1,435,422,436,-1,436,422,421,-1,377,162,437,-1,438,423,439,-1,439,423,440,-1,437,441,377,-1,377,441,442,-1,377,442,443,-1,444,445,446,-1,446,445,447,-1,446,447,423,-1,423,447,448,-1,423,448,440,-1,449,450,438,-1,451,452,162,-1,162,452,453,-1,162,453,437,-1,162,161,454,-1,454,455,162,-1,162,455,456,-1,162,456,451,-1,451,456,457,-1,451,457,458,-1,424,423,459,-1,459,423,460,-1,438,450,423,-1,423,450,461,-1,423,461,460,-1,458,462,451,-1,451,462,463,-1,451,463,464,-1,464,463,465,-1,465,463,466,-1,465,466,438,-1,438,466,467,-1,438,467,449,-1,468,469,470,-1,468,470,471,-1,472,473,403,-1,471,470,474,-1,474,470,475,-1,474,475,476,-1,477,478,402,-1,402,478,479,-1,402,479,138,-1,138,479,480,-1,138,480,136,-1,136,480,481,-1,136,481,482,-1,483,484,485,-1,485,486,483,-1,483,486,487,-1,483,487,488,-1,489,490,469,-1,469,490,491,-1,469,491,470,-1,470,491,492,-1,470,492,493,-1,494,495,496,-1,496,495,497,-1,496,497,498,-1,498,497,499,-1,498,499,403,-1,403,499,500,-1,403,500,472,-1,501,502,402,-1,402,502,503,-1,402,503,477,-1,504,505,506,-1,473,507,403,-1,403,507,508,-1,403,508,509,-1,482,481,506,-1,506,481,510,-1,506,510,504,-1,496,511,494,-1,494,511,512,-1,494,512,513,-1,513,512,514,-1,515,403,516,-1,516,403,509,-1,516,509,483,-1,483,509,517,-1,483,517,484,-1,515,518,403,-1,403,518,519,-1,403,519,402,-1,402,519,520,-1,402,520,501,-1,489,469,521,-1,521,469,129,-1,521,129,488,-1,488,129,130,-1,488,130,483,-1,522,523,398,-1,524,395,525,-1,525,395,396,-1,525,396,526,-1,526,396,397,-1,526,397,527,-1,527,397,398,-1,527,398,528,-1,528,398,523,-1,529,530,531,-1,531,532,529,-1,529,532,533,-1,529,533,534,-1,535,536,529,-1,529,536,537,-1,529,537,530,-1,534,538,529,-1,529,538,539,-1,529,539,535,-1,540,541,400,-1,400,541,542,-1,542,543,400,-1,400,543,544,-1,400,544,399,-1,399,544,545,-1,399,545,398,-1,398,545,546,-1,398,546,522,-1,538,540,539,-1,539,540,400,-1,539,400,547,-1,547,400,401,-1,547,401,133,-1,402,138,401,-1,401,138,131,-1,401,131,133,-1,175,176,548,-1,548,176,395,-1,549,550,551,-1,552,553,554,-1,554,553,555,-1,556,557,558,-1,559,560,524,-1,561,562,524,-1,524,562,563,-1,524,563,564,-1,565,566,395,-1,395,566,567,-1,395,567,548,-1,555,568,554,-1,554,568,569,-1,554,569,570,-1,571,572,573,-1,573,572,574,-1,573,574,575,-1,575,574,143,-1,575,143,576,-1,576,143,577,-1,561,578,579,-1,558,557,550,-1,550,557,580,-1,550,580,581,-1,564,582,524,-1,524,582,583,-1,524,583,395,-1,395,583,584,-1,395,584,565,-1,585,586,587,-1,560,588,524,-1,524,588,589,-1,524,589,561,-1,561,589,590,-1,561,590,578,-1,551,550,591,-1,570,592,554,-1,554,592,593,-1,554,593,594,-1,594,593,595,-1,594,595,596,-1,586,597,587,-1,587,597,409,-1,587,409,598,-1,598,409,411,-1,598,411,599,-1,599,411,600,-1,599,600,524,-1,524,600,601,-1,524,601,559,-1,579,602,561,-1,561,602,594,-1,561,594,558,-1,558,594,596,-1,558,596,556,-1,603,604,144,-1,144,604,605,-1,144,605,143,-1,606,607,608,-1,609,610,611,-1,611,610,577,-1,611,577,612,-1,585,587,573,-1,573,587,613,-1,573,613,571,-1,581,614,550,-1,550,614,615,-1,550,615,591,-1,549,551,616,-1,616,551,617,-1,616,617,618,-1,143,605,577,-1,577,605,619,-1,577,619,612,-1,618,620,616,-1,616,620,621,-1,616,621,622,-1,603,144,608,-1,608,144,623,-1,608,623,606,-1,466,463,86,-1,86,463,87,-1,175,145,173,-1,173,145,148,-1,173,148,171,-1,171,148,150,-1,171,150,169,-1,0,454,1,-1,1,454,161,-1,1,161,160,-1,160,161,163,-1,160,163,158,-1,158,163,165,-1,158,165,156,-1,156,165,167,-1,156,167,154,-1,154,167,169,-1,154,169,152,-1,152,169,150,-1,179,411,192,-1,192,411,422,-1,192,422,194,-1,194,422,434,-1,194,434,196,-1,196,434,432,-1,196,432,198,-1,198,432,430,-1,459,82,424,-1,424,82,84,-1,424,84,426,-1,426,84,190,-1,426,190,428,-1,428,190,202,-1,428,202,430,-1,430,202,200,-1,430,200,198,-1,581,580,322,-1,322,580,298,-1,297,296,550,-1,550,296,558,-1,324,367,554,-1,554,367,552,-1,436,191,435,-1,435,191,193,-1,435,193,433,-1,433,193,195,-1,433,195,431,-1,624,625,626,-1,626,625,627,-1,626,627,628,-1,628,627,629,-1,628,629,630,-1,630,629,631,-1,630,631,632,-1,632,631,633,-1,195,197,431,-1,431,197,199,-1,431,199,429,-1,429,199,201,-1,429,201,427,-1,427,201,203,-1,427,203,425,-1,425,203,204,-1,425,204,423,-1,204,97,423,-1,423,97,35,-1,423,35,446,-1,446,35,42,-1,446,42,634,-1,634,42,635,-1,634,635,636,-1,636,635,637,-1,636,637,633,-1,633,637,638,-1,633,638,632,-1,337,336,604,-1,604,336,605,-1,341,353,577,-1,577,353,576,-1,576,353,575,-1,575,353,352,-1,575,352,573,-1,573,352,308,-1,573,308,585,-1,585,308,349,-1,585,349,586,-1,586,349,348,-1,586,348,597,-1,597,348,333,-1,597,333,409,-1,409,333,189,-1,416,182,417,-1,417,182,181,-1,417,181,418,-1,418,181,178,-1,418,178,419,-1,419,178,177,-1,419,177,420,-1,420,177,180,-1,420,180,421,-1,421,180,191,-1,421,191,436,-1,409,189,410,-1,410,189,188,-1,410,188,412,-1,412,188,187,-1,412,187,413,-1,413,187,186,-1,413,186,414,-1,414,186,185,-1,414,185,415,-1,415,185,184,-1,415,184,416,-1,416,184,183,-1,416,183,182,-1,82,459,73,-1,73,459,460,-1,73,460,74,-1,74,460,461,-1,74,461,75,-1,75,461,450,-1,75,450,76,-1,76,450,449,-1,76,449,85,-1,85,449,467,-1,85,467,86,-1,86,467,466,-1,454,0,455,-1,455,0,81,-1,455,81,456,-1,456,81,80,-1,456,80,457,-1,457,80,79,-1,457,79,458,-1,458,79,78,-1,458,78,462,-1,462,78,77,-1,462,77,463,-1,463,77,87,-1,324,554,323,-1,323,554,594,-1,323,594,325,-1,325,594,602,-1,325,602,326,-1,326,602,579,-1,326,579,327,-1,327,579,578,-1,327,578,345,-1,345,578,590,-1,345,590,346,-1,346,590,589,-1,346,589,347,-1,347,589,588,-1,347,588,328,-1,328,588,560,-1,328,560,329,-1,329,560,559,-1,329,559,330,-1,330,559,601,-1,330,601,331,-1,331,601,600,-1,331,600,179,-1,179,600,411,-1,592,366,593,-1,593,366,365,-1,593,365,595,-1,595,365,364,-1,595,364,596,-1,596,364,302,-1,596,302,556,-1,556,302,300,-1,556,300,557,-1,557,300,299,-1,557,299,580,-1,580,299,298,-1,366,592,570,-1,366,570,361,-1,361,570,569,-1,361,569,363,-1,363,569,568,-1,363,568,362,-1,362,568,555,-1,362,555,360,-1,360,555,553,-1,360,553,368,-1,368,553,552,-1,368,552,367,-1,145,175,293,-1,293,175,548,-1,293,548,311,-1,311,548,567,-1,311,567,312,-1,312,567,566,-1,312,566,313,-1,313,566,565,-1,313,565,316,-1,316,565,584,-1,316,584,317,-1,317,584,583,-1,558,296,561,-1,561,296,301,-1,561,301,562,-1,562,301,303,-1,562,303,563,-1,563,303,295,-1,563,295,564,-1,564,295,294,-1,564,294,582,-1,582,294,318,-1,582,318,583,-1,583,318,317,-1,144,142,359,-1,144,359,623,-1,623,359,357,-1,623,357,606,-1,606,357,356,-1,606,356,607,-1,607,356,355,-1,607,355,608,-1,608,355,358,-1,608,358,603,-1,603,358,337,-1,603,337,604,-1,341,577,610,-1,341,610,343,-1,343,610,609,-1,343,609,344,-1,344,609,611,-1,344,611,342,-1,342,611,612,-1,342,612,340,-1,340,612,619,-1,340,619,354,-1,354,619,605,-1,354,605,336,-1,618,339,338,-1,618,338,620,-1,620,338,320,-1,620,320,621,-1,621,320,319,-1,621,319,622,-1,622,319,306,-1,622,306,616,-1,616,306,310,-1,616,310,549,-1,549,310,297,-1,549,297,550,-1,339,618,617,-1,339,617,304,-1,304,617,551,-1,304,551,305,-1,305,551,591,-1,305,591,314,-1,314,591,615,-1,314,615,315,-1,315,615,614,-1,315,614,321,-1,321,614,581,-1,321,581,322,-1,335,599,287,-1,287,599,524,-1,287,524,285,-1,285,524,525,-1,285,525,279,-1,279,525,526,-1,279,526,276,-1,276,526,527,-1,276,527,528,-1,307,141,574,-1,574,141,143,-1,274,267,534,-1,534,267,538,-1,262,544,543,-1,281,280,522,-1,522,280,277,-1,522,277,523,-1,523,277,276,-1,523,276,528,-1,281,522,282,-1,282,522,546,-1,282,546,262,-1,262,546,545,-1,262,545,544,-1,538,267,540,-1,540,267,266,-1,540,266,541,-1,541,266,265,-1,541,265,542,-1,542,265,264,-1,542,264,543,-1,543,264,263,-1,543,263,262,-1,307,574,309,-1,309,574,572,-1,309,572,351,-1,351,572,571,-1,351,571,350,-1,350,571,613,-1,350,613,332,-1,332,613,587,-1,332,587,334,-1,334,587,598,-1,334,598,335,-1,335,598,599,-1,481,480,240,-1,240,480,239,-1,501,520,243,-1,243,520,244,-1,639,640,641,-1,641,640,642,-1,641,642,643,-1,643,642,644,-1,643,644,470,-1,470,644,208,-1,470,208,475,-1,475,208,217,-1,475,217,645,-1,645,217,646,-1,645,646,647,-1,647,646,648,-1,647,648,649,-1,649,648,650,-1,651,652,649,-1,649,652,653,-1,649,653,647,-1,647,653,654,-1,647,654,655,-1,651,649,656,-1,656,649,657,-1,656,657,658,-1,659,660,661,-1,661,660,662,-1,653,663,654,-1,654,663,660,-1,654,660,664,-1,664,660,659,-1,665,666,653,-1,653,666,663,-1,650,648,667,-1,667,668,650,-1,650,668,666,-1,650,666,665,-1,650,669,670,-1,670,669,671,-1,672,673,674,-1,665,675,650,-1,650,675,676,-1,650,676,669,-1,668,677,666,-1,666,677,672,-1,666,672,678,-1,678,672,674,-1,667,648,646,-1,217,219,679,-1,679,680,217,-1,217,680,681,-1,217,681,646,-1,646,681,682,-1,646,682,667,-1,683,476,475,-1,645,647,655,-1,655,684,645,-1,645,684,685,-1,645,685,475,-1,475,685,686,-1,475,686,683,-1,655,654,668,-1,681,684,682,-1,682,684,655,-1,682,655,667,-1,667,655,668,-1,665,653,652,-1,665,652,675,-1,675,652,651,-1,675,651,676,-1,676,651,656,-1,676,656,669,-1,669,656,658,-1,669,658,671,-1,671,658,657,-1,671,657,670,-1,670,657,649,-1,670,649,650,-1,481,240,251,-1,481,251,510,-1,510,251,250,-1,510,250,504,-1,504,250,249,-1,504,249,505,-1,505,249,242,-1,505,242,506,-1,506,242,241,-1,506,241,482,-1,482,241,137,-1,482,137,136,-1,663,666,678,-1,663,678,660,-1,660,678,674,-1,660,674,662,-1,662,674,673,-1,662,673,661,-1,661,673,672,-1,661,672,659,-1,659,672,677,-1,659,677,664,-1,664,677,668,-1,664,668,654,-1,239,480,238,-1,238,480,479,-1,238,479,210,-1,210,479,478,-1,210,478,211,-1,211,478,477,-1,211,477,213,-1,213,477,503,-1,213,503,214,-1,214,503,502,-1,214,502,243,-1,243,502,501,-1,127,129,206,-1,206,129,469,-1,206,469,215,-1,215,469,468,-1,215,468,216,-1,216,468,471,-1,216,471,218,-1,218,471,474,-1,218,474,219,-1,219,474,476,-1,219,476,687,-1,687,476,683,-1,687,683,680,-1,680,683,686,-1,680,686,681,-1,681,686,685,-1,681,685,684,-1,130,128,483,-1,483,128,235,-1,483,235,516,-1,516,235,248,-1,516,248,515,-1,515,248,247,-1,515,247,518,-1,518,247,246,-1,518,246,519,-1,519,246,245,-1,519,245,520,-1,520,245,244,-1,260,232,488,-1,488,232,521,-1,228,496,226,-1,226,496,498,-1,226,498,688,-1,688,498,689,-1,688,689,690,-1,690,689,691,-1,690,691,692,-1,692,691,693,-1,694,695,696,-1,696,695,697,-1,58,57,376,-1,58,376,698,-1,698,376,374,-1,698,374,699,-1,699,374,372,-1,699,372,700,-1,700,372,370,-1,700,370,701,-1,701,370,394,-1,701,394,702,-1,702,394,393,-1,702,393,703,-1,703,393,391,-1,703,391,704,-1,704,391,389,-1,704,389,705,-1,706,388,707,-1,707,388,390,-1,707,390,708,-1,708,390,392,-1,708,392,709,-1,709,392,369,-1,709,369,710,-1,710,369,371,-1,710,371,711,-1,711,371,373,-1,711,373,712,-1,712,373,375,-1,712,375,443,-1,443,375,377,-1,44,66,713,-1,714,715,716,-1,716,715,717,-1,716,717,718,-1,718,719,716,-1,716,719,720,-1,716,720,721,-1,721,722,716,-1,716,722,723,-1,716,723,724,-1,724,725,716,-1,716,725,726,-1,716,726,727,-1,727,726,624,-1,624,626,727,-1,727,626,628,-1,727,628,728,-1,728,628,630,-1,728,630,729,-1,729,630,632,-1,729,632,730,-1,730,632,638,-1,730,638,731,-1,731,638,637,-1,731,637,732,-1,732,637,635,-1,732,635,713,-1,713,635,42,-1,713,42,44,-1,383,733,385,-1,385,733,734,-1,385,734,387,-1,735,736,381,-1,381,736,737,-1,381,737,383,-1,383,737,738,-1,383,738,733,-1,739,740,741,-1,741,740,742,-1,742,743,741,-1,741,743,744,-1,741,744,745,-1,746,747,741,-1,741,747,748,-1,741,748,739,-1,745,749,741,-1,741,749,750,-1,741,750,746,-1,751,752,379,-1,379,752,753,-1,379,753,754,-1,754,755,379,-1,379,755,756,-1,379,756,381,-1,381,756,757,-1,381,757,735,-1,749,751,750,-1,750,751,379,-1,750,379,693,-1,693,379,408,-1,693,408,692,-1,692,408,407,-1,692,407,690,-1,690,407,405,-1,690,405,688,-1,688,405,222,-1,688,222,226,-1,705,389,758,-1,758,389,387,-1,759,760,761,-1,761,760,762,-1,763,764,765,-1,766,767,768,-1,766,769,734,-1,734,769,770,-1,734,770,771,-1,765,764,772,-1,772,764,773,-1,772,773,774,-1,762,775,761,-1,761,775,776,-1,761,776,777,-1,778,779,780,-1,771,781,734,-1,734,781,782,-1,734,782,387,-1,387,782,783,-1,387,783,784,-1,784,785,387,-1,387,785,786,-1,387,786,758,-1,734,787,788,-1,788,787,789,-1,788,789,790,-1,791,792,695,-1,695,792,793,-1,695,793,794,-1,794,793,780,-1,794,780,795,-1,795,780,779,-1,796,797,734,-1,734,797,798,-1,734,798,799,-1,799,800,734,-1,734,800,801,-1,734,801,766,-1,766,801,802,-1,766,802,767,-1,803,804,805,-1,777,806,761,-1,761,806,807,-1,761,807,808,-1,808,807,809,-1,808,809,810,-1,811,812,694,-1,716,796,714,-1,714,796,734,-1,714,734,813,-1,813,734,788,-1,803,805,814,-1,778,780,790,-1,790,780,815,-1,790,815,788,-1,768,816,766,-1,766,816,808,-1,766,808,765,-1,765,808,810,-1,765,810,763,-1,804,817,805,-1,805,817,818,-1,805,818,819,-1,820,821,774,-1,774,821,822,-1,774,822,772,-1,823,824,825,-1,826,827,828,-1,828,827,791,-1,828,791,829,-1,820,774,805,-1,805,774,830,-1,805,830,814,-1,694,812,695,-1,695,812,831,-1,695,831,791,-1,791,831,832,-1,791,832,829,-1,811,694,825,-1,825,694,833,-1,825,833,823,-1,834,835,836,-1,837,625,836,-1,836,625,838,-1,836,838,834,-1,835,839,836,-1,836,839,840,-1,836,840,841,-1,841,842,836,-1,836,842,843,-1,836,843,844,-1,844,845,836,-1,836,845,846,-1,836,846,847,-1,444,446,848,-1,848,446,634,-1,848,634,849,-1,849,634,636,-1,849,636,850,-1,850,636,633,-1,850,633,851,-1,851,633,631,-1,851,631,852,-1,852,631,629,-1,852,629,837,-1,837,629,627,-1,837,627,625,-1,853,854,855,-1,378,856,406,-1,406,856,857,-1,406,857,858,-1,858,859,406,-1,406,859,860,-1,406,860,861,-1,855,854,861,-1,862,863,864,-1,864,863,865,-1,864,865,853,-1,866,867,864,-1,864,867,868,-1,864,868,862,-1,853,855,864,-1,864,855,869,-1,864,869,866,-1,870,871,378,-1,378,871,872,-1,378,872,856,-1,386,873,384,-1,384,873,874,-1,384,874,382,-1,382,874,875,-1,382,875,380,-1,380,875,876,-1,380,876,378,-1,378,876,877,-1,378,877,870,-1,861,854,406,-1,406,854,878,-1,406,878,404,-1,498,403,689,-1,689,403,404,-1,689,404,691,-1,691,404,878,-1,879,880,881,-1,388,706,386,-1,386,706,882,-1,883,884,873,-1,879,881,885,-1,885,881,886,-1,885,886,887,-1,888,889,884,-1,888,884,890,-1,891,873,892,-1,882,893,386,-1,386,893,894,-1,386,894,895,-1,895,896,386,-1,386,896,897,-1,386,897,873,-1,873,897,898,-1,873,898,883,-1,892,873,899,-1,887,886,900,-1,900,886,901,-1,900,901,902,-1,902,901,903,-1,902,903,904,-1,905,906,907,-1,907,906,908,-1,908,909,907,-1,907,909,910,-1,907,910,911,-1,912,913,914,-1,904,915,902,-1,902,915,907,-1,902,907,916,-1,916,907,911,-1,880,917,884,-1,884,917,918,-1,884,918,890,-1,889,919,884,-1,884,919,920,-1,884,920,873,-1,873,920,921,-1,873,921,922,-1,922,923,873,-1,873,923,924,-1,873,924,925,-1,926,697,927,-1,927,697,928,-1,927,928,929,-1,914,913,930,-1,931,932,933,-1,934,935,696,-1,925,836,873,-1,873,836,847,-1,873,847,899,-1,929,936,927,-1,927,936,937,-1,927,937,938,-1,938,937,939,-1,938,939,892,-1,892,939,940,-1,892,940,891,-1,931,933,914,-1,914,933,941,-1,914,941,912,-1,926,930,697,-1,697,930,913,-1,697,913,696,-1,696,913,942,-1,696,942,934,-1,879,943,880,-1,880,943,944,-1,880,944,917,-1,917,944,945,-1,917,945,946,-1,946,945,947,-1,946,947,948,-1,948,949,946,-1,946,949,950,-1,946,950,951,-1,952,953,935,-1,935,953,954,-1,935,954,696,-1,464,465,68,-1,68,465,69,-1,705,706,704,-1,704,706,707,-1,704,707,703,-1,703,707,708,-1,703,708,702,-1,702,708,709,-1,702,709,701,-1,701,709,710,-1,442,56,443,-1,443,56,58,-1,443,58,712,-1,712,58,698,-1,712,698,711,-1,711,698,699,-1,711,699,710,-1,710,699,700,-1,710,700,701,-1,836,716,837,-1,837,716,727,-1,837,727,852,-1,852,727,728,-1,852,728,851,-1,65,445,66,-1,66,445,444,-1,66,444,713,-1,713,444,848,-1,713,848,732,-1,732,848,849,-1,732,849,731,-1,731,849,850,-1,731,850,730,-1,730,850,851,-1,730,851,729,-1,729,851,728,-1,900,902,773,-1,773,902,774,-1,765,772,886,-1,886,772,901,-1,759,761,946,-1,946,761,917,-1,831,812,913,-1,913,812,942,-1,792,791,930,-1,930,791,914,-1,847,714,899,-1,899,714,813,-1,899,813,892,-1,892,813,788,-1,892,788,938,-1,938,788,815,-1,938,815,927,-1,927,815,780,-1,927,780,926,-1,926,780,793,-1,926,793,930,-1,930,793,792,-1,714,847,715,-1,715,847,846,-1,715,846,717,-1,717,846,845,-1,717,845,718,-1,718,845,844,-1,718,844,719,-1,719,844,843,-1,719,843,720,-1,720,843,842,-1,720,842,721,-1,721,842,841,-1,721,841,722,-1,722,841,840,-1,722,840,723,-1,723,840,839,-1,723,839,724,-1,724,839,835,-1,724,835,725,-1,725,835,834,-1,725,834,726,-1,726,834,838,-1,726,838,624,-1,624,838,625,-1,69,465,62,-1,62,465,438,-1,62,438,52,-1,52,438,439,-1,52,439,53,-1,53,439,440,-1,53,440,63,-1,63,440,448,-1,63,448,64,-1,64,448,447,-1,64,447,65,-1,65,447,445,-1,464,68,451,-1,451,68,67,-1,451,67,452,-1,452,67,61,-1,452,61,453,-1,453,61,60,-1,453,60,437,-1,437,60,59,-1,437,59,441,-1,441,59,54,-1,441,54,442,-1,442,54,56,-1,801,920,802,-1,802,920,919,-1,802,919,767,-1,767,919,889,-1,767,889,768,-1,768,889,888,-1,768,888,816,-1,816,888,890,-1,816,890,808,-1,808,890,918,-1,808,918,761,-1,761,918,917,-1,716,836,796,-1,796,836,925,-1,796,925,797,-1,797,925,924,-1,797,924,798,-1,798,924,923,-1,798,923,799,-1,799,923,922,-1,799,922,800,-1,800,922,921,-1,800,921,801,-1,801,921,920,-1,900,773,887,-1,887,773,764,-1,887,764,885,-1,885,764,763,-1,885,763,879,-1,879,763,810,-1,879,810,943,-1,943,810,809,-1,943,809,944,-1,944,809,807,-1,944,807,945,-1,945,807,806,-1,759,946,951,-1,759,951,760,-1,760,951,950,-1,760,950,762,-1,762,950,949,-1,762,949,775,-1,775,949,948,-1,775,948,776,-1,776,948,947,-1,776,947,777,-1,777,947,945,-1,777,945,806,-1,782,897,783,-1,783,897,896,-1,783,896,784,-1,784,896,895,-1,784,895,785,-1,785,895,894,-1,785,894,786,-1,786,894,893,-1,786,893,758,-1,758,893,882,-1,758,882,705,-1,705,882,706,-1,897,782,898,-1,898,782,781,-1,898,781,883,-1,883,781,771,-1,883,771,884,-1,884,771,770,-1,884,770,880,-1,880,770,769,-1,880,769,881,-1,881,769,766,-1,881,766,886,-1,886,766,765,-1,942,812,811,-1,942,811,934,-1,934,811,825,-1,934,825,935,-1,935,825,824,-1,935,824,952,-1,952,824,823,-1,952,823,953,-1,953,823,833,-1,953,833,954,-1,954,833,694,-1,954,694,696,-1,831,913,912,-1,831,912,832,-1,832,912,941,-1,832,941,829,-1,829,941,933,-1,829,933,828,-1,828,933,932,-1,828,932,826,-1,826,932,931,-1,826,931,827,-1,827,931,914,-1,827,914,791,-1,901,772,822,-1,901,822,903,-1,903,822,821,-1,903,821,904,-1,904,821,820,-1,904,820,915,-1,915,820,805,-1,915,805,907,-1,907,805,819,-1,907,819,905,-1,905,819,818,-1,905,818,906,-1,774,902,916,-1,774,916,830,-1,830,916,911,-1,830,911,814,-1,814,911,910,-1,814,910,803,-1,803,910,909,-1,803,909,804,-1,804,909,908,-1,804,908,817,-1,817,908,906,-1,817,906,818,-1,877,876,737,-1,737,876,875,-1,737,875,738,-1,738,875,874,-1,891,787,873,-1,873,787,734,-1,873,734,874,-1,874,734,733,-1,874,733,738,-1,695,794,697,-1,697,794,928,-1,869,855,745,-1,745,855,749,-1,749,855,861,-1,749,861,751,-1,751,861,860,-1,751,860,752,-1,752,860,859,-1,752,859,753,-1,753,859,858,-1,753,858,754,-1,754,858,857,-1,754,857,755,-1,755,857,856,-1,755,856,756,-1,756,856,872,-1,756,872,757,-1,757,872,871,-1,757,871,735,-1,735,871,870,-1,735,870,736,-1,736,870,877,-1,736,877,737,-1,787,891,789,-1,789,891,940,-1,789,940,790,-1,790,940,939,-1,790,939,778,-1,778,939,937,-1,778,937,779,-1,779,937,936,-1,779,936,795,-1,795,936,929,-1,795,929,794,-1,794,929,928,-1,497,495,227,-1,227,495,229,-1,509,508,253,-1,253,508,254,-1,639,641,955,-1,955,956,639,-1,639,956,957,-1,639,957,958,-1,959,960,961,-1,958,962,639,-1,639,962,959,-1,639,959,963,-1,963,959,961,-1,956,964,957,-1,957,964,965,-1,957,965,966,-1,966,965,967,-1,966,967,968,-1,969,970,957,-1,957,970,958,-1,971,642,972,-1,972,642,640,-1,973,974,975,-1,969,972,970,-1,970,972,640,-1,970,640,976,-1,976,640,975,-1,975,640,977,-1,975,977,973,-1,978,979,980,-1,980,979,981,-1,980,981,969,-1,969,981,982,-1,969,982,972,-1,983,984,208,-1,984,985,208,-1,208,985,986,-1,208,986,209,-1,208,644,983,-1,983,644,642,-1,983,642,971,-1,493,987,470,-1,470,987,988,-1,470,988,643,-1,643,988,989,-1,643,989,641,-1,641,989,990,-1,641,990,955,-1,972,956,971,-1,971,956,955,-1,971,955,983,-1,983,955,990,-1,983,990,984,-1,640,639,963,-1,640,963,977,-1,977,963,961,-1,977,961,973,-1,973,961,960,-1,973,960,974,-1,974,960,959,-1,974,959,975,-1,975,959,962,-1,975,962,976,-1,976,962,958,-1,976,958,970,-1,496,228,259,-1,496,259,511,-1,511,259,257,-1,511,257,512,-1,512,257,256,-1,512,256,514,-1,514,256,255,-1,514,255,513,-1,513,255,258,-1,513,258,494,-1,494,258,229,-1,494,229,495,-1,956,972,982,-1,956,982,964,-1,964,982,981,-1,964,981,965,-1,965,981,979,-1,965,979,967,-1,967,979,978,-1,967,978,968,-1,968,978,980,-1,968,980,966,-1,966,980,969,-1,966,969,957,-1,254,508,220,-1,220,508,507,-1,220,507,221,-1,221,507,473,-1,221,473,223,-1,223,473,472,-1,223,472,224,-1,224,472,500,-1,224,500,225,-1,225,500,499,-1,225,499,227,-1,227,499,497,-1,521,232,489,-1,489,232,231,-1,489,231,490,-1,490,231,230,-1,490,230,491,-1,491,230,205,-1,491,205,492,-1,990,989,984,-1,984,989,988,-1,984,988,985,-1,985,988,987,-1,985,987,991,-1,991,987,493,-1,991,493,209,-1,209,493,492,-1,209,492,207,-1,207,492,205,-1,509,253,517,-1,517,253,252,-1,517,252,484,-1,484,252,237,-1,484,237,485,-1,485,237,236,-1,485,236,486,-1,486,236,234,-1,486,234,487,-1,487,234,233,-1,487,233,488,-1,488,233,260,-1,530,537,271,-1,274,534,275,-1,275,534,533,-1,275,533,273,-1,273,533,532,-1,273,532,268,-1,268,532,531,-1,268,531,269,-1,269,531,530,-1,269,530,272,-1,272,530,271,-1,537,536,271,-1,271,536,535,-1,271,535,270,-1,270,535,288,-1,547,133,135,-1,535,539,288,-1,288,539,547,-1,288,547,289,-1,289,547,135,-1,693,691,750,-1,750,691,878,-1,750,878,746,-1,746,878,854,-1,746,854,747,-1,854,853,747,-1,747,853,865,-1,747,865,748,-1,748,865,863,-1,748,863,739,-1,739,863,862,-1,739,862,740,-1,740,862,868,-1,740,868,742,-1,742,868,867,-1,742,867,743,-1,743,867,866,-1,743,866,744,-1,744,866,869,-1,744,869,745,-1,
        ]
    }
}
Shape{
    appearance Appearance {
        material  Material 	{
            diffuseColor 1.0 1.0 1.0
            specularColor 0.8784313725490196 0.8784313725490196 0.8784313725490196
            ambientIntensity 1.0
            transparency 0.0
            shininess 0.5
        }
    }
    geometry IndexedFaceSet {
        ccw TRUE
        solid FALSE
        coord DEF co Coordinate {
            point [
                0.6674 -0.2393 0.0472, 0.821 0.1544 0.0472, 0.6674 -0.2393 0.0394, 0.821 0.1544 0.0394, 0.7634 0.1544 0.0472, 0.7634 0.1544 0.0394, 0.7236 0.044 0.0472, 0.7236 0.044 0.0394, 0.5609 0.044 0.0472, 0.5609 0.044 0.0394, 0.5233 0.1544 0.0472, 0.5233 0.1544 0.0394, 0.4657 0.1544 0.0472, 0.4657 0.1544 0.0394, 0.6146 -0.2393 0.0472, 0.6146 -0.2393 0.0394, 0.5742 0.0008 0.0472, 0.6329 -0.1636 0.0472, 0.6367 -0.1773 0.0472, 0.6392 -0.1912 0.0472, 0.6405 -0.1912 0.0472, 0.6431 -0.1773 0.0472, 0.7059 0.0008 0.0472, 0.6466 -0.1636 0.0472, 0.5742 0.0008 0.0394, 0.7059 0.0008 0.0394, 0.6329 -0.1636 0.0394, 0.6367 -0.1773 0.0394, 0.6392 -0.1912 0.0394, 0.6405 -0.1912 0.0394, 0.6431 -0.1773 0.0394, 0.6466 -0.1636 0.0394, 0.2271 0.1544 0.0472, 0.12 0.1544 0.0472, 0.2271 0.1544 0.0394, 0.12 0.1544 0.0394, 0.12 -0.2393 0.0472, 0.12 -0.2393 0.0394, 0.2311 -0.2393 0.0472, 0.2311 -0.2393 0.0394, 0.4369 -0.0474 0.0472, 0.4369 -0.0474 0.0394, 0.4347 -0.0805 0.0394, 0.4347 -0.0805 0.0472, 0.4249 -0.1195 0.0394, 0.4249 -0.1195 0.0472, 0.4074 -0.1539 0.0394, 0.4074 -0.1539 0.0472, 0.3807 -0.1849 0.0394, 0.3807 -0.1849 0.0472, 0.3758 -0.1893 0.0394, 0.3758 -0.1893 0.0472, 0.3323 -0.2179 0.0394, 0.3323 -0.2179 0.0472, 0.2862 -0.2336 0.0394, 0.2862 -0.2336 0.0472, 0.2761 0.1501 0.0394, 0.2761 0.1501 0.0472, 0.3215 0.1365 0.0394, 0.3215 0.1365 0.0472, 0.3625 0.1126 0.0394, 0.3625 0.1126 0.0472, 0.3948 0.0815 0.0394, 0.3948 0.0815 0.0472, 0.4174 0.0463 0.0394, 0.4174 0.0463 0.0472, 0.4314 0.0051 0.0394, 0.4314 0.0051 0.0472, 0.3578 -0.141 0.0472, 0.3387 -0.1612 0.0472, 0.3099 -0.1798 0.0472, 0.2773 -0.1911 0.0472, 0.2309 -0.196 0.0472, 0.1728 -0.196 0.0472, 0.1728 0.1112 0.0472, 0.2287 0.1112 0.0472, 0.2703 0.1074 0.0472, 0.3035 0.097 0.0472, 0.3303 0.081 0.0472, 0.3524 0.0592 0.0472, 0.369 0.032 0.0472, 0.3805 -0.005 0.0472, 0.3841 -0.0462 0.0472, 0.3808 -0.0854 0.0472, 0.3715 -0.1167 0.0472, 0.2309 -0.196 0.0394, 0.1728 -0.196 0.0394, 0.2773 -0.1911 0.0394, 0.3099 -0.1798 0.0394, 0.3387 -0.1612 0.0394, 0.3578 -0.141 0.0394, 0.3715 -0.1167 0.0394, 0.3808 -0.0854 0.0394, 0.3841 -0.0462 0.0394, 0.3805 -0.005 0.0394, 0.369 0.032 0.0394, 0.3524 0.0592 0.0394, 0.3303 0.081 0.0394, 0.3035 0.097 0.0394, 0.2703 0.1074 0.0394, 0.2287 0.1112 0.0394, 0.1728 0.1112 0.0394, 0.0432 0.1112 0.0472, 0.0432 0.1544 0.0472, 0.0432 0.1112 0.0394, 0.0432 0.1544 0.0394, -0.168 0.1544 0.0472, -0.168 0.1544 0.0394, -0.168 -0.2393 0.0472, -0.168 -0.2393 0.0394, 0.0336 -0.2393 0.0472, 0.0336 -0.2393 0.0394, 0.0336 -0.196 0.0472, 0.0336 -0.196 0.0394, -0.1152 -0.196 0.0472, -0.1152 -0.196 0.0394, -0.1152 -0.0664 0.0472, -0.1152 -0.0664 0.0394, 0.024 -0.0664 0.0472, 0.024 -0.0664 0.0394, 0.024 -0.0232 0.0472, 0.024 -0.0232 0.0394, -0.1152 -0.0232 0.0472, -0.1152 -0.0232 0.0394, -0.1152 0.1112 0.0472, -0.1152 0.1112 0.0394, -0.2449 0.0908 0.0472, -0.2449 0.134 0.0472, -0.2449 0.0908 0.0394, -0.2449 0.134 0.0394, -0.3532 0.1592 0.0472, -0.3532 0.1592 0.0394, -0.3424 0.1591 0.0394, -0.3424 0.1591 0.0472, -0.2868 0.1513 0.0394, -0.2868 0.1513 0.0472, -0.5377 -0.035 0.0472, -0.5377 -0.035 0.0394, -0.534 0.0104 0.0394, -0.534 0.0104 0.0472, -0.5222 0.0521 0.0394, -0.5222 0.0521 0.0472, -0.5012 0.0896 0.0394, -0.5012 0.0896 0.0472, -0.4717 0.1207 0.0394, -0.4717 0.1207 0.0472, -0.44 0.141 0.0394, -0.44 0.141 0.0472, -0.4017 0.1542 0.0394, -0.4017 0.1542 0.0472, -0.3375 -0.2441 0.0472, -0.3375 -0.2441 0.0394, -0.3782 -0.2406 0.0472, -0.366 -0.2417 0.0394, -0.3782 -0.2406 0.0394, -0.4221 -0.2276 0.0394, -0.4221 -0.2276 0.0472, -0.4594 -0.2058 0.0394, -0.4594 -0.2058 0.0472, -0.4946 -0.1715 0.0394, -0.4946 -0.1715 0.0472, -0.5175 -0.1345 0.0394, -0.5175 -0.1345 0.0472, -0.5325 -0.089 0.0394, -0.5325 -0.089 0.0472, -0.3027 -0.2417 0.0394, -0.2904 -0.2408 0.0472, -0.2904 -0.2408 0.0394, -0.2449 -0.2285 0.0472, -0.2449 -0.2285 0.0394, -0.2449 -0.1756 0.0472, -0.2449 -0.1756 0.0394, -0.3371 -0.2008 0.0472, -0.3371 -0.2008 0.0394, -0.2892 -0.1946 0.0394, -0.2892 -0.1946 0.0472, -0.4849 -0.0382 0.0472, -0.4849 -0.0382 0.0394, -0.483 -0.0688 0.0394, -0.483 -0.0688 0.0472, -0.4726 -0.111 0.0394, -0.4726 -0.111 0.0472, -0.4563 -0.1414 0.0394, -0.4563 -0.1414 0.0472, -0.4325 -0.1676 0.0394, -0.4325 -0.1676 0.0472, -0.4053 -0.1859 0.0394, -0.4053 -0.1859 0.0472, -0.3758 -0.1965 0.0394, -0.3758 -0.1965 0.0472, -0.3459 0.116 0.0472, -0.3459 0.116 0.0394, -0.3828 0.1119 0.0394, -0.3828 0.1119 0.0472, -0.4115 0.1013 0.0394, -0.4115 0.1013 0.0472, -0.4356 0.0849 0.0394, -0.4356 0.0849 0.0472, -0.4539 0.0656 0.0394, -0.4539 0.0656 0.0472, -0.4702 0.0383 0.0394, -0.4702 0.0383 0.0472, -0.4809 0.0044 0.0394, -0.4809 0.0044 0.0472, -0.2519 0.0947 0.0394, -0.2519 0.0947 0.0472, -0.2937 0.1102 0.0394, -0.2937 0.1102 0.0472, -0.5713 0.1112 0.0472, -0.5713 0.1544 0.0472, -0.5713 0.1112 0.0394, -0.5713 0.1544 0.0394, -0.773 0.1544 0.0472, -0.773 0.1544 0.0394, -0.773 -0.2393 0.0472, -0.773 -0.2393 0.0394, -0.7202 -0.2393 0.0472, -0.7202 -0.2393 0.0394, -0.7202 0.1112 0.0472, -0.7202 0.1112 0.0394
            ]
        }
        coordIndex [
            0,1,2,-1,2,1,3,-1,1,4,3,-1,3,4,5,-1,4,6,5,-1,5,6,7,-1,6,8,7,-1,7,8,9,-1,8,10,9,-1,9,10,11,-1,10,12,11,-1,11,12,13,-1,12,14,13,-1,13,14,15,-1,14,0,15,-1,15,0,2,-1,16,17,14,-1,12,10,8,-1,17,18,14,-1,14,18,19,-1,14,19,0,-1,0,19,20,-1,0,20,21,-1,14,12,16,-1,16,12,8,-1,16,8,22,-1,22,8,6,-1,21,23,0,-1,0,23,22,-1,0,22,1,-1,1,22,6,-1,1,6,4,-1,16,22,24,-1,24,22,25,-1,17,16,26,-1,26,16,24,-1,17,26,27,-1,17,27,18,-1,18,27,28,-1,18,28,19,-1,20,19,29,-1,29,19,28,-1,20,29,30,-1,20,30,21,-1,21,30,31,-1,21,31,23,-1,22,23,25,-1,25,23,31,-1,32,33,34,-1,34,33,35,-1,33,36,35,-1,35,36,37,-1,36,38,37,-1,37,38,39,-1,40,41,42,-1,40,42,43,-1,43,42,44,-1,43,44,45,-1,45,44,46,-1,45,46,47,-1,47,46,48,-1,47,48,49,-1,49,48,50,-1,49,50,51,-1,51,50,52,-1,51,52,53,-1,53,52,54,-1,53,54,55,-1,55,54,39,-1,55,39,38,-1,32,34,56,-1,32,56,57,-1,57,56,58,-1,57,58,59,-1,59,58,60,-1,59,60,61,-1,61,60,62,-1,61,62,63,-1,63,62,64,-1,63,64,65,-1,65,64,66,-1,65,66,67,-1,67,66,41,-1,67,41,40,-1,45,47,68,-1,68,47,49,-1,68,49,69,-1,69,49,51,-1,69,51,70,-1,70,51,53,-1,70,53,71,-1,71,53,55,-1,71,55,72,-1,72,55,38,-1,72,38,73,-1,73,38,36,-1,73,36,74,-1,74,36,33,-1,74,33,75,-1,75,33,32,-1,75,32,76,-1,76,32,57,-1,76,57,77,-1,77,57,59,-1,77,59,78,-1,78,59,61,-1,78,61,79,-1,79,61,63,-1,79,63,80,-1,80,63,65,-1,80,65,81,-1,81,65,67,-1,81,67,82,-1,82,67,40,-1,82,40,83,-1,83,40,43,-1,83,43,84,-1,84,43,45,-1,84,45,68,-1,72,73,85,-1,85,73,86,-1,72,85,87,-1,72,87,71,-1,71,87,88,-1,71,88,70,-1,70,88,89,-1,70,89,69,-1,69,89,90,-1,69,90,68,-1,68,90,91,-1,68,91,84,-1,84,91,92,-1,84,92,83,-1,83,92,93,-1,83,93,82,-1,82,93,94,-1,82,94,81,-1,81,94,95,-1,81,95,80,-1,80,95,96,-1,80,96,79,-1,79,96,97,-1,79,97,78,-1,78,97,98,-1,78,98,77,-1,77,98,99,-1,77,99,76,-1,76,99,100,-1,76,100,75,-1,74,75,101,-1,101,75,100,-1,73,74,86,-1,86,74,101,-1,102,103,104,-1,104,103,105,-1,103,106,105,-1,105,106,107,-1,106,108,107,-1,107,108,109,-1,108,110,109,-1,109,110,111,-1,110,112,111,-1,111,112,113,-1,112,114,113,-1,113,114,115,-1,114,116,115,-1,115,116,117,-1,116,118,117,-1,117,118,119,-1,118,120,119,-1,119,120,121,-1,120,122,121,-1,121,122,123,-1,122,124,123,-1,123,124,125,-1,124,102,125,-1,125,102,104,-1,106,103,102,-1,102,124,106,-1,106,124,122,-1,106,122,108,-1,112,110,114,-1,114,110,108,-1,114,108,116,-1,116,108,122,-1,116,122,118,-1,118,122,120,-1,126,127,128,-1,128,127,129,-1,130,131,132,-1,130,132,133,-1,133,132,134,-1,133,134,135,-1,135,134,129,-1,135,129,127,-1,136,137,138,-1,136,138,139,-1,139,138,140,-1,139,140,141,-1,141,140,142,-1,141,142,143,-1,143,142,144,-1,143,144,145,-1,145,144,146,-1,145,146,147,-1,147,146,148,-1,147,148,149,-1,149,148,131,-1,149,131,130,-1,150,151,152,-1,152,151,153,-1,153,154,152,-1,152,154,155,-1,152,155,156,-1,156,155,157,-1,156,157,158,-1,158,157,159,-1,158,159,160,-1,160,159,161,-1,160,161,162,-1,162,161,163,-1,162,163,164,-1,164,163,137,-1,164,137,136,-1,151,150,165,-1,165,150,166,-1,165,166,167,-1,167,166,168,-1,167,168,169,-1,168,170,169,-1,169,170,171,-1,172,173,174,-1,172,174,175,-1,175,174,171,-1,175,171,170,-1,176,177,178,-1,176,178,179,-1,179,178,180,-1,179,180,181,-1,181,180,182,-1,181,182,183,-1,183,182,184,-1,183,184,185,-1,185,184,186,-1,185,186,187,-1,187,186,188,-1,187,188,189,-1,189,188,173,-1,189,173,172,-1,190,191,192,-1,190,192,193,-1,193,192,194,-1,193,194,195,-1,195,194,196,-1,195,196,197,-1,197,196,198,-1,197,198,199,-1,199,198,200,-1,199,200,201,-1,201,200,202,-1,201,202,203,-1,203,202,177,-1,203,177,176,-1,126,128,204,-1,126,204,205,-1,205,204,206,-1,205,206,207,-1,207,206,191,-1,207,191,190,-1,193,130,190,-1,190,130,133,-1,190,133,207,-1,207,133,135,-1,207,135,205,-1,205,135,127,-1,205,127,126,-1,170,168,175,-1,175,168,166,-1,175,166,172,-1,172,166,150,-1,172,150,189,-1,189,150,152,-1,189,152,187,-1,187,152,156,-1,187,156,185,-1,185,156,158,-1,185,158,183,-1,183,158,160,-1,183,160,181,-1,181,160,162,-1,181,162,179,-1,179,162,164,-1,179,164,176,-1,176,164,136,-1,176,136,203,-1,203,136,139,-1,203,139,201,-1,201,139,141,-1,201,141,199,-1,199,141,143,-1,199,143,197,-1,197,143,145,-1,197,145,195,-1,195,145,147,-1,195,147,193,-1,193,147,149,-1,193,149,130,-1,208,209,210,-1,210,209,211,-1,209,212,211,-1,211,212,213,-1,212,214,213,-1,213,214,215,-1,214,216,215,-1,215,216,217,-1,216,218,217,-1,217,218,219,-1,218,208,219,-1,219,208,210,-1,216,214,218,-1,218,214,212,-1,218,212,208,-1,208,212,209,-1,
        ]
    }
}
Shape{
    appearance Appearance {
        material  Material 	{
            diffuseColor 0.6666666666666666 0.6666666666666666 0.6666666666666666
            specularColor 0.4666666666666667 0.4666666666666667 0.4666666666666667
            ambientIntensity 0.6667
            transparency 0.0
            shininess 0.5
        }
    }
    geometry IndexedFaceSet {
        ccw TRUE
        solid FALSE
        coord DEF co Coordinate {
            point [
                0.5742 0.0008 0.0394, 0.7059 0.0008 0.0394, 0.6329 -0.1636 0.0394, 0.6466 -0.1636 0.0394, 0.6367 -0.1773 0.0394, 0.6431 -0.1773 0.0394, 0.6392 -0.1912 0.0394, 0.6405 -0.1912 0.0394, 0.1728 -0.196 0.0394, 0.1728 0.1112 0.0394, 0.2309 -0.196 0.0394, 0.2287 0.1112 0.0394, 0.2703 0.1074 0.0394, 0.3841 -0.0462 0.0394, 0.3808 -0.0854 0.0394, 0.3715 -0.1167 0.0394, 0.2773 -0.1911 0.0394, 0.3035 0.097 0.0394, 0.3303 0.081 0.0394, 0.3524 0.0592 0.0394, 0.369 0.032 0.0394, 0.3805 -0.005 0.0394, 0.3578 -0.141 0.0394, 0.3387 -0.1612 0.0394, 0.3099 -0.1798 0.0394
            ]
        }
        coordIndex [
            0,1,2,-1,2,1,3,-1,2,3,4,-1,4,3,5,-1,4,5,6,-1,6,5,7,-1,8,9,10,-1,10,9,11,-1,10,11,12,-1,13,14,10,-1,10,14,15,-1,10,15,16,-1,12,17,10,-1,10,17,18,-1,10,18,19,-1,19,20,10,-1,10,20,21,-1,10,21,13,-1,22,23,15,-1,15,23,24,-1,15,24,16,-1,
        ]
    }
}
Shape{
    appearance Appearance {
        material  Material 	{
            diffuseColor 0.6352941176470588 0.30980392156862746 0.023529411764705882
            specularColor 0.047058823529411764 0.023529411764705882 0.0
            ambientIntensity 0.5357
            transparency 0.0
            shininess 0.5
        }
    }
    geometry IndexedFaceSet {
        ccw TRUE
        solid FALSE
        coord DEF co Coordinate {
            point [
                -1.6417 0.6642 0.7913, -1.6417 -0.013 0.7913, -1.6324 -0.013 0.8746, -1.6324 0.6642 0.8746, -1.6047 -0.013 0.9536, -1.6047 0.6642 0.9536, -1.5601 -0.013 1.0245, -1.5601 0.6642 1.0245, -1.5083 0.6849 1.0777, -1.5248 0.6737 1.063, -1.5009 -0.013 1.0838, -1.5417 0.6666 1.0459, -1.5577 0.6642 1.0276, -1.4812 0.9122 1.0984, -1.4812 0.735 1.0984, -1.43 0.9122 1.1283, -1.4821 0.7256 1.0978, -1.43 -0.013 1.1283, -1.4847 0.7167 1.096, -1.4889 0.7076 1.0929, -1.4943 0.6996 1.0889, -1.5008 0.6927 1.0837, -1.3509 -0.013 1.156, -1.3509 0.9122 1.156, -1.2677 -0.013 1.1654, -1.2677 0.9122 1.1654, -1.6417 -0.013 0.5315, -1.6417 0.3413 0.5315, -1.6417 0.6642 0.752, -1.6417 0.6666 0.7336, -1.6417 0.6737 0.7165, -1.6417 0.3413 0.0394, -1.6417 0.6849 0.7019, -1.6417 0.6996 0.6906, -1.6417 0.7167 0.6835, -1.6417 0.9122 0.0394, -1.6417 0.735 0.6811, -1.6417 0.9122 0.6811, 1.378 -0.0524 0.7992, 1.378 -1.2862 0.7992, 1.378 -0.0524 0.5236, 1.378 -1.2862 0.5236, -1.378 -0.0524 0.7992, -1.378 -1.2862 0.7992, -1.2152 -1.5681 0.7992, 1.2152 -1.5681 0.7992, -1.378 -0.0524 0.5236, -1.378 -1.2862 0.5236, 1.2152 -1.5681 0.5236, -1.2152 -1.5681 0.5236, 1.1811 -1.6272 0.5827, 1.1811 -1.6272 0.7402, -1.1811 -1.6272 0.5827, -1.1811 -1.6272 0.7402, 1.5692 -0.0524 0.3863, 1.594 -0.0524 0.457, 1.6024 -0.0524 0.5315, 1.6024 -0.0524 0.7913, 1.594 -0.0524 0.8658, -1.4129 -0.0524 0.23, -1.4764 -0.0524 0.2699, -1.5294 -0.0524 0.3228, 1.3422 -0.0524 0.2052, 1.4129 -0.0524 0.23, -1.3422 -0.0524 0.2052, -1.2677 -0.0524 0.1969, 1.2677 -0.0524 0.1969, 1.4764 -0.0524 0.2699, 1.5294 -0.0524 0.3228, -1.6024 -0.0524 0.5315, -1.6024 -0.0524 0.7913, -1.594 -0.0524 0.457, -1.5692 -0.0524 0.3863, 1.2677 -0.0524 1.126, -1.2677 -0.0524 1.126, -1.3422 -0.0524 1.1176, -1.4129 -0.0524 1.0928, -1.4764 -0.0524 1.053, -1.5294 -0.0524 1.0, -1.5692 -0.0524 0.9365, -1.594 -0.0524 0.8658, 1.5692 -0.0524 0.9365, 1.5294 -0.0524 1.0, 1.4764 -0.0524 1.053, 1.4129 -0.0524 1.0928, 1.3422 -0.0524 1.1176, -1.6324 0.3413 0.4483, -1.6324 -0.013 0.4483, -1.6047 0.3413 0.3692, -1.6047 -0.013 0.3692, -1.5601 0.3413 0.2983, -1.5601 -0.013 0.2983, -1.5009 0.3413 0.2391, -1.5009 -0.013 0.2391, -1.43 0.3413 0.1945, -1.43 -0.013 0.1945, -1.3509 0.3413 0.1669, -1.3509 -0.013 0.1669, -1.2677 0.3413 0.1575, -1.2677 -0.013 0.1575, 1.2677 -0.013 0.1575, 1.2677 0.3413 0.1575, 1.3509 0.3413 0.1669, 1.3509 -0.013 0.1669, 1.43 0.3413 0.1945, 1.43 -0.013 0.1945, 1.5009 0.3413 0.2391, 1.5009 -0.013 0.2391, 1.5601 0.3413 0.2983, 1.5601 -0.013 0.2983, 1.6047 0.3413 0.3692, 1.6047 -0.013 0.3692, 1.6324 0.3413 0.4483, 1.6324 -0.013 0.4483, 1.6417 0.3413 0.5315, 1.6417 -0.013 0.5315, -1.7598 0.9122 0.6811, -1.7598 0.9122 1.0984, -1.3248 0.9122 0.0591, -1.3248 0.9122 0.0394, 1.6417 0.9122 0.0394, 1.3248 0.9122 0.0394, 1.3248 0.9122 0.0591, 1.1496 0.9122 0.8701, 1.1496 0.9122 1.1654, 1.6417 0.9122 0.6811, 1.2677 0.9122 1.1654, 1.7598 0.9122 1.0984, 1.7598 0.9122 0.6811, 1.4812 0.9122 1.0984, 1.1673 0.9122 0.0591, -0.4907 0.9122 1.1575, 0.4907 0.9122 1.1575, 1.0075 0.9122 0.8701, 0.8524 0.9122 0.0591, 0.8524 0.9122 0.0394, 0.7283 0.9122 0.0394, 1.3509 0.9122 1.156, 1.43 0.9122 1.1283, 0.5091 0.9122 1.1551, 0.5261 0.9122 1.148, 0.7283 0.9122 0.0591, 1.0098 0.9122 0.0591, 1.0098 0.9122 0.0394, 1.1673 0.9122 0.0394, 0.6496 0.9122 0.0394, 0.5315 0.9122 0.0394, 0.6496 0.9122 0.0591, 0.5315 0.9122 0.0591, -0.503 0.9122 1.1564, 0.4528 0.9122 0.0591, -0.515 0.9122 1.1532, -0.5261 0.9122 1.148, 0.4528 0.9122 0.0394, 0.3346 0.9122 0.0394, 0.3346 0.9122 0.0591, 0.2559 0.9122 0.0394, 0.1378 0.9122 0.0394, 0.2559 0.9122 0.0591, 0.1378 0.9122 0.0591, 0.0591 0.9122 0.0591, 0.0591 0.9122 0.0394, -0.0591 0.9122 0.0394, -0.0591 0.9122 0.0591, -1.0075 0.9122 0.8701, -0.1378 0.9122 0.0394, -0.2559 0.9122 0.0394, -0.1378 0.9122 0.0591, -0.2559 0.9122 0.0591, -0.3346 0.9122 0.0591, -1.1496 0.9122 0.8701, -0.5315 0.9122 0.0591, -0.5315 0.9122 0.0394, -0.6496 0.9122 0.0394, -0.6496 0.9122 0.0591, -0.7283 0.9122 0.0591, -0.4528 0.9122 0.0591, -0.4528 0.9122 0.0394, -0.3346 0.9122 0.0394, -0.7283 0.9122 0.0394, -0.8524 0.9122 0.0394, -0.8524 0.9122 0.0591, -1.0098 0.9122 0.0591, -1.1673 0.9122 0.0591, -1.0098 0.9122 0.0394, -1.1673 0.9122 0.0394, -1.1496 0.9122 1.1654, -1.3248 0.7665 0.0394, -1.0526 0.5677 0.0394, -1.0098 0.7665 0.0394, -1.0427 0.544 0.0394, -1.0394 0.5185 0.0394, 1.3248 0.7665 0.0394, 1.6417 0.3413 0.0394, -0.6496 0.7665 0.0394, -1.2362 0.5185 0.0394, -1.2329 0.493 0.0394, -0.5315 0.7665 0.0394, -0.4528 0.7665 0.0394, 1.1123 0.4234 0.0394, -1.2074 0.5881 0.0394, -1.223 0.5677 0.0394, -0.7283 0.7665 0.0394, -0.8524 0.7665 0.0394, -1.223 0.4693 0.0394, -1.2074 0.4489 0.0394, -1.187 0.4333 0.0394, -1.2329 0.544 0.0394, -1.0886 0.4333 0.0394, -1.0682 0.4489 0.0394, -1.0526 0.4693 0.0394, -1.0427 0.493 0.0394, -0.2559 0.7665 0.0394, -1.0682 0.5881 0.0394, -1.0886 0.6037 0.0394, -1.1123 0.6136 0.0394, -1.1378 0.6169 0.0394, -1.1673 0.7665 0.0394, -1.1633 0.6136 0.0394, -1.187 0.6037 0.0394, -1.1633 0.4234 0.0394, -1.1378 0.4201 0.0394, -1.1123 0.4234 0.0394, 1.187 0.4333 0.0394, 1.2074 0.4489 0.0394, 1.223 0.4693 0.0394, 1.2329 0.493 0.0394, -0.1378 0.7665 0.0394, -0.0591 0.7665 0.0394, 1.223 0.5677 0.0394, 1.2329 0.544 0.0394, 1.2362 0.5185 0.0394, 1.2074 0.5881 0.0394, 1.187 0.6037 0.0394, 1.1673 0.7665 0.0394, -0.3346 0.7665 0.0394, 1.1378 0.4201 0.0394, 1.1633 0.4234 0.0394, 0.1378 0.7665 0.0394, 0.2559 0.7665 0.0394, 0.0591 0.7665 0.0394, 1.0886 0.4333 0.0394, 0.3346 0.7665 0.0394, 0.5315 0.7665 0.0394, 0.6496 0.7665 0.0394, 0.4528 0.7665 0.0394, 1.0682 0.4489 0.0394, 0.7283 0.7665 0.0394, 0.8524 0.7665 0.0394, 1.1633 0.6136 0.0394, 1.1378 0.6169 0.0394, 1.0098 0.7665 0.0394, 1.0427 0.544 0.0394, 1.0394 0.5185 0.0394, 1.1123 0.6136 0.0394, 1.0886 0.6037 0.0394, 1.0682 0.5881 0.0394, 1.0526 0.5677 0.0394, 1.0427 0.493 0.0394, 1.0526 0.4693 0.0394, 1.6417 -0.013 0.7913, 1.6417 0.6642 0.7913, 1.6417 0.6642 0.752, 1.6417 0.6666 0.7336, 1.6417 0.7167 0.6835, 1.6417 0.735 0.6811, 1.6417 0.6996 0.6906, 1.6417 0.6849 0.7019, 1.6417 0.6737 0.7165, 1.4812 0.735 1.0984, 1.5152 0.6796 1.0717, 1.5009 -0.013 1.0838, 1.5297 0.6712 1.0583, 1.5441 0.6659 1.0433, 1.5577 0.6642 1.0276, 1.5601 -0.013 1.0245, 1.5601 0.6642 1.0245, 1.6047 -0.013 0.9536, 1.6047 0.6642 0.9536, 1.6324 -0.013 0.8746, 1.6324 0.6642 0.8746, 1.4838 0.7193 1.0966, 1.4819 0.727 1.098, 1.43 -0.013 1.1283, 1.4869 0.7114 1.0944, 1.502 0.691 1.0829, 1.5009 0.6919 1.0838, 1.491 0.7043 1.0914, 1.3509 -0.013 1.156, 1.2677 -0.013 1.1654, 1.1496 0.6563 1.1654, -1.1496 0.6563 1.1654, 1.1496 0.6563 0.8701, 1.0075 0.6563 0.8701, 0.5261 0.6563 1.148, 0.5091 0.6563 1.1551, -1.0075 0.6563 0.8701, -1.1496 0.6563 0.8701, -0.5261 0.6563 1.148, -0.515 0.6563 1.1532, 0.4907 0.6563 1.1575, -0.4907 0.6563 1.1575, -0.503 0.6563 1.1564, 1.7598 0.735 0.6811, 1.7598 0.7167 0.6835, 1.7598 0.6996 0.6906, 1.7598 0.6849 0.7019, 1.7598 0.6737 0.7165, 1.7598 0.6666 0.7336, 1.7598 0.6642 0.752, 1.7598 0.735 1.0984, 1.7598 0.6642 1.0276, 1.7598 0.6659 1.0433, 1.7598 0.6712 1.0583, 1.7598 0.6796 1.0717, 1.7598 0.6909 1.083, 1.7598 0.7043 1.0914, 1.7598 0.7193 1.0966, -1.7598 0.735 1.0984, -1.7598 0.7167 1.096, -1.7598 0.6996 1.0889, -1.7598 0.6849 1.0777, -1.7598 0.6737 1.063, -1.7598 0.6666 1.0459, -1.7598 0.6642 1.0276, -1.7598 0.6642 0.752, -1.7598 0.6666 0.7336, -1.7598 0.6737 0.7165, -1.7598 0.6849 0.7019, -1.7598 0.6996 0.6906, -1.7598 0.7167 0.6835, -1.7598 0.735 0.6811
            ]
        }
        coordIndex [
            0,1,2,-1,0,2,3,-1,3,2,4,-1,3,4,5,-1,5,4,6,-1,5,6,7,-1,8,9,10,-1,10,9,11,-1,10,11,6,-1,6,11,12,-1,6,12,7,-1,13,14,15,-1,15,14,16,-1,17,16,18,-1,18,19,17,-1,17,19,20,-1,17,20,10,-1,10,20,21,-1,10,21,8,-1,16,17,15,-1,15,17,22,-1,15,22,23,-1,23,22,24,-1,23,24,25,-1,26,1,27,-1,27,1,0,-1,27,0,28,-1,28,29,27,-1,27,29,30,-1,27,30,31,-1,31,30,32,-1,32,33,31,-1,31,33,34,-1,31,34,35,-1,35,34,36,-1,35,36,37,-1,38,39,40,-1,40,39,41,-1,38,42,43,-1,44,45,43,-1,43,45,39,-1,43,39,38,-1,46,47,42,-1,42,47,43,-1,46,40,41,-1,48,49,41,-1,41,49,47,-1,41,47,46,-1,50,51,52,-1,52,51,53,-1,43,47,44,-1,44,47,49,-1,44,49,53,-1,53,49,52,-1,51,50,45,-1,45,50,48,-1,45,48,39,-1,39,48,41,-1,48,50,49,-1,49,50,52,-1,44,53,45,-1,45,53,51,-1,54,55,40,-1,40,55,56,-1,40,56,38,-1,38,56,57,-1,38,57,58,-1,59,46,60,-1,60,46,61,-1,62,63,40,-1,59,64,46,-1,46,64,65,-1,46,65,40,-1,40,65,66,-1,40,66,62,-1,63,67,40,-1,40,67,68,-1,40,68,54,-1,69,46,70,-1,70,46,42,-1,69,71,46,-1,46,71,72,-1,46,72,61,-1,38,73,42,-1,42,73,74,-1,42,74,75,-1,75,76,42,-1,42,76,77,-1,42,77,78,-1,78,79,42,-1,42,79,80,-1,42,80,70,-1,58,81,38,-1,38,81,82,-1,38,82,83,-1,83,84,38,-1,38,84,85,-1,38,85,73,-1,26,27,86,-1,26,86,87,-1,87,86,88,-1,87,88,89,-1,89,88,90,-1,89,90,91,-1,91,90,92,-1,91,92,93,-1,93,92,94,-1,93,94,95,-1,95,94,96,-1,95,96,97,-1,97,96,98,-1,97,98,99,-1,99,98,100,-1,100,98,101,-1,100,101,102,-1,100,102,103,-1,103,102,104,-1,103,104,105,-1,105,104,106,-1,105,106,107,-1,107,106,108,-1,107,108,109,-1,109,108,110,-1,109,110,111,-1,111,110,112,-1,111,112,113,-1,113,112,114,-1,113,114,115,-1,37,116,117,-1,118,119,35,-1,120,121,122,-1,117,13,37,-1,37,13,15,-1,37,15,23,-1,123,124,125,-1,125,124,126,-1,127,128,129,-1,129,128,125,-1,130,131,132,-1,130,133,122,-1,122,133,123,-1,122,123,120,-1,120,123,125,-1,134,135,136,-1,126,137,125,-1,125,137,138,-1,125,138,129,-1,132,139,130,-1,130,139,140,-1,130,140,133,-1,136,141,134,-1,134,141,131,-1,134,131,142,-1,142,131,130,-1,142,130,143,-1,143,130,144,-1,145,146,147,-1,147,146,148,-1,141,147,131,-1,131,147,148,-1,131,148,149,-1,149,148,150,-1,149,150,151,-1,151,150,152,-1,153,154,150,-1,150,154,155,-1,150,155,152,-1,156,157,158,-1,158,157,159,-1,160,161,162,-1,162,163,160,-1,160,163,164,-1,160,164,159,-1,159,164,152,-1,159,152,158,-1,158,152,155,-1,165,166,167,-1,167,166,168,-1,169,170,168,-1,168,170,164,-1,168,164,167,-1,167,164,163,-1,171,172,173,-1,174,175,170,-1,173,174,171,-1,171,174,170,-1,171,170,176,-1,176,170,169,-1,176,169,177,-1,177,169,178,-1,179,180,175,-1,175,180,181,-1,175,181,170,-1,170,181,182,-1,170,182,183,-1,183,182,184,-1,183,184,185,-1,23,25,37,-1,37,25,186,-1,37,186,35,-1,35,186,170,-1,35,170,118,-1,118,170,183,-1,35,119,31,-1,31,119,187,-1,188,189,190,-1,190,189,191,-1,121,120,192,-1,192,120,193,-1,194,173,172,-1,195,196,31,-1,197,198,199,-1,200,201,187,-1,172,197,194,-1,194,197,199,-1,194,199,202,-1,202,199,203,-1,202,203,179,-1,179,203,180,-1,196,204,31,-1,31,204,205,-1,31,205,206,-1,187,201,31,-1,31,201,207,-1,31,207,195,-1,208,209,193,-1,193,209,210,-1,193,210,211,-1,212,166,165,-1,188,213,189,-1,189,213,214,-1,189,214,184,-1,184,214,215,-1,184,215,185,-1,185,215,216,-1,185,216,217,-1,217,216,218,-1,217,218,187,-1,187,218,219,-1,187,219,200,-1,206,220,31,-1,31,220,221,-1,31,221,193,-1,193,221,222,-1,193,222,208,-1,223,224,193,-1,193,224,225,-1,193,225,226,-1,227,228,199,-1,229,192,230,-1,230,192,193,-1,230,193,231,-1,231,193,226,-1,229,232,192,-1,192,232,233,-1,192,233,234,-1,165,227,212,-1,212,227,199,-1,212,199,235,-1,235,199,198,-1,235,198,178,-1,178,198,177,-1,189,203,191,-1,191,203,199,-1,191,199,211,-1,211,199,236,-1,211,236,193,-1,193,236,237,-1,193,237,223,-1,157,156,238,-1,238,156,239,-1,162,161,228,-1,228,161,240,-1,228,240,199,-1,199,240,238,-1,199,238,241,-1,241,238,239,-1,241,239,242,-1,146,145,243,-1,243,145,244,-1,154,153,242,-1,242,153,245,-1,242,245,241,-1,241,245,243,-1,241,243,246,-1,246,243,244,-1,246,244,247,-1,136,135,247,-1,247,135,248,-1,233,249,234,-1,234,249,250,-1,234,250,144,-1,144,250,251,-1,144,251,143,-1,247,252,253,-1,250,254,251,-1,251,254,255,-1,251,255,248,-1,248,255,256,-1,248,256,247,-1,247,256,257,-1,247,257,252,-1,253,258,247,-1,247,258,259,-1,247,259,246,-1,260,115,261,-1,261,115,114,-1,261,114,262,-1,262,114,263,-1,264,193,265,-1,265,193,120,-1,265,120,125,-1,264,266,193,-1,193,266,267,-1,193,267,114,-1,114,267,268,-1,114,268,263,-1,269,129,138,-1,270,271,272,-1,272,271,273,-1,273,271,274,-1,274,271,275,-1,274,275,276,-1,276,275,277,-1,276,277,278,-1,278,277,279,-1,278,279,280,-1,280,279,260,-1,280,260,261,-1,281,282,283,-1,281,283,284,-1,270,285,271,-1,271,285,286,-1,271,286,283,-1,283,286,287,-1,283,287,284,-1,269,138,282,-1,282,138,283,-1,283,138,137,-1,283,137,288,-1,288,137,126,-1,288,126,289,-1,126,124,290,-1,186,25,291,-1,291,25,24,-1,291,24,290,-1,290,24,289,-1,290,289,126,-1,27,31,86,-1,86,31,88,-1,114,112,193,-1,193,112,110,-1,193,110,108,-1,108,106,193,-1,193,106,104,-1,193,104,102,-1,94,92,31,-1,31,92,90,-1,31,90,88,-1,102,101,193,-1,193,101,98,-1,193,98,31,-1,31,98,96,-1,31,96,94,-1,74,24,22,-1,74,22,75,-1,75,22,17,-1,75,17,76,-1,76,17,10,-1,76,10,77,-1,77,10,6,-1,77,6,78,-1,78,6,4,-1,78,4,79,-1,79,4,2,-1,79,2,80,-1,80,2,1,-1,80,1,70,-1,26,69,1,-1,1,69,70,-1,73,289,74,-1,74,289,24,-1,69,26,87,-1,69,87,71,-1,71,87,89,-1,71,89,72,-1,72,89,91,-1,72,91,61,-1,61,91,93,-1,61,93,60,-1,60,93,95,-1,60,95,59,-1,59,95,97,-1,59,97,64,-1,64,97,99,-1,64,99,65,-1,57,260,279,-1,57,279,58,-1,58,279,277,-1,58,277,81,-1,81,277,275,-1,81,275,82,-1,82,275,271,-1,82,271,83,-1,83,271,283,-1,83,283,84,-1,84,283,288,-1,84,288,85,-1,85,288,289,-1,85,289,73,-1,100,66,99,-1,99,66,65,-1,56,115,57,-1,57,115,260,-1,66,100,103,-1,66,103,62,-1,62,103,105,-1,62,105,63,-1,63,105,107,-1,63,107,67,-1,67,107,109,-1,67,109,68,-1,68,109,111,-1,68,111,54,-1,54,111,113,-1,54,113,55,-1,55,113,115,-1,55,115,56,-1,292,293,290,-1,290,293,294,-1,290,294,295,-1,296,297,298,-1,298,297,291,-1,298,291,299,-1,295,300,290,-1,290,300,301,-1,290,301,291,-1,291,301,302,-1,291,302,299,-1,170,186,297,-1,297,186,291,-1,164,170,296,-1,296,170,297,-1,152,164,298,-1,298,164,296,-1,301,131,149,-1,301,149,302,-1,302,149,151,-1,302,151,299,-1,299,151,152,-1,299,152,298,-1,132,131,300,-1,300,131,301,-1,294,140,139,-1,294,139,295,-1,295,139,132,-1,295,132,300,-1,133,140,293,-1,293,140,294,-1,123,133,292,-1,292,133,293,-1,124,123,290,-1,290,123,292,-1,128,303,125,-1,125,303,265,-1,265,303,304,-1,265,304,264,-1,264,304,305,-1,264,305,266,-1,266,305,306,-1,266,306,267,-1,267,306,307,-1,267,307,268,-1,268,307,308,-1,268,308,263,-1,263,308,309,-1,263,309,262,-1,310,127,269,-1,269,127,129,-1,274,311,312,-1,274,312,273,-1,273,312,313,-1,273,313,272,-1,272,313,314,-1,272,314,270,-1,270,314,315,-1,270,315,285,-1,285,315,286,-1,286,315,316,-1,286,316,287,-1,287,316,284,-1,284,316,317,-1,284,317,281,-1,281,317,282,-1,282,317,310,-1,282,310,269,-1,311,274,276,-1,276,278,311,-1,311,278,280,-1,311,280,309,-1,309,280,261,-1,309,261,262,-1,128,127,303,-1,303,127,310,-1,317,312,310,-1,310,312,311,-1,310,311,303,-1,306,305,304,-1,314,313,315,-1,315,313,312,-1,315,312,316,-1,316,312,317,-1,311,309,303,-1,303,309,308,-1,303,308,304,-1,304,308,307,-1,304,307,306,-1,117,318,13,-1,13,318,14,-1,14,318,16,-1,16,318,319,-1,16,319,18,-1,8,21,320,-1,320,21,20,-1,320,20,319,-1,319,20,19,-1,319,19,18,-1,320,321,8,-1,8,321,322,-1,8,322,9,-1,9,322,323,-1,9,323,11,-1,11,323,324,-1,11,324,12,-1,3,324,0,-1,0,324,325,-1,0,325,28,-1,3,5,324,-1,324,5,7,-1,324,7,12,-1,28,325,326,-1,28,326,29,-1,29,326,327,-1,29,327,30,-1,30,327,328,-1,30,328,32,-1,32,328,329,-1,32,329,33,-1,33,329,330,-1,33,330,34,-1,34,330,331,-1,34,331,36,-1,331,116,36,-1,36,116,37,-1,117,116,318,-1,318,116,331,-1,331,325,318,-1,318,325,324,-1,318,324,323,-1,323,322,318,-1,318,322,321,-1,318,321,319,-1,319,321,320,-1,328,331,329,-1,329,331,330,-1,328,327,331,-1,331,327,326,-1,331,326,325,-1,
        ]
    }
}
Shape{
    appearance Appearance {
        material  Material 	{
            diffuseColor 0.8274509803921568 0.6666666666666666 0.12941176470588237
            specularColor 0.8274509803921568 0.6666666666666666 0.12941176470588237
            ambientIntensity 0.6535
            transparency 0.0
            shininess 0.5
        }
    }
    geometry IndexedFaceSet {
        ccw TRUE
        solid FALSE
        coord DEF co Coordinate {
            point [
                0.1378 1.0224 0.0591, 0.0591 1.0224 0.0591, 0.1378 0.9122 0.0591, 0.0591 0.9122 0.0591, 0.0591 0.7665 0.0394, 0.0591 0.7665 0.0, 0.1378 0.7665 0.0394, 0.1378 0.7665 0.0, 0.1378 1.0224 0.0, 0.0591 1.0224 0.0, 0.1378 0.9122 0.0394, 0.0591 0.9122 0.0394, 0.3346 1.0224 0.0591, 0.2559 1.0224 0.0591, 0.3346 0.9122 0.0591, 0.2559 0.9122 0.0591, 0.2559 0.7665 0.0394, 0.2559 0.7665 0.0, 0.3346 0.7665 0.0394, 0.3346 0.7665 0.0, 0.3346 1.0224 0.0, 0.2559 1.0224 0.0, 0.3346 0.9122 0.0394, 0.2559 0.9122 0.0394, 0.5315 1.0224 0.0591, 0.4528 1.0224 0.0591, 0.5315 0.9122 0.0591, 0.4528 0.9122 0.0591, 0.4528 0.7665 0.0394, 0.4528 0.7665 0.0, 0.5315 0.7665 0.0394, 0.5315 0.7665 0.0, 0.5315 1.0224 0.0, 0.4528 1.0224 0.0, 0.5315 0.9122 0.0394, 0.4528 0.9122 0.0394, 0.7283 1.0224 0.0591, 0.6496 1.0224 0.0591, 0.7283 0.9122 0.0591, 0.6496 0.9122 0.0591, 0.6496 0.7665 0.0394, 0.6496 0.7665 0.0, 0.7283 0.7665 0.0394, 0.7283 0.7665 0.0, 0.7283 1.0224 0.0, 0.6496 1.0224 0.0, 0.7283 0.9122 0.0394, 0.6496 0.9122 0.0394, 1.0098 1.0224 0.0591, 0.8524 1.0224 0.0591, 1.0098 0.9122 0.0591, 0.8524 0.9122 0.0591, 0.8524 0.7665 0.0394, 0.8524 0.7665 0.0, 1.0098 0.7665 0.0394, 1.0098 0.7665 0.0, 1.0098 1.0224 0.0, 0.8524 1.0224 0.0, 1.0098 0.9122 0.0394, 0.8524 0.9122 0.0394, 1.3248 1.0224 0.0591, 1.1673 1.0224 0.0591, 1.3248 0.9122 0.0591, 1.1673 0.9122 0.0591, 1.1673 0.7665 0.0394, 1.1673 0.7665 0.0, 1.3248 0.7665 0.0394, 1.3248 0.7665 0.0, 1.3248 1.0224 0.0, 1.1673 1.0224 0.0, 1.3248 0.9122 0.0394, 1.1673 0.9122 0.0394, -0.0591 0.9122 0.0591, -0.0591 1.0224 0.0591, -0.1378 0.9122 0.0591, -0.1378 1.0224 0.0591, -0.1378 1.0224 0.0, -0.0591 1.0224 0.0, -0.1378 0.7665 0.0, -0.0591 0.7665 0.0, -0.1378 0.7665 0.0394, -0.0591 0.7665 0.0394, -0.1378 0.9122 0.0394, -0.0591 0.9122 0.0394, -0.2559 0.9122 0.0591, -0.2559 1.0224 0.0591, -0.3346 0.9122 0.0591, -0.3346 1.0224 0.0591, -0.3346 1.0224 0.0, -0.2559 1.0224 0.0, -0.3346 0.7665 0.0, -0.2559 0.7665 0.0, -0.3346 0.7665 0.0394, -0.2559 0.7665 0.0394, -0.3346 0.9122 0.0394, -0.2559 0.9122 0.0394, -0.4528 0.9122 0.0591, -0.4528 1.0224 0.0591, -0.5315 0.9122 0.0591, -0.5315 1.0224 0.0591, -0.5315 1.0224 0.0, -0.4528 1.0224 0.0, -0.5315 0.7665 0.0, -0.4528 0.7665 0.0, -0.5315 0.7665 0.0394, -0.4528 0.7665 0.0394, -0.5315 0.9122 0.0394, -0.4528 0.9122 0.0394, -0.6496 0.9122 0.0591, -0.6496 1.0224 0.0591, -0.7283 0.9122 0.0591, -0.7283 1.0224 0.0591, -0.7283 1.0224 0.0, -0.6496 1.0224 0.0, -0.7283 0.7665 0.0, -0.6496 0.7665 0.0, -0.7283 0.7665 0.0394, -0.6496 0.7665 0.0394, -0.7283 0.9122 0.0394, -0.6496 0.9122 0.0394, -0.8524 0.9122 0.0591, -0.8524 1.0224 0.0591, -1.0098 0.9122 0.0591, -1.0098 1.0224 0.0591, -1.0098 1.0224 0.0, -0.8524 1.0224 0.0, -1.0098 0.7665 0.0, -0.8524 0.7665 0.0, -1.0098 0.7665 0.0394, -0.8524 0.7665 0.0394, -1.0098 0.9122 0.0394, -0.8524 0.9122 0.0394, -1.1673 0.9122 0.0591, -1.1673 1.0224 0.0591, -1.3248 0.9122 0.0591, -1.3248 1.0224 0.0591, -1.3248 1.0224 0.0, -1.1673 1.0224 0.0, -1.3248 0.7665 0.0, -1.1673 0.7665 0.0, -1.3248 0.7665 0.0394, -1.1673 0.7665 0.0394, -1.3248 0.9122 0.0394, -1.1673 0.9122 0.0394
            ]
        }
        coordIndex [
            0,1,2,-1,2,1,3,-1,4,5,6,-1,6,5,7,-1,8,7,9,-1,9,7,5,-1,0,8,1,-1,1,8,9,-1,6,7,10,-1,10,7,8,-1,10,8,2,-1,2,8,0,-1,3,1,11,-1,11,1,9,-1,11,9,4,-1,4,9,5,-1,12,13,14,-1,14,13,15,-1,16,17,18,-1,18,17,19,-1,20,19,21,-1,21,19,17,-1,12,20,13,-1,13,20,21,-1,18,19,22,-1,22,19,20,-1,22,20,14,-1,14,20,12,-1,15,13,23,-1,23,13,21,-1,23,21,16,-1,16,21,17,-1,24,25,26,-1,26,25,27,-1,28,29,30,-1,30,29,31,-1,32,31,33,-1,33,31,29,-1,24,32,25,-1,25,32,33,-1,30,31,34,-1,34,31,32,-1,34,32,26,-1,26,32,24,-1,27,25,35,-1,35,25,33,-1,35,33,28,-1,28,33,29,-1,36,37,38,-1,38,37,39,-1,40,41,42,-1,42,41,43,-1,44,43,45,-1,45,43,41,-1,36,44,37,-1,37,44,45,-1,42,43,46,-1,46,43,44,-1,46,44,38,-1,38,44,36,-1,39,37,47,-1,47,37,45,-1,47,45,40,-1,40,45,41,-1,48,49,50,-1,50,49,51,-1,52,53,54,-1,54,53,55,-1,56,55,57,-1,57,55,53,-1,48,56,49,-1,49,56,57,-1,54,55,58,-1,58,55,56,-1,58,56,50,-1,50,56,48,-1,51,49,59,-1,59,49,57,-1,59,57,52,-1,52,57,53,-1,60,61,62,-1,62,61,63,-1,64,65,66,-1,66,65,67,-1,68,67,69,-1,69,67,65,-1,60,68,61,-1,61,68,69,-1,66,67,70,-1,70,67,68,-1,70,68,62,-1,62,68,60,-1,63,61,71,-1,71,61,69,-1,71,69,64,-1,64,69,65,-1,72,73,74,-1,74,73,75,-1,76,75,77,-1,77,75,73,-1,78,76,79,-1,79,76,77,-1,78,79,80,-1,80,79,81,-1,74,75,82,-1,82,75,76,-1,82,76,80,-1,80,76,78,-1,81,79,83,-1,83,79,77,-1,83,77,72,-1,72,77,73,-1,84,85,86,-1,86,85,87,-1,88,87,89,-1,89,87,85,-1,90,88,91,-1,91,88,89,-1,90,91,92,-1,92,91,93,-1,86,87,94,-1,94,87,88,-1,94,88,92,-1,92,88,90,-1,93,91,95,-1,95,91,89,-1,95,89,84,-1,84,89,85,-1,96,97,98,-1,98,97,99,-1,100,99,101,-1,101,99,97,-1,102,100,103,-1,103,100,101,-1,102,103,104,-1,104,103,105,-1,98,99,106,-1,106,99,100,-1,106,100,104,-1,104,100,102,-1,105,103,107,-1,107,103,101,-1,107,101,96,-1,96,101,97,-1,108,109,110,-1,110,109,111,-1,112,111,113,-1,113,111,109,-1,114,112,115,-1,115,112,113,-1,114,115,116,-1,116,115,117,-1,110,111,118,-1,118,111,112,-1,118,112,116,-1,116,112,114,-1,117,115,119,-1,119,115,113,-1,119,113,108,-1,108,113,109,-1,120,121,122,-1,122,121,123,-1,124,123,125,-1,125,123,121,-1,126,124,127,-1,127,124,125,-1,126,127,128,-1,128,127,129,-1,122,123,130,-1,130,123,124,-1,130,124,128,-1,128,124,126,-1,129,127,131,-1,131,127,125,-1,131,125,120,-1,120,125,121,-1,132,133,134,-1,134,133,135,-1,136,135,137,-1,137,135,133,-1,138,136,139,-1,139,136,137,-1,138,139,140,-1,140,139,141,-1,134,135,142,-1,142,135,136,-1,142,136,140,-1,140,136,138,-1,141,139,143,-1,143,139,137,-1,143,137,132,-1,132,137,133,-1,
        ]
    }
}
Shape{
    appearance Appearance {
        material  Material 	{
            diffuseColor 0.6352941176470588 0.30980392156862746 0.023529411764705882
            specularColor 0.047058823529411764 0.023529411764705882 0.0
            ambientIntensity 0.5357
            transparency 0.0
            shininess 0.5
        }
    }
    geometry IndexedFaceSet {
        ccw TRUE
        solid FALSE
        coord DEF co Coordinate {
            point [
                -1.2362 0.5185 0.0394, -1.2329 0.493 -0.2244, -1.2329 0.493 0.0394, -1.223 0.4693 -0.2244, -1.223 0.4693 0.0394, -1.2074 0.4489 -0.2244, -1.2074 0.4489 0.0394, -1.187 0.4333 -0.2244, -1.187 0.4333 0.0394, -1.1633 0.4234 -0.2244, -1.1633 0.4234 0.0394, -1.1378 0.4201 -0.2244, -1.1378 0.4201 0.0394, -1.1123 0.4234 -0.2244, -1.1123 0.4234 0.0394, -1.0886 0.4333 -0.2244, -1.0886 0.4333 0.0394, -1.0682 0.4489 -0.2244, -1.0682 0.4489 0.0394, -1.0526 0.4693 -0.2244, -1.0526 0.4693 0.0394, -1.0427 0.493 -0.2244, -1.0427 0.493 0.0394, -1.0394 0.5185 -0.2244, -1.0394 0.5185 0.0394, -1.0427 0.544 -0.2244, -1.0427 0.544 0.0394, -1.0526 0.5677 -0.2244, -1.0526 0.5677 0.0394, -1.0682 0.5881 -0.2244, -1.0682 0.5881 0.0394, -1.0886 0.6037 -0.2244, -1.0886 0.6037 0.0394, -1.1123 0.6136 -0.2244, -1.1123 0.6136 0.0394, -1.1378 0.6169 -0.2244, -1.1378 0.6169 0.0394, -1.1633 0.6136 -0.2244, -1.1633 0.6136 0.0394, -1.187 0.6037 -0.2244, -1.187 0.6037 0.0394, -1.2074 0.5881 -0.2244, -1.2074 0.5881 0.0394, -1.223 0.5677 -0.2244, -1.223 0.5677 0.0394, -1.2329 0.544 -0.2244, -1.2329 0.544 0.0394, -1.2362 0.5185 -0.2244, -1.1673 0.5696 -0.2638, -1.1531 0.5755 -0.2638, -1.1378 0.5185 -0.2638, -1.1378 0.5776 -0.2638, -1.1225 0.5755 -0.2638, -1.1948 0.5338 -0.2638, -1.1889 0.548 -0.2638, -1.1796 0.5603 -0.2638, -1.1889 0.489 -0.2638, -1.1948 0.5032 -0.2638, -1.1969 0.5185 -0.2638, -1.1531 0.4615 -0.2638, -1.1673 0.4674 -0.2638, -1.1796 0.4767 -0.2638, -1.1083 0.4674 -0.2638, -1.1225 0.4615 -0.2638, -1.1378 0.4594 -0.2638, -1.0808 0.5032 -0.2638, -1.0867 0.489 -0.2638, -1.096 0.4767 -0.2638, -1.0867 0.548 -0.2638, -1.0808 0.5338 -0.2638, -1.0787 0.5185 -0.2638, -1.1083 0.5696 -0.2638, -1.096 0.5603 -0.2638, 1.2362 0.5185 0.0394, 1.2329 0.544 -0.2244, 1.2329 0.544 0.0394, 1.223 0.5677 -0.2244, 1.223 0.5677 0.0394, 1.2074 0.5881 -0.2244, 1.2074 0.5881 0.0394, 1.187 0.6037 -0.2244, 1.187 0.6037 0.0394, 1.1633 0.6136 -0.2244, 1.1633 0.6136 0.0394, 1.1378 0.6169 -0.2244, 1.1378 0.6169 0.0394, 1.1123 0.6136 -0.2244, 1.1123 0.6136 0.0394, 1.0886 0.6037 -0.2244, 1.0886 0.6037 0.0394, 1.0682 0.5881 -0.2244, 1.0682 0.5881 0.0394, 1.0526 0.5677 -0.2244, 1.0526 0.5677 0.0394, 1.0427 0.544 -0.2244, 1.0427 0.544 0.0394, 1.0394 0.5185 -0.2244, 1.0394 0.5185 0.0394, 1.0427 0.493 -0.2244, 1.0427 0.493 0.0394, 1.0526 0.4693 -0.2244, 1.0526 0.4693 0.0394, 1.0682 0.4489 -0.2244, 1.0682 0.4489 0.0394, 1.0886 0.4333 -0.2244, 1.0886 0.4333 0.0394, 1.1123 0.4234 -0.2244, 1.1123 0.4234 0.0394, 1.1378 0.4201 -0.2244, 1.1378 0.4201 0.0394, 1.1633 0.4234 -0.2244, 1.1633 0.4234 0.0394, 1.187 0.4333 -0.2244, 1.187 0.4333 0.0394, 1.2074 0.4489 -0.2244, 1.2074 0.4489 0.0394, 1.223 0.4693 -0.2244, 1.223 0.4693 0.0394, 1.2329 0.493 -0.2244, 1.2329 0.493 0.0394, 1.2362 0.5185 -0.2244, 1.1083 0.5696 -0.2638, 1.1225 0.5755 -0.2638, 1.1378 0.5185 -0.2638, 1.1378 0.5776 -0.2638, 1.1531 0.5755 -0.2638, 1.0808 0.5338 -0.2638, 1.0867 0.548 -0.2638, 1.096 0.5603 -0.2638, 1.0867 0.489 -0.2638, 1.0808 0.5032 -0.2638, 1.0787 0.5185 -0.2638, 1.1225 0.4615 -0.2638, 1.1083 0.4674 -0.2638, 1.096 0.4767 -0.2638, 1.1673 0.4674 -0.2638, 1.1531 0.4615 -0.2638, 1.1378 0.4594 -0.2638, 1.1948 0.5032 -0.2638, 1.1889 0.489 -0.2638, 1.1796 0.4767 -0.2638, 1.1889 0.548 -0.2638, 1.1948 0.5338 -0.2638, 1.1969 0.5185 -0.2638, 1.1673 0.5696 -0.2638, 1.1796 0.5603 -0.2638
            ]
        }
        coordIndex [
            0,1,2,-1,2,1,3,-1,2,3,4,-1,4,3,5,-1,4,5,6,-1,6,5,7,-1,6,7,8,-1,8,7,9,-1,8,9,10,-1,10,9,11,-1,10,11,12,-1,12,11,13,-1,12,13,14,-1,14,13,15,-1,14,15,16,-1,16,15,17,-1,16,17,18,-1,18,17,19,-1,18,19,20,-1,20,19,21,-1,20,21,22,-1,22,21,23,-1,22,23,24,-1,24,23,25,-1,24,25,26,-1,26,25,27,-1,26,27,28,-1,28,27,29,-1,28,29,30,-1,30,29,31,-1,30,31,32,-1,32,31,33,-1,32,33,34,-1,34,33,35,-1,34,35,36,-1,36,35,37,-1,36,37,38,-1,38,37,39,-1,38,39,40,-1,40,39,41,-1,40,41,42,-1,42,41,43,-1,42,43,44,-1,44,43,45,-1,44,45,46,-1,46,45,47,-1,46,47,0,-1,0,47,1,-1,48,49,50,-1,50,49,51,-1,50,51,52,-1,53,54,50,-1,50,54,55,-1,50,55,48,-1,56,57,50,-1,50,57,58,-1,50,58,53,-1,59,60,50,-1,50,60,61,-1,50,61,56,-1,62,63,50,-1,50,63,64,-1,50,64,59,-1,65,66,50,-1,50,66,67,-1,50,67,62,-1,68,69,50,-1,50,69,70,-1,50,70,65,-1,52,71,50,-1,50,71,72,-1,50,72,68,-1,11,63,13,-1,13,63,62,-1,13,62,15,-1,15,62,67,-1,15,67,17,-1,17,67,66,-1,17,66,19,-1,19,66,65,-1,19,65,21,-1,21,65,70,-1,21,70,23,-1,23,70,69,-1,23,69,25,-1,25,69,68,-1,25,68,27,-1,27,68,72,-1,27,72,29,-1,29,72,71,-1,29,71,31,-1,31,71,52,-1,31,52,33,-1,33,52,51,-1,33,51,35,-1,35,51,49,-1,35,49,37,-1,37,49,48,-1,37,48,39,-1,39,48,55,-1,39,55,41,-1,41,55,54,-1,41,54,43,-1,43,54,53,-1,43,53,45,-1,45,53,58,-1,45,58,47,-1,47,58,57,-1,47,57,1,-1,1,57,56,-1,1,56,3,-1,3,56,61,-1,3,61,5,-1,5,61,60,-1,5,60,7,-1,7,60,59,-1,7,59,9,-1,9,59,64,-1,9,64,11,-1,11,64,63,-1,73,74,75,-1,75,74,76,-1,75,76,77,-1,77,76,78,-1,77,78,79,-1,79,78,80,-1,79,80,81,-1,81,80,82,-1,81,82,83,-1,83,82,84,-1,83,84,85,-1,85,84,86,-1,85,86,87,-1,87,86,88,-1,87,88,89,-1,89,88,90,-1,89,90,91,-1,91,90,92,-1,91,92,93,-1,93,92,94,-1,93,94,95,-1,95,94,96,-1,95,96,97,-1,97,96,98,-1,97,98,99,-1,99,98,100,-1,99,100,101,-1,101,100,102,-1,101,102,103,-1,103,102,104,-1,103,104,105,-1,105,104,106,-1,105,106,107,-1,107,106,108,-1,107,108,109,-1,109,108,110,-1,109,110,111,-1,111,110,112,-1,111,112,113,-1,113,112,114,-1,113,114,115,-1,115,114,116,-1,115,116,117,-1,117,116,118,-1,117,118,119,-1,119,118,120,-1,119,120,73,-1,73,120,74,-1,121,122,123,-1,123,122,124,-1,123,124,125,-1,126,127,123,-1,123,127,128,-1,123,128,121,-1,129,130,123,-1,123,130,131,-1,123,131,126,-1,132,133,123,-1,123,133,134,-1,123,134,129,-1,135,136,123,-1,123,136,137,-1,123,137,132,-1,138,139,123,-1,123,139,140,-1,123,140,135,-1,141,142,123,-1,123,142,143,-1,123,143,138,-1,125,144,123,-1,123,144,145,-1,123,145,141,-1,108,136,110,-1,110,136,135,-1,110,135,112,-1,112,135,140,-1,112,140,114,-1,114,140,139,-1,114,139,116,-1,116,139,138,-1,116,138,118,-1,118,138,143,-1,118,143,120,-1,120,143,142,-1,120,142,74,-1,74,142,141,-1,74,141,76,-1,76,141,145,-1,76,145,78,-1,78,145,144,-1,78,144,80,-1,80,144,125,-1,80,125,82,-1,82,125,124,-1,82,124,84,-1,84,124,122,-1,84,122,86,-1,86,122,121,-1,86,121,88,-1,88,121,128,-1,88,128,90,-1,90,128,127,-1,90,127,92,-1,92,127,126,-1,92,126,94,-1,94,126,131,-1,94,131,96,-1,96,131,130,-1,96,130,98,-1,98,130,129,-1,98,129,100,-1,100,129,134,-1,100,134,102,-1,102,134,133,-1,102,133,104,-1,104,133,132,-1,104,132,106,-1,106,132,137,-1,106,137,108,-1,108,137,136,-1,
        ]
    }
}