%TF.GenerationSoftware,KiCad,Pcbnew,10.0.3*%
%TF.CreationDate,2026-08-17T00:10:34+08:00*%
%TF.ProjectId,gamegirl,67616d65-6769-4726-9c2e-6b696361645f,rev?*%
%TF.SameCoordinates,Original*%
%TF.FileFunction,Soldermask,Top*%
%TF.FilePolarity,Negative*%
%FSLAX46Y46*%
G04 Gerber Fmt 4.6, Leading zero omitted, Abs format (unit mm)*
G04 Created by KiCad (PCBNEW 10.0.3) date 2026-08-17 00:10:34*
%MOMM*%
%LPD*%
G01*
G04 APERTURE LIST*
%ADD10O,1.300000X2.400000*%
%ADD11O,1.300000X2.100000*%
%ADD12R,1.800000X1.800000*%
%ADD13C,1.800000*%
%ADD14C,5.600000*%
%ADD15C,2.000000*%
%ADD16R,1.700000X1.700000*%
%ADD17C,1.700000*%
%ADD18O,1.600000X1.600000*%
%ADD19O,3.000000X2.000000*%
G04 APERTURE END LIST*
D10*
%TO.C,USB1*%
X104255000Y-97360000D03*
X112895000Y-97360000D03*
D11*
X104255000Y-93180000D03*
X112895000Y-93180000D03*
%TD*%
D12*
%TO.C,D2*%
X192770000Y-99000000D03*
D13*
X190230000Y-99000000D03*
%TD*%
D14*
%TO.C,H8*%
X173500000Y-147500000D03*
%TD*%
D15*
%TO.C,SW7*%
X196750000Y-114050000D03*
X203250000Y-114050000D03*
X196750000Y-118550000D03*
X203250000Y-118550000D03*
%TD*%
%TO.C,SW6*%
X184750000Y-121250000D03*
X191250000Y-121250000D03*
X184750000Y-125750000D03*
X191250000Y-125750000D03*
%TD*%
D14*
%TO.C,H5*%
X97420000Y-103500000D03*
%TD*%
D15*
%TO.C,SW10*%
X184750000Y-137200000D03*
X191250000Y-137200000D03*
X184750000Y-141700000D03*
X191250000Y-141700000D03*
%TD*%
D16*
%TO.C,J3*%
X173500000Y-121690000D03*
D17*
X173500000Y-124230000D03*
X173500000Y-126770000D03*
X173500000Y-129310000D03*
%TD*%
D15*
%TO.C,SW5*%
X80250000Y-125500000D03*
X86750000Y-125500000D03*
X80250000Y-130000000D03*
X86750000Y-130000000D03*
%TD*%
D18*
%TO.C,SW12*%
X70250000Y-97000000D03*
X70250000Y-99000000D03*
X70250000Y-101000000D03*
D19*
X70250000Y-103150000D03*
X70250000Y-94850000D03*
%TD*%
D15*
%TO.C,SW4*%
X58250000Y-125500000D03*
X64750000Y-125500000D03*
X58250000Y-130000000D03*
X64750000Y-130000000D03*
%TD*%
D14*
%TO.C,H7*%
X173500000Y-103500000D03*
%TD*%
D15*
%TO.C,SW3*%
X69250000Y-136500000D03*
X75750000Y-136500000D03*
X69250000Y-141000000D03*
X75750000Y-141000000D03*
%TD*%
D14*
%TO.C,H6*%
X97420000Y-147500000D03*
%TD*%
D16*
%TO.C,J2*%
X92500000Y-108990000D03*
D17*
X92500000Y-111530000D03*
X92500000Y-114070000D03*
X92500000Y-116610000D03*
X92500000Y-119150000D03*
X92500000Y-121690000D03*
X92500000Y-124230000D03*
X92500000Y-126770000D03*
X92500000Y-129310000D03*
X92500000Y-131850000D03*
X92500000Y-134390000D03*
X92500000Y-136930000D03*
X92500000Y-139470000D03*
X92500000Y-142010000D03*
%TD*%
D15*
%TO.C,SW2*%
X69250000Y-114500000D03*
X75750000Y-114500000D03*
X69250000Y-119000000D03*
X75750000Y-119000000D03*
%TD*%
%TO.C,START*%
X196750000Y-132250000D03*
X203250000Y-132250000D03*
X196750000Y-136750000D03*
X203250000Y-136750000D03*
%TD*%
%TO.C,SW1*%
X163410570Y-99430663D03*
X169910570Y-99430663D03*
X163410570Y-94930663D03*
X169910570Y-94930663D03*
%TD*%
%TO.C,SW8*%
X143250000Y-113750000D03*
X136750000Y-113750000D03*
X143250000Y-118250000D03*
X136750000Y-118250000D03*
%TD*%
D16*
%TO.C,J1*%
X78500000Y-93420000D03*
D17*
X78500000Y-95960000D03*
X78500000Y-98500000D03*
X78500000Y-101040000D03*
X78500000Y-103580000D03*
X78500000Y-106120000D03*
X78500000Y-108660000D03*
%TD*%
M02*
