%TF.GenerationSoftware,KiCad,Pcbnew,10.0.3*%
%TF.CreationDate,2026-08-17T00:10:34+08:00*%
%TF.ProjectId,gamegirl,67616d65-6769-4726-9c2e-6b696361645f,rev?*%
%TF.SameCoordinates,Original*%
%TF.FileFunction,Legend,Bot*%
%TF.FilePolarity,Positive*%
%FSLAX46Y46*%
G04 Gerber Fmt 4.6, Leading zero omitted, Abs format (unit mm)*
G04 Created by KiCad (PCBNEW 10.0.3) date 2026-08-17 00:10:34*
%MOMM*%
%LPD*%
G01*
G04 APERTURE LIST*
G04 Aperture macros list*
%AMRoundRect*
0 Rectangle with rounded corners*
0 $1 Rounding radius*
0 $2 $3 $4 $5 $6 $7 $8 $9 X,Y pos of 4 corners*
0 Add a 4 corners polygon primitive as box body*
4,1,4,$2,$3,$4,$5,$6,$7,$8,$9,$2,$3,0*
0 Add four circle primitives for the rounded corners*
1,1,$1+$1,$2,$3*
1,1,$1+$1,$4,$5*
1,1,$1+$1,$6,$7*
1,1,$1+$1,$8,$9*
0 Add four rect primitives between the rounded corners*
20,1,$1+$1,$2,$3,$4,$5,0*
20,1,$1+$1,$4,$5,$6,$7,0*
20,1,$1+$1,$6,$7,$8,$9,0*
20,1,$1+$1,$8,$9,$2,$3,0*%
G04 Aperture macros list end*
%ADD10C,0.100000*%
%ADD11C,0.000000*%
%ADD12C,0.150000*%
%ADD13C,0.120000*%
%ADD14C,0.060000*%
%ADD15C,0.600000*%
%ADD16R,4.200000X4.200000*%
%ADD17R,1.500000X0.900000*%
%ADD18R,0.900000X1.500000*%
%ADD19R,0.600000X1.150000*%
%ADD20R,0.300000X1.150000*%
%ADD21O,1.300000X2.400000*%
%ADD22O,1.300000X2.100000*%
%ADD23C,0.650000*%
%ADD24R,1.800000X1.800000*%
%ADD25C,1.800000*%
%ADD26RoundRect,0.150000X0.825000X0.150000X-0.825000X0.150000X-0.825000X-0.150000X0.825000X-0.150000X0*%
%ADD27RoundRect,0.250000X-0.450000X0.262500X-0.450000X-0.262500X0.450000X-0.262500X0.450000X0.262500X0*%
%ADD28RoundRect,0.250000X0.450000X-0.262500X0.450000X0.262500X-0.450000X0.262500X-0.450000X-0.262500X0*%
%ADD29RoundRect,0.200000X-0.200000X-0.275000X0.200000X-0.275000X0.200000X0.275000X-0.200000X0.275000X0*%
%ADD30RoundRect,0.200000X-0.275000X0.200000X-0.275000X-0.200000X0.275000X-0.200000X0.275000X0.200000X0*%
%ADD31RoundRect,0.087500X-0.425000X-0.087500X0.425000X-0.087500X0.425000X0.087500X-0.425000X0.087500X0*%
%ADD32C,5.600000*%
%ADD33C,2.000000*%
%ADD34C,3.200000*%
%ADD35R,1.700000X1.700000*%
%ADD36C,1.700000*%
%ADD37O,1.600000X1.600000*%
%ADD38O,3.000000X2.000000*%
%ADD39RoundRect,0.250000X-0.262500X-0.450000X0.262500X-0.450000X0.262500X0.450000X-0.262500X0.450000X0*%
%ADD40RoundRect,0.250000X0.262500X0.450000X-0.262500X0.450000X-0.262500X-0.450000X0.262500X-0.450000X0*%
%ADD41RoundRect,0.250000X0.475000X-0.250000X0.475000X0.250000X-0.475000X0.250000X-0.475000X-0.250000X0*%
%ADD42RoundRect,0.250000X0.250000X0.475000X-0.250000X0.475000X-0.250000X-0.475000X0.250000X-0.475000X0*%
%ADD43RoundRect,0.150000X-0.512500X-0.150000X0.512500X-0.150000X0.512500X0.150000X-0.512500X0.150000X0*%
%ADD44RoundRect,0.250000X-0.475000X0.250000X-0.475000X-0.250000X0.475000X-0.250000X0.475000X0.250000X0*%
%ADD45RoundRect,0.218750X-0.218750X-0.256250X0.218750X-0.256250X0.218750X0.256250X-0.218750X0.256250X0*%
%ADD46RoundRect,0.250000X-0.250000X-0.475000X0.250000X-0.475000X0.250000X0.475000X-0.250000X0.475000X0*%
G04 APERTURE END LIST*
D10*
X196838972Y-148705752D02*
X196458020Y-148705752D01*
X196696115Y-148372419D02*
X196696115Y-149229561D01*
X196696115Y-149229561D02*
X196648496Y-149324800D01*
X196648496Y-149324800D02*
X196553258Y-149372419D01*
X196553258Y-149372419D02*
X196458020Y-149372419D01*
X196124686Y-149372419D02*
X196124686Y-148372419D01*
X195696115Y-149372419D02*
X195696115Y-148848609D01*
X195696115Y-148848609D02*
X195743734Y-148753371D01*
X195743734Y-148753371D02*
X195838972Y-148705752D01*
X195838972Y-148705752D02*
X195981829Y-148705752D01*
X195981829Y-148705752D02*
X196077067Y-148753371D01*
X196077067Y-148753371D02*
X196124686Y-148800990D01*
X195219924Y-149372419D02*
X195219924Y-148705752D01*
X195219924Y-148372419D02*
X195267543Y-148420038D01*
X195267543Y-148420038D02*
X195219924Y-148467657D01*
X195219924Y-148467657D02*
X195172305Y-148420038D01*
X195172305Y-148420038D02*
X195219924Y-148372419D01*
X195219924Y-148372419D02*
X195219924Y-148467657D01*
X194791353Y-149324800D02*
X194696115Y-149372419D01*
X194696115Y-149372419D02*
X194505639Y-149372419D01*
X194505639Y-149372419D02*
X194410401Y-149324800D01*
X194410401Y-149324800D02*
X194362782Y-149229561D01*
X194362782Y-149229561D02*
X194362782Y-149181942D01*
X194362782Y-149181942D02*
X194410401Y-149086704D01*
X194410401Y-149086704D02*
X194505639Y-149039085D01*
X194505639Y-149039085D02*
X194648496Y-149039085D01*
X194648496Y-149039085D02*
X194743734Y-148991466D01*
X194743734Y-148991466D02*
X194791353Y-148896228D01*
X194791353Y-148896228D02*
X194791353Y-148848609D01*
X194791353Y-148848609D02*
X194743734Y-148753371D01*
X194743734Y-148753371D02*
X194648496Y-148705752D01*
X194648496Y-148705752D02*
X194505639Y-148705752D01*
X194505639Y-148705752D02*
X194410401Y-148753371D01*
X193172305Y-149372419D02*
X193172305Y-148372419D01*
X193172305Y-148753371D02*
X193077067Y-148705752D01*
X193077067Y-148705752D02*
X192886591Y-148705752D01*
X192886591Y-148705752D02*
X192791353Y-148753371D01*
X192791353Y-148753371D02*
X192743734Y-148800990D01*
X192743734Y-148800990D02*
X192696115Y-148896228D01*
X192696115Y-148896228D02*
X192696115Y-149181942D01*
X192696115Y-149181942D02*
X192743734Y-149277180D01*
X192743734Y-149277180D02*
X192791353Y-149324800D01*
X192791353Y-149324800D02*
X192886591Y-149372419D01*
X192886591Y-149372419D02*
X193077067Y-149372419D01*
X193077067Y-149372419D02*
X193172305Y-149324800D01*
X191886591Y-149324800D02*
X191981829Y-149372419D01*
X191981829Y-149372419D02*
X192172305Y-149372419D01*
X192172305Y-149372419D02*
X192267543Y-149324800D01*
X192267543Y-149324800D02*
X192315162Y-149229561D01*
X192315162Y-149229561D02*
X192315162Y-148848609D01*
X192315162Y-148848609D02*
X192267543Y-148753371D01*
X192267543Y-148753371D02*
X192172305Y-148705752D01*
X192172305Y-148705752D02*
X191981829Y-148705752D01*
X191981829Y-148705752D02*
X191886591Y-148753371D01*
X191886591Y-148753371D02*
X191838972Y-148848609D01*
X191838972Y-148848609D02*
X191838972Y-148943847D01*
X191838972Y-148943847D02*
X192315162Y-149039085D01*
X191553257Y-148705752D02*
X191172305Y-148705752D01*
X191410400Y-148372419D02*
X191410400Y-149229561D01*
X191410400Y-149229561D02*
X191362781Y-149324800D01*
X191362781Y-149324800D02*
X191267543Y-149372419D01*
X191267543Y-149372419D02*
X191172305Y-149372419D01*
X190981828Y-148705752D02*
X190600876Y-148705752D01*
X190838971Y-148372419D02*
X190838971Y-149229561D01*
X190838971Y-149229561D02*
X190791352Y-149324800D01*
X190791352Y-149324800D02*
X190696114Y-149372419D01*
X190696114Y-149372419D02*
X190600876Y-149372419D01*
X189886590Y-149324800D02*
X189981828Y-149372419D01*
X189981828Y-149372419D02*
X190172304Y-149372419D01*
X190172304Y-149372419D02*
X190267542Y-149324800D01*
X190267542Y-149324800D02*
X190315161Y-149229561D01*
X190315161Y-149229561D02*
X190315161Y-148848609D01*
X190315161Y-148848609D02*
X190267542Y-148753371D01*
X190267542Y-148753371D02*
X190172304Y-148705752D01*
X190172304Y-148705752D02*
X189981828Y-148705752D01*
X189981828Y-148705752D02*
X189886590Y-148753371D01*
X189886590Y-148753371D02*
X189838971Y-148848609D01*
X189838971Y-148848609D02*
X189838971Y-148943847D01*
X189838971Y-148943847D02*
X190315161Y-149039085D01*
X189410399Y-149372419D02*
X189410399Y-148705752D01*
X189410399Y-148896228D02*
X189362780Y-148800990D01*
X189362780Y-148800990D02*
X189315161Y-148753371D01*
X189315161Y-148753371D02*
X189219923Y-148705752D01*
X189219923Y-148705752D02*
X189124685Y-148705752D01*
X188124684Y-148705752D02*
X187934208Y-149372419D01*
X187934208Y-149372419D02*
X187743732Y-148896228D01*
X187743732Y-148896228D02*
X187553256Y-149372419D01*
X187553256Y-149372419D02*
X187362780Y-148705752D01*
X186838970Y-149372419D02*
X186934208Y-149324800D01*
X186934208Y-149324800D02*
X186981827Y-149277180D01*
X186981827Y-149277180D02*
X187029446Y-149181942D01*
X187029446Y-149181942D02*
X187029446Y-148896228D01*
X187029446Y-148896228D02*
X186981827Y-148800990D01*
X186981827Y-148800990D02*
X186934208Y-148753371D01*
X186934208Y-148753371D02*
X186838970Y-148705752D01*
X186838970Y-148705752D02*
X186696113Y-148705752D01*
X186696113Y-148705752D02*
X186600875Y-148753371D01*
X186600875Y-148753371D02*
X186553256Y-148800990D01*
X186553256Y-148800990D02*
X186505637Y-148896228D01*
X186505637Y-148896228D02*
X186505637Y-149181942D01*
X186505637Y-149181942D02*
X186553256Y-149277180D01*
X186553256Y-149277180D02*
X186600875Y-149324800D01*
X186600875Y-149324800D02*
X186696113Y-149372419D01*
X186696113Y-149372419D02*
X186838970Y-149372419D01*
X186077065Y-149372419D02*
X186077065Y-148705752D01*
X186077065Y-148896228D02*
X186029446Y-148800990D01*
X186029446Y-148800990D02*
X185981827Y-148753371D01*
X185981827Y-148753371D02*
X185886589Y-148705752D01*
X185886589Y-148705752D02*
X185791351Y-148705752D01*
X185458017Y-149372419D02*
X185458017Y-148372419D01*
X185362779Y-148991466D02*
X185077065Y-149372419D01*
X185077065Y-148705752D02*
X185458017Y-149086704D01*
D11*
G36*
X128216973Y-128119762D02*
G01*
X128216251Y-128119762D01*
X128178787Y-127895064D01*
X128216973Y-128119762D01*
G37*
G36*
X121264157Y-126055860D02*
G01*
X121256290Y-126055205D01*
X121244024Y-125983168D01*
X121252688Y-125983168D01*
X121264157Y-126055860D01*
G37*
G36*
X128028973Y-127002805D02*
G01*
X128026862Y-127004307D01*
X128018237Y-126953865D01*
X128020367Y-126952434D01*
X128028973Y-127002805D01*
G37*
G36*
X128294018Y-128571284D02*
G01*
X128291832Y-128571284D01*
X128216251Y-128119762D01*
X128216973Y-128119762D01*
X128294018Y-128571284D01*
G37*
G36*
X132973309Y-124411114D02*
G01*
X132970453Y-124412595D01*
X132799045Y-123645682D01*
X132802675Y-123645682D01*
X132973309Y-124411114D01*
G37*
G36*
X128059256Y-127191531D02*
G01*
X128059979Y-127192231D01*
X128060669Y-127192956D01*
X128060669Y-127193732D01*
X128178787Y-127895064D01*
X128058509Y-127190121D01*
X128059256Y-127191531D01*
G37*
G36*
X125872262Y-128995428D02*
G01*
X125871511Y-128992528D01*
X125870075Y-128983941D01*
X125870022Y-128983198D01*
X125872262Y-128995428D01*
G37*
G36*
X125867179Y-128965886D02*
G01*
X125867928Y-128970187D01*
X125869413Y-128974499D01*
X125870022Y-128983198D01*
X125822557Y-128723940D01*
X125867179Y-128965886D01*
G37*
G36*
X128028973Y-127005008D02*
G01*
X128029729Y-127010754D01*
X128031144Y-127016535D01*
X128031867Y-127027370D01*
X128034768Y-127050342D01*
X128026862Y-127004307D01*
X128028973Y-127002805D01*
X128028973Y-127005008D01*
G37*
G36*
X132690347Y-123152324D02*
G01*
X132698295Y-123181174D01*
X132705455Y-123209277D01*
X132711920Y-123238810D01*
X132802675Y-123645682D01*
X132799045Y-123645682D01*
X132682418Y-123124279D01*
X132690347Y-123152324D01*
G37*
G36*
X128328559Y-128773646D02*
G01*
X128323548Y-128773646D01*
X128319938Y-128744845D01*
X128316364Y-128718132D01*
X128312717Y-128693652D01*
X128309102Y-128672116D01*
X128291832Y-128571284D01*
X128294018Y-128571284D01*
X128328559Y-128773646D01*
G37*
G36*
X126897686Y-129491603D02*
G01*
X126896988Y-129498765D01*
X126896988Y-129506707D01*
X126896988Y-129513880D01*
X126893349Y-129513880D01*
X126890476Y-129513880D01*
X126883297Y-129513880D01*
X126876822Y-129514630D01*
X126869597Y-129514630D01*
X126897686Y-129483640D01*
X126897686Y-129491603D01*
G37*
G36*
X128060669Y-127192956D02*
G01*
X128059979Y-127192231D01*
X128059979Y-127191531D01*
X128059256Y-127190804D01*
X128058509Y-127190804D01*
X128058509Y-127190121D01*
X128034768Y-127050342D01*
X128032620Y-127027370D01*
X128031144Y-127016535D01*
X128030495Y-127010754D01*
X128029729Y-127005008D01*
X128060669Y-127192956D01*
G37*
G36*
X128058509Y-127190121D02*
G01*
X128055612Y-127186514D01*
X128053465Y-127183598D01*
X128051366Y-127179968D01*
X128049871Y-127176429D01*
X128047746Y-127172791D01*
X128046249Y-127169930D01*
X128044829Y-127166317D01*
X128043415Y-127162690D01*
X128041948Y-127159122D01*
X128041215Y-127156226D01*
X128039813Y-127152602D01*
X128039813Y-127149050D01*
X128039089Y-127145440D01*
X128038299Y-127141855D01*
X128038299Y-127138958D01*
X128038299Y-127135324D01*
X128038299Y-127124483D01*
X128038299Y-127113753D01*
X128038299Y-127102915D01*
X128037661Y-127092846D01*
X128036927Y-127082082D01*
X128036207Y-127071275D01*
X128034768Y-127050342D01*
X128058509Y-127190121D01*
G37*
G36*
X152769455Y-125814607D02*
G01*
X152752193Y-125846331D01*
X152735568Y-125878761D01*
X152719757Y-125911161D01*
X152704670Y-125945019D01*
X152690257Y-125978159D01*
X152676556Y-126012690D01*
X152663576Y-126047275D01*
X152651357Y-126081801D01*
X152640553Y-126117120D01*
X152629729Y-126153111D01*
X152620395Y-126189112D01*
X152611738Y-126225118D01*
X152603820Y-126262539D01*
X152597309Y-126299282D01*
X152590867Y-126336707D01*
X152583632Y-126399372D01*
X152578600Y-126460634D01*
X152576414Y-126521115D01*
X152576414Y-126580856D01*
X152579337Y-126639213D01*
X152585088Y-126696803D01*
X152593687Y-126752959D01*
X152603820Y-126807698D01*
X152617496Y-126861047D01*
X152632620Y-126912843D01*
X152649895Y-126963241D01*
X152670096Y-127011529D01*
X152692401Y-127058275D01*
X152716144Y-127103649D01*
X152742775Y-127146900D01*
X152770885Y-127188650D01*
X150716389Y-127200908D01*
X150472947Y-125797329D01*
X152787402Y-125783702D01*
X152769455Y-125814607D01*
G37*
G36*
X152775896Y-127188650D02*
G01*
X152770885Y-127188650D01*
X152742775Y-127146900D01*
X152716144Y-127103649D01*
X152691662Y-127058275D01*
X152670096Y-127011529D01*
X152649895Y-126963241D01*
X152632620Y-126912843D01*
X152616772Y-126861047D01*
X152603820Y-126807698D01*
X152593687Y-126752959D01*
X152585088Y-126696803D01*
X152579337Y-126639213D01*
X152576414Y-126580856D01*
X152575765Y-126521115D01*
X152578600Y-126460634D01*
X152582975Y-126399372D01*
X152590867Y-126336707D01*
X152597309Y-126299282D01*
X152603820Y-126262539D01*
X152611738Y-126225118D01*
X152620395Y-126189112D01*
X152629729Y-126153111D01*
X152640553Y-126117120D01*
X152651357Y-126081801D01*
X152663576Y-126047275D01*
X152676556Y-126012690D01*
X152690257Y-125978159D01*
X152704670Y-125945019D01*
X152719757Y-125911161D01*
X152735568Y-125878761D01*
X152752193Y-125846331D01*
X152769455Y-125814607D01*
X152787402Y-125783702D01*
X152975395Y-125782235D01*
X152775896Y-127188650D01*
G37*
G36*
X123153078Y-131844218D02*
G01*
X123204207Y-131848548D01*
X123255332Y-131855054D01*
X123305032Y-131865068D01*
X123353985Y-131877325D01*
X123401514Y-131891753D01*
X123449075Y-131909011D01*
X123494410Y-131928495D01*
X123539781Y-131950080D01*
X123582979Y-131973856D01*
X123625455Y-131999714D01*
X123666495Y-132028607D01*
X123706100Y-132058840D01*
X123744297Y-132091238D01*
X123781042Y-132125064D01*
X123816321Y-132161032D01*
X123849437Y-132198495D01*
X123881095Y-132238062D01*
X123911407Y-132279165D01*
X123939459Y-132321695D01*
X123966077Y-132365600D01*
X123989840Y-132410950D01*
X124012915Y-132457744D01*
X124033071Y-132506008D01*
X124051047Y-132555736D01*
X124066899Y-132606088D01*
X124080613Y-132657283D01*
X124091363Y-132709842D01*
X124100720Y-132763790D01*
X124107237Y-132817807D01*
X124110823Y-132873271D01*
X124112257Y-132928748D01*
X124110823Y-132984858D01*
X124107237Y-133039637D01*
X124100720Y-133094340D01*
X124091363Y-133147686D01*
X124080613Y-133200175D01*
X124066899Y-133252077D01*
X124051047Y-133302454D01*
X124033071Y-133351477D01*
X124012915Y-133399698D01*
X123989840Y-133446451D01*
X123966077Y-133491801D01*
X123939459Y-133535748D01*
X123911407Y-133579008D01*
X123881095Y-133620060D01*
X123849437Y-133658952D01*
X123816321Y-133697098D01*
X123781042Y-133733099D01*
X123744297Y-133766928D01*
X123706100Y-133799314D01*
X123666495Y-133829595D01*
X123625455Y-133857698D01*
X123582979Y-133883583D01*
X123539781Y-133908123D01*
X123494410Y-133929644D01*
X123449075Y-133949131D01*
X123401514Y-133966383D01*
X123353985Y-133980794D01*
X123305032Y-133993035D01*
X123255332Y-134002420D01*
X123204207Y-134009645D01*
X123153078Y-134013225D01*
X123101194Y-134014658D01*
X123049354Y-134013225D01*
X122997510Y-134009645D01*
X122947101Y-134002420D01*
X122897403Y-133993035D01*
X122848453Y-133980794D01*
X122800235Y-133966383D01*
X122753351Y-133949131D01*
X122707295Y-133929644D01*
X122662678Y-133908123D01*
X122619433Y-133883583D01*
X122576979Y-133857698D01*
X122535936Y-133829595D01*
X122496355Y-133799314D01*
X122458149Y-133766928D01*
X122421415Y-133733099D01*
X122386130Y-133697098D01*
X122352308Y-133658952D01*
X122320669Y-133620060D01*
X122291063Y-133579008D01*
X122262983Y-133535748D01*
X122236353Y-133491801D01*
X122211882Y-133446451D01*
X122189530Y-133399698D01*
X122169370Y-133351477D01*
X122151402Y-133302454D01*
X122135559Y-133252077D01*
X122121826Y-133200175D01*
X122110352Y-133147686D01*
X122101715Y-133094340D01*
X122095199Y-133039637D01*
X122091623Y-132984858D01*
X122090189Y-132928748D01*
X122091623Y-132873271D01*
X122095199Y-132817807D01*
X122101715Y-132763790D01*
X122110352Y-132709842D01*
X122121826Y-132657283D01*
X122135559Y-132606088D01*
X122151402Y-132555736D01*
X122169370Y-132506008D01*
X122189530Y-132457744D01*
X122211882Y-132410950D01*
X122236353Y-132365600D01*
X122262983Y-132321695D01*
X122291063Y-132279165D01*
X122320669Y-132238062D01*
X122352308Y-132198495D01*
X122386130Y-132161032D01*
X122421415Y-132125064D01*
X122458149Y-132091238D01*
X122496355Y-132058840D01*
X122535936Y-132028607D01*
X122576979Y-131999714D01*
X122619433Y-131973856D01*
X122662678Y-131950080D01*
X122707295Y-131928495D01*
X122753351Y-131909011D01*
X122800235Y-131891753D01*
X122848453Y-131877325D01*
X122897403Y-131865068D01*
X122947101Y-131855054D01*
X122997510Y-131848548D01*
X123049354Y-131844218D01*
X123101194Y-131842748D01*
X123153078Y-131844218D01*
G37*
G36*
X153027976Y-125400586D02*
G01*
X153079083Y-125404862D01*
X153129515Y-125412074D01*
X153179184Y-125421512D01*
X153228142Y-125433743D01*
X153276443Y-125448116D01*
X153323204Y-125465378D01*
X153369301Y-125484807D01*
X153413933Y-125506399D01*
X153457926Y-125530225D01*
X153499673Y-125556856D01*
X153540676Y-125584938D01*
X153581014Y-125615169D01*
X153619190Y-125647578D01*
X153655885Y-125681444D01*
X153690471Y-125717478D01*
X153724353Y-125754852D01*
X153756030Y-125794534D01*
X153786283Y-125835535D01*
X153814312Y-125878013D01*
X153840286Y-125921965D01*
X153864749Y-125968062D01*
X153887029Y-126014847D01*
X153907198Y-126062426D01*
X153925240Y-126112056D01*
X153941089Y-126162479D01*
X153954778Y-126213594D01*
X153966286Y-126266170D01*
X153974936Y-126320178D01*
X153981405Y-126374174D01*
X153985709Y-126429655D01*
X153987179Y-126485097D01*
X153985709Y-126541273D01*
X153981405Y-126596704D01*
X153974936Y-126650753D01*
X153966286Y-126704022D01*
X153954778Y-126756595D01*
X153941089Y-126808469D01*
X153925240Y-126858815D01*
X153907198Y-126907810D01*
X153887029Y-126956010D01*
X153864749Y-127002805D01*
X153840286Y-127048213D01*
X153814312Y-127092846D01*
X153786283Y-127135324D01*
X153756030Y-127176429D01*
X153724353Y-127215272D01*
X153690471Y-127253480D01*
X153655885Y-127289444D01*
X153619190Y-127323328D01*
X153581014Y-127355699D01*
X153540676Y-127385961D01*
X153499673Y-127414052D01*
X153457926Y-127439964D01*
X153413933Y-127464424D01*
X153369301Y-127486069D01*
X153323204Y-127505473D01*
X153276443Y-127522790D01*
X153228142Y-127537180D01*
X153179184Y-127549446D01*
X153129515Y-127558808D01*
X153079083Y-127565967D01*
X153027976Y-127569541D01*
X152975395Y-127571058D01*
X152923542Y-127569541D01*
X152872424Y-127565967D01*
X152821294Y-127558808D01*
X152771610Y-127549446D01*
X152723317Y-127537180D01*
X152675128Y-127522790D01*
X152628305Y-127505473D01*
X152582247Y-127486069D01*
X152537560Y-127464424D01*
X152493655Y-127439964D01*
X152451150Y-127414052D01*
X152410095Y-127385961D01*
X152370469Y-127355699D01*
X152332337Y-127323328D01*
X152295603Y-127289444D01*
X152260285Y-127253480D01*
X152227180Y-127215272D01*
X152195503Y-127176429D01*
X152165292Y-127135324D01*
X152136455Y-127092846D01*
X152110506Y-127048213D01*
X152086039Y-127002805D01*
X152063756Y-126956010D01*
X152043615Y-126907810D01*
X152025560Y-126858815D01*
X152008975Y-126808469D01*
X151995303Y-126756595D01*
X151984482Y-126704022D01*
X151975874Y-126650753D01*
X151969439Y-126596704D01*
X151965044Y-126541273D01*
X151963617Y-126485097D01*
X151965044Y-126429655D01*
X151969439Y-126374174D01*
X151975874Y-126320178D01*
X151984482Y-126266170D01*
X151995303Y-126213594D01*
X152008975Y-126162479D01*
X152025560Y-126112056D01*
X152043615Y-126062426D01*
X152063756Y-126014847D01*
X152086039Y-125968062D01*
X152110506Y-125921965D01*
X152136455Y-125878013D01*
X152165292Y-125835535D01*
X152195503Y-125794534D01*
X152227180Y-125754852D01*
X152260285Y-125717478D01*
X152295603Y-125681444D01*
X152332337Y-125647578D01*
X152370469Y-125615169D01*
X152410095Y-125584938D01*
X152451150Y-125556856D01*
X152493655Y-125530225D01*
X152537560Y-125506399D01*
X152582247Y-125484807D01*
X152628305Y-125465378D01*
X152675128Y-125448116D01*
X152723317Y-125433743D01*
X152771610Y-125421512D01*
X152821294Y-125412074D01*
X152872424Y-125404862D01*
X152923542Y-125400586D01*
X152975395Y-125399165D01*
X153027976Y-125400586D01*
G37*
G36*
X120938030Y-122222001D02*
G01*
X120969667Y-122223421D01*
X121002047Y-122225551D01*
X121033726Y-122228449D01*
X121064725Y-122232071D01*
X121095672Y-122236395D01*
X121126663Y-122241434D01*
X121156920Y-122247898D01*
X121187093Y-122255116D01*
X121216673Y-122263013D01*
X121246241Y-122271686D01*
X121274987Y-122281010D01*
X121303805Y-122291130D01*
X121331877Y-122301901D01*
X121359980Y-122314174D01*
X121387307Y-122326385D01*
X121414682Y-122339331D01*
X121447098Y-122357349D01*
X121479505Y-122375326D01*
X121510461Y-122394811D01*
X121541429Y-122415694D01*
X121572418Y-122437331D01*
X121601926Y-122459601D01*
X121629984Y-122483385D01*
X121658093Y-122507857D01*
X121685464Y-122533755D01*
X121712095Y-122560423D01*
X121738038Y-122588490D01*
X121762517Y-122617343D01*
X121786978Y-122646853D01*
X121810072Y-122677801D01*
X121833093Y-122708792D01*
X121854726Y-122741226D01*
X121874107Y-122772127D01*
X121892128Y-122803124D01*
X121910131Y-122835523D01*
X121927449Y-122867950D01*
X121943263Y-122901757D01*
X121959092Y-122935641D01*
X121973503Y-122970169D01*
X121987894Y-123006156D01*
X122000888Y-123042192D01*
X122013135Y-123078916D01*
X122024671Y-123116386D01*
X122035423Y-123154574D01*
X122045517Y-123193439D01*
X122054183Y-123233019D01*
X122062137Y-123273376D01*
X122070002Y-123313684D01*
X122764936Y-127530708D01*
X123147296Y-129854510D01*
X123379216Y-131260215D01*
X123472817Y-131842748D01*
X123673000Y-132612585D01*
X123428883Y-132714847D01*
X122497035Y-133103010D01*
X122317027Y-132007646D01*
X122317027Y-132006919D01*
X121498245Y-127471648D01*
X121442089Y-127188650D01*
X121376525Y-126786796D01*
X121310245Y-126384960D01*
X121264157Y-126055860D01*
X121252688Y-125983168D01*
X120893356Y-123804070D01*
X120891893Y-123793970D01*
X120889712Y-123784644D01*
X120887564Y-123775325D01*
X120884684Y-123765917D01*
X120881825Y-123757276D01*
X120878248Y-123748647D01*
X120874609Y-123740719D01*
X120871035Y-123732801D01*
X120866680Y-123724866D01*
X120862360Y-123716915D01*
X120858025Y-123709720D01*
X120853021Y-123702539D01*
X120847946Y-123696052D01*
X120842198Y-123689552D01*
X120837156Y-123683126D01*
X120831398Y-123677314D01*
X120824925Y-123671590D01*
X120818462Y-123666574D01*
X120811944Y-123661524D01*
X120805470Y-123657131D01*
X120798994Y-123652850D01*
X120791816Y-123648533D01*
X120784567Y-123644918D01*
X120776711Y-123641362D01*
X120769499Y-123638493D01*
X120761575Y-123636272D01*
X120753620Y-123634165D01*
X120745695Y-123631916D01*
X120737081Y-123630528D01*
X120728418Y-123629105D01*
X120720515Y-123628370D01*
X120711871Y-123628370D01*
X116741866Y-123544852D01*
X115874832Y-123526839D01*
X115870463Y-123526839D01*
X115861864Y-123527508D01*
X115792749Y-123580861D01*
X115786201Y-123586597D01*
X115779768Y-123591654D01*
X115773257Y-123597374D01*
X115767542Y-123603891D01*
X115755991Y-123616106D01*
X115745182Y-123629808D01*
X115735820Y-123644216D01*
X115727213Y-123658633D01*
X115719982Y-123674428D01*
X115713481Y-123690329D01*
X115707764Y-123706173D01*
X115703395Y-123722731D01*
X115699817Y-123739288D01*
X115697670Y-123755837D01*
X115696934Y-123773106D01*
X115696934Y-123789661D01*
X115697670Y-123797587D01*
X115698361Y-123806222D01*
X115699817Y-123814121D01*
X115701251Y-123822048D01*
X116145590Y-125945019D01*
X116513604Y-125952951D01*
X117886834Y-125983168D01*
X120896255Y-126048010D01*
X120951663Y-126384960D01*
X121017196Y-126786796D01*
X121083411Y-127188650D01*
X121128046Y-127463700D01*
X115907187Y-127351373D01*
X115853928Y-127348493D01*
X115802087Y-127344233D01*
X115750954Y-127336997D01*
X115700552Y-127328380D01*
X115651559Y-127316793D01*
X115602604Y-127303178D01*
X115555045Y-127287317D01*
X115508292Y-127269291D01*
X115462875Y-127249119D01*
X115418257Y-127226808D01*
X115375070Y-127203067D01*
X115332562Y-127177076D01*
X115291519Y-127149050D01*
X115251899Y-127118794D01*
X115213032Y-127087120D01*
X115175608Y-127053272D01*
X115139567Y-127017964D01*
X115104992Y-126980500D01*
X115071875Y-126941646D01*
X115040171Y-126900601D01*
X115009240Y-126858815D01*
X114980419Y-126814170D01*
X114953036Y-126768837D01*
X114927137Y-126721289D01*
X114903349Y-126673018D01*
X114881040Y-126622638D01*
X114860188Y-126570757D01*
X114840678Y-126517524D01*
X114823408Y-126462759D01*
X114807593Y-126407344D01*
X114793903Y-126349707D01*
X114782394Y-126291385D01*
X114435979Y-124412595D01*
X114420849Y-124313918D01*
X114410780Y-124213814D01*
X114406473Y-124113014D01*
X114407943Y-124011471D01*
X114414412Y-123909970D01*
X114425943Y-123807688D01*
X114443193Y-123706173D01*
X114465499Y-123604569D01*
X114492189Y-123503802D01*
X114524610Y-123403697D01*
X114561290Y-123305041D01*
X114603043Y-123208528D01*
X114649895Y-123113492D01*
X114701024Y-123020544D01*
X114757151Y-122929867D01*
X114817673Y-122841979D01*
X114882505Y-122757743D01*
X114950147Y-122677801D01*
X115020732Y-122603650D01*
X115094242Y-122533065D01*
X115169773Y-122468280D01*
X115247576Y-122408539D01*
X115327521Y-122354433D01*
X115409615Y-122304754D01*
X115493138Y-122261589D01*
X115577404Y-122223421D01*
X115663777Y-122191020D01*
X115750242Y-122165100D01*
X115837398Y-122144975D01*
X115925200Y-122130491D01*
X116013818Y-122122591D01*
X116101622Y-122121158D01*
X120938030Y-122222001D01*
G37*
G36*
X148584090Y-122243581D02*
G01*
X148637404Y-122247221D01*
X148689971Y-122253655D01*
X148741825Y-122262287D01*
X148792920Y-122273073D01*
X148842568Y-122286846D01*
X148891602Y-122302606D01*
X148939816Y-122320632D01*
X148986633Y-122340797D01*
X149032728Y-122363114D01*
X149077355Y-122387597D01*
X149121303Y-122414219D01*
X149163827Y-122443049D01*
X149204876Y-122474001D01*
X149244498Y-122506437D01*
X149283350Y-122540980D01*
X149320769Y-122577737D01*
X149356076Y-122615909D01*
X149390652Y-122656200D01*
X149423831Y-122697965D01*
X149454726Y-122741947D01*
X149484245Y-122787274D01*
X149512358Y-122834796D01*
X149538978Y-122883066D01*
X149563446Y-122933446D01*
X149586500Y-122985325D01*
X149607382Y-123038581D01*
X149626860Y-123093295D01*
X149644138Y-123149500D01*
X149659237Y-123207068D01*
X149672885Y-123266160D01*
X149683722Y-123325932D01*
X150103511Y-125799578D01*
X150341894Y-127203067D01*
X150645080Y-128991804D01*
X150658773Y-129089020D01*
X150667363Y-129187705D01*
X150670304Y-129287089D01*
X150668142Y-129387140D01*
X150660934Y-129487283D01*
X150648713Y-129588073D01*
X150630658Y-129688140D01*
X150608340Y-129788271D01*
X150580992Y-129886899D01*
X150549295Y-129985629D01*
X150512618Y-130082117D01*
X150470830Y-130177855D01*
X150424784Y-130270752D01*
X150374301Y-130362237D01*
X150318840Y-130451487D01*
X150259811Y-130537901D01*
X150196452Y-130620703D01*
X150130208Y-130698533D01*
X150061102Y-130771965D01*
X149989050Y-130841080D01*
X149914862Y-130905906D01*
X149838566Y-130964953D01*
X149759379Y-131018961D01*
X149679428Y-131068645D01*
X149597341Y-131111813D01*
X149514502Y-131150752D01*
X149430260Y-131183174D01*
X149344516Y-131210510D01*
X149258859Y-131232111D01*
X149173157Y-131247242D01*
X149086774Y-131256604D01*
X149000293Y-131259488D01*
X148998178Y-131259488D01*
X142762617Y-131250106D01*
X142738875Y-131114032D01*
X142582665Y-130212421D01*
X142517805Y-129837956D01*
X142936203Y-129843018D01*
X142936203Y-129843736D01*
X149206309Y-129853802D01*
X149215631Y-129853802D01*
X149225037Y-129853075D01*
X149234394Y-129851653D01*
X149242983Y-129850173D01*
X149251669Y-129848795D01*
X149260258Y-129846566D01*
X149276879Y-129841586D01*
X149292685Y-129835801D01*
X149307088Y-129828588D01*
X149321557Y-129820689D01*
X149334452Y-129812019D01*
X149346758Y-129802685D01*
X149358243Y-129793285D01*
X149369038Y-129783958D01*
X149378392Y-129773902D01*
X149387764Y-129764483D01*
X149395714Y-129755130D01*
X149402875Y-129745800D01*
X149409366Y-129737167D01*
X149415140Y-129728472D01*
X149421569Y-129719174D01*
X149428092Y-129708330D01*
X149434525Y-129696835D01*
X149441086Y-129683852D01*
X149447567Y-129670172D01*
X149453996Y-129655748D01*
X149459012Y-129639949D01*
X149464079Y-129623327D01*
X149468456Y-129606816D01*
X149472033Y-129588798D01*
X149472771Y-129579437D01*
X149474143Y-129570082D01*
X149474892Y-129560708D01*
X149474892Y-129550667D01*
X149475658Y-129540599D01*
X149474892Y-129530480D01*
X149474892Y-129520377D01*
X149474143Y-129510334D01*
X149472771Y-129499493D01*
X149470567Y-129488668D01*
X149084564Y-127210262D01*
X148846212Y-125806780D01*
X148509889Y-123822802D01*
X148507765Y-123813433D01*
X148505607Y-123803422D01*
X148503456Y-123794696D01*
X148500564Y-123785374D01*
X148497686Y-123776702D01*
X148494132Y-123768103D01*
X148490518Y-123759454D01*
X148486180Y-123751483D01*
X148481802Y-123743641D01*
X148477512Y-123736383D01*
X148472464Y-123728485D01*
X148467451Y-123721982D01*
X148462413Y-123714787D01*
X148456664Y-123708326D01*
X148450860Y-123702539D01*
X148445086Y-123696052D01*
X148438644Y-123691047D01*
X148432832Y-123685224D01*
X148425661Y-123680224D01*
X148419199Y-123675898D01*
X148411984Y-123671590D01*
X148404747Y-123667960D01*
X148397569Y-123664350D01*
X148389711Y-123660767D01*
X148381760Y-123657910D01*
X148373832Y-123655002D01*
X148365921Y-123653568D01*
X148357986Y-123651430D01*
X148349368Y-123649963D01*
X148341455Y-123649332D01*
X148332782Y-123648533D01*
X148324128Y-123648533D01*
X143754240Y-123648533D01*
X143744151Y-123648533D01*
X143734823Y-123649332D01*
X143725456Y-123649963D01*
X143716774Y-123651430D01*
X143708150Y-123653568D01*
X143699501Y-123655002D01*
X143690881Y-123657910D01*
X143682990Y-123660767D01*
X143667107Y-123666574D01*
X143651956Y-123673793D01*
X143637598Y-123682374D01*
X143624625Y-123691047D01*
X143612404Y-123700391D01*
X143600886Y-123709720D01*
X143590057Y-123719793D01*
X143580728Y-123729169D01*
X143571352Y-123739288D01*
X143563458Y-123748647D01*
X143556230Y-123758025D01*
X143549761Y-123766601D01*
X143543986Y-123775325D01*
X143537466Y-123785374D01*
X143531034Y-123796159D01*
X143523816Y-123808392D01*
X143517334Y-123821327D01*
X143511598Y-123835060D01*
X143505799Y-123850164D01*
X143500079Y-123865321D01*
X143495015Y-123881863D01*
X143491411Y-123899123D01*
X143487782Y-123917151D01*
X143487126Y-123926488D01*
X143485638Y-123935855D01*
X143484945Y-123945963D01*
X143484945Y-123955285D01*
X143484945Y-123965338D01*
X143484945Y-123975435D01*
X143485638Y-123986282D01*
X143487126Y-123996346D01*
X143488516Y-124007176D01*
X143490020Y-124017911D01*
X143801031Y-125665604D01*
X143800346Y-125665604D01*
X143800346Y-125666317D01*
X143802498Y-125675646D01*
X143804647Y-125685045D01*
X143807562Y-125694431D01*
X143810458Y-125703010D01*
X143813309Y-125711679D01*
X143816890Y-125719593D01*
X143820514Y-125728231D01*
X143824088Y-125736182D01*
X143828424Y-125743375D01*
X143833467Y-125751266D01*
X143837783Y-125757753D01*
X143842873Y-125764933D01*
X143847915Y-125771461D01*
X143853624Y-125777893D01*
X143859392Y-125783702D01*
X143865182Y-125789479D01*
X143871658Y-125794534D01*
X143878091Y-125800230D01*
X143884590Y-125804548D01*
X143891032Y-125808896D01*
X143898253Y-125813221D01*
X143905460Y-125816842D01*
X143912701Y-125820426D01*
X143920604Y-125823318D01*
X143927769Y-125826170D01*
X143935685Y-125828329D01*
X143943629Y-125830492D01*
X143952343Y-125832642D01*
X143960156Y-125834103D01*
X143968870Y-125834789D01*
X143977474Y-125835535D01*
X143986131Y-125835535D01*
X143987551Y-125835535D01*
X148476087Y-125808896D01*
X148718775Y-127212396D01*
X143789532Y-127241900D01*
X143778723Y-127241900D01*
X143725456Y-127240491D01*
X143672150Y-127236862D01*
X143620295Y-127231156D01*
X143568467Y-127223236D01*
X143518042Y-127212396D01*
X143469097Y-127199419D01*
X143420132Y-127184287D01*
X143372602Y-127167754D01*
X143326480Y-127148331D01*
X143281144Y-127126735D01*
X143236500Y-127102915D01*
X143194023Y-127077736D01*
X143151504Y-127049686D01*
X143111177Y-127020109D01*
X143071556Y-126989163D01*
X143033422Y-126955368D01*
X142996727Y-126920051D01*
X142961414Y-126883327D01*
X142927551Y-126844391D01*
X142894446Y-126803382D01*
X142863516Y-126760906D01*
X142833941Y-126716963D01*
X142805882Y-126670915D01*
X142779888Y-126623332D01*
X142754718Y-126574393D01*
X142731719Y-126523225D01*
X142710784Y-126471388D01*
X142691393Y-126417393D01*
X142673349Y-126362679D01*
X142656816Y-126305806D01*
X142643087Y-126247448D01*
X142630879Y-126188425D01*
X142320501Y-124540764D01*
X142304623Y-124442804D01*
X142294564Y-124343437D01*
X142290239Y-124244063D01*
X142290977Y-124143260D01*
X142296713Y-124041753D01*
X142307515Y-123940863D01*
X142324130Y-123839324D01*
X142344985Y-123738576D01*
X142371615Y-123638493D01*
X142402581Y-123539074D01*
X142439304Y-123441132D01*
X142479630Y-123344638D01*
X142525724Y-123249597D01*
X142576131Y-123156689D01*
X142630879Y-123066695D01*
X142689897Y-122978805D01*
X142753291Y-122894543D01*
X142820250Y-122814633D01*
X142889354Y-122739692D01*
X142962087Y-122669177D01*
X143036303Y-122603650D01*
X143113360Y-122543129D01*
X143192555Y-122487697D01*
X143273896Y-122437331D01*
X143355986Y-122392628D01*
X143440294Y-122353771D01*
X143525243Y-122319915D01*
X143610943Y-122292519D01*
X143698092Y-122270961D01*
X143785183Y-122255116D01*
X143873053Y-122245722D01*
X143960156Y-122242152D01*
X148530085Y-122242152D01*
X148584090Y-122243581D01*
G37*
G36*
X139882188Y-122239973D02*
G01*
X139934042Y-122243581D01*
X139984445Y-122249337D01*
X140034884Y-122257236D01*
X140083829Y-122267317D01*
X140132003Y-122279619D01*
X140179574Y-122294007D01*
X140226363Y-122310535D01*
X140271747Y-122329277D01*
X140316393Y-122350121D01*
X140359600Y-122372460D01*
X140402111Y-122396967D01*
X140443831Y-122423632D01*
X140484201Y-122451655D01*
X140523102Y-122481948D01*
X140560506Y-122514381D01*
X140597240Y-122548169D01*
X140632548Y-122584201D01*
X140666357Y-122621646D01*
X140699471Y-122660542D01*
X140730512Y-122700858D01*
X140759998Y-122743332D01*
X140788037Y-122787274D01*
X140815424Y-122833362D01*
X140840629Y-122880153D01*
X140864403Y-122929114D01*
X140885995Y-122978805D01*
X140906154Y-123030657D01*
X140924887Y-123083210D01*
X140942188Y-123137959D01*
X140957301Y-123193439D01*
X140970252Y-123250283D01*
X141336088Y-124948384D01*
X141354152Y-125044847D01*
X141366349Y-125142793D01*
X141373557Y-125241421D01*
X141374987Y-125341534D01*
X141370670Y-125441609D01*
X141362029Y-125542439D01*
X141347584Y-125643231D01*
X141328153Y-125743375D01*
X141303676Y-125843480D01*
X141274143Y-125942846D01*
X141239608Y-126040755D01*
X141200726Y-126137257D01*
X141156799Y-126232297D01*
X141107815Y-126325217D01*
X141053820Y-126415996D01*
X140995475Y-126504534D01*
X140933549Y-126589538D01*
X140867979Y-126670127D01*
X140799610Y-126745755D01*
X140728358Y-126816288D01*
X140654105Y-126882591D01*
X140577778Y-126943799D01*
X140500000Y-127000000D01*
X140419349Y-127050342D01*
X140337282Y-127095741D01*
X140254451Y-127135324D01*
X140169489Y-127169249D01*
X140083829Y-127197266D01*
X139998102Y-127219581D01*
X139910963Y-127235468D01*
X139823796Y-127245544D01*
X139779922Y-127247696D01*
X139736029Y-127249119D01*
X136242665Y-127257026D01*
X136232619Y-127257026D01*
X136223259Y-127257768D01*
X136213884Y-127259221D01*
X136204523Y-127260636D01*
X136195144Y-127262847D01*
X136186544Y-127264961D01*
X136177849Y-127267166D01*
X136169235Y-127270001D01*
X136153357Y-127277223D01*
X136137527Y-127284445D01*
X136123874Y-127293059D01*
X136110195Y-127302418D01*
X136097226Y-127311803D01*
X136085711Y-127321839D01*
X136074883Y-127332688D01*
X136065517Y-127342742D01*
X136056145Y-127353549D01*
X136048219Y-127363594D01*
X136041036Y-127373005D01*
X136034562Y-127382367D01*
X136028049Y-127391709D01*
X136022353Y-127401785D01*
X136015817Y-127413328D01*
X136009387Y-127426269D01*
X136002826Y-127439227D01*
X135996404Y-127453642D01*
X135991354Y-127469536D01*
X135986320Y-127485283D01*
X135981993Y-127502596D01*
X135978369Y-127519872D01*
X135976998Y-127529282D01*
X135975484Y-127538647D01*
X135974769Y-127547965D01*
X135974769Y-127558070D01*
X135974081Y-127568164D01*
X135974081Y-127578224D01*
X135974769Y-127588326D01*
X135975484Y-127598393D01*
X135976998Y-127609225D01*
X135978369Y-127619246D01*
X135980571Y-127630057D01*
X135982720Y-127640896D01*
X136478143Y-129657219D01*
X136480311Y-129665855D01*
X136483190Y-129674492D01*
X136486045Y-129682412D01*
X136488984Y-129691071D01*
X136492558Y-129698269D01*
X136496188Y-129706161D01*
X136499801Y-129713393D01*
X136504091Y-129721308D01*
X136508383Y-129727746D01*
X136512728Y-129734979D01*
X136517737Y-129741476D01*
X136522792Y-129747214D01*
X136527833Y-129753753D01*
X136533624Y-129759469D01*
X136539392Y-129764483D01*
X136545141Y-129769503D01*
X136550878Y-129774599D01*
X136557370Y-129779603D01*
X136563876Y-129783958D01*
X136570303Y-129787537D01*
X136576868Y-129791872D01*
X136584030Y-129794761D01*
X136591191Y-129798369D01*
X136598417Y-129801233D01*
X136605600Y-129803413D01*
X136612834Y-129805544D01*
X136620767Y-129807701D01*
X136628710Y-129809172D01*
X136636604Y-129810599D01*
X136644473Y-129811322D01*
X136652397Y-129812019D01*
X136660352Y-129812019D01*
X136661771Y-129812019D01*
X139317595Y-129799805D01*
X142156313Y-129833655D01*
X142401188Y-131245840D01*
X139108045Y-131206222D01*
X136461579Y-131218465D01*
X136453683Y-131218465D01*
X136402563Y-131216956D01*
X136352870Y-131214113D01*
X136303850Y-131208340D01*
X136254901Y-131201165D01*
X136207421Y-131191071D01*
X136159870Y-131179539D01*
X136113812Y-131165891D01*
X136068403Y-131150016D01*
X136023719Y-131131972D01*
X135979887Y-131112595D01*
X135937344Y-131090969D01*
X135895617Y-131067903D01*
X135855286Y-131042700D01*
X135814918Y-131015344D01*
X135776715Y-130986583D01*
X135739310Y-130955598D01*
X135703305Y-130923912D01*
X135668030Y-130889312D01*
X135634197Y-130854068D01*
X135601779Y-130816601D01*
X135570148Y-130777698D01*
X135540519Y-130737391D01*
X135511775Y-130694916D01*
X135485121Y-130651702D01*
X135459199Y-130607078D01*
X135435409Y-130560194D01*
X135412406Y-130512756D01*
X135391455Y-130463065D01*
X135372055Y-130412638D01*
X135354743Y-130360755D01*
X135338211Y-130307487D01*
X135323811Y-130252754D01*
X134829125Y-128237152D01*
X134807463Y-128138498D01*
X134792364Y-128038391D01*
X134783000Y-127936850D01*
X134778665Y-127834597D01*
X134780099Y-127731598D01*
X134787302Y-127627957D01*
X134800310Y-127524208D01*
X134818302Y-127419803D01*
X134841359Y-127316793D01*
X134870138Y-127213889D01*
X134903988Y-127112286D01*
X134942895Y-127012221D01*
X134987511Y-126913537D01*
X135036468Y-126816288D01*
X135090476Y-126721289D01*
X135150268Y-126629109D01*
X135213654Y-126540494D01*
X135280608Y-126456286D01*
X135350456Y-126377066D01*
X135423888Y-126302897D01*
X135499507Y-126233785D01*
X135577987Y-126169686D01*
X135657929Y-126111377D01*
X135740767Y-126058109D01*
X135824999Y-126011233D01*
X135910758Y-125969480D01*
X135997829Y-125934174D01*
X136086458Y-125904694D01*
X136175715Y-125881587D01*
X136265028Y-125864329D01*
X136310397Y-125858599D01*
X136355768Y-125854230D01*
X136401096Y-125851408D01*
X136445718Y-125850653D01*
X139939067Y-125842713D01*
X139948401Y-125841961D01*
X139957054Y-125841330D01*
X139964984Y-125840589D01*
X139973604Y-125839163D01*
X139981515Y-125837698D01*
X139988718Y-125835535D01*
X139996673Y-125833386D01*
X140003874Y-125831269D01*
X140018267Y-125825453D01*
X140031993Y-125818228D01*
X140044236Y-125811051D01*
X140056455Y-125803155D01*
X140067206Y-125794534D01*
X140078049Y-125785848D01*
X140087372Y-125776486D01*
X140096086Y-125767843D01*
X140103992Y-125758483D01*
X140111145Y-125749907D01*
X140117660Y-125741191D01*
X140123421Y-125733280D01*
X140129195Y-125725342D01*
X140134931Y-125715971D01*
X140140727Y-125706642D01*
X140146467Y-125695811D01*
X140152198Y-125683591D01*
X140157233Y-125671320D01*
X140163031Y-125657690D01*
X140167320Y-125643231D01*
X140171633Y-125628130D01*
X140174513Y-125613051D01*
X140177401Y-125596479D01*
X140178154Y-125587831D01*
X140178875Y-125579904D01*
X140179574Y-125571218D01*
X140179574Y-125561853D01*
X140179574Y-125553278D01*
X140178875Y-125543893D01*
X140178154Y-125534488D01*
X140176679Y-125525162D01*
X140175244Y-125515844D01*
X140173149Y-125505739D01*
X139808040Y-123807688D01*
X139805890Y-123799022D01*
X139802943Y-123789661D01*
X139800804Y-123781069D01*
X139797912Y-123772384D01*
X139794300Y-123764484D01*
X139790733Y-123756545D01*
X139787085Y-123748647D01*
X139782786Y-123740719D01*
X139778469Y-123733521D01*
X139774144Y-123726360D01*
X139769093Y-123719793D01*
X139764045Y-123713332D01*
X139758990Y-123706850D01*
X139753288Y-123701111D01*
X139747489Y-123695339D01*
X139741732Y-123689552D01*
X139736029Y-123684508D01*
X139729470Y-123679508D01*
X139723029Y-123675169D01*
X139716565Y-123670848D01*
X139709305Y-123666574D01*
X139702871Y-123662954D01*
X139695669Y-123660019D01*
X139687720Y-123657131D01*
X139680533Y-123654277D01*
X139672627Y-123652112D01*
X139665404Y-123649963D01*
X139657480Y-123648533D01*
X139649520Y-123647076D01*
X139640924Y-123646387D01*
X139632998Y-123645682D01*
X139624353Y-123644918D01*
X133303878Y-123644918D01*
X133187193Y-123124279D01*
X133128197Y-122930582D01*
X133100080Y-122841261D01*
X133070564Y-122757743D01*
X133041027Y-122679277D01*
X133008633Y-122606508D01*
X132973309Y-122539548D01*
X132935191Y-122478372D01*
X132915027Y-122451016D01*
X132892717Y-122424288D01*
X132869657Y-122399063D01*
X132845185Y-122376118D01*
X132819978Y-122355159D01*
X132792607Y-122335793D01*
X132763778Y-122317764D01*
X132732830Y-122301171D01*
X132700402Y-122286846D01*
X132666599Y-122274585D01*
X132629834Y-122263742D01*
X132591677Y-122255116D01*
X132551341Y-122247898D01*
X132508872Y-122242863D01*
X132463501Y-122239973D01*
X132415939Y-122239276D01*
X139830352Y-122239276D01*
X139882188Y-122239973D01*
G37*
G36*
X131622417Y-122239973D02*
G01*
X131670633Y-122242863D01*
X131717462Y-122247898D01*
X131764281Y-122255116D01*
X131810362Y-122263742D01*
X131855723Y-122274585D01*
X131899661Y-122286846D01*
X131943525Y-122301171D01*
X131986764Y-122317764D01*
X132028518Y-122335793D01*
X132069612Y-122355159D01*
X132109974Y-122376118D01*
X132149555Y-122399063D01*
X132187720Y-122424288D01*
X132225134Y-122451016D01*
X132261831Y-122478372D01*
X132331036Y-122539548D01*
X132396526Y-122606508D01*
X132457033Y-122679277D01*
X132513185Y-122757743D01*
X132563587Y-122841261D01*
X132608239Y-122930582D01*
X132647838Y-123024949D01*
X132681742Y-123124279D01*
X132798354Y-123644918D01*
X132969764Y-124412595D01*
X132972580Y-124411114D01*
X133972870Y-128894607D01*
X133992314Y-128993282D01*
X134005299Y-129093345D01*
X134013202Y-129194893D01*
X134015336Y-129297854D01*
X134011728Y-129400850D01*
X134003082Y-129503795D01*
X133988715Y-129607537D01*
X133969295Y-129710497D01*
X133944089Y-129812761D01*
X133913827Y-129915014D01*
X133878560Y-130015801D01*
X133838181Y-130114533D01*
X133792819Y-130212421D01*
X133742447Y-130308177D01*
X133687726Y-130401818D01*
X133627243Y-130492585D01*
X133563868Y-130578960D01*
X133496886Y-130661056D01*
X133427024Y-130738114D01*
X133354307Y-130810133D01*
X133279402Y-130877117D01*
X133201629Y-130939018D01*
X133121707Y-130995902D01*
X133040308Y-131047062D01*
X132956781Y-131093107D01*
X132871784Y-131133480D01*
X132785402Y-131167291D01*
X132699020Y-131196120D01*
X132611127Y-131217741D01*
X132522569Y-131234260D01*
X132433935Y-131243609D01*
X132389304Y-131246491D01*
X132344668Y-131247242D01*
X132322354Y-131247242D01*
X130662506Y-131195391D01*
X127981460Y-131186749D01*
X128016045Y-131151501D01*
X128049871Y-131116852D01*
X128082292Y-131081628D01*
X128113244Y-131046334D01*
X128142739Y-131011066D01*
X128170848Y-130975761D01*
X128197521Y-130940448D01*
X128223413Y-130905906D01*
X128265920Y-130846118D01*
X128306990Y-130784164D01*
X128345151Y-130720839D01*
X128382573Y-130656017D01*
X128417140Y-130590483D01*
X128450294Y-130523479D01*
X128481976Y-130455112D01*
X128510734Y-130385237D01*
X128538141Y-130313958D01*
X128564024Y-130241927D01*
X128587762Y-130168487D01*
X128609405Y-130094341D01*
X128629607Y-130018009D01*
X128647576Y-129940956D01*
X128664182Y-129862436D01*
X128678547Y-129783222D01*
X130973560Y-129791872D01*
X132552134Y-129840846D01*
X132561461Y-129840846D01*
X132570777Y-129840123D01*
X132580147Y-129838690D01*
X132589552Y-129837232D01*
X132598144Y-129835801D01*
X132606825Y-129833655D01*
X132615410Y-129830799D01*
X132623359Y-129827907D01*
X132639233Y-129821394D01*
X132654342Y-129814213D01*
X132668720Y-129806314D01*
X132681742Y-129796872D01*
X132693953Y-129787537D01*
X132705455Y-129777455D01*
X132716294Y-129767374D01*
X132726391Y-129757291D01*
X132734970Y-129747214D01*
X132742926Y-129737855D01*
X132750104Y-129728472D01*
X132756571Y-129719820D01*
X132763089Y-129710497D01*
X132769521Y-129700403D01*
X132776066Y-129688903D01*
X132782514Y-129676694D01*
X132788993Y-129662966D01*
X132795493Y-129648599D01*
X132801196Y-129633446D01*
X132806269Y-129617631D01*
X132810598Y-129601019D01*
X132814924Y-129582992D01*
X132817082Y-129565059D01*
X132818463Y-129554960D01*
X132819204Y-129545603D01*
X132819204Y-129535537D01*
X132819204Y-129525430D01*
X132819204Y-129515375D01*
X132818463Y-129505279D01*
X132817807Y-129494475D01*
X132816353Y-129484388D01*
X132814924Y-129473625D01*
X132812032Y-129462798D01*
X131550430Y-123806222D01*
X131548207Y-123797587D01*
X131545351Y-123788254D01*
X131542496Y-123779573D01*
X131539605Y-123770993D01*
X131536673Y-123763069D01*
X131533124Y-123755115D01*
X131528772Y-123747210D01*
X131525192Y-123740005D01*
X131520824Y-123732801D01*
X131515817Y-123725595D01*
X131511504Y-123719118D01*
X131506457Y-123712609D01*
X131501424Y-123706173D01*
X131495652Y-123700391D01*
X131489916Y-123694619D01*
X131484112Y-123689552D01*
X131478401Y-123684508D01*
X131471878Y-123679508D01*
X131465440Y-123675169D01*
X131458940Y-123670848D01*
X131451713Y-123666574D01*
X131445283Y-123662954D01*
X131438085Y-123660019D01*
X131430126Y-123657131D01*
X131422942Y-123654277D01*
X131415705Y-123652112D01*
X131407787Y-123649963D01*
X131399883Y-123648533D01*
X131391938Y-123647076D01*
X131384067Y-123646387D01*
X131375422Y-123645682D01*
X131367457Y-123645682D01*
X125209034Y-123645682D01*
X125199629Y-123645682D01*
X125190261Y-123646387D01*
X125180947Y-123647076D01*
X125171604Y-123648533D01*
X125162877Y-123650693D01*
X125154287Y-123652850D01*
X125146355Y-123655002D01*
X125137674Y-123657910D01*
X125121881Y-123663638D01*
X125107459Y-123671590D01*
X125093044Y-123679508D01*
X125080099Y-123688120D01*
X125067846Y-123697475D01*
X125056338Y-123706850D01*
X125045515Y-123716915D01*
X125035453Y-123726360D01*
X125026835Y-123736383D01*
X125018901Y-123745750D01*
X125011683Y-123755115D01*
X125005240Y-123763758D01*
X124998739Y-123772384D01*
X124992937Y-123782486D01*
X124985767Y-123793276D01*
X124979304Y-123805539D01*
X124972863Y-123818430D01*
X124967032Y-123832167D01*
X124960601Y-123846547D01*
X124955564Y-123862425D01*
X124950501Y-123878957D01*
X124946886Y-123896231D01*
X124943249Y-123914262D01*
X124941831Y-123923585D01*
X124941146Y-123932965D01*
X124940448Y-123942373D01*
X124940448Y-123952439D01*
X124940448Y-123962534D01*
X124940448Y-123972550D01*
X124941146Y-123982647D01*
X124942567Y-123993446D01*
X124943998Y-124004295D01*
X124945465Y-124015070D01*
X125821824Y-128723940D01*
X125872262Y-129002607D01*
X125880189Y-129058080D01*
X125886666Y-129114225D01*
X125891666Y-129170385D01*
X125894572Y-129226601D01*
X125896007Y-129283488D01*
X125895295Y-129340380D01*
X125893098Y-129397956D01*
X125889571Y-129454857D01*
X125883736Y-129512484D01*
X125876565Y-129570082D01*
X125867928Y-129626976D01*
X125857862Y-129684587D01*
X125845612Y-129741476D01*
X125831889Y-129798369D01*
X125816811Y-129855256D01*
X125800248Y-129911397D01*
X126808355Y-129916443D01*
X126809866Y-129916443D01*
X126840795Y-129915747D01*
X126871079Y-129915014D01*
X126899827Y-129912118D01*
X126927921Y-129909236D01*
X126954553Y-129905644D01*
X126980506Y-129900623D01*
X127004984Y-129895593D01*
X127028032Y-129889069D01*
X127049654Y-129882595D01*
X127069817Y-129874652D01*
X127088538Y-129866711D01*
X127105092Y-129857402D01*
X127120204Y-129848080D01*
X127133885Y-129837956D01*
X127145409Y-129827152D01*
X127154818Y-129815638D01*
X127163423Y-129802685D01*
X127171351Y-129788271D01*
X127179296Y-129771750D01*
X127186457Y-129752969D01*
X127193629Y-129732810D01*
X127200177Y-129711235D01*
X127206616Y-129688140D01*
X127212394Y-129663656D01*
X127217453Y-129637753D01*
X127222457Y-129610392D01*
X127226780Y-129581594D01*
X127229658Y-129552073D01*
X127233252Y-129521071D01*
X127235401Y-129489402D01*
X127236853Y-129456973D01*
X127238291Y-129423907D01*
X127238291Y-129388635D01*
X127238291Y-129353318D01*
X127236853Y-129317280D01*
X127234706Y-129281343D01*
X127231855Y-129243874D01*
X127227557Y-129207157D01*
X127223171Y-129168966D01*
X127217453Y-129131509D01*
X127156915Y-128770067D01*
X127046727Y-128116850D01*
X126973286Y-127688376D01*
X126927921Y-127408224D01*
X126622607Y-125576292D01*
X126618290Y-125550369D01*
X126615445Y-125523705D01*
X126613943Y-125497071D01*
X126613257Y-125469702D01*
X126613257Y-125443062D01*
X126614682Y-125415703D01*
X126616831Y-125388329D01*
X126619717Y-125360998D01*
X126624040Y-125333635D01*
X126629093Y-125306947D01*
X126634845Y-125279638D01*
X126642034Y-125252969D01*
X126649260Y-125225547D01*
X126657866Y-125198950D01*
X126668025Y-125173057D01*
X126678067Y-125146392D01*
X126688197Y-125124019D01*
X126698234Y-125101731D01*
X126709040Y-125080104D01*
X126720584Y-125058535D01*
X126732814Y-125036915D01*
X126745719Y-125016061D01*
X126759408Y-124995119D01*
X126773827Y-124974962D01*
X126798303Y-124942552D01*
X126824234Y-124912318D01*
X126850871Y-124883548D01*
X126878976Y-124856890D01*
X126907776Y-124831685D01*
X126938005Y-124808640D01*
X126968285Y-124787788D01*
X126999216Y-124769056D01*
X127031623Y-124751753D01*
X127063995Y-124737372D01*
X127096415Y-124724433D01*
X127129564Y-124713589D01*
X127162721Y-124705689D01*
X127196564Y-124699182D01*
X127229658Y-124695622D01*
X127263514Y-124694862D01*
X127264972Y-124694862D01*
X130043180Y-124703496D01*
X130063350Y-124704227D01*
X130082822Y-124705689D01*
X130102206Y-124707844D01*
X130121636Y-124710737D01*
X130140389Y-124715010D01*
X130158413Y-124719325D01*
X130177147Y-124725115D01*
X130194420Y-124731581D01*
X130212433Y-124738118D01*
X130228974Y-124745974D01*
X130245540Y-124754635D01*
X130262098Y-124763974D01*
X130277939Y-124774052D01*
X130293765Y-124784895D01*
X130308155Y-124796387D01*
X130323302Y-124807917D01*
X130337000Y-124820848D01*
X130350654Y-124834584D01*
X130364358Y-124848958D01*
X130376610Y-124863384D01*
X130388833Y-124879212D01*
X130400354Y-124895050D01*
X130411178Y-124911633D01*
X130421986Y-124928903D01*
X130431350Y-124946175D01*
X130440684Y-124964914D01*
X130449344Y-124983685D01*
X130457228Y-125003057D01*
X130465150Y-125023221D01*
X130471724Y-125044071D01*
X130478154Y-125065018D01*
X130483158Y-125086606D01*
X131085881Y-127656004D01*
X131093832Y-127694872D01*
X131099576Y-127733745D01*
X131102451Y-127773336D01*
X131103880Y-127813016D01*
X131102451Y-127853276D01*
X131099576Y-127893638D01*
X131094557Y-127933967D01*
X131087345Y-127974325D01*
X131077985Y-128014597D01*
X131066459Y-128054957D01*
X131052813Y-128093857D01*
X131036940Y-128133428D01*
X131019662Y-128171596D01*
X131000225Y-128209061D01*
X130979343Y-128245070D01*
X130956290Y-128281061D01*
X130931795Y-128314897D01*
X130905142Y-128347324D01*
X130877805Y-128377539D01*
X130849713Y-128406335D01*
X130820143Y-128433017D01*
X130789968Y-128457484D01*
X130758239Y-128479812D01*
X130726573Y-128499961D01*
X130693424Y-128517992D01*
X130660359Y-128534537D01*
X130626463Y-128548230D01*
X130591892Y-128559013D01*
X130557344Y-128568394D01*
X130522778Y-128574134D01*
X130505505Y-128576286D01*
X130488235Y-128578479D01*
X130470926Y-128579175D01*
X130452922Y-128579905D01*
X130451497Y-128579905D01*
X128652622Y-128572709D01*
X128575570Y-128121219D01*
X128430089Y-127265707D01*
X129930079Y-127221060D01*
X129549887Y-125959380D01*
X127861223Y-126003331D01*
X128019648Y-126953119D01*
X128016711Y-126953865D01*
X128025397Y-127004307D01*
X128033302Y-127051080D01*
X128035517Y-127071994D01*
X128036207Y-127082754D01*
X128036927Y-127092846D01*
X128036927Y-127103649D01*
X128036927Y-127114466D01*
X128037661Y-127125285D01*
X128036927Y-127136060D01*
X128036927Y-127138958D01*
X128037661Y-127142534D01*
X128037661Y-127146156D01*
X128038299Y-127149757D01*
X128039089Y-127152602D01*
X128039813Y-127156226D01*
X128041215Y-127159796D01*
X128041948Y-127163429D01*
X128043415Y-127167031D01*
X128044829Y-127169930D01*
X128047026Y-127173532D01*
X128048409Y-127177076D01*
X128050565Y-127180689D01*
X128052789Y-127183598D01*
X128054975Y-127187194D01*
X128057089Y-127190804D01*
X128177354Y-127895806D01*
X128215498Y-128119762D01*
X128291130Y-128571284D01*
X128308400Y-128672116D01*
X128311990Y-128693652D01*
X128315603Y-128718132D01*
X128319180Y-128744845D01*
X128322834Y-128773646D01*
X128336449Y-129426759D01*
X128329986Y-129494475D01*
X128322038Y-129562905D01*
X128311990Y-129632751D01*
X128299776Y-129703273D01*
X128285362Y-129774599D01*
X128268809Y-129846566D01*
X128249388Y-129918642D01*
X128227739Y-129991333D01*
X128203243Y-130064058D01*
X128175882Y-130136824D01*
X128145670Y-130208850D01*
X128111815Y-130280855D01*
X128075130Y-130351393D01*
X128035517Y-130421960D01*
X127991541Y-130491088D01*
X127944000Y-130559524D01*
X127901523Y-130617160D01*
X127855459Y-130674754D01*
X127805761Y-130733072D01*
X127751797Y-130790704D01*
X127693403Y-130846843D01*
X127630764Y-130901588D01*
X127563075Y-130954170D01*
X127527027Y-130979373D01*
X127490355Y-131003856D01*
X127451464Y-131027599D01*
X127411832Y-131049911D01*
X127370091Y-131071541D01*
X127326895Y-131091745D01*
X127282236Y-131110377D01*
X127236133Y-131128426D01*
X127188626Y-131144959D01*
X127138935Y-131160083D01*
X127087810Y-131173813D01*
X127034497Y-131186057D01*
X126979772Y-131196120D01*
X126922875Y-131205477D01*
X126864564Y-131211921D01*
X126804092Y-131216956D01*
X126741448Y-131219852D01*
X126676610Y-131221291D01*
X124832419Y-131260910D01*
X123685937Y-131260910D01*
X123472817Y-129854510D01*
X124432722Y-129854510D01*
X124442803Y-129853802D01*
X124452155Y-129853802D01*
X124461504Y-129852392D01*
X124470192Y-129850969D01*
X124479514Y-129849451D01*
X124488192Y-129847314D01*
X124496089Y-129844431D01*
X124504728Y-129842242D01*
X124520599Y-129835801D01*
X124535022Y-129828588D01*
X124549356Y-129820689D01*
X124562357Y-129812019D01*
X124574565Y-129802685D01*
X124586090Y-129792605D01*
X124596935Y-129783222D01*
X124606982Y-129773137D01*
X124615611Y-129763070D01*
X124623516Y-129753753D01*
X124630720Y-129744333D01*
X124637243Y-129736444D01*
X124642992Y-129727060D01*
X124649501Y-129717704D01*
X124655942Y-129706161D01*
X124663152Y-129694685D01*
X124669674Y-129681695D01*
X124675343Y-129667966D01*
X124681919Y-129652861D01*
X124686919Y-129637056D01*
X124691981Y-129620480D01*
X124695560Y-129603907D01*
X124699190Y-129585221D01*
X124699849Y-129576553D01*
X124701338Y-129566439D01*
X124702078Y-129557115D01*
X124702078Y-129547060D01*
X124702078Y-129537654D01*
X124702078Y-129526869D01*
X124701338Y-129516754D01*
X124699849Y-129506707D01*
X124698447Y-129495900D01*
X124697023Y-129485063D01*
X123775214Y-124533588D01*
X123760102Y-124436364D01*
X123750724Y-124336972D01*
X123745712Y-124237639D01*
X123747191Y-124136758D01*
X123752948Y-124035218D01*
X123764490Y-123934432D01*
X123780266Y-123832888D01*
X123801935Y-123732801D01*
X123828521Y-123632662D01*
X123859460Y-123533315D01*
X123896253Y-123435428D01*
X123937243Y-123338853D01*
X123982631Y-123244532D01*
X124033071Y-123151689D01*
X124087783Y-123061635D01*
X124147562Y-122973759D01*
X124210939Y-122889510D01*
X124277154Y-122810331D01*
X124346305Y-122735393D01*
X124419036Y-122664900D01*
X124493899Y-122599330D01*
X124570304Y-122538857D01*
X124649501Y-122484087D01*
X124730156Y-122433744D01*
X124812924Y-122389019D01*
X124896448Y-122350121D01*
X124981473Y-122317024D01*
X125067846Y-122288950D01*
X125154287Y-122267317D01*
X125241462Y-122251525D01*
X125328531Y-122242152D01*
X125416404Y-122239276D01*
X131574135Y-122239276D01*
X131622417Y-122239973D01*
G37*
D10*
G36*
X150059665Y-138830957D02*
G01*
X150200355Y-139345232D01*
X150396435Y-139790325D01*
X150645840Y-140175395D01*
X150949624Y-140507379D01*
X151233812Y-140735404D01*
X151532811Y-140909610D01*
X151849267Y-141033612D01*
X152186776Y-141108841D01*
X152549720Y-141134473D01*
X152968511Y-141100942D01*
X153308760Y-141007799D01*
X153585525Y-140861972D01*
X153810013Y-140664305D01*
X153982636Y-140420287D01*
X154113675Y-140113595D01*
X154199049Y-139730427D01*
X154230111Y-139253803D01*
X154205254Y-138818835D01*
X154129370Y-138371747D01*
X153999581Y-137909628D01*
X153811845Y-137429614D01*
X153579777Y-136968710D01*
X153323066Y-136565781D01*
X153042370Y-136215430D01*
X152737482Y-135913171D01*
X152506129Y-135737966D01*
X152276866Y-135618914D01*
X152046694Y-135549582D01*
X151811802Y-135526657D01*
X151607269Y-135545268D01*
X151339241Y-135609262D01*
X150992062Y-135733042D01*
X150676025Y-135885500D01*
X150491684Y-136025404D01*
X150398622Y-136154526D01*
X150370464Y-136279535D01*
X150395667Y-136411562D01*
X150473046Y-136530495D01*
X150586350Y-136613249D01*
X150718815Y-136640404D01*
X150798624Y-136622888D01*
X150930696Y-136553393D01*
X151291309Y-136359966D01*
X151579743Y-136259674D01*
X151811802Y-136230076D01*
X151973427Y-136255845D01*
X152149819Y-136339415D01*
X152348220Y-136496606D01*
X152498947Y-136660834D01*
X152751221Y-136982039D01*
X153040740Y-137417013D01*
X153260784Y-137858303D01*
X153415970Y-138308761D01*
X153508909Y-138771879D01*
X153540125Y-139251666D01*
X153512174Y-139679939D01*
X153441343Y-139966661D01*
X153341983Y-140150785D01*
X153224675Y-140264274D01*
X153062461Y-140351271D01*
X152842947Y-140409334D01*
X152549720Y-140431053D01*
X152250236Y-140406197D01*
X151976441Y-140333500D01*
X151723375Y-140213483D01*
X151487264Y-140043623D01*
X151275309Y-139825137D01*
X151093877Y-139560951D01*
X150942992Y-139244621D01*
X150824755Y-138867899D01*
X151449932Y-138931779D01*
X151986713Y-139051999D01*
X152447138Y-139222356D01*
X152600706Y-139258688D01*
X152738361Y-139230429D01*
X152850139Y-139145725D01*
X152919385Y-139034043D01*
X152942341Y-138906367D01*
X152922875Y-138794314D01*
X152864812Y-138698398D01*
X152761296Y-138613886D01*
X152479704Y-138474115D01*
X152106416Y-138352372D01*
X151620781Y-138254615D01*
X150999516Y-138188790D01*
X150216896Y-138164480D01*
X150081283Y-138189588D01*
X149971127Y-138263703D01*
X149897170Y-138374367D01*
X149871903Y-138513136D01*
X149893669Y-138649659D01*
X149955154Y-138752819D01*
X150059665Y-138830957D01*
G37*
G36*
X146587964Y-135890584D02*
G01*
X146742309Y-136037047D01*
X147028993Y-136407983D01*
X147518623Y-137151177D01*
X148080151Y-138075987D01*
X148502311Y-138828820D01*
X148658570Y-138885592D01*
X148758691Y-138962639D01*
X148816712Y-139059721D01*
X148836924Y-139183583D01*
X148822097Y-139293945D01*
X148778916Y-139388442D01*
X149218663Y-140372793D01*
X149294574Y-140633469D01*
X149267669Y-140768424D01*
X149187107Y-140879239D01*
X149071074Y-140953866D01*
X148942864Y-140978157D01*
X148828385Y-140957693D01*
X148731011Y-140896576D01*
X148645804Y-140787037D01*
X148269096Y-139976890D01*
X148061758Y-139480949D01*
X147153175Y-139292882D01*
X146241233Y-139121912D01*
X146107392Y-139831238D01*
X146019277Y-140197191D01*
X145867633Y-140615940D01*
X145726710Y-140850939D01*
X145597291Y-140964421D01*
X145472479Y-140997697D01*
X145344554Y-140973413D01*
X145230068Y-140899084D01*
X145150669Y-140788771D01*
X145124127Y-140654535D01*
X145142320Y-140542193D01*
X145223351Y-140287255D01*
X145418135Y-139750226D01*
X145703702Y-138419408D01*
X146401823Y-138419408D01*
X147187153Y-138569147D01*
X147655094Y-138675252D01*
X146678428Y-137103244D01*
X146401823Y-138419408D01*
X145703702Y-138419408D01*
X145926770Y-137379849D01*
X146142009Y-136234045D01*
X146210054Y-136054732D01*
X146293828Y-135942703D01*
X146392260Y-135879993D01*
X146510816Y-135858827D01*
X146587964Y-135890584D01*
G37*
G36*
X139072400Y-141193091D02*
G01*
X139184950Y-141172637D01*
X139284803Y-141110515D01*
X139376482Y-140997697D01*
X139465152Y-140799569D01*
X139560886Y-140438991D01*
X139683923Y-139851282D01*
X139833699Y-139141597D01*
X140127834Y-137438468D01*
X140811104Y-139499267D01*
X141012604Y-140148647D01*
X141144388Y-140515099D01*
X141268754Y-140780931D01*
X141382232Y-140940883D01*
X141508825Y-141027772D01*
X141654658Y-141056315D01*
X141775277Y-141032127D01*
X141879421Y-140958363D01*
X141972173Y-140821842D01*
X142040719Y-140667154D01*
X142108949Y-140456088D01*
X142207868Y-140076901D01*
X142527948Y-138846585D01*
X142816032Y-137493117D01*
X142939070Y-138107083D01*
X143379623Y-139917838D01*
X143428829Y-140273586D01*
X143550287Y-140860921D01*
X143638999Y-141019608D01*
X143749586Y-141105654D01*
X143888564Y-141134473D01*
X144039978Y-141103697D01*
X144154788Y-141013572D01*
X144218219Y-140899961D01*
X144240273Y-140758033D01*
X144217728Y-140376182D01*
X144143096Y-139909146D01*
X144004579Y-139342035D01*
X143629056Y-137964811D01*
X143430914Y-136888311D01*
X143311036Y-136378469D01*
X143204759Y-136069832D01*
X143113093Y-135900654D01*
X143010558Y-135787036D01*
X142899389Y-135723548D01*
X142774816Y-135702512D01*
X142642719Y-135729091D01*
X142534299Y-135808844D01*
X142443562Y-135955303D01*
X142323639Y-136340262D01*
X142156577Y-137195751D01*
X142018866Y-137940887D01*
X141832590Y-138750411D01*
X141593292Y-139629021D01*
X141273552Y-138745897D01*
X140981946Y-137832716D01*
X140718902Y-136888311D01*
X140616320Y-136389139D01*
X140541234Y-136105249D01*
X140455730Y-135904012D01*
X140351280Y-135765903D01*
X140231513Y-135689116D01*
X140090282Y-135663433D01*
X139967700Y-135690360D01*
X139854460Y-135775685D01*
X139745456Y-135940019D01*
X139643012Y-136218475D01*
X139591187Y-136465546D01*
X139509900Y-137025087D01*
X139355886Y-138055942D01*
X139187326Y-138929600D01*
X139007676Y-139663520D01*
X138840369Y-140251229D01*
X138732292Y-140688336D01*
X138710310Y-140841992D01*
X138738073Y-140979335D01*
X138821441Y-141092341D01*
X138940661Y-141168330D01*
X139072400Y-141193091D01*
G37*
G36*
X134635118Y-136288695D02*
G01*
X134741058Y-136272208D01*
X135315701Y-136151599D01*
X135854501Y-136112840D01*
X136140350Y-136124340D01*
X136466024Y-136161078D01*
X136802260Y-136220221D01*
X137179823Y-136308234D01*
X137148988Y-136667882D01*
X137161579Y-137193732D01*
X137206995Y-137988625D01*
X135711008Y-137842995D01*
X134901648Y-137773691D01*
X134762064Y-137798165D01*
X134648857Y-137869862D01*
X134572866Y-137979790D01*
X134546275Y-138127233D01*
X134567294Y-138270304D01*
X134624469Y-138370327D01*
X134718183Y-138438833D01*
X134860432Y-138477110D01*
X135673456Y-138548857D01*
X137251570Y-138692044D01*
X137273551Y-139148778D01*
X137282100Y-139550863D01*
X137263012Y-140070165D01*
X137220781Y-140328362D01*
X137172801Y-140433801D01*
X137105333Y-140476655D01*
X136947430Y-140512681D01*
X136636688Y-140528750D01*
X135999520Y-140518981D01*
X135359298Y-140509211D01*
X135157798Y-140489672D01*
X134959656Y-140470132D01*
X134794324Y-140494579D01*
X134687405Y-140559264D01*
X134622063Y-140663844D01*
X134597566Y-140823979D01*
X134630657Y-140990933D01*
X134723148Y-141101212D01*
X134887909Y-141167445D01*
X135301089Y-141211067D01*
X136277957Y-141232170D01*
X136844599Y-141207069D01*
X137230960Y-141143353D01*
X137482634Y-141055458D01*
X137637473Y-140952817D01*
X137759352Y-140793115D01*
X137862159Y-140534357D01*
X137936230Y-140137828D01*
X137965369Y-139556053D01*
X137955294Y-139079169D01*
X137927817Y-138520464D01*
X137965369Y-138353463D01*
X137948990Y-138243086D01*
X137900340Y-138145551D01*
X137846119Y-137225340D01*
X137831952Y-136690779D01*
X137866146Y-136321362D01*
X137900340Y-135951639D01*
X137875132Y-135761290D01*
X137810065Y-135641943D01*
X137708814Y-135571792D01*
X137558705Y-135546196D01*
X137425172Y-135570374D01*
X137312936Y-135642367D01*
X136907040Y-135538713D01*
X136539296Y-135467733D01*
X136180228Y-135423487D01*
X135854501Y-135409420D01*
X135300532Y-135434928D01*
X134865959Y-135503790D01*
X134529483Y-135606341D01*
X134399837Y-135685486D01*
X134326172Y-135791281D01*
X134300505Y-135932100D01*
X134322637Y-136060111D01*
X134389349Y-136173290D01*
X134500806Y-136260104D01*
X134635118Y-136288695D01*
G37*
G36*
X129636078Y-138830957D02*
G01*
X129776768Y-139345232D01*
X129972849Y-139790325D01*
X130222254Y-140175395D01*
X130526038Y-140507379D01*
X130810225Y-140735404D01*
X131109224Y-140909610D01*
X131425680Y-141033612D01*
X131763190Y-141108841D01*
X132126133Y-141134473D01*
X132544924Y-141100942D01*
X132885173Y-141007799D01*
X133161938Y-140861972D01*
X133386427Y-140664305D01*
X133559049Y-140420287D01*
X133690088Y-140113595D01*
X133775462Y-139730427D01*
X133806524Y-139253803D01*
X133781667Y-138818835D01*
X133705783Y-138371747D01*
X133575995Y-137909628D01*
X133388258Y-137429614D01*
X133156190Y-136968710D01*
X132899479Y-136565781D01*
X132618783Y-136215430D01*
X132313895Y-135913171D01*
X132082542Y-135737966D01*
X131853279Y-135618914D01*
X131623107Y-135549582D01*
X131388215Y-135526657D01*
X131183682Y-135545268D01*
X130915655Y-135609262D01*
X130568475Y-135733042D01*
X130252438Y-135885500D01*
X130068097Y-136025404D01*
X129975035Y-136154526D01*
X129946877Y-136279535D01*
X129972081Y-136411562D01*
X130049459Y-136530495D01*
X130162763Y-136613249D01*
X130295228Y-136640404D01*
X130375037Y-136622888D01*
X130507109Y-136553393D01*
X130867722Y-136359966D01*
X131156156Y-136259674D01*
X131388215Y-136230076D01*
X131549840Y-136255845D01*
X131726232Y-136339415D01*
X131924633Y-136496606D01*
X132075360Y-136660834D01*
X132327634Y-136982039D01*
X132617154Y-137417013D01*
X132837197Y-137858303D01*
X132992383Y-138308761D01*
X133085322Y-138771879D01*
X133116538Y-139251666D01*
X133088587Y-139679939D01*
X133017756Y-139966661D01*
X132918396Y-140150785D01*
X132801088Y-140264274D01*
X132638875Y-140351271D01*
X132419360Y-140409334D01*
X132126133Y-140431053D01*
X131826649Y-140406197D01*
X131552854Y-140333500D01*
X131299788Y-140213483D01*
X131063677Y-140043623D01*
X130851722Y-139825137D01*
X130670290Y-139560951D01*
X130519405Y-139244621D01*
X130401168Y-138867899D01*
X131026345Y-138931779D01*
X131563126Y-139051999D01*
X132023551Y-139222356D01*
X132177119Y-139258688D01*
X132314774Y-139230429D01*
X132426552Y-139145725D01*
X132495798Y-139034043D01*
X132518754Y-138906367D01*
X132499288Y-138794314D01*
X132441225Y-138698398D01*
X132337709Y-138613886D01*
X132056117Y-138474115D01*
X131682829Y-138352372D01*
X131197194Y-138254615D01*
X130575929Y-138188790D01*
X129793309Y-138164480D01*
X129657696Y-138189588D01*
X129547540Y-138263703D01*
X129473583Y-138374367D01*
X129448316Y-138513136D01*
X129470082Y-138649659D01*
X129531568Y-138752819D01*
X129636078Y-138830957D01*
G37*
G36*
X126049677Y-136639183D02*
G01*
X126599528Y-136594914D01*
X127149685Y-136523168D01*
X127209029Y-137509280D01*
X127228148Y-138426735D01*
X127214410Y-139019024D01*
X127200671Y-139611313D01*
X127224790Y-140196580D01*
X126148900Y-140182841D01*
X126016758Y-140208715D01*
X125908016Y-140286034D01*
X125835352Y-140399844D01*
X125810624Y-140539436D01*
X125835494Y-140682239D01*
X125908016Y-140796807D01*
X126016758Y-140874126D01*
X126148900Y-140900000D01*
X126722566Y-140900000D01*
X127296536Y-140900000D01*
X127549466Y-140912257D01*
X127971257Y-140958618D01*
X128393206Y-141004930D01*
X128649031Y-141017236D01*
X128781466Y-140992160D01*
X128889916Y-140917707D01*
X128962705Y-140807444D01*
X128987308Y-140673159D01*
X128962768Y-140538876D01*
X128889916Y-140427390D01*
X128781320Y-140351504D01*
X128649031Y-140326029D01*
X128391389Y-140311768D01*
X127914776Y-140255198D01*
X127889684Y-139968951D01*
X127880582Y-139623220D01*
X127902869Y-139047418D01*
X127924851Y-138474973D01*
X127903297Y-137636721D01*
X127829291Y-136503628D01*
X128273203Y-136517367D01*
X128717419Y-136527747D01*
X128853109Y-136502717D01*
X128963494Y-136428829D01*
X129037080Y-136317474D01*
X129062412Y-136175732D01*
X129040880Y-136030528D01*
X128982525Y-135930330D01*
X128886902Y-135862958D01*
X128741233Y-135827381D01*
X128404765Y-135808737D01*
X127706254Y-135800209D01*
X126985715Y-135832759D01*
X126002049Y-135945533D01*
X125865731Y-135986252D01*
X125774767Y-136056963D01*
X125718676Y-136159920D01*
X125697967Y-136307013D01*
X125727411Y-136450777D01*
X125813982Y-136560720D01*
X125923749Y-136619418D01*
X126049677Y-136639183D01*
G37*
G36*
X124697947Y-135655057D02*
G01*
X124814975Y-135708923D01*
X124913032Y-135808147D01*
X124994567Y-135965691D01*
X125022330Y-136150087D01*
X124989968Y-136666660D01*
X124957606Y-137182929D01*
X124971921Y-137533000D01*
X125025994Y-138116852D01*
X125079789Y-138701076D01*
X125094077Y-139053829D01*
X125068431Y-139859525D01*
X125042786Y-140664916D01*
X125017987Y-140804145D01*
X124945394Y-140916181D01*
X124836396Y-140991689D01*
X124701456Y-141017236D01*
X124566254Y-140991675D01*
X124457213Y-140916181D01*
X124384623Y-140803849D01*
X124359822Y-140664305D01*
X124376919Y-139988974D01*
X124404091Y-139317306D01*
X123869069Y-139498765D01*
X123352379Y-139737917D01*
X122851554Y-140036942D01*
X122364636Y-140399200D01*
X121890221Y-140829169D01*
X121770245Y-140912963D01*
X121647810Y-140939078D01*
X121517625Y-140912925D01*
X121403567Y-140832833D01*
X121325250Y-140716401D01*
X121299459Y-140582484D01*
X121320930Y-140464305D01*
X121388302Y-140349232D01*
X121661021Y-140058263D01*
X122008796Y-139760382D01*
X122443021Y-139454911D01*
X122976491Y-139141756D01*
X122609139Y-139008446D01*
X122295994Y-138844962D01*
X122030355Y-138652660D01*
X121816019Y-138435261D01*
X121671465Y-138212221D01*
X121587141Y-137980008D01*
X121559246Y-137735528D01*
X122245594Y-137735528D01*
X122282932Y-137869564D01*
X122426639Y-138062508D01*
X122599157Y-138219452D01*
X122781707Y-138340945D01*
X123081890Y-138460369D01*
X123504935Y-138543165D01*
X124086575Y-138574808D01*
X124238311Y-138571449D01*
X124386994Y-138567786D01*
X124315247Y-137883600D01*
X124270978Y-137199110D01*
X124294792Y-136782981D01*
X124328986Y-136366852D01*
X123823403Y-136408068D01*
X123473570Y-136480558D01*
X123129222Y-136623839D01*
X122785371Y-136844958D01*
X122532322Y-137073599D01*
X122367974Y-137295259D01*
X122275596Y-137513853D01*
X122245594Y-137735528D01*
X121559246Y-137735528D01*
X121558967Y-137733086D01*
X121592891Y-137409056D01*
X121694450Y-137101430D01*
X121867847Y-136803836D01*
X122122975Y-136511834D01*
X122474740Y-136223199D01*
X122942297Y-135937901D01*
X123162097Y-135840326D01*
X123422916Y-135763093D01*
X123731202Y-135708923D01*
X124554300Y-135643893D01*
X124697947Y-135655057D01*
G37*
G36*
X117596432Y-140763224D02*
G01*
X117862298Y-140864820D01*
X118254606Y-140971887D01*
X118808792Y-141081960D01*
X119537824Y-141183789D01*
X120052294Y-141212630D01*
X120282022Y-141197969D01*
X120441025Y-141160297D01*
X120547496Y-141106690D01*
X120654968Y-140994497D01*
X120725480Y-140826279D01*
X120752355Y-140580347D01*
X120683967Y-139448892D01*
X120618445Y-137840947D01*
X120595123Y-135976369D01*
X120570541Y-135839986D01*
X120497732Y-135726936D01*
X120389081Y-135650081D01*
X120257152Y-135624354D01*
X120122073Y-135650249D01*
X120012909Y-135726936D01*
X119940110Y-135839732D01*
X119915518Y-135976064D01*
X119939731Y-137862785D01*
X120007719Y-139487971D01*
X120052294Y-140006987D01*
X120072749Y-140509211D01*
X119643573Y-140491555D01*
X119133211Y-140423584D01*
X118529250Y-140295470D01*
X117818387Y-140096135D01*
X117709089Y-140079344D01*
X117574901Y-140108254D01*
X117463319Y-140196275D01*
X117399237Y-140310447D01*
X117377834Y-140440212D01*
X117401877Y-140573188D01*
X117472057Y-140678578D01*
X117596432Y-140763224D01*
G37*
G36*
X111283060Y-137770638D02*
G01*
X111303187Y-137866983D01*
X111365186Y-137951378D01*
X111453227Y-138009045D01*
X111549590Y-138027704D01*
X111644665Y-138000024D01*
X111746829Y-137902772D01*
X111862071Y-137695323D01*
X111990143Y-137317873D01*
X112212098Y-136387918D01*
X112557091Y-137283679D01*
X112741446Y-137636995D01*
X112886219Y-137832759D01*
X112999983Y-137924232D01*
X113093204Y-137949546D01*
X113184815Y-137927231D01*
X113260099Y-137857779D01*
X113322182Y-137722400D01*
X113384434Y-137468424D01*
X113455294Y-137061418D01*
X113578332Y-136394635D01*
X113811574Y-137115971D01*
X114000896Y-137552517D01*
X114152394Y-137790643D01*
X114273277Y-137900026D01*
X114374258Y-137930006D01*
X114469918Y-137910795D01*
X114556830Y-137851238D01*
X114617527Y-137765434D01*
X114637124Y-137669888D01*
X114623188Y-137594962D01*
X114575758Y-137505635D01*
X114433793Y-137273003D01*
X114297478Y-136971624D01*
X114169094Y-136588197D01*
X113882109Y-135626491D01*
X113823000Y-135524538D01*
X113746214Y-135467889D01*
X113646414Y-135448499D01*
X113511728Y-135479748D01*
X113385974Y-135580069D01*
X113263549Y-135776605D01*
X113147854Y-136114366D01*
X112973831Y-137044321D01*
X112912146Y-136900398D01*
X112779047Y-136486226D01*
X112629552Y-136020532D01*
X112529614Y-135768152D01*
X112400633Y-135542123D01*
X112292865Y-135438199D01*
X112198360Y-135409420D01*
X112088871Y-135432158D01*
X112010183Y-135497958D01*
X111955949Y-135617943D01*
X111727276Y-136404405D01*
X111570045Y-137023866D01*
X111462159Y-137336315D01*
X111323970Y-137631725D01*
X111283060Y-137770638D01*
G37*
G36*
X116724180Y-135468039D02*
G01*
X116355373Y-135487578D01*
X115982903Y-135507117D01*
X114872819Y-135490326D01*
X114606289Y-135476282D01*
X114340064Y-135468039D01*
X114185492Y-135498727D01*
X114101129Y-135579937D01*
X114070176Y-135723883D01*
X114097632Y-135856681D01*
X114173128Y-135937037D01*
X114309228Y-135976064D01*
X115371379Y-136015143D01*
X115361304Y-136586060D01*
X115327110Y-137160642D01*
X115281010Y-137476020D01*
X115234909Y-137760258D01*
X115254957Y-137857822D01*
X115315204Y-137937639D01*
X115402013Y-137990572D01*
X115501439Y-138008164D01*
X115635620Y-137980135D01*
X115725984Y-137900481D01*
X115781402Y-137755678D01*
X115815596Y-137112709D01*
X115863224Y-136555530D01*
X115884255Y-136246765D01*
X115883679Y-136018501D01*
X116307440Y-135997435D01*
X116724180Y-135976064D01*
X116869624Y-135946036D01*
X116950296Y-135865432D01*
X116980329Y-135720219D01*
X116950477Y-135577430D01*
X116869972Y-135497815D01*
X116724180Y-135468039D01*
G37*
D12*
X137511904Y-111204819D02*
X137511904Y-112014342D01*
X137511904Y-112014342D02*
X137464285Y-112109580D01*
X137464285Y-112109580D02*
X137416666Y-112157200D01*
X137416666Y-112157200D02*
X137321428Y-112204819D01*
X137321428Y-112204819D02*
X137130952Y-112204819D01*
X137130952Y-112204819D02*
X137035714Y-112157200D01*
X137035714Y-112157200D02*
X136988095Y-112109580D01*
X136988095Y-112109580D02*
X136940476Y-112014342D01*
X136940476Y-112014342D02*
X136940476Y-111204819D01*
X135940476Y-112204819D02*
X136511904Y-112204819D01*
X136226190Y-112204819D02*
X136226190Y-111204819D01*
X136226190Y-111204819D02*
X136321428Y-111347676D01*
X136321428Y-111347676D02*
X136416666Y-111442914D01*
X136416666Y-111442914D02*
X136511904Y-111490533D01*
X110313094Y-101376819D02*
X110313094Y-102186342D01*
X110313094Y-102186342D02*
X110265475Y-102281580D01*
X110265475Y-102281580D02*
X110217856Y-102329200D01*
X110217856Y-102329200D02*
X110122618Y-102376819D01*
X110122618Y-102376819D02*
X109932142Y-102376819D01*
X109932142Y-102376819D02*
X109836904Y-102329200D01*
X109836904Y-102329200D02*
X109789285Y-102281580D01*
X109789285Y-102281580D02*
X109741666Y-102186342D01*
X109741666Y-102186342D02*
X109741666Y-101376819D01*
X109313094Y-102329200D02*
X109170237Y-102376819D01*
X109170237Y-102376819D02*
X108932142Y-102376819D01*
X108932142Y-102376819D02*
X108836904Y-102329200D01*
X108836904Y-102329200D02*
X108789285Y-102281580D01*
X108789285Y-102281580D02*
X108741666Y-102186342D01*
X108741666Y-102186342D02*
X108741666Y-102091104D01*
X108741666Y-102091104D02*
X108789285Y-101995866D01*
X108789285Y-101995866D02*
X108836904Y-101948247D01*
X108836904Y-101948247D02*
X108932142Y-101900628D01*
X108932142Y-101900628D02*
X109122618Y-101853009D01*
X109122618Y-101853009D02*
X109217856Y-101805390D01*
X109217856Y-101805390D02*
X109265475Y-101757771D01*
X109265475Y-101757771D02*
X109313094Y-101662533D01*
X109313094Y-101662533D02*
X109313094Y-101567295D01*
X109313094Y-101567295D02*
X109265475Y-101472057D01*
X109265475Y-101472057D02*
X109217856Y-101424438D01*
X109217856Y-101424438D02*
X109122618Y-101376819D01*
X109122618Y-101376819D02*
X108884523Y-101376819D01*
X108884523Y-101376819D02*
X108741666Y-101424438D01*
X107979761Y-101853009D02*
X107836904Y-101900628D01*
X107836904Y-101900628D02*
X107789285Y-101948247D01*
X107789285Y-101948247D02*
X107741666Y-102043485D01*
X107741666Y-102043485D02*
X107741666Y-102186342D01*
X107741666Y-102186342D02*
X107789285Y-102281580D01*
X107789285Y-102281580D02*
X107836904Y-102329200D01*
X107836904Y-102329200D02*
X107932142Y-102376819D01*
X107932142Y-102376819D02*
X108313094Y-102376819D01*
X108313094Y-102376819D02*
X108313094Y-101376819D01*
X108313094Y-101376819D02*
X107979761Y-101376819D01*
X107979761Y-101376819D02*
X107884523Y-101424438D01*
X107884523Y-101424438D02*
X107836904Y-101472057D01*
X107836904Y-101472057D02*
X107789285Y-101567295D01*
X107789285Y-101567295D02*
X107789285Y-101662533D01*
X107789285Y-101662533D02*
X107836904Y-101757771D01*
X107836904Y-101757771D02*
X107884523Y-101805390D01*
X107884523Y-101805390D02*
X107979761Y-101853009D01*
X107979761Y-101853009D02*
X108313094Y-101853009D01*
X106789285Y-102376819D02*
X107360713Y-102376819D01*
X107074999Y-102376819D02*
X107074999Y-101376819D01*
X107074999Y-101376819D02*
X107170237Y-101519676D01*
X107170237Y-101519676D02*
X107265475Y-101614914D01*
X107265475Y-101614914D02*
X107360713Y-101662533D01*
X119761904Y-103454819D02*
X119761904Y-104264342D01*
X119761904Y-104264342D02*
X119714285Y-104359580D01*
X119714285Y-104359580D02*
X119666666Y-104407200D01*
X119666666Y-104407200D02*
X119571428Y-104454819D01*
X119571428Y-104454819D02*
X119380952Y-104454819D01*
X119380952Y-104454819D02*
X119285714Y-104407200D01*
X119285714Y-104407200D02*
X119238095Y-104359580D01*
X119238095Y-104359580D02*
X119190476Y-104264342D01*
X119190476Y-104264342D02*
X119190476Y-103454819D01*
X118285714Y-103788152D02*
X118285714Y-104454819D01*
X118523809Y-103407200D02*
X118761904Y-104121485D01*
X118761904Y-104121485D02*
X118142857Y-104121485D01*
X172304819Y-134944642D02*
X171828628Y-134611309D01*
X172304819Y-134373214D02*
X171304819Y-134373214D01*
X171304819Y-134373214D02*
X171304819Y-134754166D01*
X171304819Y-134754166D02*
X171352438Y-134849404D01*
X171352438Y-134849404D02*
X171400057Y-134897023D01*
X171400057Y-134897023D02*
X171495295Y-134944642D01*
X171495295Y-134944642D02*
X171638152Y-134944642D01*
X171638152Y-134944642D02*
X171733390Y-134897023D01*
X171733390Y-134897023D02*
X171781009Y-134849404D01*
X171781009Y-134849404D02*
X171828628Y-134754166D01*
X171828628Y-134754166D02*
X171828628Y-134373214D01*
X172304819Y-135897023D02*
X172304819Y-135325595D01*
X172304819Y-135611309D02*
X171304819Y-135611309D01*
X171304819Y-135611309D02*
X171447676Y-135516071D01*
X171447676Y-135516071D02*
X171542914Y-135420833D01*
X171542914Y-135420833D02*
X171590533Y-135325595D01*
X171733390Y-136468452D02*
X171685771Y-136373214D01*
X171685771Y-136373214D02*
X171638152Y-136325595D01*
X171638152Y-136325595D02*
X171542914Y-136277976D01*
X171542914Y-136277976D02*
X171495295Y-136277976D01*
X171495295Y-136277976D02*
X171400057Y-136325595D01*
X171400057Y-136325595D02*
X171352438Y-136373214D01*
X171352438Y-136373214D02*
X171304819Y-136468452D01*
X171304819Y-136468452D02*
X171304819Y-136658928D01*
X171304819Y-136658928D02*
X171352438Y-136754166D01*
X171352438Y-136754166D02*
X171400057Y-136801785D01*
X171400057Y-136801785D02*
X171495295Y-136849404D01*
X171495295Y-136849404D02*
X171542914Y-136849404D01*
X171542914Y-136849404D02*
X171638152Y-136801785D01*
X171638152Y-136801785D02*
X171685771Y-136754166D01*
X171685771Y-136754166D02*
X171733390Y-136658928D01*
X171733390Y-136658928D02*
X171733390Y-136468452D01*
X171733390Y-136468452D02*
X171781009Y-136373214D01*
X171781009Y-136373214D02*
X171828628Y-136325595D01*
X171828628Y-136325595D02*
X171923866Y-136277976D01*
X171923866Y-136277976D02*
X172114342Y-136277976D01*
X172114342Y-136277976D02*
X172209580Y-136325595D01*
X172209580Y-136325595D02*
X172257200Y-136373214D01*
X172257200Y-136373214D02*
X172304819Y-136468452D01*
X172304819Y-136468452D02*
X172304819Y-136658928D01*
X172304819Y-136658928D02*
X172257200Y-136754166D01*
X172257200Y-136754166D02*
X172209580Y-136801785D01*
X172209580Y-136801785D02*
X172114342Y-136849404D01*
X172114342Y-136849404D02*
X171923866Y-136849404D01*
X171923866Y-136849404D02*
X171828628Y-136801785D01*
X171828628Y-136801785D02*
X171781009Y-136754166D01*
X171781009Y-136754166D02*
X171733390Y-136658928D01*
X97454819Y-111833333D02*
X96978628Y-111500000D01*
X97454819Y-111261905D02*
X96454819Y-111261905D01*
X96454819Y-111261905D02*
X96454819Y-111642857D01*
X96454819Y-111642857D02*
X96502438Y-111738095D01*
X96502438Y-111738095D02*
X96550057Y-111785714D01*
X96550057Y-111785714D02*
X96645295Y-111833333D01*
X96645295Y-111833333D02*
X96788152Y-111833333D01*
X96788152Y-111833333D02*
X96883390Y-111785714D01*
X96883390Y-111785714D02*
X96931009Y-111738095D01*
X96931009Y-111738095D02*
X96978628Y-111642857D01*
X96978628Y-111642857D02*
X96978628Y-111261905D01*
X96454819Y-112690476D02*
X96454819Y-112500000D01*
X96454819Y-112500000D02*
X96502438Y-112404762D01*
X96502438Y-112404762D02*
X96550057Y-112357143D01*
X96550057Y-112357143D02*
X96692914Y-112261905D01*
X96692914Y-112261905D02*
X96883390Y-112214286D01*
X96883390Y-112214286D02*
X97264342Y-112214286D01*
X97264342Y-112214286D02*
X97359580Y-112261905D01*
X97359580Y-112261905D02*
X97407200Y-112309524D01*
X97407200Y-112309524D02*
X97454819Y-112404762D01*
X97454819Y-112404762D02*
X97454819Y-112595238D01*
X97454819Y-112595238D02*
X97407200Y-112690476D01*
X97407200Y-112690476D02*
X97359580Y-112738095D01*
X97359580Y-112738095D02*
X97264342Y-112785714D01*
X97264342Y-112785714D02*
X97026247Y-112785714D01*
X97026247Y-112785714D02*
X96931009Y-112738095D01*
X96931009Y-112738095D02*
X96883390Y-112690476D01*
X96883390Y-112690476D02*
X96835771Y-112595238D01*
X96835771Y-112595238D02*
X96835771Y-112404762D01*
X96835771Y-112404762D02*
X96883390Y-112309524D01*
X96883390Y-112309524D02*
X96931009Y-112261905D01*
X96931009Y-112261905D02*
X97026247Y-112214286D01*
X112666666Y-109384819D02*
X112999999Y-108908628D01*
X113238094Y-109384819D02*
X113238094Y-108384819D01*
X113238094Y-108384819D02*
X112857142Y-108384819D01*
X112857142Y-108384819D02*
X112761904Y-108432438D01*
X112761904Y-108432438D02*
X112714285Y-108480057D01*
X112714285Y-108480057D02*
X112666666Y-108575295D01*
X112666666Y-108575295D02*
X112666666Y-108718152D01*
X112666666Y-108718152D02*
X112714285Y-108813390D01*
X112714285Y-108813390D02*
X112761904Y-108861009D01*
X112761904Y-108861009D02*
X112857142Y-108908628D01*
X112857142Y-108908628D02*
X113238094Y-108908628D01*
X111809523Y-108718152D02*
X111809523Y-109384819D01*
X112047618Y-108337200D02*
X112285713Y-109051485D01*
X112285713Y-109051485D02*
X111666666Y-109051485D01*
X112024819Y-103333333D02*
X111548628Y-103000000D01*
X112024819Y-102761905D02*
X111024819Y-102761905D01*
X111024819Y-102761905D02*
X111024819Y-103142857D01*
X111024819Y-103142857D02*
X111072438Y-103238095D01*
X111072438Y-103238095D02*
X111120057Y-103285714D01*
X111120057Y-103285714D02*
X111215295Y-103333333D01*
X111215295Y-103333333D02*
X111358152Y-103333333D01*
X111358152Y-103333333D02*
X111453390Y-103285714D01*
X111453390Y-103285714D02*
X111501009Y-103238095D01*
X111501009Y-103238095D02*
X111548628Y-103142857D01*
X111548628Y-103142857D02*
X111548628Y-102761905D01*
X111024819Y-103666667D02*
X111024819Y-104285714D01*
X111024819Y-104285714D02*
X111405771Y-103952381D01*
X111405771Y-103952381D02*
X111405771Y-104095238D01*
X111405771Y-104095238D02*
X111453390Y-104190476D01*
X111453390Y-104190476D02*
X111501009Y-104238095D01*
X111501009Y-104238095D02*
X111596247Y-104285714D01*
X111596247Y-104285714D02*
X111834342Y-104285714D01*
X111834342Y-104285714D02*
X111929580Y-104238095D01*
X111929580Y-104238095D02*
X111977200Y-104190476D01*
X111977200Y-104190476D02*
X112024819Y-104095238D01*
X112024819Y-104095238D02*
X112024819Y-103809524D01*
X112024819Y-103809524D02*
X111977200Y-103714286D01*
X111977200Y-103714286D02*
X111929580Y-103666667D01*
X124932738Y-109500057D02*
X125027976Y-109452438D01*
X125027976Y-109452438D02*
X125123214Y-109357200D01*
X125123214Y-109357200D02*
X125266071Y-109214342D01*
X125266071Y-109214342D02*
X125361309Y-109166723D01*
X125361309Y-109166723D02*
X125456547Y-109166723D01*
X125408928Y-109404819D02*
X125504166Y-109357200D01*
X125504166Y-109357200D02*
X125599404Y-109261961D01*
X125599404Y-109261961D02*
X125647023Y-109071485D01*
X125647023Y-109071485D02*
X125647023Y-108738152D01*
X125647023Y-108738152D02*
X125599404Y-108547676D01*
X125599404Y-108547676D02*
X125504166Y-108452438D01*
X125504166Y-108452438D02*
X125408928Y-108404819D01*
X125408928Y-108404819D02*
X125218452Y-108404819D01*
X125218452Y-108404819D02*
X125123214Y-108452438D01*
X125123214Y-108452438D02*
X125027976Y-108547676D01*
X125027976Y-108547676D02*
X124980357Y-108738152D01*
X124980357Y-108738152D02*
X124980357Y-109071485D01*
X124980357Y-109071485D02*
X125027976Y-109261961D01*
X125027976Y-109261961D02*
X125123214Y-109357200D01*
X125123214Y-109357200D02*
X125218452Y-109404819D01*
X125218452Y-109404819D02*
X125408928Y-109404819D01*
X124027976Y-109404819D02*
X124599404Y-109404819D01*
X124313690Y-109404819D02*
X124313690Y-108404819D01*
X124313690Y-108404819D02*
X124408928Y-108547676D01*
X124408928Y-108547676D02*
X124504166Y-108642914D01*
X124504166Y-108642914D02*
X124599404Y-108690533D01*
X184642857Y-101104819D02*
X184976190Y-100628628D01*
X185214285Y-101104819D02*
X185214285Y-100104819D01*
X185214285Y-100104819D02*
X184833333Y-100104819D01*
X184833333Y-100104819D02*
X184738095Y-100152438D01*
X184738095Y-100152438D02*
X184690476Y-100200057D01*
X184690476Y-100200057D02*
X184642857Y-100295295D01*
X184642857Y-100295295D02*
X184642857Y-100438152D01*
X184642857Y-100438152D02*
X184690476Y-100533390D01*
X184690476Y-100533390D02*
X184738095Y-100581009D01*
X184738095Y-100581009D02*
X184833333Y-100628628D01*
X184833333Y-100628628D02*
X185214285Y-100628628D01*
X183690476Y-101104819D02*
X184261904Y-101104819D01*
X183976190Y-101104819D02*
X183976190Y-100104819D01*
X183976190Y-100104819D02*
X184071428Y-100247676D01*
X184071428Y-100247676D02*
X184166666Y-100342914D01*
X184166666Y-100342914D02*
X184261904Y-100390533D01*
X182833333Y-100104819D02*
X183023809Y-100104819D01*
X183023809Y-100104819D02*
X183119047Y-100152438D01*
X183119047Y-100152438D02*
X183166666Y-100200057D01*
X183166666Y-100200057D02*
X183261904Y-100342914D01*
X183261904Y-100342914D02*
X183309523Y-100533390D01*
X183309523Y-100533390D02*
X183309523Y-100914342D01*
X183309523Y-100914342D02*
X183261904Y-101009580D01*
X183261904Y-101009580D02*
X183214285Y-101057200D01*
X183214285Y-101057200D02*
X183119047Y-101104819D01*
X183119047Y-101104819D02*
X182928571Y-101104819D01*
X182928571Y-101104819D02*
X182833333Y-101057200D01*
X182833333Y-101057200D02*
X182785714Y-101009580D01*
X182785714Y-101009580D02*
X182738095Y-100914342D01*
X182738095Y-100914342D02*
X182738095Y-100676247D01*
X182738095Y-100676247D02*
X182785714Y-100581009D01*
X182785714Y-100581009D02*
X182833333Y-100533390D01*
X182833333Y-100533390D02*
X182928571Y-100485771D01*
X182928571Y-100485771D02*
X183119047Y-100485771D01*
X183119047Y-100485771D02*
X183214285Y-100533390D01*
X183214285Y-100533390D02*
X183261904Y-100581009D01*
X183261904Y-100581009D02*
X183309523Y-100676247D01*
X87142857Y-121304819D02*
X87476190Y-120828628D01*
X87714285Y-121304819D02*
X87714285Y-120304819D01*
X87714285Y-120304819D02*
X87333333Y-120304819D01*
X87333333Y-120304819D02*
X87238095Y-120352438D01*
X87238095Y-120352438D02*
X87190476Y-120400057D01*
X87190476Y-120400057D02*
X87142857Y-120495295D01*
X87142857Y-120495295D02*
X87142857Y-120638152D01*
X87142857Y-120638152D02*
X87190476Y-120733390D01*
X87190476Y-120733390D02*
X87238095Y-120781009D01*
X87238095Y-120781009D02*
X87333333Y-120828628D01*
X87333333Y-120828628D02*
X87714285Y-120828628D01*
X86190476Y-121304819D02*
X86761904Y-121304819D01*
X86476190Y-121304819D02*
X86476190Y-120304819D01*
X86476190Y-120304819D02*
X86571428Y-120447676D01*
X86571428Y-120447676D02*
X86666666Y-120542914D01*
X86666666Y-120542914D02*
X86761904Y-120590533D01*
X85571428Y-120304819D02*
X85476190Y-120304819D01*
X85476190Y-120304819D02*
X85380952Y-120352438D01*
X85380952Y-120352438D02*
X85333333Y-120400057D01*
X85333333Y-120400057D02*
X85285714Y-120495295D01*
X85285714Y-120495295D02*
X85238095Y-120685771D01*
X85238095Y-120685771D02*
X85238095Y-120923866D01*
X85238095Y-120923866D02*
X85285714Y-121114342D01*
X85285714Y-121114342D02*
X85333333Y-121209580D01*
X85333333Y-121209580D02*
X85380952Y-121257200D01*
X85380952Y-121257200D02*
X85476190Y-121304819D01*
X85476190Y-121304819D02*
X85571428Y-121304819D01*
X85571428Y-121304819D02*
X85666666Y-121257200D01*
X85666666Y-121257200D02*
X85714285Y-121209580D01*
X85714285Y-121209580D02*
X85761904Y-121114342D01*
X85761904Y-121114342D02*
X85809523Y-120923866D01*
X85809523Y-120923866D02*
X85809523Y-120685771D01*
X85809523Y-120685771D02*
X85761904Y-120495295D01*
X85761904Y-120495295D02*
X85714285Y-120400057D01*
X85714285Y-120400057D02*
X85666666Y-120352438D01*
X85666666Y-120352438D02*
X85571428Y-120304819D01*
X167738094Y-92661672D02*
X167404761Y-92661672D01*
X167261904Y-93185482D02*
X167738094Y-93185482D01*
X167738094Y-93185482D02*
X167738094Y-92185482D01*
X167738094Y-92185482D02*
X167261904Y-92185482D01*
X166833332Y-93185482D02*
X166833332Y-92185482D01*
X166833332Y-92185482D02*
X166261904Y-93185482D01*
X166261904Y-93185482D02*
X166261904Y-92185482D01*
X128642857Y-112804819D02*
X128976190Y-112328628D01*
X129214285Y-112804819D02*
X129214285Y-111804819D01*
X129214285Y-111804819D02*
X128833333Y-111804819D01*
X128833333Y-111804819D02*
X128738095Y-111852438D01*
X128738095Y-111852438D02*
X128690476Y-111900057D01*
X128690476Y-111900057D02*
X128642857Y-111995295D01*
X128642857Y-111995295D02*
X128642857Y-112138152D01*
X128642857Y-112138152D02*
X128690476Y-112233390D01*
X128690476Y-112233390D02*
X128738095Y-112281009D01*
X128738095Y-112281009D02*
X128833333Y-112328628D01*
X128833333Y-112328628D02*
X129214285Y-112328628D01*
X127690476Y-112804819D02*
X128261904Y-112804819D01*
X127976190Y-112804819D02*
X127976190Y-111804819D01*
X127976190Y-111804819D02*
X128071428Y-111947676D01*
X128071428Y-111947676D02*
X128166666Y-112042914D01*
X128166666Y-112042914D02*
X128261904Y-112090533D01*
X127357142Y-111804819D02*
X126738095Y-111804819D01*
X126738095Y-111804819D02*
X127071428Y-112185771D01*
X127071428Y-112185771D02*
X126928571Y-112185771D01*
X126928571Y-112185771D02*
X126833333Y-112233390D01*
X126833333Y-112233390D02*
X126785714Y-112281009D01*
X126785714Y-112281009D02*
X126738095Y-112376247D01*
X126738095Y-112376247D02*
X126738095Y-112614342D01*
X126738095Y-112614342D02*
X126785714Y-112709580D01*
X126785714Y-112709580D02*
X126833333Y-112757200D01*
X126833333Y-112757200D02*
X126928571Y-112804819D01*
X126928571Y-112804819D02*
X127214285Y-112804819D01*
X127214285Y-112804819D02*
X127309523Y-112757200D01*
X127309523Y-112757200D02*
X127357142Y-112709580D01*
X86789580Y-114083333D02*
X86837200Y-114035714D01*
X86837200Y-114035714D02*
X86884819Y-113892857D01*
X86884819Y-113892857D02*
X86884819Y-113797619D01*
X86884819Y-113797619D02*
X86837200Y-113654762D01*
X86837200Y-113654762D02*
X86741961Y-113559524D01*
X86741961Y-113559524D02*
X86646723Y-113511905D01*
X86646723Y-113511905D02*
X86456247Y-113464286D01*
X86456247Y-113464286D02*
X86313390Y-113464286D01*
X86313390Y-113464286D02*
X86122914Y-113511905D01*
X86122914Y-113511905D02*
X86027676Y-113559524D01*
X86027676Y-113559524D02*
X85932438Y-113654762D01*
X85932438Y-113654762D02*
X85884819Y-113797619D01*
X85884819Y-113797619D02*
X85884819Y-113892857D01*
X85884819Y-113892857D02*
X85932438Y-114035714D01*
X85932438Y-114035714D02*
X85980057Y-114083333D01*
X85884819Y-114988095D02*
X85884819Y-114511905D01*
X85884819Y-114511905D02*
X86361009Y-114464286D01*
X86361009Y-114464286D02*
X86313390Y-114511905D01*
X86313390Y-114511905D02*
X86265771Y-114607143D01*
X86265771Y-114607143D02*
X86265771Y-114845238D01*
X86265771Y-114845238D02*
X86313390Y-114940476D01*
X86313390Y-114940476D02*
X86361009Y-114988095D01*
X86361009Y-114988095D02*
X86456247Y-115035714D01*
X86456247Y-115035714D02*
X86694342Y-115035714D01*
X86694342Y-115035714D02*
X86789580Y-114988095D01*
X86789580Y-114988095D02*
X86837200Y-114940476D01*
X86837200Y-114940476D02*
X86884819Y-114845238D01*
X86884819Y-114845238D02*
X86884819Y-114607143D01*
X86884819Y-114607143D02*
X86837200Y-114511905D01*
X86837200Y-114511905D02*
X86789580Y-114464286D01*
X109015389Y-104601496D02*
X108539198Y-104268163D01*
X109015389Y-104030068D02*
X108015389Y-104030068D01*
X108015389Y-104030068D02*
X108015389Y-104411020D01*
X108015389Y-104411020D02*
X108063008Y-104506258D01*
X108063008Y-104506258D02*
X108110627Y-104553877D01*
X108110627Y-104553877D02*
X108205865Y-104601496D01*
X108205865Y-104601496D02*
X108348722Y-104601496D01*
X108348722Y-104601496D02*
X108443960Y-104553877D01*
X108443960Y-104553877D02*
X108491579Y-104506258D01*
X108491579Y-104506258D02*
X108539198Y-104411020D01*
X108539198Y-104411020D02*
X108539198Y-104030068D01*
X109015389Y-105553877D02*
X109015389Y-104982449D01*
X109015389Y-105268163D02*
X108015389Y-105268163D01*
X108015389Y-105268163D02*
X108158246Y-105172925D01*
X108158246Y-105172925D02*
X108253484Y-105077687D01*
X108253484Y-105077687D02*
X108301103Y-104982449D01*
X151416666Y-91929580D02*
X151464285Y-91977200D01*
X151464285Y-91977200D02*
X151607142Y-92024819D01*
X151607142Y-92024819D02*
X151702380Y-92024819D01*
X151702380Y-92024819D02*
X151845237Y-91977200D01*
X151845237Y-91977200D02*
X151940475Y-91881961D01*
X151940475Y-91881961D02*
X151988094Y-91786723D01*
X151988094Y-91786723D02*
X152035713Y-91596247D01*
X152035713Y-91596247D02*
X152035713Y-91453390D01*
X152035713Y-91453390D02*
X151988094Y-91262914D01*
X151988094Y-91262914D02*
X151940475Y-91167676D01*
X151940475Y-91167676D02*
X151845237Y-91072438D01*
X151845237Y-91072438D02*
X151702380Y-91024819D01*
X151702380Y-91024819D02*
X151607142Y-91024819D01*
X151607142Y-91024819D02*
X151464285Y-91072438D01*
X151464285Y-91072438D02*
X151416666Y-91120057D01*
X150559523Y-91358152D02*
X150559523Y-92024819D01*
X150797618Y-90977200D02*
X151035713Y-91691485D01*
X151035713Y-91691485D02*
X150416666Y-91691485D01*
X121086904Y-98854819D02*
X121086904Y-99664342D01*
X121086904Y-99664342D02*
X121039285Y-99759580D01*
X121039285Y-99759580D02*
X120991666Y-99807200D01*
X120991666Y-99807200D02*
X120896428Y-99854819D01*
X120896428Y-99854819D02*
X120705952Y-99854819D01*
X120705952Y-99854819D02*
X120610714Y-99807200D01*
X120610714Y-99807200D02*
X120563095Y-99759580D01*
X120563095Y-99759580D02*
X120515476Y-99664342D01*
X120515476Y-99664342D02*
X120515476Y-98854819D01*
X120086904Y-98950057D02*
X120039285Y-98902438D01*
X120039285Y-98902438D02*
X119944047Y-98854819D01*
X119944047Y-98854819D02*
X119705952Y-98854819D01*
X119705952Y-98854819D02*
X119610714Y-98902438D01*
X119610714Y-98902438D02*
X119563095Y-98950057D01*
X119563095Y-98950057D02*
X119515476Y-99045295D01*
X119515476Y-99045295D02*
X119515476Y-99140533D01*
X119515476Y-99140533D02*
X119563095Y-99283390D01*
X119563095Y-99283390D02*
X120134523Y-99854819D01*
X120134523Y-99854819D02*
X119515476Y-99854819D01*
X101965389Y-102676496D02*
X101489198Y-102343163D01*
X101965389Y-102105068D02*
X100965389Y-102105068D01*
X100965389Y-102105068D02*
X100965389Y-102486020D01*
X100965389Y-102486020D02*
X101013008Y-102581258D01*
X101013008Y-102581258D02*
X101060627Y-102628877D01*
X101060627Y-102628877D02*
X101155865Y-102676496D01*
X101155865Y-102676496D02*
X101298722Y-102676496D01*
X101298722Y-102676496D02*
X101393960Y-102628877D01*
X101393960Y-102628877D02*
X101441579Y-102581258D01*
X101441579Y-102581258D02*
X101489198Y-102486020D01*
X101489198Y-102486020D02*
X101489198Y-102105068D01*
X101060627Y-103057449D02*
X101013008Y-103105068D01*
X101013008Y-103105068D02*
X100965389Y-103200306D01*
X100965389Y-103200306D02*
X100965389Y-103438401D01*
X100965389Y-103438401D02*
X101013008Y-103533639D01*
X101013008Y-103533639D02*
X101060627Y-103581258D01*
X101060627Y-103581258D02*
X101155865Y-103628877D01*
X101155865Y-103628877D02*
X101251103Y-103628877D01*
X101251103Y-103628877D02*
X101393960Y-103581258D01*
X101393960Y-103581258D02*
X101965389Y-103009830D01*
X101965389Y-103009830D02*
X101965389Y-103628877D01*
X82679580Y-93857142D02*
X82727200Y-93809523D01*
X82727200Y-93809523D02*
X82774819Y-93666666D01*
X82774819Y-93666666D02*
X82774819Y-93571428D01*
X82774819Y-93571428D02*
X82727200Y-93428571D01*
X82727200Y-93428571D02*
X82631961Y-93333333D01*
X82631961Y-93333333D02*
X82536723Y-93285714D01*
X82536723Y-93285714D02*
X82346247Y-93238095D01*
X82346247Y-93238095D02*
X82203390Y-93238095D01*
X82203390Y-93238095D02*
X82012914Y-93285714D01*
X82012914Y-93285714D02*
X81917676Y-93333333D01*
X81917676Y-93333333D02*
X81822438Y-93428571D01*
X81822438Y-93428571D02*
X81774819Y-93571428D01*
X81774819Y-93571428D02*
X81774819Y-93666666D01*
X81774819Y-93666666D02*
X81822438Y-93809523D01*
X81822438Y-93809523D02*
X81870057Y-93857142D01*
X82774819Y-94809523D02*
X82774819Y-94238095D01*
X82774819Y-94523809D02*
X81774819Y-94523809D01*
X81774819Y-94523809D02*
X81917676Y-94428571D01*
X81917676Y-94428571D02*
X82012914Y-94333333D01*
X82012914Y-94333333D02*
X82060533Y-94238095D01*
X81774819Y-95142857D02*
X81774819Y-95761904D01*
X81774819Y-95761904D02*
X82155771Y-95428571D01*
X82155771Y-95428571D02*
X82155771Y-95571428D01*
X82155771Y-95571428D02*
X82203390Y-95666666D01*
X82203390Y-95666666D02*
X82251009Y-95714285D01*
X82251009Y-95714285D02*
X82346247Y-95761904D01*
X82346247Y-95761904D02*
X82584342Y-95761904D01*
X82584342Y-95761904D02*
X82679580Y-95714285D01*
X82679580Y-95714285D02*
X82727200Y-95666666D01*
X82727200Y-95666666D02*
X82774819Y-95571428D01*
X82774819Y-95571428D02*
X82774819Y-95285714D01*
X82774819Y-95285714D02*
X82727200Y-95190476D01*
X82727200Y-95190476D02*
X82679580Y-95142857D01*
X196142857Y-127679580D02*
X196190476Y-127727200D01*
X196190476Y-127727200D02*
X196333333Y-127774819D01*
X196333333Y-127774819D02*
X196428571Y-127774819D01*
X196428571Y-127774819D02*
X196571428Y-127727200D01*
X196571428Y-127727200D02*
X196666666Y-127631961D01*
X196666666Y-127631961D02*
X196714285Y-127536723D01*
X196714285Y-127536723D02*
X196761904Y-127346247D01*
X196761904Y-127346247D02*
X196761904Y-127203390D01*
X196761904Y-127203390D02*
X196714285Y-127012914D01*
X196714285Y-127012914D02*
X196666666Y-126917676D01*
X196666666Y-126917676D02*
X196571428Y-126822438D01*
X196571428Y-126822438D02*
X196428571Y-126774819D01*
X196428571Y-126774819D02*
X196333333Y-126774819D01*
X196333333Y-126774819D02*
X196190476Y-126822438D01*
X196190476Y-126822438D02*
X196142857Y-126870057D01*
X195190476Y-127774819D02*
X195761904Y-127774819D01*
X195476190Y-127774819D02*
X195476190Y-126774819D01*
X195476190Y-126774819D02*
X195571428Y-126917676D01*
X195571428Y-126917676D02*
X195666666Y-127012914D01*
X195666666Y-127012914D02*
X195761904Y-127060533D01*
X194238095Y-127774819D02*
X194809523Y-127774819D01*
X194523809Y-127774819D02*
X194523809Y-126774819D01*
X194523809Y-126774819D02*
X194619047Y-126917676D01*
X194619047Y-126917676D02*
X194714285Y-127012914D01*
X194714285Y-127012914D02*
X194809523Y-127060533D01*
X197854819Y-123357142D02*
X197378628Y-123023809D01*
X197854819Y-122785714D02*
X196854819Y-122785714D01*
X196854819Y-122785714D02*
X196854819Y-123166666D01*
X196854819Y-123166666D02*
X196902438Y-123261904D01*
X196902438Y-123261904D02*
X196950057Y-123309523D01*
X196950057Y-123309523D02*
X197045295Y-123357142D01*
X197045295Y-123357142D02*
X197188152Y-123357142D01*
X197188152Y-123357142D02*
X197283390Y-123309523D01*
X197283390Y-123309523D02*
X197331009Y-123261904D01*
X197331009Y-123261904D02*
X197378628Y-123166666D01*
X197378628Y-123166666D02*
X197378628Y-122785714D01*
X197854819Y-124309523D02*
X197854819Y-123738095D01*
X197854819Y-124023809D02*
X196854819Y-124023809D01*
X196854819Y-124023809D02*
X196997676Y-123928571D01*
X196997676Y-123928571D02*
X197092914Y-123833333D01*
X197092914Y-123833333D02*
X197140533Y-123738095D01*
X197854819Y-125261904D02*
X197854819Y-124690476D01*
X197854819Y-124976190D02*
X196854819Y-124976190D01*
X196854819Y-124976190D02*
X196997676Y-124880952D01*
X196997676Y-124880952D02*
X197092914Y-124785714D01*
X197092914Y-124785714D02*
X197140533Y-124690476D01*
X159864580Y-98583333D02*
X159912200Y-98535714D01*
X159912200Y-98535714D02*
X159959819Y-98392857D01*
X159959819Y-98392857D02*
X159959819Y-98297619D01*
X159959819Y-98297619D02*
X159912200Y-98154762D01*
X159912200Y-98154762D02*
X159816961Y-98059524D01*
X159816961Y-98059524D02*
X159721723Y-98011905D01*
X159721723Y-98011905D02*
X159531247Y-97964286D01*
X159531247Y-97964286D02*
X159388390Y-97964286D01*
X159388390Y-97964286D02*
X159197914Y-98011905D01*
X159197914Y-98011905D02*
X159102676Y-98059524D01*
X159102676Y-98059524D02*
X159007438Y-98154762D01*
X159007438Y-98154762D02*
X158959819Y-98297619D01*
X158959819Y-98297619D02*
X158959819Y-98392857D01*
X158959819Y-98392857D02*
X159007438Y-98535714D01*
X159007438Y-98535714D02*
X159055057Y-98583333D01*
X159055057Y-98964286D02*
X159007438Y-99011905D01*
X159007438Y-99011905D02*
X158959819Y-99107143D01*
X158959819Y-99107143D02*
X158959819Y-99345238D01*
X158959819Y-99345238D02*
X159007438Y-99440476D01*
X159007438Y-99440476D02*
X159055057Y-99488095D01*
X159055057Y-99488095D02*
X159150295Y-99535714D01*
X159150295Y-99535714D02*
X159245533Y-99535714D01*
X159245533Y-99535714D02*
X159388390Y-99488095D01*
X159388390Y-99488095D02*
X159959819Y-98916667D01*
X159959819Y-98916667D02*
X159959819Y-99535714D01*
X83354819Y-116833333D02*
X82878628Y-116500000D01*
X83354819Y-116261905D02*
X82354819Y-116261905D01*
X82354819Y-116261905D02*
X82354819Y-116642857D01*
X82354819Y-116642857D02*
X82402438Y-116738095D01*
X82402438Y-116738095D02*
X82450057Y-116785714D01*
X82450057Y-116785714D02*
X82545295Y-116833333D01*
X82545295Y-116833333D02*
X82688152Y-116833333D01*
X82688152Y-116833333D02*
X82783390Y-116785714D01*
X82783390Y-116785714D02*
X82831009Y-116738095D01*
X82831009Y-116738095D02*
X82878628Y-116642857D01*
X82878628Y-116642857D02*
X82878628Y-116261905D01*
X82354819Y-117166667D02*
X82354819Y-117833333D01*
X82354819Y-117833333D02*
X83354819Y-117404762D01*
X71666666Y-130179580D02*
X71714285Y-130227200D01*
X71714285Y-130227200D02*
X71857142Y-130274819D01*
X71857142Y-130274819D02*
X71952380Y-130274819D01*
X71952380Y-130274819D02*
X72095237Y-130227200D01*
X72095237Y-130227200D02*
X72190475Y-130131961D01*
X72190475Y-130131961D02*
X72238094Y-130036723D01*
X72238094Y-130036723D02*
X72285713Y-129846247D01*
X72285713Y-129846247D02*
X72285713Y-129703390D01*
X72285713Y-129703390D02*
X72238094Y-129512914D01*
X72238094Y-129512914D02*
X72190475Y-129417676D01*
X72190475Y-129417676D02*
X72095237Y-129322438D01*
X72095237Y-129322438D02*
X71952380Y-129274819D01*
X71952380Y-129274819D02*
X71857142Y-129274819D01*
X71857142Y-129274819D02*
X71714285Y-129322438D01*
X71714285Y-129322438D02*
X71666666Y-129370057D01*
X70809523Y-129274819D02*
X70999999Y-129274819D01*
X70999999Y-129274819D02*
X71095237Y-129322438D01*
X71095237Y-129322438D02*
X71142856Y-129370057D01*
X71142856Y-129370057D02*
X71238094Y-129512914D01*
X71238094Y-129512914D02*
X71285713Y-129703390D01*
X71285713Y-129703390D02*
X71285713Y-130084342D01*
X71285713Y-130084342D02*
X71238094Y-130179580D01*
X71238094Y-130179580D02*
X71190475Y-130227200D01*
X71190475Y-130227200D02*
X71095237Y-130274819D01*
X71095237Y-130274819D02*
X70904761Y-130274819D01*
X70904761Y-130274819D02*
X70809523Y-130227200D01*
X70809523Y-130227200D02*
X70761904Y-130179580D01*
X70761904Y-130179580D02*
X70714285Y-130084342D01*
X70714285Y-130084342D02*
X70714285Y-129846247D01*
X70714285Y-129846247D02*
X70761904Y-129751009D01*
X70761904Y-129751009D02*
X70809523Y-129703390D01*
X70809523Y-129703390D02*
X70904761Y-129655771D01*
X70904761Y-129655771D02*
X71095237Y-129655771D01*
X71095237Y-129655771D02*
X71190475Y-129703390D01*
X71190475Y-129703390D02*
X71238094Y-129751009D01*
X71238094Y-129751009D02*
X71285713Y-129846247D01*
X75679580Y-125583333D02*
X75727200Y-125535714D01*
X75727200Y-125535714D02*
X75774819Y-125392857D01*
X75774819Y-125392857D02*
X75774819Y-125297619D01*
X75774819Y-125297619D02*
X75727200Y-125154762D01*
X75727200Y-125154762D02*
X75631961Y-125059524D01*
X75631961Y-125059524D02*
X75536723Y-125011905D01*
X75536723Y-125011905D02*
X75346247Y-124964286D01*
X75346247Y-124964286D02*
X75203390Y-124964286D01*
X75203390Y-124964286D02*
X75012914Y-125011905D01*
X75012914Y-125011905D02*
X74917676Y-125059524D01*
X74917676Y-125059524D02*
X74822438Y-125154762D01*
X74822438Y-125154762D02*
X74774819Y-125297619D01*
X74774819Y-125297619D02*
X74774819Y-125392857D01*
X74774819Y-125392857D02*
X74822438Y-125535714D01*
X74822438Y-125535714D02*
X74870057Y-125583333D01*
X75203390Y-126154762D02*
X75155771Y-126059524D01*
X75155771Y-126059524D02*
X75108152Y-126011905D01*
X75108152Y-126011905D02*
X75012914Y-125964286D01*
X75012914Y-125964286D02*
X74965295Y-125964286D01*
X74965295Y-125964286D02*
X74870057Y-126011905D01*
X74870057Y-126011905D02*
X74822438Y-126059524D01*
X74822438Y-126059524D02*
X74774819Y-126154762D01*
X74774819Y-126154762D02*
X74774819Y-126345238D01*
X74774819Y-126345238D02*
X74822438Y-126440476D01*
X74822438Y-126440476D02*
X74870057Y-126488095D01*
X74870057Y-126488095D02*
X74965295Y-126535714D01*
X74965295Y-126535714D02*
X75012914Y-126535714D01*
X75012914Y-126535714D02*
X75108152Y-126488095D01*
X75108152Y-126488095D02*
X75155771Y-126440476D01*
X75155771Y-126440476D02*
X75203390Y-126345238D01*
X75203390Y-126345238D02*
X75203390Y-126154762D01*
X75203390Y-126154762D02*
X75251009Y-126059524D01*
X75251009Y-126059524D02*
X75298628Y-126011905D01*
X75298628Y-126011905D02*
X75393866Y-125964286D01*
X75393866Y-125964286D02*
X75584342Y-125964286D01*
X75584342Y-125964286D02*
X75679580Y-126011905D01*
X75679580Y-126011905D02*
X75727200Y-126059524D01*
X75727200Y-126059524D02*
X75774819Y-126154762D01*
X75774819Y-126154762D02*
X75774819Y-126345238D01*
X75774819Y-126345238D02*
X75727200Y-126440476D01*
X75727200Y-126440476D02*
X75679580Y-126488095D01*
X75679580Y-126488095D02*
X75584342Y-126535714D01*
X75584342Y-126535714D02*
X75393866Y-126535714D01*
X75393866Y-126535714D02*
X75298628Y-126488095D01*
X75298628Y-126488095D02*
X75251009Y-126440476D01*
X75251009Y-126440476D02*
X75203390Y-126345238D01*
X179179580Y-137107142D02*
X179227200Y-137059523D01*
X179227200Y-137059523D02*
X179274819Y-136916666D01*
X179274819Y-136916666D02*
X179274819Y-136821428D01*
X179274819Y-136821428D02*
X179227200Y-136678571D01*
X179227200Y-136678571D02*
X179131961Y-136583333D01*
X179131961Y-136583333D02*
X179036723Y-136535714D01*
X179036723Y-136535714D02*
X178846247Y-136488095D01*
X178846247Y-136488095D02*
X178703390Y-136488095D01*
X178703390Y-136488095D02*
X178512914Y-136535714D01*
X178512914Y-136535714D02*
X178417676Y-136583333D01*
X178417676Y-136583333D02*
X178322438Y-136678571D01*
X178322438Y-136678571D02*
X178274819Y-136821428D01*
X178274819Y-136821428D02*
X178274819Y-136916666D01*
X178274819Y-136916666D02*
X178322438Y-137059523D01*
X178322438Y-137059523D02*
X178370057Y-137107142D01*
X179274819Y-138059523D02*
X179274819Y-137488095D01*
X179274819Y-137773809D02*
X178274819Y-137773809D01*
X178274819Y-137773809D02*
X178417676Y-137678571D01*
X178417676Y-137678571D02*
X178512914Y-137583333D01*
X178512914Y-137583333D02*
X178560533Y-137488095D01*
X178370057Y-138440476D02*
X178322438Y-138488095D01*
X178322438Y-138488095D02*
X178274819Y-138583333D01*
X178274819Y-138583333D02*
X178274819Y-138821428D01*
X178274819Y-138821428D02*
X178322438Y-138916666D01*
X178322438Y-138916666D02*
X178370057Y-138964285D01*
X178370057Y-138964285D02*
X178465295Y-139011904D01*
X178465295Y-139011904D02*
X178560533Y-139011904D01*
X178560533Y-139011904D02*
X178703390Y-138964285D01*
X178703390Y-138964285D02*
X179274819Y-138392857D01*
X179274819Y-138392857D02*
X179274819Y-139011904D01*
X95025594Y-95384819D02*
X95025594Y-94384819D01*
X95025594Y-94384819D02*
X94787499Y-94384819D01*
X94787499Y-94384819D02*
X94644642Y-94432438D01*
X94644642Y-94432438D02*
X94549404Y-94527676D01*
X94549404Y-94527676D02*
X94501785Y-94622914D01*
X94501785Y-94622914D02*
X94454166Y-94813390D01*
X94454166Y-94813390D02*
X94454166Y-94956247D01*
X94454166Y-94956247D02*
X94501785Y-95146723D01*
X94501785Y-95146723D02*
X94549404Y-95241961D01*
X94549404Y-95241961D02*
X94644642Y-95337200D01*
X94644642Y-95337200D02*
X94787499Y-95384819D01*
X94787499Y-95384819D02*
X95025594Y-95384819D01*
X93501785Y-95384819D02*
X94073213Y-95384819D01*
X93787499Y-95384819D02*
X93787499Y-94384819D01*
X93787499Y-94384819D02*
X93882737Y-94527676D01*
X93882737Y-94527676D02*
X93977975Y-94622914D01*
X93977975Y-94622914D02*
X94073213Y-94670533D01*
X95545832Y-92204819D02*
X95545832Y-91204819D01*
X95545832Y-91204819D02*
X95164880Y-91204819D01*
X95164880Y-91204819D02*
X95069642Y-91252438D01*
X95069642Y-91252438D02*
X95022023Y-91300057D01*
X95022023Y-91300057D02*
X94974404Y-91395295D01*
X94974404Y-91395295D02*
X94974404Y-91538152D01*
X94974404Y-91538152D02*
X95022023Y-91633390D01*
X95022023Y-91633390D02*
X95069642Y-91681009D01*
X95069642Y-91681009D02*
X95164880Y-91728628D01*
X95164880Y-91728628D02*
X95545832Y-91728628D01*
X94641070Y-91204819D02*
X94402975Y-92204819D01*
X94402975Y-92204819D02*
X94212499Y-91490533D01*
X94212499Y-91490533D02*
X94022023Y-92204819D01*
X94022023Y-92204819D02*
X93783928Y-91204819D01*
X92831547Y-92204819D02*
X93164880Y-91728628D01*
X93402975Y-92204819D02*
X93402975Y-91204819D01*
X93402975Y-91204819D02*
X93022023Y-91204819D01*
X93022023Y-91204819D02*
X92926785Y-91252438D01*
X92926785Y-91252438D02*
X92879166Y-91300057D01*
X92879166Y-91300057D02*
X92831547Y-91395295D01*
X92831547Y-91395295D02*
X92831547Y-91538152D01*
X92831547Y-91538152D02*
X92879166Y-91633390D01*
X92879166Y-91633390D02*
X92926785Y-91681009D01*
X92926785Y-91681009D02*
X93022023Y-91728628D01*
X93022023Y-91728628D02*
X93402975Y-91728628D01*
X120991666Y-94539580D02*
X121039285Y-94587200D01*
X121039285Y-94587200D02*
X121182142Y-94634819D01*
X121182142Y-94634819D02*
X121277380Y-94634819D01*
X121277380Y-94634819D02*
X121420237Y-94587200D01*
X121420237Y-94587200D02*
X121515475Y-94491961D01*
X121515475Y-94491961D02*
X121563094Y-94396723D01*
X121563094Y-94396723D02*
X121610713Y-94206247D01*
X121610713Y-94206247D02*
X121610713Y-94063390D01*
X121610713Y-94063390D02*
X121563094Y-93872914D01*
X121563094Y-93872914D02*
X121515475Y-93777676D01*
X121515475Y-93777676D02*
X121420237Y-93682438D01*
X121420237Y-93682438D02*
X121277380Y-93634819D01*
X121277380Y-93634819D02*
X121182142Y-93634819D01*
X121182142Y-93634819D02*
X121039285Y-93682438D01*
X121039285Y-93682438D02*
X120991666Y-93730057D01*
X120039285Y-94634819D02*
X120610713Y-94634819D01*
X120324999Y-94634819D02*
X120324999Y-93634819D01*
X120324999Y-93634819D02*
X120420237Y-93777676D01*
X120420237Y-93777676D02*
X120515475Y-93872914D01*
X120515475Y-93872914D02*
X120610713Y-93920533D01*
X189666666Y-115429580D02*
X189714285Y-115477200D01*
X189714285Y-115477200D02*
X189857142Y-115524819D01*
X189857142Y-115524819D02*
X189952380Y-115524819D01*
X189952380Y-115524819D02*
X190095237Y-115477200D01*
X190095237Y-115477200D02*
X190190475Y-115381961D01*
X190190475Y-115381961D02*
X190238094Y-115286723D01*
X190238094Y-115286723D02*
X190285713Y-115096247D01*
X190285713Y-115096247D02*
X190285713Y-114953390D01*
X190285713Y-114953390D02*
X190238094Y-114762914D01*
X190238094Y-114762914D02*
X190190475Y-114667676D01*
X190190475Y-114667676D02*
X190095237Y-114572438D01*
X190095237Y-114572438D02*
X189952380Y-114524819D01*
X189952380Y-114524819D02*
X189857142Y-114524819D01*
X189857142Y-114524819D02*
X189714285Y-114572438D01*
X189714285Y-114572438D02*
X189666666Y-114620057D01*
X189190475Y-115524819D02*
X188999999Y-115524819D01*
X188999999Y-115524819D02*
X188904761Y-115477200D01*
X188904761Y-115477200D02*
X188857142Y-115429580D01*
X188857142Y-115429580D02*
X188761904Y-115286723D01*
X188761904Y-115286723D02*
X188714285Y-115096247D01*
X188714285Y-115096247D02*
X188714285Y-114715295D01*
X188714285Y-114715295D02*
X188761904Y-114620057D01*
X188761904Y-114620057D02*
X188809523Y-114572438D01*
X188809523Y-114572438D02*
X188904761Y-114524819D01*
X188904761Y-114524819D02*
X189095237Y-114524819D01*
X189095237Y-114524819D02*
X189190475Y-114572438D01*
X189190475Y-114572438D02*
X189238094Y-114620057D01*
X189238094Y-114620057D02*
X189285713Y-114715295D01*
X189285713Y-114715295D02*
X189285713Y-114953390D01*
X189285713Y-114953390D02*
X189238094Y-115048628D01*
X189238094Y-115048628D02*
X189190475Y-115096247D01*
X189190475Y-115096247D02*
X189095237Y-115143866D01*
X189095237Y-115143866D02*
X188904761Y-115143866D01*
X188904761Y-115143866D02*
X188809523Y-115096247D01*
X188809523Y-115096247D02*
X188761904Y-115048628D01*
X188761904Y-115048628D02*
X188714285Y-114953390D01*
X67104819Y-119333333D02*
X66628628Y-119000000D01*
X67104819Y-118761905D02*
X66104819Y-118761905D01*
X66104819Y-118761905D02*
X66104819Y-119142857D01*
X66104819Y-119142857D02*
X66152438Y-119238095D01*
X66152438Y-119238095D02*
X66200057Y-119285714D01*
X66200057Y-119285714D02*
X66295295Y-119333333D01*
X66295295Y-119333333D02*
X66438152Y-119333333D01*
X66438152Y-119333333D02*
X66533390Y-119285714D01*
X66533390Y-119285714D02*
X66581009Y-119238095D01*
X66581009Y-119238095D02*
X66628628Y-119142857D01*
X66628628Y-119142857D02*
X66628628Y-118761905D01*
X67104819Y-119809524D02*
X67104819Y-120000000D01*
X67104819Y-120000000D02*
X67057200Y-120095238D01*
X67057200Y-120095238D02*
X67009580Y-120142857D01*
X67009580Y-120142857D02*
X66866723Y-120238095D01*
X66866723Y-120238095D02*
X66676247Y-120285714D01*
X66676247Y-120285714D02*
X66295295Y-120285714D01*
X66295295Y-120285714D02*
X66200057Y-120238095D01*
X66200057Y-120238095D02*
X66152438Y-120190476D01*
X66152438Y-120190476D02*
X66104819Y-120095238D01*
X66104819Y-120095238D02*
X66104819Y-119904762D01*
X66104819Y-119904762D02*
X66152438Y-119809524D01*
X66152438Y-119809524D02*
X66200057Y-119761905D01*
X66200057Y-119761905D02*
X66295295Y-119714286D01*
X66295295Y-119714286D02*
X66533390Y-119714286D01*
X66533390Y-119714286D02*
X66628628Y-119761905D01*
X66628628Y-119761905D02*
X66676247Y-119809524D01*
X66676247Y-119809524D02*
X66723866Y-119904762D01*
X66723866Y-119904762D02*
X66723866Y-120095238D01*
X66723866Y-120095238D02*
X66676247Y-120190476D01*
X66676247Y-120190476D02*
X66628628Y-120238095D01*
X66628628Y-120238095D02*
X66533390Y-120285714D01*
X205054819Y-122607142D02*
X204578628Y-122273809D01*
X205054819Y-122035714D02*
X204054819Y-122035714D01*
X204054819Y-122035714D02*
X204054819Y-122416666D01*
X204054819Y-122416666D02*
X204102438Y-122511904D01*
X204102438Y-122511904D02*
X204150057Y-122559523D01*
X204150057Y-122559523D02*
X204245295Y-122607142D01*
X204245295Y-122607142D02*
X204388152Y-122607142D01*
X204388152Y-122607142D02*
X204483390Y-122559523D01*
X204483390Y-122559523D02*
X204531009Y-122511904D01*
X204531009Y-122511904D02*
X204578628Y-122416666D01*
X204578628Y-122416666D02*
X204578628Y-122035714D01*
X205054819Y-123559523D02*
X205054819Y-122988095D01*
X205054819Y-123273809D02*
X204054819Y-123273809D01*
X204054819Y-123273809D02*
X204197676Y-123178571D01*
X204197676Y-123178571D02*
X204292914Y-123083333D01*
X204292914Y-123083333D02*
X204340533Y-122988095D01*
X204150057Y-123940476D02*
X204102438Y-123988095D01*
X204102438Y-123988095D02*
X204054819Y-124083333D01*
X204054819Y-124083333D02*
X204054819Y-124321428D01*
X204054819Y-124321428D02*
X204102438Y-124416666D01*
X204102438Y-124416666D02*
X204150057Y-124464285D01*
X204150057Y-124464285D02*
X204245295Y-124511904D01*
X204245295Y-124511904D02*
X204340533Y-124511904D01*
X204340533Y-124511904D02*
X204483390Y-124464285D01*
X204483390Y-124464285D02*
X205054819Y-123892857D01*
X205054819Y-123892857D02*
X205054819Y-124511904D01*
X154679819Y-98420833D02*
X154203628Y-98087500D01*
X154679819Y-97849405D02*
X153679819Y-97849405D01*
X153679819Y-97849405D02*
X153679819Y-98230357D01*
X153679819Y-98230357D02*
X153727438Y-98325595D01*
X153727438Y-98325595D02*
X153775057Y-98373214D01*
X153775057Y-98373214D02*
X153870295Y-98420833D01*
X153870295Y-98420833D02*
X154013152Y-98420833D01*
X154013152Y-98420833D02*
X154108390Y-98373214D01*
X154108390Y-98373214D02*
X154156009Y-98325595D01*
X154156009Y-98325595D02*
X154203628Y-98230357D01*
X154203628Y-98230357D02*
X154203628Y-97849405D01*
X153679819Y-99325595D02*
X153679819Y-98849405D01*
X153679819Y-98849405D02*
X154156009Y-98801786D01*
X154156009Y-98801786D02*
X154108390Y-98849405D01*
X154108390Y-98849405D02*
X154060771Y-98944643D01*
X154060771Y-98944643D02*
X154060771Y-99182738D01*
X154060771Y-99182738D02*
X154108390Y-99277976D01*
X154108390Y-99277976D02*
X154156009Y-99325595D01*
X154156009Y-99325595D02*
X154251247Y-99373214D01*
X154251247Y-99373214D02*
X154489342Y-99373214D01*
X154489342Y-99373214D02*
X154584580Y-99325595D01*
X154584580Y-99325595D02*
X154632200Y-99277976D01*
X154632200Y-99277976D02*
X154679819Y-99182738D01*
X154679819Y-99182738D02*
X154679819Y-98944643D01*
X154679819Y-98944643D02*
X154632200Y-98849405D01*
X154632200Y-98849405D02*
X154584580Y-98801786D01*
X179804819Y-143357142D02*
X179328628Y-143023809D01*
X179804819Y-142785714D02*
X178804819Y-142785714D01*
X178804819Y-142785714D02*
X178804819Y-143166666D01*
X178804819Y-143166666D02*
X178852438Y-143261904D01*
X178852438Y-143261904D02*
X178900057Y-143309523D01*
X178900057Y-143309523D02*
X178995295Y-143357142D01*
X178995295Y-143357142D02*
X179138152Y-143357142D01*
X179138152Y-143357142D02*
X179233390Y-143309523D01*
X179233390Y-143309523D02*
X179281009Y-143261904D01*
X179281009Y-143261904D02*
X179328628Y-143166666D01*
X179328628Y-143166666D02*
X179328628Y-142785714D01*
X179804819Y-144309523D02*
X179804819Y-143738095D01*
X179804819Y-144023809D02*
X178804819Y-144023809D01*
X178804819Y-144023809D02*
X178947676Y-143928571D01*
X178947676Y-143928571D02*
X179042914Y-143833333D01*
X179042914Y-143833333D02*
X179090533Y-143738095D01*
X178804819Y-145214285D02*
X178804819Y-144738095D01*
X178804819Y-144738095D02*
X179281009Y-144690476D01*
X179281009Y-144690476D02*
X179233390Y-144738095D01*
X179233390Y-144738095D02*
X179185771Y-144833333D01*
X179185771Y-144833333D02*
X179185771Y-145071428D01*
X179185771Y-145071428D02*
X179233390Y-145166666D01*
X179233390Y-145166666D02*
X179281009Y-145214285D01*
X179281009Y-145214285D02*
X179376247Y-145261904D01*
X179376247Y-145261904D02*
X179614342Y-145261904D01*
X179614342Y-145261904D02*
X179709580Y-145214285D01*
X179709580Y-145214285D02*
X179757200Y-145166666D01*
X179757200Y-145166666D02*
X179804819Y-145071428D01*
X179804819Y-145071428D02*
X179804819Y-144833333D01*
X179804819Y-144833333D02*
X179757200Y-144738095D01*
X179757200Y-144738095D02*
X179709580Y-144690476D01*
X199642857Y-141304819D02*
X199976190Y-140828628D01*
X200214285Y-141304819D02*
X200214285Y-140304819D01*
X200214285Y-140304819D02*
X199833333Y-140304819D01*
X199833333Y-140304819D02*
X199738095Y-140352438D01*
X199738095Y-140352438D02*
X199690476Y-140400057D01*
X199690476Y-140400057D02*
X199642857Y-140495295D01*
X199642857Y-140495295D02*
X199642857Y-140638152D01*
X199642857Y-140638152D02*
X199690476Y-140733390D01*
X199690476Y-140733390D02*
X199738095Y-140781009D01*
X199738095Y-140781009D02*
X199833333Y-140828628D01*
X199833333Y-140828628D02*
X200214285Y-140828628D01*
X198690476Y-141304819D02*
X199261904Y-141304819D01*
X198976190Y-141304819D02*
X198976190Y-140304819D01*
X198976190Y-140304819D02*
X199071428Y-140447676D01*
X199071428Y-140447676D02*
X199166666Y-140542914D01*
X199166666Y-140542914D02*
X199261904Y-140590533D01*
X197833333Y-140638152D02*
X197833333Y-141304819D01*
X198071428Y-140257200D02*
X198309523Y-140971485D01*
X198309523Y-140971485D02*
X197690476Y-140971485D01*
X99930357Y-92304819D02*
X100263690Y-91828628D01*
X100501785Y-92304819D02*
X100501785Y-91304819D01*
X100501785Y-91304819D02*
X100120833Y-91304819D01*
X100120833Y-91304819D02*
X100025595Y-91352438D01*
X100025595Y-91352438D02*
X99977976Y-91400057D01*
X99977976Y-91400057D02*
X99930357Y-91495295D01*
X99930357Y-91495295D02*
X99930357Y-91638152D01*
X99930357Y-91638152D02*
X99977976Y-91733390D01*
X99977976Y-91733390D02*
X100025595Y-91781009D01*
X100025595Y-91781009D02*
X100120833Y-91828628D01*
X100120833Y-91828628D02*
X100501785Y-91828628D01*
X98977976Y-92304819D02*
X99549404Y-92304819D01*
X99263690Y-92304819D02*
X99263690Y-91304819D01*
X99263690Y-91304819D02*
X99358928Y-91447676D01*
X99358928Y-91447676D02*
X99454166Y-91542914D01*
X99454166Y-91542914D02*
X99549404Y-91590533D01*
X98644642Y-91304819D02*
X97977976Y-91304819D01*
X97977976Y-91304819D02*
X98406547Y-92304819D01*
X77416666Y-131804819D02*
X77749999Y-131328628D01*
X77988094Y-131804819D02*
X77988094Y-130804819D01*
X77988094Y-130804819D02*
X77607142Y-130804819D01*
X77607142Y-130804819D02*
X77511904Y-130852438D01*
X77511904Y-130852438D02*
X77464285Y-130900057D01*
X77464285Y-130900057D02*
X77416666Y-130995295D01*
X77416666Y-130995295D02*
X77416666Y-131138152D01*
X77416666Y-131138152D02*
X77464285Y-131233390D01*
X77464285Y-131233390D02*
X77511904Y-131281009D01*
X77511904Y-131281009D02*
X77607142Y-131328628D01*
X77607142Y-131328628D02*
X77988094Y-131328628D01*
X76845237Y-131233390D02*
X76940475Y-131185771D01*
X76940475Y-131185771D02*
X76988094Y-131138152D01*
X76988094Y-131138152D02*
X77035713Y-131042914D01*
X77035713Y-131042914D02*
X77035713Y-130995295D01*
X77035713Y-130995295D02*
X76988094Y-130900057D01*
X76988094Y-130900057D02*
X76940475Y-130852438D01*
X76940475Y-130852438D02*
X76845237Y-130804819D01*
X76845237Y-130804819D02*
X76654761Y-130804819D01*
X76654761Y-130804819D02*
X76559523Y-130852438D01*
X76559523Y-130852438D02*
X76511904Y-130900057D01*
X76511904Y-130900057D02*
X76464285Y-130995295D01*
X76464285Y-130995295D02*
X76464285Y-131042914D01*
X76464285Y-131042914D02*
X76511904Y-131138152D01*
X76511904Y-131138152D02*
X76559523Y-131185771D01*
X76559523Y-131185771D02*
X76654761Y-131233390D01*
X76654761Y-131233390D02*
X76845237Y-131233390D01*
X76845237Y-131233390D02*
X76940475Y-131281009D01*
X76940475Y-131281009D02*
X76988094Y-131328628D01*
X76988094Y-131328628D02*
X77035713Y-131423866D01*
X77035713Y-131423866D02*
X77035713Y-131614342D01*
X77035713Y-131614342D02*
X76988094Y-131709580D01*
X76988094Y-131709580D02*
X76940475Y-131757200D01*
X76940475Y-131757200D02*
X76845237Y-131804819D01*
X76845237Y-131804819D02*
X76654761Y-131804819D01*
X76654761Y-131804819D02*
X76559523Y-131757200D01*
X76559523Y-131757200D02*
X76511904Y-131709580D01*
X76511904Y-131709580D02*
X76464285Y-131614342D01*
X76464285Y-131614342D02*
X76464285Y-131423866D01*
X76464285Y-131423866D02*
X76511904Y-131328628D01*
X76511904Y-131328628D02*
X76559523Y-131281009D01*
X76559523Y-131281009D02*
X76654761Y-131233390D01*
X141357142Y-120381009D02*
X141214285Y-120428628D01*
X141214285Y-120428628D02*
X141166666Y-120476247D01*
X141166666Y-120476247D02*
X141119047Y-120571485D01*
X141119047Y-120571485D02*
X141119047Y-120714342D01*
X141119047Y-120714342D02*
X141166666Y-120809580D01*
X141166666Y-120809580D02*
X141214285Y-120857200D01*
X141214285Y-120857200D02*
X141309523Y-120904819D01*
X141309523Y-120904819D02*
X141690475Y-120904819D01*
X141690475Y-120904819D02*
X141690475Y-119904819D01*
X141690475Y-119904819D02*
X141357142Y-119904819D01*
X141357142Y-119904819D02*
X141261904Y-119952438D01*
X141261904Y-119952438D02*
X141214285Y-120000057D01*
X141214285Y-120000057D02*
X141166666Y-120095295D01*
X141166666Y-120095295D02*
X141166666Y-120190533D01*
X141166666Y-120190533D02*
X141214285Y-120285771D01*
X141214285Y-120285771D02*
X141261904Y-120333390D01*
X141261904Y-120333390D02*
X141357142Y-120381009D01*
X141357142Y-120381009D02*
X141690475Y-120381009D01*
X140499999Y-119904819D02*
X140309523Y-119904819D01*
X140309523Y-119904819D02*
X140214285Y-119952438D01*
X140214285Y-119952438D02*
X140119047Y-120047676D01*
X140119047Y-120047676D02*
X140071428Y-120238152D01*
X140071428Y-120238152D02*
X140071428Y-120571485D01*
X140071428Y-120571485D02*
X140119047Y-120761961D01*
X140119047Y-120761961D02*
X140214285Y-120857200D01*
X140214285Y-120857200D02*
X140309523Y-120904819D01*
X140309523Y-120904819D02*
X140499999Y-120904819D01*
X140499999Y-120904819D02*
X140595237Y-120857200D01*
X140595237Y-120857200D02*
X140690475Y-120761961D01*
X140690475Y-120761961D02*
X140738094Y-120571485D01*
X140738094Y-120571485D02*
X140738094Y-120238152D01*
X140738094Y-120238152D02*
X140690475Y-120047676D01*
X140690475Y-120047676D02*
X140595237Y-119952438D01*
X140595237Y-119952438D02*
X140499999Y-119904819D01*
X139452380Y-119904819D02*
X139261904Y-119904819D01*
X139261904Y-119904819D02*
X139166666Y-119952438D01*
X139166666Y-119952438D02*
X139071428Y-120047676D01*
X139071428Y-120047676D02*
X139023809Y-120238152D01*
X139023809Y-120238152D02*
X139023809Y-120571485D01*
X139023809Y-120571485D02*
X139071428Y-120761961D01*
X139071428Y-120761961D02*
X139166666Y-120857200D01*
X139166666Y-120857200D02*
X139261904Y-120904819D01*
X139261904Y-120904819D02*
X139452380Y-120904819D01*
X139452380Y-120904819D02*
X139547618Y-120857200D01*
X139547618Y-120857200D02*
X139642856Y-120761961D01*
X139642856Y-120761961D02*
X139690475Y-120571485D01*
X139690475Y-120571485D02*
X139690475Y-120238152D01*
X139690475Y-120238152D02*
X139642856Y-120047676D01*
X139642856Y-120047676D02*
X139547618Y-119952438D01*
X139547618Y-119952438D02*
X139452380Y-119904819D01*
X138738094Y-119904819D02*
X138166666Y-119904819D01*
X138452380Y-120904819D02*
X138452380Y-119904819D01*
X75583333Y-92454819D02*
X75583333Y-93169104D01*
X75583333Y-93169104D02*
X75630952Y-93311961D01*
X75630952Y-93311961D02*
X75726190Y-93407200D01*
X75726190Y-93407200D02*
X75869047Y-93454819D01*
X75869047Y-93454819D02*
X75964285Y-93454819D01*
X74583333Y-93454819D02*
X75154761Y-93454819D01*
X74869047Y-93454819D02*
X74869047Y-92454819D01*
X74869047Y-92454819D02*
X74964285Y-92597676D01*
X74964285Y-92597676D02*
X75059523Y-92692914D01*
X75059523Y-92692914D02*
X75154761Y-92740533D01*
X206179580Y-115607142D02*
X206227200Y-115559523D01*
X206227200Y-115559523D02*
X206274819Y-115416666D01*
X206274819Y-115416666D02*
X206274819Y-115321428D01*
X206274819Y-115321428D02*
X206227200Y-115178571D01*
X206227200Y-115178571D02*
X206131961Y-115083333D01*
X206131961Y-115083333D02*
X206036723Y-115035714D01*
X206036723Y-115035714D02*
X205846247Y-114988095D01*
X205846247Y-114988095D02*
X205703390Y-114988095D01*
X205703390Y-114988095D02*
X205512914Y-115035714D01*
X205512914Y-115035714D02*
X205417676Y-115083333D01*
X205417676Y-115083333D02*
X205322438Y-115178571D01*
X205322438Y-115178571D02*
X205274819Y-115321428D01*
X205274819Y-115321428D02*
X205274819Y-115416666D01*
X205274819Y-115416666D02*
X205322438Y-115559523D01*
X205322438Y-115559523D02*
X205370057Y-115607142D01*
X206274819Y-116559523D02*
X206274819Y-115988095D01*
X206274819Y-116273809D02*
X205274819Y-116273809D01*
X205274819Y-116273809D02*
X205417676Y-116178571D01*
X205417676Y-116178571D02*
X205512914Y-116083333D01*
X205512914Y-116083333D02*
X205560533Y-115988095D01*
X205274819Y-117178571D02*
X205274819Y-117273809D01*
X205274819Y-117273809D02*
X205322438Y-117369047D01*
X205322438Y-117369047D02*
X205370057Y-117416666D01*
X205370057Y-117416666D02*
X205465295Y-117464285D01*
X205465295Y-117464285D02*
X205655771Y-117511904D01*
X205655771Y-117511904D02*
X205893866Y-117511904D01*
X205893866Y-117511904D02*
X206084342Y-117464285D01*
X206084342Y-117464285D02*
X206179580Y-117416666D01*
X206179580Y-117416666D02*
X206227200Y-117369047D01*
X206227200Y-117369047D02*
X206274819Y-117273809D01*
X206274819Y-117273809D02*
X206274819Y-117178571D01*
X206274819Y-117178571D02*
X206227200Y-117083333D01*
X206227200Y-117083333D02*
X206179580Y-117035714D01*
X206179580Y-117035714D02*
X206084342Y-116988095D01*
X206084342Y-116988095D02*
X205893866Y-116940476D01*
X205893866Y-116940476D02*
X205655771Y-116940476D01*
X205655771Y-116940476D02*
X205465295Y-116988095D01*
X205465295Y-116988095D02*
X205370057Y-117035714D01*
X205370057Y-117035714D02*
X205322438Y-117083333D01*
X205322438Y-117083333D02*
X205274819Y-117178571D01*
X60666666Y-119179580D02*
X60714285Y-119227200D01*
X60714285Y-119227200D02*
X60857142Y-119274819D01*
X60857142Y-119274819D02*
X60952380Y-119274819D01*
X60952380Y-119274819D02*
X61095237Y-119227200D01*
X61095237Y-119227200D02*
X61190475Y-119131961D01*
X61190475Y-119131961D02*
X61238094Y-119036723D01*
X61238094Y-119036723D02*
X61285713Y-118846247D01*
X61285713Y-118846247D02*
X61285713Y-118703390D01*
X61285713Y-118703390D02*
X61238094Y-118512914D01*
X61238094Y-118512914D02*
X61190475Y-118417676D01*
X61190475Y-118417676D02*
X61095237Y-118322438D01*
X61095237Y-118322438D02*
X60952380Y-118274819D01*
X60952380Y-118274819D02*
X60857142Y-118274819D01*
X60857142Y-118274819D02*
X60714285Y-118322438D01*
X60714285Y-118322438D02*
X60666666Y-118370057D01*
X60333332Y-118274819D02*
X59666666Y-118274819D01*
X59666666Y-118274819D02*
X60095237Y-119274819D01*
X154666666Y-94359580D02*
X154714285Y-94407200D01*
X154714285Y-94407200D02*
X154857142Y-94454819D01*
X154857142Y-94454819D02*
X154952380Y-94454819D01*
X154952380Y-94454819D02*
X155095237Y-94407200D01*
X155095237Y-94407200D02*
X155190475Y-94311961D01*
X155190475Y-94311961D02*
X155238094Y-94216723D01*
X155238094Y-94216723D02*
X155285713Y-94026247D01*
X155285713Y-94026247D02*
X155285713Y-93883390D01*
X155285713Y-93883390D02*
X155238094Y-93692914D01*
X155238094Y-93692914D02*
X155190475Y-93597676D01*
X155190475Y-93597676D02*
X155095237Y-93502438D01*
X155095237Y-93502438D02*
X154952380Y-93454819D01*
X154952380Y-93454819D02*
X154857142Y-93454819D01*
X154857142Y-93454819D02*
X154714285Y-93502438D01*
X154714285Y-93502438D02*
X154666666Y-93550057D01*
X154333332Y-93454819D02*
X153714285Y-93454819D01*
X153714285Y-93454819D02*
X154047618Y-93835771D01*
X154047618Y-93835771D02*
X153904761Y-93835771D01*
X153904761Y-93835771D02*
X153809523Y-93883390D01*
X153809523Y-93883390D02*
X153761904Y-93931009D01*
X153761904Y-93931009D02*
X153714285Y-94026247D01*
X153714285Y-94026247D02*
X153714285Y-94264342D01*
X153714285Y-94264342D02*
X153761904Y-94359580D01*
X153761904Y-94359580D02*
X153809523Y-94407200D01*
X153809523Y-94407200D02*
X153904761Y-94454819D01*
X153904761Y-94454819D02*
X154190475Y-94454819D01*
X154190475Y-94454819D02*
X154285713Y-94407200D01*
X154285713Y-94407200D02*
X154333332Y-94359580D01*
D13*
%TO.C,U1*%
X146920000Y-91197500D02*
X147420000Y-91197500D01*
X146920000Y-90697500D01*
X146920000Y-91197500D01*
G36*
X147420000Y-91197500D02*
G01*
X146920000Y-91197500D01*
X146920000Y-90697500D01*
X147420000Y-91197500D01*
G37*
X146915000Y-110052500D02*
X145915000Y-110052500D01*
X146915000Y-109272500D02*
X146915000Y-110052500D01*
X146915000Y-84312500D02*
X146915000Y-90472500D01*
X146915000Y-84312500D02*
X128675000Y-84312500D01*
X128675000Y-110052500D02*
X129675000Y-110052500D01*
X128675000Y-109272500D02*
X128675000Y-110052500D01*
X128675000Y-84312500D02*
X128675000Y-90727500D01*
%TO.C,USB1*%
D12*
X113075000Y-94230000D02*
X113075000Y-96080000D01*
X104075000Y-92120000D02*
X104075000Y-90580000D01*
X104075000Y-90580000D02*
X113075000Y-90580000D01*
X113075000Y-90580000D02*
X113075000Y-92120000D01*
X104075000Y-96080000D02*
X104075000Y-94230000D01*
D14*
X104135000Y-98160000D02*
G75*
G02*
X104075000Y-98160000I-30000J0D01*
G01*
X104075000Y-98160000D02*
G75*
G02*
X104135000Y-98160000I30000J0D01*
G01*
%TO.C,U4*%
D13*
X121060000Y-101265000D02*
X116940000Y-101265000D01*
X121060000Y-101320000D02*
X121060000Y-101265000D01*
X121060000Y-111385000D02*
X121060000Y-111330000D01*
X116940000Y-101265000D02*
X116940000Y-101320000D01*
X116940000Y-111330000D02*
X116940000Y-111385000D01*
X116940000Y-111385000D02*
X121060000Y-111385000D01*
X121600000Y-101315000D02*
X121840000Y-100985000D01*
X121360000Y-100985000D01*
X121600000Y-101315000D01*
G36*
X121600000Y-101315000D02*
G01*
X121360000Y-100985000D01*
X121840000Y-100985000D01*
X121600000Y-101315000D01*
G37*
%TO.C,R18*%
X172765000Y-135360436D02*
X172765000Y-135814564D01*
X174235000Y-135360436D02*
X174235000Y-135814564D01*
%TO.C,R6*%
X97735000Y-115227064D02*
X97735000Y-114772936D01*
X96265000Y-115227064D02*
X96265000Y-114772936D01*
%TO.C,R4*%
X112262742Y-108022500D02*
X112737258Y-108022500D01*
X112262742Y-106977500D02*
X112737258Y-106977500D01*
%TO.C,R3*%
X112477500Y-103262742D02*
X112477500Y-103737258D01*
X113522500Y-103262742D02*
X113522500Y-103737258D01*
%TO.C,Q1*%
X124102500Y-108260000D02*
X125572500Y-108260000D01*
X124102500Y-108235000D02*
X124102500Y-108260000D01*
X124102500Y-106040000D02*
X124102500Y-106065000D01*
X125572500Y-108260000D02*
X125572500Y-108235000D01*
X125572500Y-106065000D02*
X125572500Y-106040000D01*
X125572500Y-106040000D02*
X124102500Y-106040000D01*
X123657500Y-108240000D02*
X123517500Y-108430000D01*
X123797500Y-108430000D01*
X123657500Y-108240000D01*
G36*
X123797500Y-108430000D02*
G01*
X123517500Y-108430000D01*
X123657500Y-108240000D01*
X123797500Y-108430000D01*
G37*
%TO.C,R16*%
X183772936Y-99735000D02*
X184227064Y-99735000D01*
X183772936Y-98265000D02*
X184227064Y-98265000D01*
%TO.C,R10*%
X86727064Y-121765000D02*
X86272936Y-121765000D01*
X86727064Y-123235000D02*
X86272936Y-123235000D01*
%TO.C,SW1*%
X163160570Y-97930663D02*
X163160570Y-96430663D01*
X164410570Y-93930663D02*
X168910570Y-93930663D01*
X168910570Y-100430663D02*
X164410570Y-100430663D01*
X170160570Y-96430663D02*
X170160570Y-97930663D01*
%TO.C,R13*%
X128227064Y-113265000D02*
X127772936Y-113265000D01*
X128227064Y-114735000D02*
X127772936Y-114735000D01*
%TO.C,C5*%
X84015000Y-114511252D02*
X84015000Y-113988748D01*
X85485000Y-114511252D02*
X85485000Y-113988748D01*
%TO.C,R1*%
X106175570Y-104995227D02*
X106175570Y-104541099D01*
X107645570Y-104995227D02*
X107645570Y-104541099D01*
%TO.C,C4*%
X151511252Y-92515000D02*
X150988748Y-92515000D01*
X151511252Y-93985000D02*
X150988748Y-93985000D01*
%TO.C,U2*%
X119415000Y-95440000D02*
X119415000Y-95490000D01*
X119415000Y-98510000D02*
X119415000Y-98560000D01*
X119415000Y-98560000D02*
X121235000Y-98560000D01*
X121235000Y-95440000D02*
X119415000Y-95440000D01*
X121235000Y-95490000D02*
X121235000Y-95440000D01*
X121235000Y-97390000D02*
X121235000Y-96610000D01*
X121235000Y-98560000D02*
X121235000Y-98510000D01*
X118875000Y-98510000D02*
X118635000Y-98840000D01*
X119115000Y-98840000D01*
X118875000Y-98510000D01*
G36*
X119115000Y-98840000D02*
G01*
X118635000Y-98840000D01*
X118875000Y-98510000D01*
X119115000Y-98840000D01*
G37*
%TO.C,R2*%
X102425570Y-102616099D02*
X102425570Y-103070227D01*
X103895570Y-102616099D02*
X103895570Y-103070227D01*
%TO.C,C13*%
X83265000Y-94238748D02*
X83265000Y-94761252D01*
X84735000Y-94238748D02*
X84735000Y-94761252D01*
%TO.C,C11*%
X195761252Y-128265000D02*
X195238748Y-128265000D01*
X195761252Y-129735000D02*
X195238748Y-129735000D01*
%TO.C,R11*%
X195015000Y-124227064D02*
X195015000Y-123772936D01*
X196485000Y-124227064D02*
X196485000Y-123772936D01*
%TO.C,C2*%
X157090000Y-99011252D02*
X157090000Y-98488748D01*
X158560000Y-99011252D02*
X158560000Y-98488748D01*
%TO.C,R7*%
X80515000Y-117227064D02*
X80515000Y-116772936D01*
X81985000Y-117227064D02*
X81985000Y-116772936D01*
%TO.C,C6*%
X71761252Y-130765000D02*
X71238748Y-130765000D01*
X71761252Y-132235000D02*
X71238748Y-132235000D01*
%TO.C,C8*%
X76265000Y-125488748D02*
X76265000Y-126011252D01*
X77735000Y-125488748D02*
X77735000Y-126011252D01*
%TO.C,C12*%
X179765000Y-137488748D02*
X179765000Y-138011252D01*
X181235000Y-137488748D02*
X181235000Y-138011252D01*
%TO.C,D1*%
X92802500Y-92765000D02*
X95087500Y-92765000D01*
X92802500Y-94235000D02*
X92802500Y-92765000D01*
X95087500Y-94235000D02*
X92802500Y-94235000D01*
%TO.C,C1*%
X120563748Y-91765000D02*
X121086252Y-91765000D01*
X120563748Y-93235000D02*
X121086252Y-93235000D01*
%TO.C,C9*%
X189761252Y-116015000D02*
X189238748Y-116015000D01*
X189761252Y-117485000D02*
X189238748Y-117485000D01*
%TO.C,R9*%
X64265000Y-119727064D02*
X64265000Y-119272936D01*
X65735000Y-119727064D02*
X65735000Y-119272936D01*
%TO.C,R12*%
X205515000Y-123022936D02*
X205515000Y-123477064D01*
X206985000Y-123022936D02*
X206985000Y-123477064D01*
%TO.C,R5*%
X151840000Y-98814564D02*
X151840000Y-98360436D01*
X153310000Y-98814564D02*
X153310000Y-98360436D01*
%TO.C,R15*%
X180265000Y-143772936D02*
X180265000Y-144227064D01*
X181735000Y-143772936D02*
X181735000Y-144227064D01*
%TO.C,R14*%
X199227064Y-141765000D02*
X198772936Y-141765000D01*
X199227064Y-143235000D02*
X198772936Y-143235000D01*
%TO.C,R17*%
X99514564Y-92765000D02*
X99060436Y-92765000D01*
X99514564Y-94235000D02*
X99060436Y-94235000D01*
%TO.C,R8*%
X77477064Y-132265000D02*
X77022936Y-132265000D01*
X77477064Y-133735000D02*
X77022936Y-133735000D01*
%TO.C,SW8*%
X136500000Y-116750000D02*
X136500000Y-115250000D01*
X137750000Y-112750000D02*
X142250000Y-112750000D01*
X142250000Y-119250000D02*
X137750000Y-119250000D01*
X143500000Y-115250000D02*
X143500000Y-116750000D01*
%TO.C,J1*%
X77170000Y-92090000D02*
X77170000Y-93420000D01*
X77170000Y-94690000D02*
X77170000Y-109990000D01*
X78500000Y-92090000D02*
X77170000Y-92090000D01*
X79830000Y-94690000D02*
X77170000Y-94690000D01*
X79830000Y-94690000D02*
X79830000Y-109990000D01*
X79830000Y-109990000D02*
X77170000Y-109990000D01*
%TO.C,C10*%
X206765000Y-115988748D02*
X206765000Y-116511252D01*
X208235000Y-115988748D02*
X208235000Y-116511252D01*
%TO.C,C7*%
X60761252Y-119765000D02*
X60238748Y-119765000D01*
X60761252Y-121235000D02*
X60238748Y-121235000D01*
%TO.C,C3*%
X154238748Y-94765000D02*
X154761252Y-94765000D01*
X154238748Y-96235000D02*
X154761252Y-96235000D01*
%TD*%
%LPC*%
D15*
%TO.C,U1*%
X136950000Y-98500000D03*
X136950000Y-100025000D03*
X137712500Y-97737500D03*
X137712500Y-99262500D03*
X137712500Y-100787500D03*
X138475000Y-98500000D03*
D16*
X138475000Y-99262500D03*
D15*
X138475000Y-100025000D03*
X139237500Y-97737500D03*
X139237500Y-99262500D03*
X139237500Y-100787500D03*
X140000000Y-98500000D03*
X140000000Y-100025000D03*
D17*
X129045000Y-91922500D03*
X129045000Y-93192500D03*
X129045000Y-94462500D03*
X129045000Y-95732500D03*
X129045000Y-97002500D03*
X129045000Y-98272500D03*
X129045000Y-99542500D03*
X129045000Y-100812500D03*
X129045000Y-102082500D03*
X129045000Y-103352500D03*
X129045000Y-104622500D03*
X129045000Y-105892500D03*
X129045000Y-107162500D03*
X129045000Y-108432500D03*
D18*
X132075000Y-109682500D03*
X133345000Y-109682500D03*
X134615000Y-109682500D03*
X135885000Y-109682500D03*
X137155000Y-109682500D03*
X138425000Y-109682500D03*
X139695000Y-109682500D03*
X140965000Y-109682500D03*
X142235000Y-109682500D03*
X143505000Y-109682500D03*
D17*
X146545000Y-108432500D03*
X146545000Y-107162500D03*
X146545000Y-105892500D03*
X146545000Y-104622500D03*
X146545000Y-103352500D03*
X146545000Y-102082500D03*
X146545000Y-100812500D03*
X146545000Y-99542500D03*
X146545000Y-98272500D03*
X146545000Y-97002500D03*
X146545000Y-95732500D03*
X146545000Y-94462500D03*
X146545000Y-93192500D03*
X146545000Y-91922500D03*
%TD*%
D19*
%TO.C,USB1*%
X105375000Y-97920000D03*
X111775000Y-97920000D03*
X106175000Y-97920000D03*
D20*
X106825000Y-97920000D03*
X107325000Y-97920000D03*
X107825000Y-97920000D03*
X108325000Y-97920000D03*
X108825000Y-97920000D03*
X109325000Y-97920000D03*
X109825000Y-97920000D03*
X110325000Y-97920000D03*
D19*
X110975000Y-97920000D03*
D21*
X104255000Y-97360000D03*
X112895000Y-97360000D03*
D22*
X104255000Y-93180000D03*
X112895000Y-93180000D03*
D23*
X105685000Y-96860000D03*
X111465000Y-96860000D03*
%TD*%
D24*
%TO.C,D2*%
X192770000Y-99000000D03*
D25*
X190230000Y-99000000D03*
%TD*%
D26*
%TO.C,U4*%
X121475000Y-101880000D03*
X121475000Y-103150000D03*
X121475000Y-104420000D03*
X121475000Y-105690000D03*
X121475000Y-106960000D03*
X121475000Y-108230000D03*
X121475000Y-109500000D03*
X121475000Y-110770000D03*
X116525000Y-110770000D03*
X116525000Y-109500000D03*
X116525000Y-108230000D03*
X116525000Y-106960000D03*
X116525000Y-105690000D03*
X116525000Y-104420000D03*
X116525000Y-103150000D03*
X116525000Y-101880000D03*
%TD*%
D27*
%TO.C,R18*%
X173500000Y-134675000D03*
X173500000Y-136500000D03*
%TD*%
D28*
%TO.C,R6*%
X97000000Y-115912500D03*
X97000000Y-114087500D03*
%TD*%
D29*
%TO.C,R4*%
X111675000Y-107500000D03*
X113325000Y-107500000D03*
%TD*%
D30*
%TO.C,R3*%
X113000000Y-102675000D03*
X113000000Y-104325000D03*
%TD*%
D31*
%TO.C,Q1*%
X124000000Y-107800000D03*
X124000000Y-107150000D03*
X124000000Y-106500000D03*
X125675000Y-106500000D03*
X125675000Y-107150000D03*
X125675000Y-107800000D03*
%TD*%
D32*
%TO.C,H8*%
X173500000Y-147500000D03*
%TD*%
D33*
%TO.C,SW7*%
X196750000Y-114050000D03*
X203250000Y-114050000D03*
X196750000Y-118550000D03*
X203250000Y-118550000D03*
%TD*%
%TO.C,SW6*%
X184750000Y-121250000D03*
X191250000Y-121250000D03*
X184750000Y-125750000D03*
X191250000Y-125750000D03*
%TD*%
D32*
%TO.C,H5*%
X97420000Y-103500000D03*
%TD*%
D33*
%TO.C,SW10*%
X184750000Y-137200000D03*
X191250000Y-137200000D03*
X184750000Y-141700000D03*
X191250000Y-141700000D03*
%TD*%
D34*
%TO.C,H2*%
X60000000Y-153500000D03*
%TD*%
D35*
%TO.C,J3*%
X173500000Y-121690000D03*
D36*
X173500000Y-124230000D03*
X173500000Y-126770000D03*
X173500000Y-129310000D03*
%TD*%
D33*
%TO.C,SW5*%
X80250000Y-125500000D03*
X86750000Y-125500000D03*
X80250000Y-130000000D03*
X86750000Y-130000000D03*
%TD*%
D37*
%TO.C,SW12*%
X70250000Y-97000000D03*
X70250000Y-99000000D03*
X70250000Y-101000000D03*
D38*
X70250000Y-103150000D03*
X70250000Y-94850000D03*
%TD*%
D34*
%TO.C,H4*%
X206750000Y-154250000D03*
%TD*%
D39*
%TO.C,R16*%
X183087500Y-99000000D03*
X184912500Y-99000000D03*
%TD*%
D33*
%TO.C,SW4*%
X58250000Y-125500000D03*
X64750000Y-125500000D03*
X58250000Y-130000000D03*
X64750000Y-130000000D03*
%TD*%
D32*
%TO.C,H7*%
X173500000Y-103500000D03*
%TD*%
D33*
%TO.C,SW3*%
X69250000Y-136500000D03*
X75750000Y-136500000D03*
X69250000Y-141000000D03*
X75750000Y-141000000D03*
%TD*%
D34*
%TO.C,H3*%
X206750000Y-96500000D03*
%TD*%
D32*
%TO.C,H6*%
X97420000Y-147500000D03*
%TD*%
D35*
%TO.C,J2*%
X92500000Y-108990000D03*
D36*
X92500000Y-111530000D03*
X92500000Y-114070000D03*
X92500000Y-116610000D03*
X92500000Y-119150000D03*
X92500000Y-121690000D03*
X92500000Y-124230000D03*
X92500000Y-126770000D03*
X92500000Y-129310000D03*
X92500000Y-131850000D03*
X92500000Y-134390000D03*
X92500000Y-136930000D03*
X92500000Y-139470000D03*
X92500000Y-142010000D03*
%TD*%
D33*
%TO.C,SW2*%
X69250000Y-114500000D03*
X75750000Y-114500000D03*
X69250000Y-119000000D03*
X75750000Y-119000000D03*
%TD*%
%TO.C,START*%
X196750000Y-132250000D03*
X203250000Y-132250000D03*
X196750000Y-136750000D03*
X203250000Y-136750000D03*
%TD*%
D34*
%TO.C,H1*%
X59250000Y-96250000D03*
%TD*%
D40*
%TO.C,R10*%
X87412500Y-122500000D03*
X85587500Y-122500000D03*
%TD*%
D33*
%TO.C,SW1*%
X163410570Y-99430663D03*
X169910570Y-99430663D03*
X163410570Y-94930663D03*
X169910570Y-94930663D03*
%TD*%
D40*
%TO.C,R13*%
X128912500Y-114000000D03*
X127087500Y-114000000D03*
%TD*%
D41*
%TO.C,C5*%
X84750000Y-115200000D03*
X84750000Y-113300000D03*
%TD*%
D28*
%TO.C,R1*%
X106910570Y-105680663D03*
X106910570Y-103855663D03*
%TD*%
D42*
%TO.C,C4*%
X152200000Y-93250000D03*
X150300000Y-93250000D03*
%TD*%
D43*
%TO.C,U2*%
X119187500Y-97950000D03*
X119187500Y-97000000D03*
X119187500Y-96050000D03*
X121462500Y-96050000D03*
X121462500Y-97950000D03*
%TD*%
D27*
%TO.C,R2*%
X103160570Y-101930663D03*
X103160570Y-103755663D03*
%TD*%
D44*
%TO.C,C13*%
X84000000Y-93550000D03*
X84000000Y-95450000D03*
%TD*%
D42*
%TO.C,C11*%
X196450000Y-129000000D03*
X194550000Y-129000000D03*
%TD*%
D28*
%TO.C,R11*%
X195750000Y-124912500D03*
X195750000Y-123087500D03*
%TD*%
D41*
%TO.C,C2*%
X157825000Y-99700000D03*
X157825000Y-97800000D03*
%TD*%
D28*
%TO.C,R7*%
X81250000Y-117912500D03*
X81250000Y-116087500D03*
%TD*%
D42*
%TO.C,C6*%
X72450000Y-131500000D03*
X70550000Y-131500000D03*
%TD*%
D44*
%TO.C,C8*%
X77000000Y-124800000D03*
X77000000Y-126700000D03*
%TD*%
%TO.C,C12*%
X180500000Y-136800000D03*
X180500000Y-138700000D03*
%TD*%
D45*
%TO.C,D1*%
X93500000Y-93500000D03*
X95075000Y-93500000D03*
%TD*%
D46*
%TO.C,C1*%
X119875000Y-92500000D03*
X121775000Y-92500000D03*
%TD*%
D42*
%TO.C,C9*%
X190450000Y-116750000D03*
X188550000Y-116750000D03*
%TD*%
D28*
%TO.C,R9*%
X65000000Y-120412500D03*
X65000000Y-118587500D03*
%TD*%
D27*
%TO.C,R12*%
X206250000Y-122337500D03*
X206250000Y-124162500D03*
%TD*%
D28*
%TO.C,R5*%
X152575000Y-99500000D03*
X152575000Y-97675000D03*
%TD*%
D27*
%TO.C,R15*%
X181000000Y-143087500D03*
X181000000Y-144912500D03*
%TD*%
D40*
%TO.C,R14*%
X199912500Y-142500000D03*
X198087500Y-142500000D03*
%TD*%
%TO.C,R17*%
X100200000Y-93500000D03*
X98375000Y-93500000D03*
%TD*%
%TO.C,R8*%
X78162500Y-133000000D03*
X76337500Y-133000000D03*
%TD*%
D33*
%TO.C,SW8*%
X143250000Y-113750000D03*
X136750000Y-113750000D03*
X143250000Y-118250000D03*
X136750000Y-118250000D03*
%TD*%
D35*
%TO.C,J1*%
X78500000Y-93420000D03*
D36*
X78500000Y-95960000D03*
X78500000Y-98500000D03*
X78500000Y-101040000D03*
X78500000Y-103580000D03*
X78500000Y-106120000D03*
X78500000Y-108660000D03*
%TD*%
D44*
%TO.C,C10*%
X207500000Y-115300000D03*
X207500000Y-117200000D03*
%TD*%
D42*
%TO.C,C7*%
X61450000Y-120500000D03*
X59550000Y-120500000D03*
%TD*%
D46*
%TO.C,C3*%
X153550000Y-95500000D03*
X155450000Y-95500000D03*
%TD*%
%LPD*%
M02*
