M48
; DRILL file KiCad 10.0.3 date 2026-08-16T18:23:47
; FORMAT={-:-/ absolute / inch / decimal}
; #@! TF.CreationDate,2026-08-16T18:23:47+08:00
; #@! TF.GenerationSoftware,Kicad,Pcbnew,10.0.3
; #@! TF.FileFunction,Plated,1,2,PTH
FMAT,2
INCH
; #@! TA.AperFunction,Plated,PTH,ComponentDrill
T1C0.0079
; #@! TA.AperFunction,Plated,PTH,ViaDrill
T2C0.0118
; #@! TA.AperFunction,Plated,PTH,ComponentDrill
T3C0.0236
; #@! TA.AperFunction,Plated,PTH,ComponentDrill
T4C0.0256
; #@! TA.AperFunction,Plated,PTH,ComponentDrill
T5C0.0354
; #@! TA.AperFunction,Plated,PTH,ComponentDrill
T6C0.0394
; #@! TA.AperFunction,Plated,PTH,ComponentDrill
T7C0.0394
; #@! TA.AperFunction,Plated,PTH,ComponentDrill
T8C0.0433
; #@! TA.AperFunction,Plated,PTH,ComponentDrill
T9C0.1260
%
G90
G05
T1
X5.3917Y-3.878
X5.3917Y-3.938
X5.4218Y-3.8479
X5.4218Y-3.908
X5.4218Y-3.968
X5.4518Y-3.878
X5.4518Y-3.938
X5.4818Y-3.8479
X5.4818Y-3.908
X5.4818Y-3.968
X5.5118Y-3.878
X5.5118Y-3.938
T2
X2.2736Y-4.7343
X2.5591Y-5.8957
X3.1201Y-4.5276
X3.189Y-4.8031
X3.2283Y-4.4193
X3.2703Y-4.3598
X3.3071Y-4.6457
X3.5531Y-4.5472
X3.6811Y-3.6811
X3.7598Y-3.8189
X3.8386Y-3.8976
X3.9961Y-3.937
X4.1043Y-4.2421
X4.1303Y-3.9736
X4.3567Y-3.9146
X4.58Y-3.7897
X4.5866Y-4.0256
X4.7701Y-3.9469
X4.7701Y-4.2788
X4.8455Y-3.8484
X4.8837Y-3.742
X4.9508Y-3.7205
X4.967Y-4.1803
X5.1378Y-4.3799
X5.1476Y-4.2323
X5.1575Y-4.1339
X5.187Y-4.1634
X5.2067Y-4.0256
X5.2309Y-3.962
X5.2559Y-4.0453
X5.4528Y-4.0748
X5.4528Y-4.3898
X5.561Y-4.2323
X5.6004Y-4.3799
X5.6102Y-4.1831
X5.6264Y-3.8063
X5.6496Y-4.0453
X5.6624Y-3.7106
X5.6791Y-4.0059
X5.8563Y-3.9862
X5.8661Y-4.1831
X5.8661Y-4.2323
X6.063Y-4.2618
X6.063Y-4.3504
X6.0728Y-4.0256
X6.2008Y-4.7047
X7.126Y-5.8071
X8.1791Y-4.6949
T4
X4.1608Y-3.8134
X4.3884Y-3.8134
T5
X7.4894Y-3.8976
X7.5894Y-3.8976
T6
X2.7657Y-3.8189
X2.7657Y-3.8976
X2.7657Y-3.9764
T7
X3.0906Y-3.678
X3.0906Y-3.778
X3.0906Y-3.878
X3.0906Y-3.978
X3.0906Y-4.078
X3.0906Y-4.178
X3.0906Y-4.278
X3.6417Y-4.2909
X3.6417Y-4.3909
X3.6417Y-4.4909
X3.6417Y-4.5909
X3.6417Y-4.6909
X3.6417Y-4.7909
X3.6417Y-4.8909
X3.6417Y-4.9909
X3.6417Y-5.0909
X3.6417Y-5.1909
X3.6417Y-5.2909
X3.6417Y-5.3909
X3.6417Y-5.4909
X3.6417Y-5.5909
X6.8307Y-4.7909
X6.8307Y-4.8909
X6.8307Y-4.9909
X6.8307Y-5.0909
T8
X2.2933Y-4.9409
X2.2933Y-5.1181
X2.5492Y-4.9409
X2.5492Y-5.1181
X2.7264Y-4.5079
X2.7264Y-4.685
X2.7264Y-5.374
X2.7264Y-5.5512
X2.9823Y-4.5079
X2.9823Y-4.685
X2.9823Y-5.374
X2.9823Y-5.5512
X3.1594Y-4.9409
X3.1594Y-5.1181
X3.4154Y-4.9409
X3.4154Y-5.1181
X5.3839Y-4.4783
X5.3839Y-4.6555
X5.6398Y-4.4783
X5.6398Y-4.6555
X6.4335Y-3.7374
X6.4335Y-3.9146
X6.6894Y-3.7374
X6.6894Y-3.9146
X7.2736Y-4.7736
X7.2736Y-4.9508
X7.2736Y-5.4016
X7.2736Y-5.5787
X7.5295Y-4.7736
X7.5295Y-4.9508
X7.5295Y-5.4016
X7.5295Y-5.5787
X7.7461Y-4.4902
X7.7461Y-4.6673
X7.7461Y-5.2067
X7.7461Y-5.3839
X8.002Y-4.4902
X8.002Y-4.6673
X8.002Y-5.2067
X8.002Y-5.3839
T9
X3.8354Y-4.0748
X3.8354Y-5.8071
X6.8307Y-4.0748
X6.8307Y-5.8071
T3
G00X4.1045Y-3.6528
M15
G01X4.1045Y-3.6843
M16
G05
G00X4.1045Y-3.8114
M15
G01X4.1045Y-3.8547
M16
G05
G00X4.4447Y-3.6528
M15
G01X4.4447Y-3.6843
M16
G05
G00X4.4447Y-3.8114
M15
G01X4.4447Y-3.8547
M16
G05
T6
G00X2.7815Y-3.7343
M15
G01X2.75Y-3.7343
M16
G05
G00X2.7815Y-4.061
M15
G01X2.75Y-4.061
M16
G05
M30
