%TF.GenerationSoftware,KiCad,Pcbnew,10.0.3*%
%TF.CreationDate,2026-08-17T00:10:34+08:00*%
%TF.ProjectId,gamegirl,67616d65-6769-4726-9c2e-6b696361645f,rev?*%
%TF.SameCoordinates,Original*%
%TF.FileFunction,Copper,L2,Bot*%
%TF.FilePolarity,Positive*%
%FSLAX46Y46*%
G04 Gerber Fmt 4.6, Leading zero omitted, Abs format (unit mm)*
G04 Created by KiCad (PCBNEW 10.0.3) date 2026-08-17 00:10:34*
%MOMM*%
%LPD*%
G01*
G04 APERTURE LIST*
G04 Aperture macros list*
%AMRoundRect*
0 Rectangle with rounded corners*
0 $1 Rounding radius*
0 $2 $3 $4 $5 $6 $7 $8 $9 X,Y pos of 4 corners*
0 Add a 4 corners polygon primitive as box body*
4,1,4,$2,$3,$4,$5,$6,$7,$8,$9,$2,$3,0*
0 Add four circle primitives for the rounded corners*
1,1,$1+$1,$2,$3*
1,1,$1+$1,$4,$5*
1,1,$1+$1,$6,$7*
1,1,$1+$1,$8,$9*
0 Add four rect primitives between the rounded corners*
20,1,$1+$1,$2,$3,$4,$5,0*
20,1,$1+$1,$4,$5,$6,$7,0*
20,1,$1+$1,$6,$7,$8,$9,0*
20,1,$1+$1,$8,$9,$2,$3,0*%
G04 Aperture macros list end*
%TA.AperFunction,SMDPad,CuDef*%
%ADD10R,1.050000X1.050000*%
%TD*%
%TA.AperFunction,HeatsinkPad*%
%ADD11C,0.600000*%
%TD*%
%TA.AperFunction,HeatsinkPad*%
%ADD12R,4.200000X4.200000*%
%TD*%
%TA.AperFunction,SMDPad,CuDef*%
%ADD13R,1.500000X0.900000*%
%TD*%
%TA.AperFunction,SMDPad,CuDef*%
%ADD14R,0.900000X1.500000*%
%TD*%
%TA.AperFunction,SMDPad,CuDef*%
%ADD15R,0.600000X1.150000*%
%TD*%
%TA.AperFunction,SMDPad,CuDef*%
%ADD16R,0.300000X1.150000*%
%TD*%
%TA.AperFunction,WasherPad*%
%ADD17O,1.300000X2.400000*%
%TD*%
%TA.AperFunction,WasherPad*%
%ADD18O,1.300000X2.100000*%
%TD*%
%TA.AperFunction,ComponentPad*%
%ADD19R,1.800000X1.800000*%
%TD*%
%TA.AperFunction,ComponentPad*%
%ADD20C,1.800000*%
%TD*%
%TA.AperFunction,SMDPad,CuDef*%
%ADD21RoundRect,0.150000X0.825000X0.150000X-0.825000X0.150000X-0.825000X-0.150000X0.825000X-0.150000X0*%
%TD*%
%TA.AperFunction,SMDPad,CuDef*%
%ADD22RoundRect,0.250000X-0.450000X0.262500X-0.450000X-0.262500X0.450000X-0.262500X0.450000X0.262500X0*%
%TD*%
%TA.AperFunction,SMDPad,CuDef*%
%ADD23RoundRect,0.250000X0.450000X-0.262500X0.450000X0.262500X-0.450000X0.262500X-0.450000X-0.262500X0*%
%TD*%
%TA.AperFunction,SMDPad,CuDef*%
%ADD24RoundRect,0.200000X-0.200000X-0.275000X0.200000X-0.275000X0.200000X0.275000X-0.200000X0.275000X0*%
%TD*%
%TA.AperFunction,SMDPad,CuDef*%
%ADD25RoundRect,0.200000X-0.275000X0.200000X-0.275000X-0.200000X0.275000X-0.200000X0.275000X0.200000X0*%
%TD*%
%TA.AperFunction,SMDPad,CuDef*%
%ADD26RoundRect,0.087500X-0.425000X-0.087500X0.425000X-0.087500X0.425000X0.087500X-0.425000X0.087500X0*%
%TD*%
%TA.AperFunction,ComponentPad*%
%ADD27C,5.600000*%
%TD*%
%TA.AperFunction,ComponentPad*%
%ADD28C,2.000000*%
%TD*%
%TA.AperFunction,ComponentPad*%
%ADD29R,1.700000X1.700000*%
%TD*%
%TA.AperFunction,ComponentPad*%
%ADD30C,1.700000*%
%TD*%
%TA.AperFunction,ComponentPad*%
%ADD31O,1.600000X1.600000*%
%TD*%
%TA.AperFunction,ComponentPad*%
%ADD32O,3.000000X2.000000*%
%TD*%
%TA.AperFunction,SMDPad,CuDef*%
%ADD33RoundRect,0.250000X-0.262500X-0.450000X0.262500X-0.450000X0.262500X0.450000X-0.262500X0.450000X0*%
%TD*%
%TA.AperFunction,SMDPad,CuDef*%
%ADD34RoundRect,0.250000X0.262500X0.450000X-0.262500X0.450000X-0.262500X-0.450000X0.262500X-0.450000X0*%
%TD*%
%TA.AperFunction,SMDPad,CuDef*%
%ADD35RoundRect,0.250000X0.475000X-0.250000X0.475000X0.250000X-0.475000X0.250000X-0.475000X-0.250000X0*%
%TD*%
%TA.AperFunction,SMDPad,CuDef*%
%ADD36RoundRect,0.250000X0.250000X0.475000X-0.250000X0.475000X-0.250000X-0.475000X0.250000X-0.475000X0*%
%TD*%
%TA.AperFunction,SMDPad,CuDef*%
%ADD37RoundRect,0.150000X-0.512500X-0.150000X0.512500X-0.150000X0.512500X0.150000X-0.512500X0.150000X0*%
%TD*%
%TA.AperFunction,SMDPad,CuDef*%
%ADD38RoundRect,0.250000X-0.475000X0.250000X-0.475000X-0.250000X0.475000X-0.250000X0.475000X0.250000X0*%
%TD*%
%TA.AperFunction,SMDPad,CuDef*%
%ADD39RoundRect,0.218750X-0.218750X-0.256250X0.218750X-0.256250X0.218750X0.256250X-0.218750X0.256250X0*%
%TD*%
%TA.AperFunction,SMDPad,CuDef*%
%ADD40RoundRect,0.250000X-0.250000X-0.475000X0.250000X-0.475000X0.250000X0.475000X-0.250000X0.475000X0*%
%TD*%
%TA.AperFunction,ViaPad*%
%ADD41C,0.600000*%
%TD*%
%TA.AperFunction,Conductor*%
%ADD42C,0.200000*%
%TD*%
G04 APERTURE END LIST*
D10*
%TO.P,U1,39,GND_39*%
%TO.N,GND*%
X136950000Y-97737500D03*
D11*
X136950000Y-98500000D03*
D10*
X136950000Y-99262500D03*
D11*
X136950000Y-100025000D03*
D10*
X136950000Y-100787500D03*
D11*
X137712500Y-97737500D03*
X137712500Y-99262500D03*
X137712500Y-100787500D03*
D10*
X138475000Y-97737500D03*
D11*
X138475000Y-98500000D03*
D12*
X138475000Y-99262500D03*
D10*
X138475000Y-99262500D03*
D11*
X138475000Y-100025000D03*
D10*
X138475000Y-100787500D03*
D11*
X139237500Y-97737500D03*
X139237500Y-99262500D03*
X139237500Y-100787500D03*
D10*
X140000000Y-97737500D03*
D11*
X140000000Y-98500000D03*
D10*
X140000000Y-99262500D03*
D11*
X140000000Y-100025000D03*
D10*
X140000000Y-100787500D03*
D13*
%TO.P,U1,38,GND_38*%
X129045000Y-91922500D03*
%TO.P,U1,37,IO23_37*%
%TO.N,/GPIO23*%
X129045000Y-93192500D03*
%TO.P,U1,36,IO22_36*%
%TO.N,/GPIO22*%
X129045000Y-94462500D03*
%TO.P,U1,35,TXD0/IO1_35*%
%TO.N,/tx*%
X129045000Y-95732500D03*
%TO.P,U1,34,RXD0/IO3_34*%
%TO.N,/rx*%
X129045000Y-97002500D03*
%TO.P,U1,33,IO21_33*%
%TO.N,/status*%
X129045000Y-98272500D03*
%TO.P,U1,32,NC_32*%
%TO.N,unconnected-(U1-NC-Pad32)*%
X129045000Y-99542500D03*
%TO.P,U1,31,IO19_31*%
%TO.N,/GPIO19*%
X129045000Y-100812500D03*
%TO.P,U1,30,IO18_30*%
%TO.N,/GPIO18*%
X129045000Y-102082500D03*
%TO.P,U1,29,IO5_29*%
%TO.N,/GPIO5*%
X129045000Y-103352500D03*
%TO.P,U1,28,IO17_28*%
%TO.N,/GPIO17*%
X129045000Y-104622500D03*
%TO.P,U1,27,IO16_27*%
%TO.N,/select*%
X129045000Y-105892500D03*
%TO.P,U1,26,IO4_26*%
%TO.N,/GPIO4*%
X129045000Y-107162500D03*
%TO.P,U1,25,IO0_25*%
%TO.N,/boot*%
X129045000Y-108432500D03*
D14*
%TO.P,U1,24,IO2_24*%
%TO.N,/GPIO2*%
X132075000Y-109682500D03*
%TO.P,U1,23,IO15_23*%
%TO.N,/GPIO15*%
X133345000Y-109682500D03*
%TO.P,U1,22,SDI/SD1_22*%
%TO.N,unconnected-(U1-SDI{slash}SD1-Pad22)*%
X134615000Y-109682500D03*
%TO.P,U1,21,SDO/SD0_21*%
%TO.N,unconnected-(U1-SDO{slash}SD0-Pad21)*%
X135885000Y-109682500D03*
%TO.P,U1,20,SCK/CLK_20*%
%TO.N,unconnected-(U1-SCK{slash}CLK-Pad20)*%
X137155000Y-109682500D03*
%TO.P,U1,19,SCS/CMD_19*%
%TO.N,unconnected-(U1-SCS{slash}CMD-Pad19)*%
X138425000Y-109682500D03*
%TO.P,U1,18,SWP/SD3_18*%
%TO.N,unconnected-(U1-SWP{slash}SD3-Pad18)*%
X139695000Y-109682500D03*
%TO.P,U1,17,SHD/SD2_17*%
%TO.N,unconnected-(U1-SHD{slash}SD2-Pad17)*%
X140965000Y-109682500D03*
%TO.P,U1,16,IO13_16*%
%TO.N,/GPIO13*%
X142235000Y-109682500D03*
%TO.P,U1,15,GND_15*%
%TO.N,GND*%
X143505000Y-109682500D03*
D13*
%TO.P,U1,14,IO12_14*%
%TO.N,unconnected-(U1-IO12-Pad14)*%
X146545000Y-108432500D03*
%TO.P,U1,13,IO14_13*%
%TO.N,/GPIO14*%
X146545000Y-107162500D03*
%TO.P,U1,12,IO27_12*%
%TO.N,/start*%
X146545000Y-105892500D03*
%TO.P,U1,11,IO26_11*%
%TO.N,/GPIO26*%
X146545000Y-104622500D03*
%TO.P,U1,10,IO25_10*%
%TO.N,/GPIO25*%
X146545000Y-103352500D03*
%TO.P,U1,9,IO33_9*%
%TO.N,/B*%
X146545000Y-102082500D03*
%TO.P,U1,8,IO32_8*%
%TO.N,/A*%
X146545000Y-100812500D03*
%TO.P,U1,7,IO35_7*%
%TO.N,/down*%
X146545000Y-99542500D03*
%TO.P,U1,6,IO34_6*%
%TO.N,/up*%
X146545000Y-98272500D03*
%TO.P,U1,5,SENSOR_VN_5*%
%TO.N,/right*%
X146545000Y-97002500D03*
%TO.P,U1,4,SENSOR_VP_4*%
%TO.N,/left*%
X146545000Y-95732500D03*
%TO.P,U1,3,EN_3*%
%TO.N,/en*%
X146545000Y-94462500D03*
%TO.P,U1,2,VDD_2*%
%TO.N,+3V3*%
X146545000Y-93192500D03*
%TO.P,U1,1,GND_1*%
%TO.N,GND*%
X146545000Y-91922500D03*
%TD*%
D15*
%TO.P,USB1,A1B12,GND_A1B12*%
%TO.N,GND*%
X105375000Y-97920000D03*
%TO.P,USB1,B1A12,GND_B1A12*%
X111775000Y-97920000D03*
%TO.P,USB1,A4B9,VBUS_A4B9*%
%TO.N,VBUS*%
X106175000Y-97920000D03*
D16*
%TO.P,USB1,B8,SBU2_B8*%
%TO.N,unconnected-(USB1-SBU2-PadB8)*%
X106825000Y-97920000D03*
%TO.P,USB1,A5,CC1_A5*%
%TO.N,Net-(USB1-CC1)*%
X107325000Y-97920000D03*
%TO.P,USB1,B7,DN2_B7*%
%TO.N,usb dm*%
X107825000Y-97920000D03*
%TO.P,USB1,A6,DP1_A6*%
%TO.N,usb dp*%
X108325000Y-97920000D03*
%TO.P,USB1,A7,DN1_A7*%
%TO.N,usb dm*%
X108825000Y-97920000D03*
%TO.P,USB1,B6,DP2_B6*%
%TO.N,usb dp*%
X109325000Y-97920000D03*
%TO.P,USB1,A8,SBU1_A8*%
%TO.N,unconnected-(USB1-SBU1-PadA8)*%
X109825000Y-97920000D03*
%TO.P,USB1,B5,CC2_B5*%
%TO.N,Net-(USB1-CC2)*%
X110325000Y-97920000D03*
D15*
%TO.P,USB1,B4A9,VBUS_B4A9*%
%TO.N,VBUS*%
X110975000Y-97920000D03*
D17*
%TO.P,USB1,*%
%TO.N,GND*%
X104255000Y-97360000D03*
X112895000Y-97360000D03*
D18*
X104255000Y-93180000D03*
X112895000Y-93180000D03*
%TD*%
D19*
%TO.P,D2,1,K_1*%
%TO.N,GND*%
X192770000Y-99000000D03*
D20*
%TO.P,D2,2,A_2*%
%TO.N,Net-(D2-A)*%
X190230000Y-99000000D03*
%TD*%
D21*
%TO.P,U4,1,GND_1*%
%TO.N,GND*%
X121475000Y-101880000D03*
%TO.P,U4,2,TXD_2*%
%TO.N,/tx*%
X121475000Y-103150000D03*
%TO.P,U4,3,RXD_3*%
%TO.N,/rx*%
X121475000Y-104420000D03*
%TO.P,U4,4,V3_4*%
%TO.N,+3V3*%
X121475000Y-105690000D03*
%TO.P,U4,5,UD+_5*%
%TO.N,Net-(U4-UD+)*%
X121475000Y-106960000D03*
%TO.P,U4,6,UD-_6*%
%TO.N,Net-(U4-UD-)*%
X121475000Y-108230000D03*
%TO.P,U4,7,NC_7*%
%TO.N,unconnected-(U4-NC-Pad7)*%
X121475000Y-109500000D03*
%TO.P,U4,8,NC_8*%
%TO.N,unconnected-(U4-NC-Pad8)*%
X121475000Y-110770000D03*
%TO.P,U4,9,~{CTS}_9*%
%TO.N,unconnected-(U4-~{CTS}-Pad9)*%
X116525000Y-110770000D03*
%TO.P,U4,10,~{DSR}_10*%
%TO.N,unconnected-(U4-~{DSR}-Pad10)*%
X116525000Y-109500000D03*
%TO.P,U4,11,~{RI}_11*%
%TO.N,unconnected-(U4-~{RI}-Pad11)*%
X116525000Y-108230000D03*
%TO.P,U4,12,~{DCD}_12*%
%TO.N,unconnected-(U4-~{DCD}-Pad12)*%
X116525000Y-106960000D03*
%TO.P,U4,13,~{DTR}_13*%
%TO.N,Net-(Q1A-E1)*%
X116525000Y-105690000D03*
%TO.P,U4,14,~{RTS}_14*%
%TO.N,Net-(Q1A-B1)*%
X116525000Y-104420000D03*
%TO.P,U4,15,R232_15*%
%TO.N,unconnected-(U4-R232-Pad15)*%
X116525000Y-103150000D03*
%TO.P,U4,16,VCC_16*%
%TO.N,+3V3*%
X116525000Y-101880000D03*
%TD*%
D22*
%TO.P,R18,1*%
%TO.N,/GPIO15*%
X173500000Y-134675000D03*
%TO.P,R18,2*%
%TO.N,+3V3*%
X173500000Y-136500000D03*
%TD*%
D23*
%TO.P,R6,1*%
%TO.N,/GPIO5*%
X97000000Y-115912500D03*
%TO.P,R6,2*%
%TO.N,+3V3*%
X97000000Y-114087500D03*
%TD*%
D24*
%TO.P,R4,1*%
%TO.N,usb dm*%
X111675000Y-107500000D03*
%TO.P,R4,2*%
%TO.N,Net-(U4-UD-)*%
X113325000Y-107500000D03*
%TD*%
D25*
%TO.P,R3,1*%
%TO.N,usb dp*%
X113000000Y-102675000D03*
%TO.P,R3,2*%
%TO.N,Net-(U4-UD+)*%
X113000000Y-104325000D03*
%TD*%
D26*
%TO.P,Q1,1,E1_1*%
%TO.N,Net-(Q1A-E1)*%
X124000000Y-107800000D03*
%TO.P,Q1,2,B1_2*%
%TO.N,Net-(Q1A-B1)*%
X124000000Y-107150000D03*
%TO.P,Q1,3,C2_3*%
%TO.N,/en*%
X124000000Y-106500000D03*
%TO.P,Q1,4,E2_4*%
%TO.N,Net-(Q1A-B1)*%
X125675000Y-106500000D03*
%TO.P,Q1,5,B2_5*%
%TO.N,Net-(Q1A-E1)*%
X125675000Y-107150000D03*
%TO.P,Q1,6,C1_6*%
%TO.N,/boot*%
X125675000Y-107800000D03*
%TD*%
D27*
%TO.P,H8,1*%
%TO.N,N/C*%
X173500000Y-147500000D03*
%TD*%
D28*
%TO.P,SW7,1,1_1*%
%TO.N,/B*%
X196750000Y-114050000D03*
X203250000Y-114050000D03*
%TO.P,SW7,2,2_2*%
%TO.N,GND*%
X196750000Y-118550000D03*
X203250000Y-118550000D03*
%TD*%
%TO.P,SW6,1,1_1*%
%TO.N,/A*%
X184750000Y-121250000D03*
X191250000Y-121250000D03*
%TO.P,SW6,2,2_2*%
%TO.N,GND*%
X184750000Y-125750000D03*
X191250000Y-125750000D03*
%TD*%
D27*
%TO.P,H5,1*%
%TO.N,N/C*%
X97420000Y-103500000D03*
%TD*%
D28*
%TO.P,SW10,1,1_1*%
%TO.N,/select*%
X184750000Y-137200000D03*
X191250000Y-137200000D03*
%TO.P,SW10,2,2_2*%
%TO.N,GND*%
X184750000Y-141700000D03*
X191250000Y-141700000D03*
%TD*%
D29*
%TO.P,J3,1,Pin_1_1*%
%TO.N,/GPIO14*%
X173500000Y-121690000D03*
D30*
%TO.P,J3,2,Pin_2_2*%
%TO.N,/GPIO13*%
X173500000Y-124230000D03*
%TO.P,J3,3,Pin_3_3*%
%TO.N,/GPIO17*%
X173500000Y-126770000D03*
%TO.P,J3,4,Pin_4_4*%
%TO.N,/GPIO15*%
X173500000Y-129310000D03*
%TD*%
D28*
%TO.P,SW5,1,1_1*%
%TO.N,/right*%
X80250000Y-125500000D03*
X86750000Y-125500000D03*
%TO.P,SW5,2,2_2*%
%TO.N,GND*%
X80250000Y-130000000D03*
X86750000Y-130000000D03*
%TD*%
D31*
%TO.P,SW12,1,1_1*%
%TO.N,GND*%
X70250000Y-97000000D03*
%TO.P,SW12,2,2_2*%
%TO.N,/GAIN*%
X70250000Y-99000000D03*
%TO.P,SW12,3,3_3*%
%TO.N,VBUS*%
X70250000Y-101000000D03*
D32*
%TO.P,SW12,4,4_4*%
%TO.N,GND*%
X70250000Y-103150000D03*
%TO.P,SW12,5,5_5*%
X70250000Y-94850000D03*
%TD*%
D33*
%TO.P,R16,1*%
%TO.N,/status*%
X183087500Y-99000000D03*
%TO.P,R16,2*%
%TO.N,Net-(D2-A)*%
X184912500Y-99000000D03*
%TD*%
D28*
%TO.P,SW4,1,1_1*%
%TO.N,/left*%
X58250000Y-125500000D03*
X64750000Y-125500000D03*
%TO.P,SW4,2,2_2*%
%TO.N,GND*%
X58250000Y-130000000D03*
X64750000Y-130000000D03*
%TD*%
D27*
%TO.P,H7,1*%
%TO.N,N/C*%
X173500000Y-103500000D03*
%TD*%
D28*
%TO.P,SW3,1,1_1*%
%TO.N,/down*%
X69250000Y-136500000D03*
X75750000Y-136500000D03*
%TO.P,SW3,2,2_2*%
%TO.N,GND*%
X69250000Y-141000000D03*
X75750000Y-141000000D03*
%TD*%
D27*
%TO.P,H6,1*%
%TO.N,N/C*%
X97420000Y-147500000D03*
%TD*%
D29*
%TO.P,J2,1,Pin_1_1*%
%TO.N,+3V3*%
X92500000Y-108990000D03*
D30*
%TO.P,J2,2,Pin_2_2*%
%TO.N,GND*%
X92500000Y-111530000D03*
%TO.P,J2,3,Pin_3_3*%
%TO.N,/GPIO5*%
X92500000Y-114070000D03*
%TO.P,J2,4,Pin_4_4*%
%TO.N,/GPIO4*%
X92500000Y-116610000D03*
%TO.P,J2,5,Pin_5_5*%
%TO.N,/GPIO2*%
X92500000Y-119150000D03*
%TO.P,J2,6,Pin_6_6*%
%TO.N,/GPIO23*%
X92500000Y-121690000D03*
%TO.P,J2,7,Pin_7_7*%
%TO.N,/GPIO18*%
X92500000Y-124230000D03*
%TO.P,J2,8,Pin_8_8*%
%TO.N,unconnected-(J2-Pin_8-Pad8)*%
X92500000Y-126770000D03*
%TO.P,J2,9,Pin_9_9*%
%TO.N,/GPIO19*%
X92500000Y-129310000D03*
%TO.P,J2,10,Pin_10_10*%
%TO.N,unconnected-(J2-Pin_10-Pad10)*%
X92500000Y-131850000D03*
%TO.P,J2,11,Pin_11_11*%
%TO.N,unconnected-(J2-Pin_11-Pad11)*%
X92500000Y-134390000D03*
%TO.P,J2,12,Pin_12_12*%
%TO.N,unconnected-(J2-Pin_12-Pad12)*%
X92500000Y-136930000D03*
%TO.P,J2,13,Pin_13_13*%
%TO.N,unconnected-(J2-Pin_13-Pad13)*%
X92500000Y-139470000D03*
%TO.P,J2,14,Pin_14_14*%
%TO.N,unconnected-(J2-Pin_14-Pad14)*%
X92500000Y-142010000D03*
%TD*%
D28*
%TO.P,SW2,1,1_1*%
%TO.N,/up*%
X69250000Y-114500000D03*
X75750000Y-114500000D03*
%TO.P,SW2,2,2_2*%
%TO.N,GND*%
X69250000Y-119000000D03*
X75750000Y-119000000D03*
%TD*%
%TO.P,START,1,1_1*%
%TO.N,/start*%
X196750000Y-132250000D03*
X203250000Y-132250000D03*
%TO.P,START,2,2_2*%
%TO.N,GND*%
X196750000Y-136750000D03*
X203250000Y-136750000D03*
%TD*%
D34*
%TO.P,R10,1*%
%TO.N,/right*%
X87412500Y-122500000D03*
%TO.P,R10,2*%
%TO.N,+3V3*%
X85587500Y-122500000D03*
%TD*%
D28*
%TO.P,SW1,1,1_1*%
%TO.N,GND*%
X163410570Y-99430663D03*
X169910570Y-99430663D03*
%TO.P,SW1,2,2_2*%
%TO.N,/en*%
X163410570Y-94930663D03*
X169910570Y-94930663D03*
%TD*%
D34*
%TO.P,R13,1*%
%TO.N,/boot*%
X128912500Y-114000000D03*
%TO.P,R13,2*%
%TO.N,+3V3*%
X127087500Y-114000000D03*
%TD*%
D35*
%TO.P,C5,1*%
%TO.N,/up*%
X84750000Y-115200000D03*
%TO.P,C5,2*%
%TO.N,GND*%
X84750000Y-113300000D03*
%TD*%
D23*
%TO.P,R1,1*%
%TO.N,GND*%
X106910570Y-105680663D03*
%TO.P,R1,2*%
%TO.N,Net-(USB1-CC1)*%
X106910570Y-103855663D03*
%TD*%
D36*
%TO.P,C4,1*%
%TO.N,GND*%
X152200000Y-93250000D03*
%TO.P,C4,2*%
%TO.N,+3V3*%
X150300000Y-93250000D03*
%TD*%
D37*
%TO.P,U2,1,VIN_1*%
%TO.N,VBUS*%
X119187500Y-97950000D03*
%TO.P,U2,2,GND_2*%
%TO.N,GND*%
X119187500Y-97000000D03*
%TO.P,U2,3,EN_3*%
%TO.N,VBUS*%
X119187500Y-96050000D03*
%TO.P,U2,4,NC_4*%
%TO.N,unconnected-(U2-NC-Pad4)*%
X121462500Y-96050000D03*
%TO.P,U2,5,VOUT_5*%
%TO.N,+3V3*%
X121462500Y-97950000D03*
%TD*%
D22*
%TO.P,R2,1*%
%TO.N,Net-(USB1-CC2)*%
X103160570Y-101930663D03*
%TO.P,R2,2*%
%TO.N,GND*%
X103160570Y-103755663D03*
%TD*%
D38*
%TO.P,C13,1*%
%TO.N,VBUS*%
X84000000Y-93550000D03*
%TO.P,C13,2*%
%TO.N,GND*%
X84000000Y-95450000D03*
%TD*%
D36*
%TO.P,C11,1*%
%TO.N,/start*%
X196450000Y-129000000D03*
%TO.P,C11,2*%
%TO.N,GND*%
X194550000Y-129000000D03*
%TD*%
D23*
%TO.P,R11,1*%
%TO.N,/A*%
X195750000Y-124912500D03*
%TO.P,R11,2*%
%TO.N,+3V3*%
X195750000Y-123087500D03*
%TD*%
D35*
%TO.P,C2,1*%
%TO.N,/en*%
X157825000Y-99700000D03*
%TO.P,C2,2*%
%TO.N,GND*%
X157825000Y-97800000D03*
%TD*%
D23*
%TO.P,R7,1*%
%TO.N,/up*%
X81250000Y-117912500D03*
%TO.P,R7,2*%
%TO.N,+3V3*%
X81250000Y-116087500D03*
%TD*%
D36*
%TO.P,C6,1*%
%TO.N,/down*%
X72450000Y-131500000D03*
%TO.P,C6,2*%
%TO.N,GND*%
X70550000Y-131500000D03*
%TD*%
D38*
%TO.P,C8,1*%
%TO.N,/right*%
X77000000Y-124800000D03*
%TO.P,C8,2*%
%TO.N,GND*%
X77000000Y-126700000D03*
%TD*%
%TO.P,C12,1*%
%TO.N,/select*%
X180500000Y-136800000D03*
%TO.P,C12,2*%
%TO.N,GND*%
X180500000Y-138700000D03*
%TD*%
D39*
%TO.P,D1,1,K_1*%
%TO.N,GND*%
X93500000Y-93500000D03*
%TO.P,D1,2,A_2*%
%TO.N,Net-(D1-A)*%
X95075000Y-93500000D03*
%TD*%
D40*
%TO.P,C1,1*%
%TO.N,GND*%
X119875000Y-92500000D03*
%TO.P,C1,2*%
%TO.N,+3V3*%
X121775000Y-92500000D03*
%TD*%
D36*
%TO.P,C9,1*%
%TO.N,/A*%
X190450000Y-116750000D03*
%TO.P,C9,2*%
%TO.N,GND*%
X188550000Y-116750000D03*
%TD*%
D23*
%TO.P,R9,1*%
%TO.N,/left*%
X65000000Y-120412500D03*
%TO.P,R9,2*%
%TO.N,+3V3*%
X65000000Y-118587500D03*
%TD*%
D22*
%TO.P,R12,1*%
%TO.N,/B*%
X206250000Y-122337500D03*
%TO.P,R12,2*%
%TO.N,+3V3*%
X206250000Y-124162500D03*
%TD*%
D23*
%TO.P,R5,1*%
%TO.N,/en*%
X152575000Y-99500000D03*
%TO.P,R5,2*%
%TO.N,+3V3*%
X152575000Y-97675000D03*
%TD*%
D22*
%TO.P,R15,1*%
%TO.N,/select*%
X181000000Y-143087500D03*
%TO.P,R15,2*%
%TO.N,+3V3*%
X181000000Y-144912500D03*
%TD*%
D34*
%TO.P,R14,1*%
%TO.N,/start*%
X199912500Y-142500000D03*
%TO.P,R14,2*%
%TO.N,+3V3*%
X198087500Y-142500000D03*
%TD*%
%TO.P,R17,1*%
%TO.N,+3V3*%
X100200000Y-93500000D03*
%TO.P,R17,2*%
%TO.N,Net-(D1-A)*%
X98375000Y-93500000D03*
%TD*%
%TO.P,R8,1*%
%TO.N,/down*%
X78162500Y-133000000D03*
%TO.P,R8,2*%
%TO.N,+3V3*%
X76337500Y-133000000D03*
%TD*%
D28*
%TO.P,SW8,1,1_1*%
%TO.N,/boot*%
X143250000Y-113750000D03*
X136750000Y-113750000D03*
%TO.P,SW8,2,2_2*%
%TO.N,GND*%
X143250000Y-118250000D03*
X136750000Y-118250000D03*
%TD*%
D29*
%TO.P,J1,1,Pin_1_1*%
%TO.N,VBUS*%
X78500000Y-93420000D03*
D30*
%TO.P,J1,2,Pin_2_2*%
%TO.N,GND*%
X78500000Y-95960000D03*
%TO.P,J1,3,Pin_3_3*%
%TO.N,unconnected-(J1-Pin_3-Pad3)*%
X78500000Y-98500000D03*
%TO.P,J1,4,Pin_4_4*%
%TO.N,/GAIN*%
X78500000Y-101040000D03*
%TO.P,J1,5,Pin_5_5*%
%TO.N,/GPIO22*%
X78500000Y-103580000D03*
%TO.P,J1,6,Pin_6_6*%
%TO.N,/GPIO26*%
X78500000Y-106120000D03*
%TO.P,J1,7,Pin_7_7*%
%TO.N,/GPIO25*%
X78500000Y-108660000D03*
%TD*%
D38*
%TO.P,C10,1*%
%TO.N,/B*%
X207500000Y-115300000D03*
%TO.P,C10,2*%
%TO.N,GND*%
X207500000Y-117200000D03*
%TD*%
D36*
%TO.P,C7,1*%
%TO.N,/left*%
X61450000Y-120500000D03*
%TO.P,C7,2*%
%TO.N,GND*%
X59550000Y-120500000D03*
%TD*%
D40*
%TO.P,C3,1*%
%TO.N,+3V3*%
X153550000Y-95500000D03*
%TO.P,C3,2*%
%TO.N,GND*%
X155450000Y-95500000D03*
%TD*%
D41*
%TO.N,GND*%
X119187500Y-97000000D03*
%TO.N,+3V3*%
X95000000Y-113470000D03*
%TO.N,/GPIO5*%
X100500000Y-114070000D03*
%TO.N,/status*%
X180000000Y-98000000D03*
%TO.N,Net-(D2-A)*%
X186500000Y-99000000D03*
%TO.N,GND*%
X123000000Y-101000000D03*
%TO.N,+3V3*%
X119500000Y-108400000D03*
%TO.N,/en*%
X145000000Y-95000000D03*
X126500000Y-99000000D03*
%TO.N,+3V3*%
X119500000Y-105690000D03*
%TO.N,Net-(Q1A-E1)*%
X123500000Y-109000000D03*
X114500000Y-104500000D03*
%TO.N,/GPIO17*%
X142500000Y-106250000D03*
%TO.N,/GPIO25*%
X154000000Y-108250000D03*
%TO.N,+3V3*%
X65000000Y-149750000D03*
%TO.N,/right*%
X142910570Y-96680663D03*
%TO.N,+3V3*%
X114000000Y-95500000D03*
X79250000Y-115000000D03*
X123075000Y-97750000D03*
X81000000Y-122000000D03*
X121705285Y-99705285D03*
X181000000Y-147500000D03*
X143825000Y-94250000D03*
%TO.N,/up*%
X84000000Y-118000000D03*
X131750000Y-105750000D03*
%TO.N,GND*%
X82000000Y-112250000D03*
X104250000Y-107750000D03*
X138500000Y-103500000D03*
X101500000Y-101000000D03*
X143500000Y-102750000D03*
X57750000Y-120250000D03*
X93500000Y-93500000D03*
X207750000Y-119250000D03*
%TO.N,/B*%
X154250000Y-102250000D03*
%TO.N,/A*%
X148750000Y-101250000D03*
%TO.N,Net-(USB1-CC2)*%
X104910570Y-100930663D03*
X110660570Y-99430663D03*
%TO.N,VBUS*%
X95500000Y-97000000D03*
X97500000Y-99000000D03*
%TO.N,/select*%
X141250000Y-107500000D03*
%TO.N,/start*%
X149000000Y-106250000D03*
%TO.N,/down*%
X144250000Y-101750000D03*
%TO.N,/GPIO14*%
X149000000Y-107500000D03*
%TO.N,/GPIO13*%
X157500000Y-119500000D03*
X142250000Y-111250000D03*
%TO.N,/GPIO15*%
X138500000Y-111500000D03*
%TO.N,/left*%
X131000000Y-105000000D03*
X90250000Y-115500000D03*
%TO.N,/status*%
X132864954Y-100635046D03*
%TO.N,/GPIO19*%
X133500000Y-102750000D03*
%TO.N,/GPIO18*%
X132250000Y-102250000D03*
%TO.N,/GPIO23*%
X123700735Y-93299265D03*
%TO.N,/GPIO2*%
X130500000Y-111250000D03*
%TO.N,/GPIO4*%
X130750000Y-107500000D03*
%TO.N,/GPIO5*%
X127500000Y-106180663D03*
%TO.N,/GPIO25*%
X154000000Y-110500000D03*
%TO.N,/GPIO26*%
X83065000Y-110740000D03*
%TO.N,/GPIO22*%
X126000000Y-94000000D03*
%TD*%
%TO.N,GND*%
D42*
X113000000Y-97500000D02*
X112580000Y-97920000D01*
X105295000Y-98000000D02*
X105375000Y-97920000D01*
%TO.N,+3V3*%
X151900000Y-95450000D02*
X151950000Y-95500000D01*
X151525000Y-95450000D02*
X151900000Y-95450000D01*
X151950000Y-95500000D02*
X153550000Y-95500000D01*
%TO.N,GND*%
X155450000Y-94550000D02*
X156012500Y-93987500D01*
X155450000Y-95500000D02*
X155450000Y-94550000D01*
X156012500Y-93987500D02*
X157825000Y-95800000D01*
%TO.N,+3V3*%
X152575000Y-96500000D02*
X151525000Y-95450000D01*
%TO.N,GND*%
X101500000Y-102095093D02*
X103160570Y-103755663D01*
X101500000Y-101000000D02*
X101500000Y-102095093D01*
X119195000Y-93180000D02*
X119875000Y-92500000D01*
X117320000Y-93180000D02*
X119195000Y-93180000D01*
X116500000Y-95000000D02*
X116500000Y-94000000D01*
X118500000Y-97000000D02*
X116500000Y-95000000D01*
X116500000Y-94000000D02*
X117320000Y-93180000D01*
X119187500Y-97000000D02*
X118500000Y-97000000D01*
%TO.N,+3V3*%
X173500000Y-137412500D02*
X181000000Y-144912500D01*
X173500000Y-136500000D02*
X173500000Y-137412500D01*
%TO.N,/GPIO15*%
X173500000Y-134675000D02*
X173500000Y-129310000D01*
%TO.N,+3V3*%
X122075000Y-98562500D02*
X121462500Y-97950000D01*
X122075000Y-99335570D02*
X122075000Y-98562500D01*
X121705285Y-99705285D02*
X122075000Y-99335570D01*
X119530570Y-101880000D02*
X116525000Y-101880000D01*
X121705285Y-99705285D02*
X119530570Y-101880000D01*
X102131250Y-95250000D02*
X101881250Y-95500000D01*
X113750000Y-95250000D02*
X102131250Y-95250000D01*
X114000000Y-95500000D02*
X113750000Y-95250000D01*
%TO.N,/GPIO5*%
X99710000Y-114070000D02*
X97867500Y-115912500D01*
X100500000Y-114070000D02*
X99710000Y-114070000D01*
X97867500Y-115912500D02*
X97000000Y-115912500D01*
%TO.N,+3V3*%
X96382500Y-113470000D02*
X95000000Y-113470000D01*
X97000000Y-114087500D02*
X96382500Y-113470000D01*
%TO.N,/status*%
X182000000Y-99000000D02*
X183087500Y-99000000D01*
X181000000Y-98000000D02*
X182000000Y-99000000D01*
X180000000Y-98000000D02*
X181000000Y-98000000D01*
%TO.N,Net-(D2-A)*%
X186500000Y-99000000D02*
X184912500Y-99000000D01*
%TO.N,GND*%
X122120000Y-101880000D02*
X123000000Y-101000000D01*
X121475000Y-101880000D02*
X122120000Y-101880000D01*
%TO.N,/boot*%
X131750000Y-114000000D02*
X132000000Y-113750000D01*
X128912500Y-114000000D02*
X131750000Y-114000000D01*
%TO.N,+3V3*%
X119500000Y-110500000D02*
X119500000Y-108400000D01*
X123000000Y-114000000D02*
X119500000Y-110500000D01*
X127087500Y-114000000D02*
X123000000Y-114000000D01*
%TO.N,/boot*%
X126307500Y-108432500D02*
X129045000Y-108432500D01*
X125675000Y-107800000D02*
X126307500Y-108432500D01*
%TO.N,/en*%
X145537500Y-94462500D02*
X146545000Y-94462500D01*
X145000000Y-95000000D02*
X145537500Y-94462500D01*
X126500000Y-104000000D02*
X126500000Y-99000000D01*
X124000000Y-106500000D02*
X126500000Y-104000000D01*
%TO.N,/GPIO23*%
X123807500Y-93192500D02*
X123700735Y-93299265D01*
X129045000Y-93192500D02*
X123807500Y-93192500D01*
%TO.N,/GPIO22*%
X126000000Y-94000000D02*
X126462500Y-94462500D01*
X126462500Y-94462500D02*
X129045000Y-94462500D01*
%TO.N,/rx*%
X126997500Y-97002500D02*
X129045000Y-97002500D01*
X125000000Y-99000000D02*
X126997500Y-97002500D01*
X125000000Y-102000000D02*
X125000000Y-99000000D01*
X122580000Y-104420000D02*
X125000000Y-102000000D01*
X121475000Y-104420000D02*
X122580000Y-104420000D01*
%TO.N,/tx*%
X126267500Y-95732500D02*
X129045000Y-95732500D01*
X124000000Y-98000000D02*
X126267500Y-95732500D01*
X124000000Y-101599999D02*
X124000000Y-98000000D01*
X122449999Y-103150000D02*
X124000000Y-101599999D01*
X121475000Y-103150000D02*
X122449999Y-103150000D01*
%TO.N,+3V3*%
X119500000Y-105690000D02*
X121475000Y-105690000D01*
%TO.N,Net-(Q1A-B1)*%
X125246815Y-106500000D02*
X125675000Y-106500000D01*
X124596815Y-107150000D02*
X125246815Y-106500000D01*
X124000000Y-107150000D02*
X124596815Y-107150000D01*
%TO.N,Net-(Q1A-E1)*%
X125162501Y-107150000D02*
X125675000Y-107150000D01*
X124512501Y-107800000D02*
X125162501Y-107150000D01*
X124000000Y-107800000D02*
X124512501Y-107800000D01*
X123500000Y-108300000D02*
X124000000Y-107800000D01*
X123500000Y-109000000D02*
X123500000Y-108300000D01*
X115690000Y-105690000D02*
X114500000Y-104500000D01*
X116525000Y-105690000D02*
X115690000Y-105690000D01*
%TO.N,Net-(Q1A-B1)*%
X123187500Y-106849999D02*
X123487501Y-107150000D01*
X122490552Y-105090000D02*
X123187500Y-105786948D01*
X117195000Y-105090000D02*
X122490552Y-105090000D01*
X123187500Y-105786948D02*
X123187500Y-106849999D01*
X123487501Y-107150000D02*
X124000000Y-107150000D01*
X116525000Y-104420000D02*
X117195000Y-105090000D01*
%TO.N,usb dm*%
X107825000Y-100500000D02*
X111675000Y-104350000D01*
X111675000Y-104350000D02*
X111675000Y-107500000D01*
%TO.N,usb dp*%
X109325000Y-99000000D02*
X109070000Y-99000000D01*
X113000000Y-102675000D02*
X109325000Y-99000000D01*
%TO.N,Net-(U4-UD+)*%
X120875000Y-106360000D02*
X121475000Y-106960000D01*
X115035000Y-106360000D02*
X120875000Y-106360000D01*
X113000000Y-104325000D02*
X115035000Y-106360000D01*
%TO.N,Net-(U4-UD-)*%
X120805000Y-107560000D02*
X121475000Y-108230000D01*
X113385000Y-107560000D02*
X120805000Y-107560000D01*
X113325000Y-107500000D02*
X113385000Y-107560000D01*
%TO.N,/GPIO5*%
X127970000Y-103545000D02*
X128500000Y-103545000D01*
X127500000Y-104015000D02*
X127970000Y-103545000D01*
X127500000Y-106180663D02*
X127500000Y-104015000D01*
%TO.N,/GPIO25*%
X154000000Y-113000000D02*
X154000000Y-110500000D01*
X146000000Y-121000000D02*
X154000000Y-113000000D01*
X120000000Y-112000000D02*
X129000000Y-121000000D01*
X129000000Y-121000000D02*
X146000000Y-121000000D01*
X93640000Y-110140000D02*
X95500000Y-112000000D01*
X86640000Y-110140000D02*
X93640000Y-110140000D01*
X85160000Y-108660000D02*
X86640000Y-110140000D01*
X78500000Y-108660000D02*
X85160000Y-108660000D01*
X95500000Y-112000000D02*
X120000000Y-112000000D01*
%TO.N,/GPIO17*%
X142400000Y-106350000D02*
X142500000Y-106250000D01*
X131350000Y-106350000D02*
X142400000Y-106350000D01*
X129045000Y-104622500D02*
X129622500Y-104622500D01*
X129622500Y-104622500D02*
X131350000Y-106350000D01*
%TO.N,/GPIO26*%
X85990000Y-110740000D02*
X83065000Y-110740000D01*
X87930000Y-112680000D02*
X85990000Y-110740000D01*
X128500000Y-122250000D02*
X118930000Y-112680000D01*
X147250000Y-122250000D02*
X128500000Y-122250000D01*
X155250000Y-110500000D02*
X155250000Y-114250000D01*
X152250000Y-109000000D02*
X153750000Y-109000000D01*
X155250000Y-114250000D02*
X147250000Y-122250000D01*
X150250000Y-105500000D02*
X150250000Y-107000000D01*
X150250000Y-107000000D02*
X152250000Y-109000000D01*
X149372500Y-104622500D02*
X150250000Y-105500000D01*
X153750000Y-109000000D02*
X155250000Y-110500000D01*
X118930000Y-112680000D02*
X87930000Y-112680000D01*
X146545000Y-104622500D02*
X149372500Y-104622500D01*
%TO.N,+3V3*%
X64250000Y-149000000D02*
X64250000Y-134250000D01*
X65000000Y-149750000D02*
X64250000Y-149000000D01*
X68500000Y-134250000D02*
X64250000Y-134250000D01*
X59250000Y-113250000D02*
X65000000Y-113250000D01*
X56000000Y-132750000D02*
X56000000Y-116500000D01*
X64250000Y-134250000D02*
X57500000Y-134250000D01*
X56000000Y-116500000D02*
X59250000Y-113250000D01*
X69750000Y-133000000D02*
X68500000Y-134250000D01*
X57500000Y-134250000D02*
X56000000Y-132750000D01*
X76337500Y-133000000D02*
X69750000Y-133000000D01*
%TO.N,/right*%
X143910570Y-96680663D02*
X144424907Y-97195000D01*
X78000000Y-124800000D02*
X78800000Y-124000000D01*
X86750000Y-125500000D02*
X86750000Y-125325000D01*
X77000000Y-124800000D02*
X78000000Y-124800000D01*
X78800000Y-124000000D02*
X87412500Y-124000000D01*
X87412500Y-122500000D02*
X87412500Y-124000000D01*
X86750000Y-125325000D02*
X87412500Y-124662500D01*
X80250000Y-125500000D02*
X86750000Y-125500000D01*
X142910570Y-96680663D02*
X143910570Y-96680663D01*
X144424907Y-97195000D02*
X146000000Y-97195000D01*
X87412500Y-124000000D02*
X87412500Y-124662500D01*
%TO.N,+3V3*%
X203750000Y-147500000D02*
X207000000Y-144250000D01*
X65000000Y-118587500D02*
X65000000Y-113250000D01*
X148500000Y-93385000D02*
X148825000Y-93385000D01*
X92500000Y-108990000D02*
X91020000Y-107510000D01*
X148825000Y-93385000D02*
X150165000Y-93385000D01*
X91020000Y-107510000D02*
X76490000Y-107510000D01*
X150275000Y-95450000D02*
X151525000Y-95450000D01*
X67500000Y-110750000D02*
X75750000Y-110750000D01*
X96500000Y-97750000D02*
X99631250Y-97750000D01*
X148825000Y-94000000D02*
X150275000Y-95450000D01*
X101881250Y-95500000D02*
X99881250Y-93500000D01*
X99631250Y-97750000D02*
X101881250Y-95500000D01*
X77000000Y-112000000D02*
X79000000Y-112000000D01*
X79000000Y-112000000D02*
X81250000Y-114250000D01*
X148075000Y-93385000D02*
X148500000Y-93385000D01*
X207000000Y-125500000D02*
X206250000Y-124750000D01*
X122575000Y-93300000D02*
X121775000Y-92500000D01*
X206250000Y-124750000D02*
X206250000Y-124162500D01*
X148825000Y-93385000D02*
X148825000Y-94000000D01*
X198087500Y-143662500D02*
X198087500Y-142500000D01*
X207000000Y-125500000D02*
X204500000Y-125500000D01*
X81250000Y-114250000D02*
X81250000Y-116087500D01*
X81500000Y-122500000D02*
X81000000Y-122000000D01*
X76490000Y-107510000D02*
X75750000Y-108250000D01*
X144690000Y-93385000D02*
X146000000Y-93385000D01*
X194250000Y-147500000D02*
X198087500Y-143662500D01*
X80500000Y-115000000D02*
X81250000Y-114250000D01*
X92500000Y-108990000D02*
X92500000Y-101750000D01*
X207000000Y-144250000D02*
X207000000Y-125500000D01*
X75750000Y-110750000D02*
X77000000Y-112000000D01*
X152575000Y-97675000D02*
X152575000Y-96500000D01*
X143825000Y-94250000D02*
X144690000Y-93385000D01*
X204500000Y-125500000D02*
X202087500Y-123087500D01*
X181000000Y-147500000D02*
X194250000Y-147500000D01*
X194250000Y-147500000D02*
X203750000Y-147500000D01*
X122575000Y-97950000D02*
X122575000Y-93300000D01*
X122575000Y-97950000D02*
X122875000Y-97950000D01*
X75750000Y-108250000D02*
X75750000Y-110750000D01*
X202087500Y-123087500D02*
X195750000Y-123087500D01*
X92500000Y-101750000D02*
X96500000Y-97750000D01*
X150165000Y-93385000D02*
X150300000Y-93250000D01*
X121462500Y-97950000D02*
X122575000Y-97950000D01*
X146000000Y-93385000D02*
X148075000Y-93385000D01*
X85587500Y-122500000D02*
X81500000Y-122500000D01*
X122875000Y-97950000D02*
X123075000Y-97750000D01*
X79250000Y-115000000D02*
X80500000Y-115000000D01*
X65000000Y-113250000D02*
X67500000Y-110750000D01*
X181000000Y-147500000D02*
X181000000Y-144912500D01*
%TO.N,/boot*%
X132000000Y-113750000D02*
X129045000Y-110795000D01*
X136750000Y-113750000D02*
X132000000Y-113750000D01*
X129045000Y-110795000D02*
X129045000Y-108432500D01*
X143250000Y-113750000D02*
X136750000Y-113750000D01*
%TO.N,/up*%
X139956918Y-105750000D02*
X142710570Y-102996348D01*
X142710570Y-102996348D02*
X142710570Y-101130663D01*
X84000000Y-115950000D02*
X84750000Y-115200000D01*
X80662500Y-117912500D02*
X81250000Y-117912500D01*
X83912500Y-117912500D02*
X84000000Y-118000000D01*
X84000000Y-118000000D02*
X84000000Y-115950000D01*
X142710570Y-101130663D02*
X145376233Y-98465000D01*
X81250000Y-117912500D02*
X83912500Y-117912500D01*
X69250000Y-114500000D02*
X77250000Y-114500000D01*
X131750000Y-105750000D02*
X139956918Y-105750000D01*
X77250000Y-114500000D02*
X80662500Y-117912500D01*
X145376233Y-98465000D02*
X146000000Y-98465000D01*
%TO.N,GND*%
X194550000Y-134550000D02*
X196750000Y-136750000D01*
X70550000Y-131500000D02*
X75350000Y-126700000D01*
X155275000Y-93250000D02*
X155575000Y-93550000D01*
X69400000Y-103150000D02*
X68000000Y-101750000D01*
X106910570Y-105680663D02*
X105085570Y-105680663D01*
X188550000Y-116200000D02*
X192770000Y-111980000D01*
X77000000Y-128250000D02*
X78500000Y-129750000D01*
X138500000Y-103500000D02*
X138475000Y-103475000D01*
X150872500Y-91922500D02*
X152200000Y-93250000D01*
X180500000Y-138700000D02*
X180500000Y-140750000D01*
X180500000Y-140750000D02*
X181450000Y-141700000D01*
X70250000Y-97000000D02*
X77460000Y-97000000D01*
X136750000Y-118250000D02*
X143250000Y-118250000D01*
X68000000Y-101750000D02*
X68000000Y-96750000D01*
X70250000Y-103150000D02*
X69400000Y-103150000D01*
X145052500Y-91922500D02*
X146545000Y-91922500D01*
X143500000Y-107000000D02*
X143505000Y-107005000D01*
X192770000Y-114570000D02*
X192770000Y-111980000D01*
X58250000Y-130000000D02*
X66250000Y-130000000D01*
X78500000Y-95960000D02*
X83490000Y-95960000D01*
X59550000Y-120500000D02*
X58000000Y-120500000D01*
X144550000Y-110727500D02*
X144550000Y-116950000D01*
X80250000Y-130000000D02*
X86750000Y-130000000D01*
X143500000Y-102750000D02*
X143500000Y-107000000D01*
X105085570Y-105680663D02*
X103160570Y-103755663D01*
X181450000Y-141700000D02*
X184750000Y-141700000D01*
X83050000Y-113300000D02*
X82000000Y-112250000D01*
X155575000Y-93550000D02*
X156012500Y-93987500D01*
X143505000Y-109682500D02*
X144550000Y-110727500D01*
X207500000Y-119000000D02*
X207500000Y-117200000D01*
X119875000Y-92500000D02*
X120900000Y-91475000D01*
X83490000Y-95960000D02*
X84000000Y-95450000D01*
X84750000Y-113300000D02*
X83050000Y-113300000D01*
X80000000Y-129750000D02*
X80250000Y-130000000D01*
X157825000Y-95800000D02*
X157825000Y-97800000D01*
X128597500Y-91475000D02*
X129045000Y-91922500D01*
X188550000Y-116750000D02*
X188550000Y-116200000D01*
X194550000Y-129000000D02*
X191300000Y-125750000D01*
X138475000Y-103475000D02*
X138475000Y-100787500D01*
X194550000Y-129000000D02*
X194550000Y-134550000D01*
X152200000Y-93250000D02*
X155275000Y-93250000D01*
X77460000Y-97000000D02*
X78500000Y-95960000D01*
X104250000Y-107750000D02*
X106319337Y-105680663D01*
X69250000Y-119000000D02*
X75750000Y-119000000D01*
X191300000Y-125750000D02*
X191250000Y-125750000D01*
X144550000Y-116950000D02*
X143250000Y-118250000D01*
X75350000Y-126700000D02*
X77000000Y-126700000D01*
X137712500Y-97737500D02*
X131897500Y-91922500D01*
X192770000Y-111980000D02*
X192770000Y-99000000D01*
X67750000Y-131500000D02*
X70550000Y-131500000D01*
X66250000Y-130000000D02*
X67750000Y-131500000D01*
X139237500Y-97737500D02*
X145052500Y-91922500D01*
X120900000Y-91475000D02*
X128597500Y-91475000D01*
X78500000Y-129750000D02*
X80000000Y-129750000D01*
X207750000Y-119250000D02*
X207500000Y-119000000D01*
X196750000Y-118550000D02*
X192770000Y-114570000D01*
X106319337Y-105680663D02*
X106910570Y-105680663D01*
X77000000Y-126700000D02*
X77000000Y-128250000D01*
X69900000Y-94850000D02*
X70250000Y-94850000D01*
X70250000Y-97000000D02*
X70250000Y-94850000D01*
X131897500Y-91922500D02*
X129045000Y-91922500D01*
X58000000Y-120500000D02*
X57750000Y-120250000D01*
X143505000Y-107005000D02*
X143505000Y-109682500D01*
X146545000Y-91922500D02*
X150872500Y-91922500D01*
X68000000Y-96750000D02*
X69900000Y-94850000D01*
%TO.N,/B*%
X154250000Y-102250000D02*
X147750000Y-102250000D01*
X207500000Y-115300000D02*
X204500000Y-115300000D01*
X147582500Y-102082500D02*
X146545000Y-102082500D01*
X206250000Y-117050000D02*
X203250000Y-114050000D01*
X206250000Y-122337500D02*
X206250000Y-117050000D01*
X147750000Y-102250000D02*
X147582500Y-102082500D01*
X204500000Y-115300000D02*
X203250000Y-114050000D01*
%TO.N,/A*%
X148312500Y-100812500D02*
X148750000Y-101250000D01*
X194912500Y-124912500D02*
X191250000Y-121250000D01*
X195750000Y-124912500D02*
X194912500Y-124912500D01*
X146545000Y-100812500D02*
X148312500Y-100812500D01*
X190450000Y-116750000D02*
X190450000Y-120450000D01*
X190450000Y-120450000D02*
X191250000Y-121250000D01*
%TO.N,Net-(USB1-CC1)*%
X106910570Y-103855663D02*
X107325000Y-103441233D01*
X107325000Y-103441233D02*
X107325000Y-97920000D01*
%TO.N,Net-(USB1-CC2)*%
X103910570Y-101930663D02*
X103160570Y-101930663D01*
X104910570Y-100930663D02*
X103910570Y-101930663D01*
X110325000Y-99095093D02*
X110660570Y-99430663D01*
X110325000Y-97920000D02*
X110325000Y-99095093D01*
%TO.N,VBUS*%
X106175000Y-97920000D02*
X106375000Y-97720000D01*
X79420000Y-92500000D02*
X78500000Y-93420000D01*
X95500000Y-97000000D02*
X91000000Y-92500000D01*
X111780000Y-99500000D02*
X118575000Y-99500000D01*
X91000000Y-92500000D02*
X79420000Y-92500000D01*
X106175000Y-97920000D02*
X106175000Y-98695000D01*
X110975000Y-98695000D02*
X111780000Y-99500000D01*
X118575000Y-99500000D02*
X119187500Y-98887500D01*
X105870000Y-99000000D02*
X97500000Y-99000000D01*
X106175000Y-98695000D02*
X105870000Y-99000000D01*
X110775000Y-97720000D02*
X110975000Y-97920000D01*
X78630000Y-93550000D02*
X78500000Y-93420000D01*
X84000000Y-93550000D02*
X78630000Y-93550000D01*
X107420000Y-96000000D02*
X109730000Y-96000000D01*
X109730000Y-96000000D02*
X110775000Y-97045000D01*
X110975000Y-97920000D02*
X110975000Y-98695000D01*
X106375000Y-97720000D02*
X106375000Y-97045000D01*
X119187500Y-98887500D02*
X119187500Y-97950000D01*
X106375000Y-97045000D02*
X107420000Y-96000000D01*
X110775000Y-97045000D02*
X110775000Y-97720000D01*
%TO.N,/select*%
X185662500Y-143087500D02*
X186750000Y-142000000D01*
X184350000Y-136800000D02*
X184750000Y-137200000D01*
X129892500Y-105892500D02*
X129045000Y-105892500D01*
X141250000Y-107500000D02*
X140650000Y-106900000D01*
X140650000Y-106900000D02*
X130900000Y-106900000D01*
X180500000Y-136800000D02*
X184350000Y-136800000D01*
X130900000Y-106900000D02*
X129892500Y-105892500D01*
X186750000Y-142000000D02*
X186750000Y-137750000D01*
X186200000Y-137200000D02*
X184750000Y-137200000D01*
X181000000Y-143087500D02*
X185662500Y-143087500D01*
X186750000Y-137750000D02*
X186200000Y-137200000D01*
%TO.N,/start*%
X149000000Y-106250000D02*
X148750000Y-106250000D01*
X196450000Y-131950000D02*
X196750000Y-132250000D01*
X199912500Y-135412500D02*
X196750000Y-132250000D01*
X196450000Y-129000000D02*
X196450000Y-131950000D01*
X199912500Y-142500000D02*
X199912500Y-135412500D01*
X148392500Y-105892500D02*
X146545000Y-105892500D01*
X148750000Y-106250000D02*
X148392500Y-105892500D01*
%TO.N,/down*%
X146545000Y-99542500D02*
X145595000Y-99542500D01*
X144250000Y-100887500D02*
X144250000Y-101750000D01*
X76662500Y-131500000D02*
X78162500Y-133000000D01*
X77250000Y-135000000D02*
X77250000Y-133912500D01*
X72450000Y-131500000D02*
X76662500Y-131500000D01*
X145595000Y-99542500D02*
X144250000Y-100887500D01*
X77250000Y-133912500D02*
X78162500Y-133000000D01*
X75750000Y-136500000D02*
X77250000Y-135000000D01*
%TO.N,/GPIO14*%
X149000000Y-107500000D02*
X146882500Y-107500000D01*
X146882500Y-107500000D02*
X146545000Y-107162500D01*
%TO.N,/GPIO13*%
X142250000Y-109697500D02*
X142235000Y-109682500D01*
X142250000Y-111250000D02*
X142250000Y-109697500D01*
X173500000Y-124230000D02*
X162230000Y-124230000D01*
X162230000Y-124230000D02*
X157500000Y-119500000D01*
%TO.N,/GPIO15*%
X133345000Y-110845000D02*
X133345000Y-109682500D01*
X138500000Y-111500000D02*
X134000000Y-111500000D01*
X134000000Y-111500000D02*
X133345000Y-110845000D01*
%TO.N,/GAIN*%
X70250000Y-99000000D02*
X76460000Y-99000000D01*
X76460000Y-99000000D02*
X78500000Y-101040000D01*
%TO.N,/left*%
X142817704Y-95925000D02*
X146000000Y-95925000D01*
X58250000Y-125500000D02*
X64750000Y-125500000D01*
X65000000Y-120412500D02*
X65000000Y-124250000D01*
X90250000Y-115500000D02*
X85000000Y-120750000D01*
X64912500Y-120500000D02*
X65000000Y-120412500D01*
X85000000Y-120750000D02*
X65700000Y-120750000D01*
X61450000Y-120500000D02*
X64912500Y-120500000D01*
X142310570Y-102830663D02*
X140141233Y-105000000D01*
X140141233Y-105000000D02*
X131000000Y-105000000D01*
X64750000Y-125500000D02*
X64750000Y-124500000D01*
X142310570Y-102830663D02*
X142310570Y-96432134D01*
X142310570Y-96432134D02*
X142817704Y-95925000D01*
X64750000Y-124500000D02*
X65000000Y-124250000D01*
%TO.N,/status*%
X130694907Y-98465000D02*
X128500000Y-98465000D01*
X132864954Y-100635046D02*
X130694907Y-98465000D01*
%TO.N,/en*%
X148575000Y-94750000D02*
X150575000Y-96750000D01*
X156775000Y-100750000D02*
X157825000Y-99700000D01*
X146095000Y-94750000D02*
X148575000Y-94750000D01*
X157825000Y-99700000D02*
X158641233Y-99700000D01*
X150575000Y-96750000D02*
X150575000Y-98750000D01*
X150575000Y-98750000D02*
X151487500Y-99662500D01*
X158641233Y-99700000D02*
X163410570Y-94930663D01*
X146000000Y-94655000D02*
X146095000Y-94750000D01*
X150575000Y-98750000D02*
X150575000Y-100000000D01*
X151487500Y-99662500D02*
X152575000Y-99662500D01*
X151325000Y-100750000D02*
X156775000Y-100750000D01*
X150575000Y-100000000D02*
X151325000Y-100750000D01*
%TO.N,Net-(D1-A)*%
X98375000Y-93500000D02*
X95075000Y-93500000D01*
%TO.N,/GPIO19*%
X131812500Y-100812500D02*
X129045000Y-100812500D01*
X133500000Y-102750000D02*
X133500000Y-102500000D01*
X133500000Y-102500000D02*
X131812500Y-100812500D01*
%TO.N,/GPIO18*%
X132082500Y-102082500D02*
X129045000Y-102082500D01*
X132250000Y-102250000D02*
X132082500Y-102082500D01*
%TO.N,/GPIO2*%
X130500000Y-111250000D02*
X131492500Y-110257500D01*
X131492500Y-110257500D02*
X131500000Y-110257500D01*
X131500000Y-110257500D02*
X132075000Y-109682500D01*
%TO.N,/GPIO4*%
X129382500Y-107500000D02*
X129045000Y-107162500D01*
X130750000Y-107500000D02*
X129382500Y-107500000D01*
%TO.N,usb dp*%
X108325000Y-97920000D02*
X108325000Y-98750000D01*
X109325000Y-98745000D02*
X109325000Y-97920000D01*
X108325000Y-98750000D02*
X108575000Y-99000000D01*
X109070000Y-99000000D02*
X109325000Y-98745000D01*
X108575000Y-99000000D02*
X109070000Y-99000000D01*
%TO.N,usb dm*%
X107825000Y-97095000D02*
X108170000Y-96750000D01*
X108170000Y-96750000D02*
X108575000Y-96750000D01*
X108825000Y-97000000D02*
X108825000Y-97920000D01*
X108575000Y-96750000D02*
X108825000Y-97000000D01*
X107825000Y-97920000D02*
X107825000Y-100500000D01*
X107825000Y-97920000D02*
X107825000Y-97095000D01*
%TO.N,/GPIO25*%
X148325000Y-103750000D02*
X148120000Y-103545000D01*
X148120000Y-103545000D02*
X146000000Y-103545000D01*
X152000000Y-103750000D02*
X148325000Y-103750000D01*
X154000000Y-108250000D02*
X154000000Y-105750000D01*
X154000000Y-105750000D02*
X152000000Y-103750000D01*
%TO.N,VBUS*%
X120150000Y-96350001D02*
X119849999Y-96050000D01*
X120150000Y-97340552D02*
X120150000Y-96350001D01*
X119540552Y-97950000D02*
X120150000Y-97340552D01*
X119849999Y-96050000D02*
X119187500Y-96050000D01*
X119187500Y-97950000D02*
X119540552Y-97950000D01*
%TD*%
M02*
