%TF.GenerationSoftware,KiCad,Pcbnew,10.0.3*%
%TF.CreationDate,2026-08-17T00:10:34+08:00*%
%TF.ProjectId,gamegirl,67616d65-6769-4726-9c2e-6b696361645f,rev?*%
%TF.SameCoordinates,Original*%
%TF.FileFunction,Legend,Top*%
%TF.FilePolarity,Positive*%
%FSLAX46Y46*%
G04 Gerber Fmt 4.6, Leading zero omitted, Abs format (unit mm)*
G04 Created by KiCad (PCBNEW 10.0.3) date 2026-08-17 00:10:34*
%MOMM*%
%LPD*%
G01*
G04 APERTURE LIST*
%ADD10C,0.400000*%
%ADD11C,0.200000*%
%ADD12C,0.750000*%
%ADD13C,0.150000*%
%ADD14C,0.120000*%
%ADD15C,0.250000*%
%ADD16C,0.060000*%
%ADD17O,1.300000X2.400000*%
%ADD18O,1.300000X2.100000*%
%ADD19C,0.650000*%
%ADD20R,1.800000X1.800000*%
%ADD21C,1.800000*%
%ADD22C,5.600000*%
%ADD23C,2.000000*%
%ADD24C,3.200000*%
%ADD25R,1.700000X1.700000*%
%ADD26C,1.700000*%
%ADD27O,1.600000X1.600000*%
%ADD28O,3.000000X2.000000*%
G04 APERTURE END LIST*
D10*
X117739347Y-124915110D02*
X117739347Y-122915110D01*
X117739347Y-122915110D02*
X118406014Y-124343681D01*
X118406014Y-124343681D02*
X119072680Y-122915110D01*
X119072680Y-122915110D02*
X119072680Y-124915110D01*
X120882204Y-124915110D02*
X120882204Y-123867491D01*
X120882204Y-123867491D02*
X120786966Y-123677014D01*
X120786966Y-123677014D02*
X120596490Y-123581776D01*
X120596490Y-123581776D02*
X120215537Y-123581776D01*
X120215537Y-123581776D02*
X120025061Y-123677014D01*
X120882204Y-124819872D02*
X120691728Y-124915110D01*
X120691728Y-124915110D02*
X120215537Y-124915110D01*
X120215537Y-124915110D02*
X120025061Y-124819872D01*
X120025061Y-124819872D02*
X119929823Y-124629395D01*
X119929823Y-124629395D02*
X119929823Y-124438919D01*
X119929823Y-124438919D02*
X120025061Y-124248443D01*
X120025061Y-124248443D02*
X120215537Y-124153205D01*
X120215537Y-124153205D02*
X120691728Y-124153205D01*
X120691728Y-124153205D02*
X120882204Y-124057967D01*
X122691728Y-124915110D02*
X122691728Y-122915110D01*
X122691728Y-124819872D02*
X122501252Y-124915110D01*
X122501252Y-124915110D02*
X122120299Y-124915110D01*
X122120299Y-124915110D02*
X121929823Y-124819872D01*
X121929823Y-124819872D02*
X121834585Y-124724633D01*
X121834585Y-124724633D02*
X121739347Y-124534157D01*
X121739347Y-124534157D02*
X121739347Y-123962729D01*
X121739347Y-123962729D02*
X121834585Y-123772252D01*
X121834585Y-123772252D02*
X121929823Y-123677014D01*
X121929823Y-123677014D02*
X122120299Y-123581776D01*
X122120299Y-123581776D02*
X122501252Y-123581776D01*
X122501252Y-123581776D02*
X122691728Y-123677014D01*
X124406014Y-124819872D02*
X124215538Y-124915110D01*
X124215538Y-124915110D02*
X123834585Y-124915110D01*
X123834585Y-124915110D02*
X123644109Y-124819872D01*
X123644109Y-124819872D02*
X123548871Y-124629395D01*
X123548871Y-124629395D02*
X123548871Y-123867491D01*
X123548871Y-123867491D02*
X123644109Y-123677014D01*
X123644109Y-123677014D02*
X123834585Y-123581776D01*
X123834585Y-123581776D02*
X124215538Y-123581776D01*
X124215538Y-123581776D02*
X124406014Y-123677014D01*
X124406014Y-123677014D02*
X124501252Y-123867491D01*
X124501252Y-123867491D02*
X124501252Y-124057967D01*
X124501252Y-124057967D02*
X123548871Y-124248443D01*
X126882205Y-124915110D02*
X126882205Y-122915110D01*
X126882205Y-123677014D02*
X127072681Y-123581776D01*
X127072681Y-123581776D02*
X127453634Y-123581776D01*
X127453634Y-123581776D02*
X127644110Y-123677014D01*
X127644110Y-123677014D02*
X127739348Y-123772252D01*
X127739348Y-123772252D02*
X127834586Y-123962729D01*
X127834586Y-123962729D02*
X127834586Y-124534157D01*
X127834586Y-124534157D02*
X127739348Y-124724633D01*
X127739348Y-124724633D02*
X127644110Y-124819872D01*
X127644110Y-124819872D02*
X127453634Y-124915110D01*
X127453634Y-124915110D02*
X127072681Y-124915110D01*
X127072681Y-124915110D02*
X126882205Y-124819872D01*
X128501253Y-123581776D02*
X128977443Y-124915110D01*
X129453634Y-123581776D02*
X128977443Y-124915110D01*
X128977443Y-124915110D02*
X128786967Y-125391300D01*
X128786967Y-125391300D02*
X128691729Y-125486538D01*
X128691729Y-125486538D02*
X128501253Y-125581776D01*
X130215539Y-124724633D02*
X130310777Y-124819872D01*
X130310777Y-124819872D02*
X130215539Y-124915110D01*
X130215539Y-124915110D02*
X130120301Y-124819872D01*
X130120301Y-124819872D02*
X130215539Y-124724633D01*
X130215539Y-124724633D02*
X130215539Y-124915110D01*
X130215539Y-123677014D02*
X130310777Y-123772252D01*
X130310777Y-123772252D02*
X130215539Y-123867491D01*
X130215539Y-123867491D02*
X130120301Y-123772252D01*
X130120301Y-123772252D02*
X130215539Y-123677014D01*
X130215539Y-123677014D02*
X130215539Y-123867491D01*
X117644109Y-128039760D02*
X117929823Y-128134998D01*
X117929823Y-128134998D02*
X118406014Y-128134998D01*
X118406014Y-128134998D02*
X118596490Y-128039760D01*
X118596490Y-128039760D02*
X118691728Y-127944521D01*
X118691728Y-127944521D02*
X118786966Y-127754045D01*
X118786966Y-127754045D02*
X118786966Y-127563569D01*
X118786966Y-127563569D02*
X118691728Y-127373093D01*
X118691728Y-127373093D02*
X118596490Y-127277855D01*
X118596490Y-127277855D02*
X118406014Y-127182617D01*
X118406014Y-127182617D02*
X118025061Y-127087379D01*
X118025061Y-127087379D02*
X117834585Y-126992140D01*
X117834585Y-126992140D02*
X117739347Y-126896902D01*
X117739347Y-126896902D02*
X117644109Y-126706426D01*
X117644109Y-126706426D02*
X117644109Y-126515950D01*
X117644109Y-126515950D02*
X117739347Y-126325474D01*
X117739347Y-126325474D02*
X117834585Y-126230236D01*
X117834585Y-126230236D02*
X118025061Y-126134998D01*
X118025061Y-126134998D02*
X118501252Y-126134998D01*
X118501252Y-126134998D02*
X118786966Y-126230236D01*
X120501252Y-128134998D02*
X120501252Y-127087379D01*
X120501252Y-127087379D02*
X120406014Y-126896902D01*
X120406014Y-126896902D02*
X120215538Y-126801664D01*
X120215538Y-126801664D02*
X119834585Y-126801664D01*
X119834585Y-126801664D02*
X119644109Y-126896902D01*
X120501252Y-128039760D02*
X120310776Y-128134998D01*
X120310776Y-128134998D02*
X119834585Y-128134998D01*
X119834585Y-128134998D02*
X119644109Y-128039760D01*
X119644109Y-128039760D02*
X119548871Y-127849283D01*
X119548871Y-127849283D02*
X119548871Y-127658807D01*
X119548871Y-127658807D02*
X119644109Y-127468331D01*
X119644109Y-127468331D02*
X119834585Y-127373093D01*
X119834585Y-127373093D02*
X120310776Y-127373093D01*
X120310776Y-127373093D02*
X120501252Y-127277855D01*
X121453633Y-128134998D02*
X121453633Y-126801664D01*
X121453633Y-126992140D02*
X121548871Y-126896902D01*
X121548871Y-126896902D02*
X121739347Y-126801664D01*
X121739347Y-126801664D02*
X122025062Y-126801664D01*
X122025062Y-126801664D02*
X122215538Y-126896902D01*
X122215538Y-126896902D02*
X122310776Y-127087379D01*
X122310776Y-127087379D02*
X122310776Y-128134998D01*
X122310776Y-127087379D02*
X122406014Y-126896902D01*
X122406014Y-126896902D02*
X122596490Y-126801664D01*
X122596490Y-126801664D02*
X122882204Y-126801664D01*
X122882204Y-126801664D02*
X123072681Y-126896902D01*
X123072681Y-126896902D02*
X123167919Y-127087379D01*
X123167919Y-127087379D02*
X123167919Y-128134998D01*
X124120300Y-128134998D02*
X124120300Y-126801664D01*
X124120300Y-127182617D02*
X124215538Y-126992140D01*
X124215538Y-126992140D02*
X124310776Y-126896902D01*
X124310776Y-126896902D02*
X124501252Y-126801664D01*
X124501252Y-126801664D02*
X124691729Y-126801664D01*
X125358395Y-128134998D02*
X125358395Y-126801664D01*
X125358395Y-126134998D02*
X125263157Y-126230236D01*
X125263157Y-126230236D02*
X125358395Y-126325474D01*
X125358395Y-126325474D02*
X125453633Y-126230236D01*
X125453633Y-126230236D02*
X125358395Y-126134998D01*
X125358395Y-126134998D02*
X125358395Y-126325474D01*
X127167919Y-128134998D02*
X127167919Y-126134998D01*
X127167919Y-128039760D02*
X126977443Y-128134998D01*
X126977443Y-128134998D02*
X126596490Y-128134998D01*
X126596490Y-128134998D02*
X126406014Y-128039760D01*
X126406014Y-128039760D02*
X126310776Y-127944521D01*
X126310776Y-127944521D02*
X126215538Y-127754045D01*
X126215538Y-127754045D02*
X126215538Y-127182617D01*
X126215538Y-127182617D02*
X126310776Y-126992140D01*
X126310776Y-126992140D02*
X126406014Y-126896902D01*
X126406014Y-126896902D02*
X126596490Y-126801664D01*
X126596490Y-126801664D02*
X126977443Y-126801664D01*
X126977443Y-126801664D02*
X127167919Y-126896902D01*
X128120300Y-128134998D02*
X128120300Y-126134998D01*
X128977443Y-128134998D02*
X128977443Y-127087379D01*
X128977443Y-127087379D02*
X128882205Y-126896902D01*
X128882205Y-126896902D02*
X128691729Y-126801664D01*
X128691729Y-126801664D02*
X128406014Y-126801664D01*
X128406014Y-126801664D02*
X128215538Y-126896902D01*
X128215538Y-126896902D02*
X128120300Y-126992140D01*
X131453634Y-128134998D02*
X131453634Y-126134998D01*
X131453634Y-126134998D02*
X132215539Y-126134998D01*
X132215539Y-126134998D02*
X132406015Y-126230236D01*
X132406015Y-126230236D02*
X132501253Y-126325474D01*
X132501253Y-126325474D02*
X132596491Y-126515950D01*
X132596491Y-126515950D02*
X132596491Y-126801664D01*
X132596491Y-126801664D02*
X132501253Y-126992140D01*
X132501253Y-126992140D02*
X132406015Y-127087379D01*
X132406015Y-127087379D02*
X132215539Y-127182617D01*
X132215539Y-127182617D02*
X131453634Y-127182617D01*
X133453634Y-128134998D02*
X133453634Y-126801664D01*
X133453634Y-127182617D02*
X133548872Y-126992140D01*
X133548872Y-126992140D02*
X133644110Y-126896902D01*
X133644110Y-126896902D02*
X133834586Y-126801664D01*
X133834586Y-126801664D02*
X134025063Y-126801664D01*
X135548872Y-128134998D02*
X135548872Y-127087379D01*
X135548872Y-127087379D02*
X135453634Y-126896902D01*
X135453634Y-126896902D02*
X135263158Y-126801664D01*
X135263158Y-126801664D02*
X134882205Y-126801664D01*
X134882205Y-126801664D02*
X134691729Y-126896902D01*
X135548872Y-128039760D02*
X135358396Y-128134998D01*
X135358396Y-128134998D02*
X134882205Y-128134998D01*
X134882205Y-128134998D02*
X134691729Y-128039760D01*
X134691729Y-128039760D02*
X134596491Y-127849283D01*
X134596491Y-127849283D02*
X134596491Y-127658807D01*
X134596491Y-127658807D02*
X134691729Y-127468331D01*
X134691729Y-127468331D02*
X134882205Y-127373093D01*
X134882205Y-127373093D02*
X135358396Y-127373093D01*
X135358396Y-127373093D02*
X135548872Y-127277855D01*
X136501253Y-128134998D02*
X136501253Y-126134998D01*
X136501253Y-126896902D02*
X136691729Y-126801664D01*
X136691729Y-126801664D02*
X137072682Y-126801664D01*
X137072682Y-126801664D02*
X137263158Y-126896902D01*
X137263158Y-126896902D02*
X137358396Y-126992140D01*
X137358396Y-126992140D02*
X137453634Y-127182617D01*
X137453634Y-127182617D02*
X137453634Y-127754045D01*
X137453634Y-127754045D02*
X137358396Y-127944521D01*
X137358396Y-127944521D02*
X137263158Y-128039760D01*
X137263158Y-128039760D02*
X137072682Y-128134998D01*
X137072682Y-128134998D02*
X136691729Y-128134998D01*
X136691729Y-128134998D02*
X136501253Y-128039760D01*
X138310777Y-128134998D02*
X138310777Y-126134998D01*
X139167920Y-128134998D02*
X139167920Y-127087379D01*
X139167920Y-127087379D02*
X139072682Y-126896902D01*
X139072682Y-126896902D02*
X138882206Y-126801664D01*
X138882206Y-126801664D02*
X138596491Y-126801664D01*
X138596491Y-126801664D02*
X138406015Y-126896902D01*
X138406015Y-126896902D02*
X138310777Y-126992140D01*
X140977444Y-128134998D02*
X140977444Y-127087379D01*
X140977444Y-127087379D02*
X140882206Y-126896902D01*
X140882206Y-126896902D02*
X140691730Y-126801664D01*
X140691730Y-126801664D02*
X140310777Y-126801664D01*
X140310777Y-126801664D02*
X140120301Y-126896902D01*
X140977444Y-128039760D02*
X140786968Y-128134998D01*
X140786968Y-128134998D02*
X140310777Y-128134998D01*
X140310777Y-128134998D02*
X140120301Y-128039760D01*
X140120301Y-128039760D02*
X140025063Y-127849283D01*
X140025063Y-127849283D02*
X140025063Y-127658807D01*
X140025063Y-127658807D02*
X140120301Y-127468331D01*
X140120301Y-127468331D02*
X140310777Y-127373093D01*
X140310777Y-127373093D02*
X140786968Y-127373093D01*
X140786968Y-127373093D02*
X140977444Y-127277855D01*
X141929825Y-128134998D02*
X141929825Y-126134998D01*
X142120301Y-127373093D02*
X142691730Y-128134998D01*
X142691730Y-126801664D02*
X141929825Y-127563569D01*
X144406016Y-128134998D02*
X144406016Y-127087379D01*
X144406016Y-127087379D02*
X144310778Y-126896902D01*
X144310778Y-126896902D02*
X144120302Y-126801664D01*
X144120302Y-126801664D02*
X143739349Y-126801664D01*
X143739349Y-126801664D02*
X143548873Y-126896902D01*
X144406016Y-128039760D02*
X144215540Y-128134998D01*
X144215540Y-128134998D02*
X143739349Y-128134998D01*
X143739349Y-128134998D02*
X143548873Y-128039760D01*
X143548873Y-128039760D02*
X143453635Y-127849283D01*
X143453635Y-127849283D02*
X143453635Y-127658807D01*
X143453635Y-127658807D02*
X143548873Y-127468331D01*
X143548873Y-127468331D02*
X143739349Y-127373093D01*
X143739349Y-127373093D02*
X144215540Y-127373093D01*
X144215540Y-127373093D02*
X144406016Y-127277855D01*
X145358397Y-128134998D02*
X145358397Y-126801664D01*
X145358397Y-127182617D02*
X145453635Y-126992140D01*
X145453635Y-126992140D02*
X145548873Y-126896902D01*
X145548873Y-126896902D02*
X145739349Y-126801664D01*
X145739349Y-126801664D02*
X145929826Y-126801664D01*
X117644109Y-131259648D02*
X117929823Y-131354886D01*
X117929823Y-131354886D02*
X118406014Y-131354886D01*
X118406014Y-131354886D02*
X118596490Y-131259648D01*
X118596490Y-131259648D02*
X118691728Y-131164409D01*
X118691728Y-131164409D02*
X118786966Y-130973933D01*
X118786966Y-130973933D02*
X118786966Y-130783457D01*
X118786966Y-130783457D02*
X118691728Y-130592981D01*
X118691728Y-130592981D02*
X118596490Y-130497743D01*
X118596490Y-130497743D02*
X118406014Y-130402505D01*
X118406014Y-130402505D02*
X118025061Y-130307267D01*
X118025061Y-130307267D02*
X117834585Y-130212028D01*
X117834585Y-130212028D02*
X117739347Y-130116790D01*
X117739347Y-130116790D02*
X117644109Y-129926314D01*
X117644109Y-129926314D02*
X117644109Y-129735838D01*
X117644109Y-129735838D02*
X117739347Y-129545362D01*
X117739347Y-129545362D02*
X117834585Y-129450124D01*
X117834585Y-129450124D02*
X118025061Y-129354886D01*
X118025061Y-129354886D02*
X118501252Y-129354886D01*
X118501252Y-129354886D02*
X118786966Y-129450124D01*
X120501252Y-131354886D02*
X120501252Y-130307267D01*
X120501252Y-130307267D02*
X120406014Y-130116790D01*
X120406014Y-130116790D02*
X120215538Y-130021552D01*
X120215538Y-130021552D02*
X119834585Y-130021552D01*
X119834585Y-130021552D02*
X119644109Y-130116790D01*
X120501252Y-131259648D02*
X120310776Y-131354886D01*
X120310776Y-131354886D02*
X119834585Y-131354886D01*
X119834585Y-131354886D02*
X119644109Y-131259648D01*
X119644109Y-131259648D02*
X119548871Y-131069171D01*
X119548871Y-131069171D02*
X119548871Y-130878695D01*
X119548871Y-130878695D02*
X119644109Y-130688219D01*
X119644109Y-130688219D02*
X119834585Y-130592981D01*
X119834585Y-130592981D02*
X120310776Y-130592981D01*
X120310776Y-130592981D02*
X120501252Y-130497743D01*
X121453633Y-131354886D02*
X121453633Y-129354886D01*
X121453633Y-130116790D02*
X121644109Y-130021552D01*
X121644109Y-130021552D02*
X122025062Y-130021552D01*
X122025062Y-130021552D02*
X122215538Y-130116790D01*
X122215538Y-130116790D02*
X122310776Y-130212028D01*
X122310776Y-130212028D02*
X122406014Y-130402505D01*
X122406014Y-130402505D02*
X122406014Y-130973933D01*
X122406014Y-130973933D02*
X122310776Y-131164409D01*
X122310776Y-131164409D02*
X122215538Y-131259648D01*
X122215538Y-131259648D02*
X122025062Y-131354886D01*
X122025062Y-131354886D02*
X121644109Y-131354886D01*
X121644109Y-131354886D02*
X121453633Y-131259648D01*
X124120300Y-131354886D02*
X124120300Y-130307267D01*
X124120300Y-130307267D02*
X124025062Y-130116790D01*
X124025062Y-130116790D02*
X123834586Y-130021552D01*
X123834586Y-130021552D02*
X123453633Y-130021552D01*
X123453633Y-130021552D02*
X123263157Y-130116790D01*
X124120300Y-131259648D02*
X123929824Y-131354886D01*
X123929824Y-131354886D02*
X123453633Y-131354886D01*
X123453633Y-131354886D02*
X123263157Y-131259648D01*
X123263157Y-131259648D02*
X123167919Y-131069171D01*
X123167919Y-131069171D02*
X123167919Y-130878695D01*
X123167919Y-130878695D02*
X123263157Y-130688219D01*
X123263157Y-130688219D02*
X123453633Y-130592981D01*
X123453633Y-130592981D02*
X123929824Y-130592981D01*
X123929824Y-130592981D02*
X124120300Y-130497743D01*
X124977443Y-131259648D02*
X125167919Y-131354886D01*
X125167919Y-131354886D02*
X125548871Y-131354886D01*
X125548871Y-131354886D02*
X125739348Y-131259648D01*
X125739348Y-131259648D02*
X125834586Y-131069171D01*
X125834586Y-131069171D02*
X125834586Y-130973933D01*
X125834586Y-130973933D02*
X125739348Y-130783457D01*
X125739348Y-130783457D02*
X125548871Y-130688219D01*
X125548871Y-130688219D02*
X125263157Y-130688219D01*
X125263157Y-130688219D02*
X125072681Y-130592981D01*
X125072681Y-130592981D02*
X124977443Y-130402505D01*
X124977443Y-130402505D02*
X124977443Y-130307267D01*
X124977443Y-130307267D02*
X125072681Y-130116790D01*
X125072681Y-130116790D02*
X125263157Y-130021552D01*
X125263157Y-130021552D02*
X125548871Y-130021552D01*
X125548871Y-130021552D02*
X125739348Y-130116790D01*
X126406015Y-130021552D02*
X127167919Y-130021552D01*
X126691729Y-129354886D02*
X126691729Y-131069171D01*
X126691729Y-131069171D02*
X126786967Y-131259648D01*
X126786967Y-131259648D02*
X126977443Y-131354886D01*
X126977443Y-131354886D02*
X127167919Y-131354886D01*
X127834586Y-131354886D02*
X127834586Y-130021552D01*
X127834586Y-129354886D02*
X127739348Y-129450124D01*
X127739348Y-129450124D02*
X127834586Y-129545362D01*
X127834586Y-129545362D02*
X127929824Y-129450124D01*
X127929824Y-129450124D02*
X127834586Y-129354886D01*
X127834586Y-129354886D02*
X127834586Y-129545362D01*
X129644110Y-131354886D02*
X129644110Y-130307267D01*
X129644110Y-130307267D02*
X129548872Y-130116790D01*
X129548872Y-130116790D02*
X129358396Y-130021552D01*
X129358396Y-130021552D02*
X128977443Y-130021552D01*
X128977443Y-130021552D02*
X128786967Y-130116790D01*
X129644110Y-131259648D02*
X129453634Y-131354886D01*
X129453634Y-131354886D02*
X128977443Y-131354886D01*
X128977443Y-131354886D02*
X128786967Y-131259648D01*
X128786967Y-131259648D02*
X128691729Y-131069171D01*
X128691729Y-131069171D02*
X128691729Y-130878695D01*
X128691729Y-130878695D02*
X128786967Y-130688219D01*
X128786967Y-130688219D02*
X128977443Y-130592981D01*
X128977443Y-130592981D02*
X129453634Y-130592981D01*
X129453634Y-130592981D02*
X129644110Y-130497743D01*
X130596491Y-130021552D02*
X130596491Y-131354886D01*
X130596491Y-130212028D02*
X130691729Y-130116790D01*
X130691729Y-130116790D02*
X130882205Y-130021552D01*
X130882205Y-130021552D02*
X131167920Y-130021552D01*
X131167920Y-130021552D02*
X131358396Y-130116790D01*
X131358396Y-130116790D02*
X131453634Y-130307267D01*
X131453634Y-130307267D02*
X131453634Y-131354886D01*
X133929825Y-131354886D02*
X133929825Y-129354886D01*
X133929825Y-130307267D02*
X135072682Y-130307267D01*
X135072682Y-131354886D02*
X135072682Y-129354886D01*
X136882206Y-131354886D02*
X136882206Y-130307267D01*
X136882206Y-130307267D02*
X136786968Y-130116790D01*
X136786968Y-130116790D02*
X136596492Y-130021552D01*
X136596492Y-130021552D02*
X136215539Y-130021552D01*
X136215539Y-130021552D02*
X136025063Y-130116790D01*
X136882206Y-131259648D02*
X136691730Y-131354886D01*
X136691730Y-131354886D02*
X136215539Y-131354886D01*
X136215539Y-131354886D02*
X136025063Y-131259648D01*
X136025063Y-131259648D02*
X135929825Y-131069171D01*
X135929825Y-131069171D02*
X135929825Y-130878695D01*
X135929825Y-130878695D02*
X136025063Y-130688219D01*
X136025063Y-130688219D02*
X136215539Y-130592981D01*
X136215539Y-130592981D02*
X136691730Y-130592981D01*
X136691730Y-130592981D02*
X136882206Y-130497743D01*
X137834587Y-131354886D02*
X137834587Y-130021552D01*
X137834587Y-130212028D02*
X137929825Y-130116790D01*
X137929825Y-130116790D02*
X138120301Y-130021552D01*
X138120301Y-130021552D02*
X138406016Y-130021552D01*
X138406016Y-130021552D02*
X138596492Y-130116790D01*
X138596492Y-130116790D02*
X138691730Y-130307267D01*
X138691730Y-130307267D02*
X138691730Y-131354886D01*
X138691730Y-130307267D02*
X138786968Y-130116790D01*
X138786968Y-130116790D02*
X138977444Y-130021552D01*
X138977444Y-130021552D02*
X139263158Y-130021552D01*
X139263158Y-130021552D02*
X139453635Y-130116790D01*
X139453635Y-130116790D02*
X139548873Y-130307267D01*
X139548873Y-130307267D02*
X139548873Y-131354886D01*
X140501254Y-131354886D02*
X140501254Y-130021552D01*
X140501254Y-129354886D02*
X140406016Y-129450124D01*
X140406016Y-129450124D02*
X140501254Y-129545362D01*
X140501254Y-129545362D02*
X140596492Y-129450124D01*
X140596492Y-129450124D02*
X140501254Y-129354886D01*
X140501254Y-129354886D02*
X140501254Y-129545362D01*
X141739349Y-131354886D02*
X141548873Y-131259648D01*
X141548873Y-131259648D02*
X141453635Y-131069171D01*
X141453635Y-131069171D02*
X141453635Y-129354886D01*
X142215540Y-130021552D02*
X142977444Y-130021552D01*
X142501254Y-129354886D02*
X142501254Y-131069171D01*
X142501254Y-131069171D02*
X142596492Y-131259648D01*
X142596492Y-131259648D02*
X142786968Y-131354886D01*
X142786968Y-131354886D02*
X142977444Y-131354886D01*
X143929825Y-131354886D02*
X143739349Y-131259648D01*
X143739349Y-131259648D02*
X143644111Y-131164409D01*
X143644111Y-131164409D02*
X143548873Y-130973933D01*
X143548873Y-130973933D02*
X143548873Y-130402505D01*
X143548873Y-130402505D02*
X143644111Y-130212028D01*
X143644111Y-130212028D02*
X143739349Y-130116790D01*
X143739349Y-130116790D02*
X143929825Y-130021552D01*
X143929825Y-130021552D02*
X144215540Y-130021552D01*
X144215540Y-130021552D02*
X144406016Y-130116790D01*
X144406016Y-130116790D02*
X144501254Y-130212028D01*
X144501254Y-130212028D02*
X144596492Y-130402505D01*
X144596492Y-130402505D02*
X144596492Y-130973933D01*
X144596492Y-130973933D02*
X144501254Y-131164409D01*
X144501254Y-131164409D02*
X144406016Y-131259648D01*
X144406016Y-131259648D02*
X144215540Y-131354886D01*
X144215540Y-131354886D02*
X143929825Y-131354886D01*
X145453635Y-130021552D02*
X145453635Y-131354886D01*
X145453635Y-130212028D02*
X145548873Y-130116790D01*
X145548873Y-130116790D02*
X145739349Y-130021552D01*
X145739349Y-130021552D02*
X146025064Y-130021552D01*
X146025064Y-130021552D02*
X146215540Y-130116790D01*
X146215540Y-130116790D02*
X146310778Y-130307267D01*
X146310778Y-130307267D02*
X146310778Y-131354886D01*
X117644109Y-134003345D02*
X118596490Y-134003345D01*
X117453633Y-134574774D02*
X118120299Y-132574774D01*
X118120299Y-132574774D02*
X118786966Y-134574774D01*
X120310776Y-134574774D02*
X120310776Y-133527155D01*
X120310776Y-133527155D02*
X120215538Y-133336678D01*
X120215538Y-133336678D02*
X120025062Y-133241440D01*
X120025062Y-133241440D02*
X119644109Y-133241440D01*
X119644109Y-133241440D02*
X119453633Y-133336678D01*
X120310776Y-134479536D02*
X120120300Y-134574774D01*
X120120300Y-134574774D02*
X119644109Y-134574774D01*
X119644109Y-134574774D02*
X119453633Y-134479536D01*
X119453633Y-134479536D02*
X119358395Y-134289059D01*
X119358395Y-134289059D02*
X119358395Y-134098583D01*
X119358395Y-134098583D02*
X119453633Y-133908107D01*
X119453633Y-133908107D02*
X119644109Y-133812869D01*
X119644109Y-133812869D02*
X120120300Y-133812869D01*
X120120300Y-133812869D02*
X120310776Y-133717631D01*
X122120300Y-134574774D02*
X122120300Y-132574774D01*
X122120300Y-134479536D02*
X121929824Y-134574774D01*
X121929824Y-134574774D02*
X121548871Y-134574774D01*
X121548871Y-134574774D02*
X121358395Y-134479536D01*
X121358395Y-134479536D02*
X121263157Y-134384297D01*
X121263157Y-134384297D02*
X121167919Y-134193821D01*
X121167919Y-134193821D02*
X121167919Y-133622393D01*
X121167919Y-133622393D02*
X121263157Y-133431916D01*
X121263157Y-133431916D02*
X121358395Y-133336678D01*
X121358395Y-133336678D02*
X121548871Y-133241440D01*
X121548871Y-133241440D02*
X121929824Y-133241440D01*
X121929824Y-133241440D02*
X122120300Y-133336678D01*
X123072681Y-134574774D02*
X123072681Y-133241440D01*
X123072681Y-132574774D02*
X122977443Y-132670012D01*
X122977443Y-132670012D02*
X123072681Y-132765250D01*
X123072681Y-132765250D02*
X123167919Y-132670012D01*
X123167919Y-132670012D02*
X123072681Y-132574774D01*
X123072681Y-132574774D02*
X123072681Y-132765250D01*
X123739348Y-133241440D02*
X124501252Y-133241440D01*
X124025062Y-132574774D02*
X124025062Y-134289059D01*
X124025062Y-134289059D02*
X124120300Y-134479536D01*
X124120300Y-134479536D02*
X124310776Y-134574774D01*
X124310776Y-134574774D02*
X124501252Y-134574774D01*
X125167919Y-134574774D02*
X125167919Y-132574774D01*
X126025062Y-134574774D02*
X126025062Y-133527155D01*
X126025062Y-133527155D02*
X125929824Y-133336678D01*
X125929824Y-133336678D02*
X125739348Y-133241440D01*
X125739348Y-133241440D02*
X125453633Y-133241440D01*
X125453633Y-133241440D02*
X125263157Y-133336678D01*
X125263157Y-133336678D02*
X125167919Y-133431916D01*
X126786967Y-133241440D02*
X127263157Y-134574774D01*
X127739348Y-133241440D02*
X127263157Y-134574774D01*
X127263157Y-134574774D02*
X127072681Y-135050964D01*
X127072681Y-135050964D02*
X126977443Y-135146202D01*
X126977443Y-135146202D02*
X126786967Y-135241440D01*
X129358396Y-134574774D02*
X129358396Y-133527155D01*
X129358396Y-133527155D02*
X129263158Y-133336678D01*
X129263158Y-133336678D02*
X129072682Y-133241440D01*
X129072682Y-133241440D02*
X128691729Y-133241440D01*
X128691729Y-133241440D02*
X128501253Y-133336678D01*
X129358396Y-134479536D02*
X129167920Y-134574774D01*
X129167920Y-134574774D02*
X128691729Y-134574774D01*
X128691729Y-134574774D02*
X128501253Y-134479536D01*
X128501253Y-134479536D02*
X128406015Y-134289059D01*
X128406015Y-134289059D02*
X128406015Y-134098583D01*
X128406015Y-134098583D02*
X128501253Y-133908107D01*
X128501253Y-133908107D02*
X128691729Y-133812869D01*
X128691729Y-133812869D02*
X129167920Y-133812869D01*
X129167920Y-133812869D02*
X129358396Y-133717631D01*
X131548873Y-132574774D02*
X132215539Y-134574774D01*
X132215539Y-134574774D02*
X132882206Y-132574774D01*
X134406016Y-134574774D02*
X134406016Y-133527155D01*
X134406016Y-133527155D02*
X134310778Y-133336678D01*
X134310778Y-133336678D02*
X134120302Y-133241440D01*
X134120302Y-133241440D02*
X133739349Y-133241440D01*
X133739349Y-133241440D02*
X133548873Y-133336678D01*
X134406016Y-134479536D02*
X134215540Y-134574774D01*
X134215540Y-134574774D02*
X133739349Y-134574774D01*
X133739349Y-134574774D02*
X133548873Y-134479536D01*
X133548873Y-134479536D02*
X133453635Y-134289059D01*
X133453635Y-134289059D02*
X133453635Y-134098583D01*
X133453635Y-134098583D02*
X133548873Y-133908107D01*
X133548873Y-133908107D02*
X133739349Y-133812869D01*
X133739349Y-133812869D02*
X134215540Y-133812869D01*
X134215540Y-133812869D02*
X134406016Y-133717631D01*
X135263159Y-134479536D02*
X135453635Y-134574774D01*
X135453635Y-134574774D02*
X135834587Y-134574774D01*
X135834587Y-134574774D02*
X136025064Y-134479536D01*
X136025064Y-134479536D02*
X136120302Y-134289059D01*
X136120302Y-134289059D02*
X136120302Y-134193821D01*
X136120302Y-134193821D02*
X136025064Y-134003345D01*
X136025064Y-134003345D02*
X135834587Y-133908107D01*
X135834587Y-133908107D02*
X135548873Y-133908107D01*
X135548873Y-133908107D02*
X135358397Y-133812869D01*
X135358397Y-133812869D02*
X135263159Y-133622393D01*
X135263159Y-133622393D02*
X135263159Y-133527155D01*
X135263159Y-133527155D02*
X135358397Y-133336678D01*
X135358397Y-133336678D02*
X135548873Y-133241440D01*
X135548873Y-133241440D02*
X135834587Y-133241440D01*
X135834587Y-133241440D02*
X136025064Y-133336678D01*
X137834588Y-133241440D02*
X137834588Y-134574774D01*
X136977445Y-133241440D02*
X136977445Y-134289059D01*
X136977445Y-134289059D02*
X137072683Y-134479536D01*
X137072683Y-134479536D02*
X137263159Y-134574774D01*
X137263159Y-134574774D02*
X137548874Y-134574774D01*
X137548874Y-134574774D02*
X137739350Y-134479536D01*
X137739350Y-134479536D02*
X137834588Y-134384297D01*
X139644112Y-134574774D02*
X139644112Y-132574774D01*
X139644112Y-134479536D02*
X139453636Y-134574774D01*
X139453636Y-134574774D02*
X139072683Y-134574774D01*
X139072683Y-134574774D02*
X138882207Y-134479536D01*
X138882207Y-134479536D02*
X138786969Y-134384297D01*
X138786969Y-134384297D02*
X138691731Y-134193821D01*
X138691731Y-134193821D02*
X138691731Y-133622393D01*
X138691731Y-133622393D02*
X138786969Y-133431916D01*
X138786969Y-133431916D02*
X138882207Y-133336678D01*
X138882207Y-133336678D02*
X139072683Y-133241440D01*
X139072683Y-133241440D02*
X139453636Y-133241440D01*
X139453636Y-133241440D02*
X139644112Y-133336678D01*
X141358398Y-134479536D02*
X141167922Y-134574774D01*
X141167922Y-134574774D02*
X140786969Y-134574774D01*
X140786969Y-134574774D02*
X140596493Y-134479536D01*
X140596493Y-134479536D02*
X140501255Y-134289059D01*
X140501255Y-134289059D02*
X140501255Y-133527155D01*
X140501255Y-133527155D02*
X140596493Y-133336678D01*
X140596493Y-133336678D02*
X140786969Y-133241440D01*
X140786969Y-133241440D02*
X141167922Y-133241440D01*
X141167922Y-133241440D02*
X141358398Y-133336678D01*
X141358398Y-133336678D02*
X141453636Y-133527155D01*
X141453636Y-133527155D02*
X141453636Y-133717631D01*
X141453636Y-133717631D02*
X140501255Y-133908107D01*
X142120303Y-133241440D02*
X142596493Y-134574774D01*
X142596493Y-134574774D02*
X143072684Y-133241440D01*
X144691732Y-134574774D02*
X144691732Y-133527155D01*
X144691732Y-133527155D02*
X144596494Y-133336678D01*
X144596494Y-133336678D02*
X144406018Y-133241440D01*
X144406018Y-133241440D02*
X144025065Y-133241440D01*
X144025065Y-133241440D02*
X143834589Y-133336678D01*
X144691732Y-134479536D02*
X144501256Y-134574774D01*
X144501256Y-134574774D02*
X144025065Y-134574774D01*
X144025065Y-134574774D02*
X143834589Y-134479536D01*
X143834589Y-134479536D02*
X143739351Y-134289059D01*
X143739351Y-134289059D02*
X143739351Y-134098583D01*
X143739351Y-134098583D02*
X143834589Y-133908107D01*
X143834589Y-133908107D02*
X144025065Y-133812869D01*
X144025065Y-133812869D02*
X144501256Y-133812869D01*
X144501256Y-133812869D02*
X144691732Y-133717631D01*
X145644113Y-133241440D02*
X145644113Y-134574774D01*
X145644113Y-133431916D02*
X145739351Y-133336678D01*
X145739351Y-133336678D02*
X145929827Y-133241440D01*
X145929827Y-133241440D02*
X146215542Y-133241440D01*
X146215542Y-133241440D02*
X146406018Y-133336678D01*
X146406018Y-133336678D02*
X146501256Y-133527155D01*
X146501256Y-133527155D02*
X146501256Y-134574774D01*
X117739347Y-137794662D02*
X117739347Y-135794662D01*
X117739347Y-135794662D02*
X118406014Y-137223233D01*
X118406014Y-137223233D02*
X119072680Y-135794662D01*
X119072680Y-135794662D02*
X119072680Y-137794662D01*
X120882204Y-137794662D02*
X120882204Y-136747043D01*
X120882204Y-136747043D02*
X120786966Y-136556566D01*
X120786966Y-136556566D02*
X120596490Y-136461328D01*
X120596490Y-136461328D02*
X120215537Y-136461328D01*
X120215537Y-136461328D02*
X120025061Y-136556566D01*
X120882204Y-137699424D02*
X120691728Y-137794662D01*
X120691728Y-137794662D02*
X120215537Y-137794662D01*
X120215537Y-137794662D02*
X120025061Y-137699424D01*
X120025061Y-137699424D02*
X119929823Y-137508947D01*
X119929823Y-137508947D02*
X119929823Y-137318471D01*
X119929823Y-137318471D02*
X120025061Y-137127995D01*
X120025061Y-137127995D02*
X120215537Y-137032757D01*
X120215537Y-137032757D02*
X120691728Y-137032757D01*
X120691728Y-137032757D02*
X120882204Y-136937519D01*
X121834585Y-137794662D02*
X121834585Y-135794662D01*
X122691728Y-137794662D02*
X122691728Y-136747043D01*
X122691728Y-136747043D02*
X122596490Y-136556566D01*
X122596490Y-136556566D02*
X122406014Y-136461328D01*
X122406014Y-136461328D02*
X122120299Y-136461328D01*
X122120299Y-136461328D02*
X121929823Y-136556566D01*
X121929823Y-136556566D02*
X121834585Y-136651804D01*
X124501252Y-137794662D02*
X124501252Y-135794662D01*
X124501252Y-137699424D02*
X124310776Y-137794662D01*
X124310776Y-137794662D02*
X123929823Y-137794662D01*
X123929823Y-137794662D02*
X123739347Y-137699424D01*
X123739347Y-137699424D02*
X123644109Y-137604185D01*
X123644109Y-137604185D02*
X123548871Y-137413709D01*
X123548871Y-137413709D02*
X123548871Y-136842281D01*
X123548871Y-136842281D02*
X123644109Y-136651804D01*
X123644109Y-136651804D02*
X123739347Y-136556566D01*
X123739347Y-136556566D02*
X123929823Y-136461328D01*
X123929823Y-136461328D02*
X124310776Y-136461328D01*
X124310776Y-136461328D02*
X124501252Y-136556566D01*
X125453633Y-137794662D02*
X125453633Y-136461328D01*
X125453633Y-135794662D02*
X125358395Y-135889900D01*
X125358395Y-135889900D02*
X125453633Y-135985138D01*
X125453633Y-135985138D02*
X125548871Y-135889900D01*
X125548871Y-135889900D02*
X125453633Y-135794662D01*
X125453633Y-135794662D02*
X125453633Y-135985138D01*
X127929824Y-136747043D02*
X128596491Y-136747043D01*
X128882205Y-137794662D02*
X127929824Y-137794662D01*
X127929824Y-137794662D02*
X127929824Y-135794662D01*
X127929824Y-135794662D02*
X128882205Y-135794662D01*
X130025062Y-137794662D02*
X129834586Y-137699424D01*
X129834586Y-137699424D02*
X129739348Y-137508947D01*
X129739348Y-137508947D02*
X129739348Y-135794662D01*
X132310777Y-137794662D02*
X132310777Y-135794662D01*
X132310777Y-136747043D02*
X133453634Y-136747043D01*
X133453634Y-137794662D02*
X133453634Y-135794662D01*
X135263158Y-136461328D02*
X135263158Y-137794662D01*
X134406015Y-136461328D02*
X134406015Y-137508947D01*
X134406015Y-137508947D02*
X134501253Y-137699424D01*
X134501253Y-137699424D02*
X134691729Y-137794662D01*
X134691729Y-137794662D02*
X134977444Y-137794662D01*
X134977444Y-137794662D02*
X135167920Y-137699424D01*
X135167920Y-137699424D02*
X135263158Y-137604185D01*
X136120301Y-137699424D02*
X136310777Y-137794662D01*
X136310777Y-137794662D02*
X136691729Y-137794662D01*
X136691729Y-137794662D02*
X136882206Y-137699424D01*
X136882206Y-137699424D02*
X136977444Y-137508947D01*
X136977444Y-137508947D02*
X136977444Y-137413709D01*
X136977444Y-137413709D02*
X136882206Y-137223233D01*
X136882206Y-137223233D02*
X136691729Y-137127995D01*
X136691729Y-137127995D02*
X136406015Y-137127995D01*
X136406015Y-137127995D02*
X136215539Y-137032757D01*
X136215539Y-137032757D02*
X136120301Y-136842281D01*
X136120301Y-136842281D02*
X136120301Y-136747043D01*
X136120301Y-136747043D02*
X136215539Y-136556566D01*
X136215539Y-136556566D02*
X136406015Y-136461328D01*
X136406015Y-136461328D02*
X136691729Y-136461328D01*
X136691729Y-136461328D02*
X136882206Y-136556566D01*
X137739349Y-137699424D02*
X137929825Y-137794662D01*
X137929825Y-137794662D02*
X138310777Y-137794662D01*
X138310777Y-137794662D02*
X138501254Y-137699424D01*
X138501254Y-137699424D02*
X138596492Y-137508947D01*
X138596492Y-137508947D02*
X138596492Y-137413709D01*
X138596492Y-137413709D02*
X138501254Y-137223233D01*
X138501254Y-137223233D02*
X138310777Y-137127995D01*
X138310777Y-137127995D02*
X138025063Y-137127995D01*
X138025063Y-137127995D02*
X137834587Y-137032757D01*
X137834587Y-137032757D02*
X137739349Y-136842281D01*
X137739349Y-136842281D02*
X137739349Y-136747043D01*
X137739349Y-136747043D02*
X137834587Y-136556566D01*
X137834587Y-136556566D02*
X138025063Y-136461328D01*
X138025063Y-136461328D02*
X138310777Y-136461328D01*
X138310777Y-136461328D02*
X138501254Y-136556566D01*
X140215540Y-137699424D02*
X140025064Y-137794662D01*
X140025064Y-137794662D02*
X139644111Y-137794662D01*
X139644111Y-137794662D02*
X139453635Y-137699424D01*
X139453635Y-137699424D02*
X139358397Y-137508947D01*
X139358397Y-137508947D02*
X139358397Y-136747043D01*
X139358397Y-136747043D02*
X139453635Y-136556566D01*
X139453635Y-136556566D02*
X139644111Y-136461328D01*
X139644111Y-136461328D02*
X140025064Y-136461328D01*
X140025064Y-136461328D02*
X140215540Y-136556566D01*
X140215540Y-136556566D02*
X140310778Y-136747043D01*
X140310778Y-136747043D02*
X140310778Y-136937519D01*
X140310778Y-136937519D02*
X139358397Y-137127995D01*
X141167921Y-137794662D02*
X141167921Y-136461328D01*
X141167921Y-135794662D02*
X141072683Y-135889900D01*
X141072683Y-135889900D02*
X141167921Y-135985138D01*
X141167921Y-135985138D02*
X141263159Y-135889900D01*
X141263159Y-135889900D02*
X141167921Y-135794662D01*
X141167921Y-135794662D02*
X141167921Y-135985138D01*
X142120302Y-136461328D02*
X142120302Y-137794662D01*
X142120302Y-136651804D02*
X142215540Y-136556566D01*
X142215540Y-136556566D02*
X142406016Y-136461328D01*
X142406016Y-136461328D02*
X142691731Y-136461328D01*
X142691731Y-136461328D02*
X142882207Y-136556566D01*
X142882207Y-136556566D02*
X142977445Y-136747043D01*
X142977445Y-136747043D02*
X142977445Y-137794662D01*
X143929826Y-137794662D02*
X143929826Y-136461328D01*
X143929826Y-135794662D02*
X143834588Y-135889900D01*
X143834588Y-135889900D02*
X143929826Y-135985138D01*
X143929826Y-135985138D02*
X144025064Y-135889900D01*
X144025064Y-135889900D02*
X143929826Y-135794662D01*
X143929826Y-135794662D02*
X143929826Y-135985138D01*
X117739347Y-141014550D02*
X117739347Y-139014550D01*
X117739347Y-139014550D02*
X118406014Y-140443121D01*
X118406014Y-140443121D02*
X119072680Y-139014550D01*
X119072680Y-139014550D02*
X119072680Y-141014550D01*
X120025061Y-141014550D02*
X120025061Y-139681216D01*
X120025061Y-139014550D02*
X119929823Y-139109788D01*
X119929823Y-139109788D02*
X120025061Y-139205026D01*
X120025061Y-139205026D02*
X120120299Y-139109788D01*
X120120299Y-139109788D02*
X120025061Y-139014550D01*
X120025061Y-139014550D02*
X120025061Y-139205026D01*
X121834585Y-140919312D02*
X121644109Y-141014550D01*
X121644109Y-141014550D02*
X121263156Y-141014550D01*
X121263156Y-141014550D02*
X121072680Y-140919312D01*
X121072680Y-140919312D02*
X120977442Y-140824073D01*
X120977442Y-140824073D02*
X120882204Y-140633597D01*
X120882204Y-140633597D02*
X120882204Y-140062169D01*
X120882204Y-140062169D02*
X120977442Y-139871692D01*
X120977442Y-139871692D02*
X121072680Y-139776454D01*
X121072680Y-139776454D02*
X121263156Y-139681216D01*
X121263156Y-139681216D02*
X121644109Y-139681216D01*
X121644109Y-139681216D02*
X121834585Y-139776454D01*
X122691728Y-141014550D02*
X122691728Y-139014550D01*
X123548871Y-141014550D02*
X123548871Y-139966931D01*
X123548871Y-139966931D02*
X123453633Y-139776454D01*
X123453633Y-139776454D02*
X123263157Y-139681216D01*
X123263157Y-139681216D02*
X122977442Y-139681216D01*
X122977442Y-139681216D02*
X122786966Y-139776454D01*
X122786966Y-139776454D02*
X122691728Y-139871692D01*
X125358395Y-141014550D02*
X125358395Y-139966931D01*
X125358395Y-139966931D02*
X125263157Y-139776454D01*
X125263157Y-139776454D02*
X125072681Y-139681216D01*
X125072681Y-139681216D02*
X124691728Y-139681216D01*
X124691728Y-139681216D02*
X124501252Y-139776454D01*
X125358395Y-140919312D02*
X125167919Y-141014550D01*
X125167919Y-141014550D02*
X124691728Y-141014550D01*
X124691728Y-141014550D02*
X124501252Y-140919312D01*
X124501252Y-140919312D02*
X124406014Y-140728835D01*
X124406014Y-140728835D02*
X124406014Y-140538359D01*
X124406014Y-140538359D02*
X124501252Y-140347883D01*
X124501252Y-140347883D02*
X124691728Y-140252645D01*
X124691728Y-140252645D02*
X125167919Y-140252645D01*
X125167919Y-140252645D02*
X125358395Y-140157407D01*
X127072681Y-140919312D02*
X126882205Y-141014550D01*
X126882205Y-141014550D02*
X126501252Y-141014550D01*
X126501252Y-141014550D02*
X126310776Y-140919312D01*
X126310776Y-140919312D02*
X126215538Y-140728835D01*
X126215538Y-140728835D02*
X126215538Y-139966931D01*
X126215538Y-139966931D02*
X126310776Y-139776454D01*
X126310776Y-139776454D02*
X126501252Y-139681216D01*
X126501252Y-139681216D02*
X126882205Y-139681216D01*
X126882205Y-139681216D02*
X127072681Y-139776454D01*
X127072681Y-139776454D02*
X127167919Y-139966931D01*
X127167919Y-139966931D02*
X127167919Y-140157407D01*
X127167919Y-140157407D02*
X126215538Y-140347883D01*
X128310776Y-141014550D02*
X128120300Y-140919312D01*
X128120300Y-140919312D02*
X128025062Y-140728835D01*
X128025062Y-140728835D02*
X128025062Y-139014550D01*
X130406015Y-139014550D02*
X130882205Y-141014550D01*
X130882205Y-141014550D02*
X131263158Y-139585978D01*
X131263158Y-139585978D02*
X131644110Y-141014550D01*
X131644110Y-141014550D02*
X132120301Y-139014550D01*
X133739348Y-139681216D02*
X133739348Y-141014550D01*
X132882205Y-139681216D02*
X132882205Y-140728835D01*
X132882205Y-140728835D02*
X132977443Y-140919312D01*
X132977443Y-140919312D02*
X133167919Y-141014550D01*
X133167919Y-141014550D02*
X133453634Y-141014550D01*
X133453634Y-141014550D02*
X133644110Y-140919312D01*
X133644110Y-140919312D02*
X133739348Y-140824073D01*
X117548871Y-142234438D02*
X118025061Y-144234438D01*
X118025061Y-144234438D02*
X118406014Y-142805866D01*
X118406014Y-142805866D02*
X118786966Y-144234438D01*
X118786966Y-144234438D02*
X119263157Y-142234438D01*
X120025061Y-144234438D02*
X120025061Y-142901104D01*
X120025061Y-142234438D02*
X119929823Y-142329676D01*
X119929823Y-142329676D02*
X120025061Y-142424914D01*
X120025061Y-142424914D02*
X120120299Y-142329676D01*
X120120299Y-142329676D02*
X120025061Y-142234438D01*
X120025061Y-142234438D02*
X120025061Y-142424914D01*
X121263156Y-144234438D02*
X121072680Y-144139200D01*
X121072680Y-144139200D02*
X120977442Y-143948723D01*
X120977442Y-143948723D02*
X120977442Y-142234438D01*
X122025061Y-144234438D02*
X122025061Y-142234438D01*
X122025061Y-142996342D02*
X122215537Y-142901104D01*
X122215537Y-142901104D02*
X122596490Y-142901104D01*
X122596490Y-142901104D02*
X122786966Y-142996342D01*
X122786966Y-142996342D02*
X122882204Y-143091580D01*
X122882204Y-143091580D02*
X122977442Y-143282057D01*
X122977442Y-143282057D02*
X122977442Y-143853485D01*
X122977442Y-143853485D02*
X122882204Y-144043961D01*
X122882204Y-144043961D02*
X122786966Y-144139200D01*
X122786966Y-144139200D02*
X122596490Y-144234438D01*
X122596490Y-144234438D02*
X122215537Y-144234438D01*
X122215537Y-144234438D02*
X122025061Y-144139200D01*
X124596490Y-144139200D02*
X124406014Y-144234438D01*
X124406014Y-144234438D02*
X124025061Y-144234438D01*
X124025061Y-144234438D02*
X123834585Y-144139200D01*
X123834585Y-144139200D02*
X123739347Y-143948723D01*
X123739347Y-143948723D02*
X123739347Y-143186819D01*
X123739347Y-143186819D02*
X123834585Y-142996342D01*
X123834585Y-142996342D02*
X124025061Y-142901104D01*
X124025061Y-142901104D02*
X124406014Y-142901104D01*
X124406014Y-142901104D02*
X124596490Y-142996342D01*
X124596490Y-142996342D02*
X124691728Y-143186819D01*
X124691728Y-143186819D02*
X124691728Y-143377295D01*
X124691728Y-143377295D02*
X123739347Y-143567771D01*
X125548871Y-144234438D02*
X125548871Y-142901104D01*
X125548871Y-143282057D02*
X125644109Y-143091580D01*
X125644109Y-143091580D02*
X125739347Y-142996342D01*
X125739347Y-142996342D02*
X125929823Y-142901104D01*
X125929823Y-142901104D02*
X126120300Y-142901104D01*
X126501252Y-142901104D02*
X127263156Y-142901104D01*
X126786966Y-142234438D02*
X126786966Y-143948723D01*
X126786966Y-143948723D02*
X126882204Y-144139200D01*
X126882204Y-144139200D02*
X127072680Y-144234438D01*
X127072680Y-144234438D02*
X127263156Y-144234438D01*
X130596490Y-144043961D02*
X130501252Y-144139200D01*
X130501252Y-144139200D02*
X130215538Y-144234438D01*
X130215538Y-144234438D02*
X130025062Y-144234438D01*
X130025062Y-144234438D02*
X129739347Y-144139200D01*
X129739347Y-144139200D02*
X129548871Y-143948723D01*
X129548871Y-143948723D02*
X129453633Y-143758247D01*
X129453633Y-143758247D02*
X129358395Y-143377295D01*
X129358395Y-143377295D02*
X129358395Y-143091580D01*
X129358395Y-143091580D02*
X129453633Y-142710628D01*
X129453633Y-142710628D02*
X129548871Y-142520152D01*
X129548871Y-142520152D02*
X129739347Y-142329676D01*
X129739347Y-142329676D02*
X130025062Y-142234438D01*
X130025062Y-142234438D02*
X130215538Y-142234438D01*
X130215538Y-142234438D02*
X130501252Y-142329676D01*
X130501252Y-142329676D02*
X130596490Y-142424914D01*
X131453633Y-144234438D02*
X131453633Y-142234438D01*
X132310776Y-144234438D02*
X132310776Y-143186819D01*
X132310776Y-143186819D02*
X132215538Y-142996342D01*
X132215538Y-142996342D02*
X132025062Y-142901104D01*
X132025062Y-142901104D02*
X131739347Y-142901104D01*
X131739347Y-142901104D02*
X131548871Y-142996342D01*
X131548871Y-142996342D02*
X131453633Y-143091580D01*
X134120300Y-142901104D02*
X134120300Y-144234438D01*
X133263157Y-142901104D02*
X133263157Y-143948723D01*
X133263157Y-143948723D02*
X133358395Y-144139200D01*
X133358395Y-144139200D02*
X133548871Y-144234438D01*
X133548871Y-144234438D02*
X133834586Y-144234438D01*
X133834586Y-144234438D02*
X134025062Y-144139200D01*
X134025062Y-144139200D02*
X134120300Y-144043961D01*
D11*
X65161504Y-100582707D02*
X66494838Y-100106517D01*
X66494838Y-100106517D02*
X65161504Y-99630326D01*
X66494838Y-98582707D02*
X66399600Y-98773183D01*
X66399600Y-98773183D02*
X66304361Y-98868421D01*
X66304361Y-98868421D02*
X66113885Y-98963659D01*
X66113885Y-98963659D02*
X65542457Y-98963659D01*
X65542457Y-98963659D02*
X65351980Y-98868421D01*
X65351980Y-98868421D02*
X65256742Y-98773183D01*
X65256742Y-98773183D02*
X65161504Y-98582707D01*
X65161504Y-98582707D02*
X65161504Y-98296992D01*
X65161504Y-98296992D02*
X65256742Y-98106516D01*
X65256742Y-98106516D02*
X65351980Y-98011278D01*
X65351980Y-98011278D02*
X65542457Y-97916040D01*
X65542457Y-97916040D02*
X66113885Y-97916040D01*
X66113885Y-97916040D02*
X66304361Y-98011278D01*
X66304361Y-98011278D02*
X66399600Y-98106516D01*
X66399600Y-98106516D02*
X66494838Y-98296992D01*
X66494838Y-98296992D02*
X66494838Y-98582707D01*
X66494838Y-96773183D02*
X66399600Y-96963659D01*
X66399600Y-96963659D02*
X66209123Y-97058897D01*
X66209123Y-97058897D02*
X64494838Y-97058897D01*
D12*
X102660087Y-115304809D02*
X102660087Y-117971476D01*
X101707706Y-113781000D02*
X100755325Y-116638142D01*
X100755325Y-116638142D02*
X103231516Y-116638142D01*
X105517230Y-113971476D02*
X105898183Y-113971476D01*
X105898183Y-113971476D02*
X106279135Y-114161952D01*
X106279135Y-114161952D02*
X106469611Y-114352428D01*
X106469611Y-114352428D02*
X106660087Y-114733380D01*
X106660087Y-114733380D02*
X106850564Y-115495285D01*
X106850564Y-115495285D02*
X106850564Y-116447666D01*
X106850564Y-116447666D02*
X106660087Y-117209571D01*
X106660087Y-117209571D02*
X106469611Y-117590523D01*
X106469611Y-117590523D02*
X106279135Y-117781000D01*
X106279135Y-117781000D02*
X105898183Y-117971476D01*
X105898183Y-117971476D02*
X105517230Y-117971476D01*
X105517230Y-117971476D02*
X105136278Y-117781000D01*
X105136278Y-117781000D02*
X104945802Y-117590523D01*
X104945802Y-117590523D02*
X104755325Y-117209571D01*
X104755325Y-117209571D02*
X104564849Y-116447666D01*
X104564849Y-116447666D02*
X104564849Y-115495285D01*
X104564849Y-115495285D02*
X104755325Y-114733380D01*
X104755325Y-114733380D02*
X104945802Y-114352428D01*
X104945802Y-114352428D02*
X105136278Y-114161952D01*
X105136278Y-114161952D02*
X105517230Y-113971476D01*
X110279135Y-115304809D02*
X110279135Y-117971476D01*
X109326754Y-113781000D02*
X108374373Y-116638142D01*
X108374373Y-116638142D02*
X110850564Y-116638142D01*
X115421992Y-117971476D02*
X115421992Y-113971476D01*
X115421992Y-113971476D02*
X116374373Y-113971476D01*
X116374373Y-113971476D02*
X116945802Y-114161952D01*
X116945802Y-114161952D02*
X117326754Y-114542904D01*
X117326754Y-114542904D02*
X117517231Y-114923857D01*
X117517231Y-114923857D02*
X117707707Y-115685761D01*
X117707707Y-115685761D02*
X117707707Y-116257190D01*
X117707707Y-116257190D02*
X117517231Y-117019095D01*
X117517231Y-117019095D02*
X117326754Y-117400047D01*
X117326754Y-117400047D02*
X116945802Y-117781000D01*
X116945802Y-117781000D02*
X116374373Y-117971476D01*
X116374373Y-117971476D02*
X115421992Y-117971476D01*
X119421992Y-117971476D02*
X119421992Y-115304809D01*
X119421992Y-113971476D02*
X119231516Y-114161952D01*
X119231516Y-114161952D02*
X119421992Y-114352428D01*
X119421992Y-114352428D02*
X119612469Y-114161952D01*
X119612469Y-114161952D02*
X119421992Y-113971476D01*
X119421992Y-113971476D02*
X119421992Y-114352428D01*
X121136278Y-117781000D02*
X121517231Y-117971476D01*
X121517231Y-117971476D02*
X122279135Y-117971476D01*
X122279135Y-117971476D02*
X122660088Y-117781000D01*
X122660088Y-117781000D02*
X122850564Y-117400047D01*
X122850564Y-117400047D02*
X122850564Y-117209571D01*
X122850564Y-117209571D02*
X122660088Y-116828619D01*
X122660088Y-116828619D02*
X122279135Y-116638142D01*
X122279135Y-116638142D02*
X121707707Y-116638142D01*
X121707707Y-116638142D02*
X121326754Y-116447666D01*
X121326754Y-116447666D02*
X121136278Y-116066714D01*
X121136278Y-116066714D02*
X121136278Y-115876238D01*
X121136278Y-115876238D02*
X121326754Y-115495285D01*
X121326754Y-115495285D02*
X121707707Y-115304809D01*
X121707707Y-115304809D02*
X122279135Y-115304809D01*
X122279135Y-115304809D02*
X122660088Y-115495285D01*
X124564849Y-115304809D02*
X124564849Y-119304809D01*
X124564849Y-115495285D02*
X124945802Y-115304809D01*
X124945802Y-115304809D02*
X125707707Y-115304809D01*
X125707707Y-115304809D02*
X126088659Y-115495285D01*
X126088659Y-115495285D02*
X126279135Y-115685761D01*
X126279135Y-115685761D02*
X126469611Y-116066714D01*
X126469611Y-116066714D02*
X126469611Y-117209571D01*
X126469611Y-117209571D02*
X126279135Y-117590523D01*
X126279135Y-117590523D02*
X126088659Y-117781000D01*
X126088659Y-117781000D02*
X125707707Y-117971476D01*
X125707707Y-117971476D02*
X124945802Y-117971476D01*
X124945802Y-117971476D02*
X124564849Y-117781000D01*
X128755326Y-117971476D02*
X128374374Y-117781000D01*
X128374374Y-117781000D02*
X128183897Y-117400047D01*
X128183897Y-117400047D02*
X128183897Y-113971476D01*
X131993421Y-117971476D02*
X131993421Y-115876238D01*
X131993421Y-115876238D02*
X131802945Y-115495285D01*
X131802945Y-115495285D02*
X131421993Y-115304809D01*
X131421993Y-115304809D02*
X130660088Y-115304809D01*
X130660088Y-115304809D02*
X130279135Y-115495285D01*
X131993421Y-117781000D02*
X131612469Y-117971476D01*
X131612469Y-117971476D02*
X130660088Y-117971476D01*
X130660088Y-117971476D02*
X130279135Y-117781000D01*
X130279135Y-117781000D02*
X130088659Y-117400047D01*
X130088659Y-117400047D02*
X130088659Y-117019095D01*
X130088659Y-117019095D02*
X130279135Y-116638142D01*
X130279135Y-116638142D02*
X130660088Y-116447666D01*
X130660088Y-116447666D02*
X131612469Y-116447666D01*
X131612469Y-116447666D02*
X131993421Y-116257190D01*
X133517231Y-115304809D02*
X134469612Y-117971476D01*
X135421993Y-115304809D02*
X134469612Y-117971476D01*
X134469612Y-117971476D02*
X134088660Y-118923857D01*
X134088660Y-118923857D02*
X133898183Y-119114333D01*
X133898183Y-119114333D02*
X133517231Y-119304809D01*
X146088659Y-115304809D02*
X146088659Y-117971476D01*
X146088659Y-115685761D02*
X146279136Y-115495285D01*
X146279136Y-115495285D02*
X146660088Y-115304809D01*
X146660088Y-115304809D02*
X147231517Y-115304809D01*
X147231517Y-115304809D02*
X147612469Y-115495285D01*
X147612469Y-115495285D02*
X147802945Y-115876238D01*
X147802945Y-115876238D02*
X147802945Y-117971476D01*
X150279136Y-117971476D02*
X149898184Y-117781000D01*
X149898184Y-117781000D02*
X149707707Y-117590523D01*
X149707707Y-117590523D02*
X149517231Y-117209571D01*
X149517231Y-117209571D02*
X149517231Y-116066714D01*
X149517231Y-116066714D02*
X149707707Y-115685761D01*
X149707707Y-115685761D02*
X149898184Y-115495285D01*
X149898184Y-115495285D02*
X150279136Y-115304809D01*
X150279136Y-115304809D02*
X150850565Y-115304809D01*
X150850565Y-115304809D02*
X151231517Y-115495285D01*
X151231517Y-115495285D02*
X151421993Y-115685761D01*
X151421993Y-115685761D02*
X151612469Y-116066714D01*
X151612469Y-116066714D02*
X151612469Y-117209571D01*
X151612469Y-117209571D02*
X151421993Y-117590523D01*
X151421993Y-117590523D02*
X151231517Y-117781000D01*
X151231517Y-117781000D02*
X150850565Y-117971476D01*
X150850565Y-117971476D02*
X150279136Y-117971476D01*
X152755327Y-115304809D02*
X154279136Y-115304809D01*
X153326755Y-113971476D02*
X153326755Y-117400047D01*
X153326755Y-117400047D02*
X153517232Y-117781000D01*
X153517232Y-117781000D02*
X153898184Y-117971476D01*
X153898184Y-117971476D02*
X154279136Y-117971476D01*
X158088660Y-115304809D02*
X159612469Y-115304809D01*
X158660088Y-117971476D02*
X158660088Y-114542904D01*
X158660088Y-114542904D02*
X158850565Y-114161952D01*
X158850565Y-114161952D02*
X159231517Y-113971476D01*
X159231517Y-113971476D02*
X159612469Y-113971476D01*
X161517231Y-117971476D02*
X161136279Y-117781000D01*
X161136279Y-117781000D02*
X160945802Y-117590523D01*
X160945802Y-117590523D02*
X160755326Y-117209571D01*
X160755326Y-117209571D02*
X160755326Y-116066714D01*
X160755326Y-116066714D02*
X160945802Y-115685761D01*
X160945802Y-115685761D02*
X161136279Y-115495285D01*
X161136279Y-115495285D02*
X161517231Y-115304809D01*
X161517231Y-115304809D02*
X162088660Y-115304809D01*
X162088660Y-115304809D02*
X162469612Y-115495285D01*
X162469612Y-115495285D02*
X162660088Y-115685761D01*
X162660088Y-115685761D02*
X162850564Y-116066714D01*
X162850564Y-116066714D02*
X162850564Y-117209571D01*
X162850564Y-117209571D02*
X162660088Y-117590523D01*
X162660088Y-117590523D02*
X162469612Y-117781000D01*
X162469612Y-117781000D02*
X162088660Y-117971476D01*
X162088660Y-117971476D02*
X161517231Y-117971476D01*
X166279136Y-115304809D02*
X166279136Y-117971476D01*
X164564850Y-115304809D02*
X164564850Y-117400047D01*
X164564850Y-117400047D02*
X164755327Y-117781000D01*
X164755327Y-117781000D02*
X165136279Y-117971476D01*
X165136279Y-117971476D02*
X165707708Y-117971476D01*
X165707708Y-117971476D02*
X166088660Y-117781000D01*
X166088660Y-117781000D02*
X166279136Y-117590523D01*
X168183898Y-115304809D02*
X168183898Y-117971476D01*
X168183898Y-115685761D02*
X168374375Y-115495285D01*
X168374375Y-115495285D02*
X168755327Y-115304809D01*
X168755327Y-115304809D02*
X169326756Y-115304809D01*
X169326756Y-115304809D02*
X169707708Y-115495285D01*
X169707708Y-115495285D02*
X169898184Y-115876238D01*
X169898184Y-115876238D02*
X169898184Y-117971476D01*
X173517232Y-117971476D02*
X173517232Y-113971476D01*
X173517232Y-117781000D02*
X173136280Y-117971476D01*
X173136280Y-117971476D02*
X172374375Y-117971476D01*
X172374375Y-117971476D02*
X171993423Y-117781000D01*
X171993423Y-117781000D02*
X171802946Y-117590523D01*
X171802946Y-117590523D02*
X171612470Y-117209571D01*
X171612470Y-117209571D02*
X171612470Y-116066714D01*
X171612470Y-116066714D02*
X171802946Y-115685761D01*
X171802946Y-115685761D02*
X171993423Y-115495285D01*
X171993423Y-115495285D02*
X172374375Y-115304809D01*
X172374375Y-115304809D02*
X173136280Y-115304809D01*
X173136280Y-115304809D02*
X173517232Y-115495285D01*
D13*
X189023809Y-96447200D02*
X189166666Y-96494819D01*
X189166666Y-96494819D02*
X189404761Y-96494819D01*
X189404761Y-96494819D02*
X189499999Y-96447200D01*
X189499999Y-96447200D02*
X189547618Y-96399580D01*
X189547618Y-96399580D02*
X189595237Y-96304342D01*
X189595237Y-96304342D02*
X189595237Y-96209104D01*
X189595237Y-96209104D02*
X189547618Y-96113866D01*
X189547618Y-96113866D02*
X189499999Y-96066247D01*
X189499999Y-96066247D02*
X189404761Y-96018628D01*
X189404761Y-96018628D02*
X189214285Y-95971009D01*
X189214285Y-95971009D02*
X189119047Y-95923390D01*
X189119047Y-95923390D02*
X189071428Y-95875771D01*
X189071428Y-95875771D02*
X189023809Y-95780533D01*
X189023809Y-95780533D02*
X189023809Y-95685295D01*
X189023809Y-95685295D02*
X189071428Y-95590057D01*
X189071428Y-95590057D02*
X189119047Y-95542438D01*
X189119047Y-95542438D02*
X189214285Y-95494819D01*
X189214285Y-95494819D02*
X189452380Y-95494819D01*
X189452380Y-95494819D02*
X189595237Y-95542438D01*
X189880952Y-95494819D02*
X190452380Y-95494819D01*
X190166666Y-96494819D02*
X190166666Y-95494819D01*
X190738095Y-96209104D02*
X191214285Y-96209104D01*
X190642857Y-96494819D02*
X190976190Y-95494819D01*
X190976190Y-95494819D02*
X191309523Y-96494819D01*
X191500000Y-95494819D02*
X192071428Y-95494819D01*
X191785714Y-96494819D02*
X191785714Y-95494819D01*
X192404762Y-95494819D02*
X192404762Y-96304342D01*
X192404762Y-96304342D02*
X192452381Y-96399580D01*
X192452381Y-96399580D02*
X192500000Y-96447200D01*
X192500000Y-96447200D02*
X192595238Y-96494819D01*
X192595238Y-96494819D02*
X192785714Y-96494819D01*
X192785714Y-96494819D02*
X192880952Y-96447200D01*
X192880952Y-96447200D02*
X192928571Y-96399580D01*
X192928571Y-96399580D02*
X192976190Y-96304342D01*
X192976190Y-96304342D02*
X192976190Y-95494819D01*
X193404762Y-96447200D02*
X193547619Y-96494819D01*
X193547619Y-96494819D02*
X193785714Y-96494819D01*
X193785714Y-96494819D02*
X193880952Y-96447200D01*
X193880952Y-96447200D02*
X193928571Y-96399580D01*
X193928571Y-96399580D02*
X193976190Y-96304342D01*
X193976190Y-96304342D02*
X193976190Y-96209104D01*
X193976190Y-96209104D02*
X193928571Y-96113866D01*
X193928571Y-96113866D02*
X193880952Y-96066247D01*
X193880952Y-96066247D02*
X193785714Y-96018628D01*
X193785714Y-96018628D02*
X193595238Y-95971009D01*
X193595238Y-95971009D02*
X193500000Y-95923390D01*
X193500000Y-95923390D02*
X193452381Y-95875771D01*
X193452381Y-95875771D02*
X193404762Y-95780533D01*
X193404762Y-95780533D02*
X193404762Y-95685295D01*
X193404762Y-95685295D02*
X193452381Y-95590057D01*
X193452381Y-95590057D02*
X193500000Y-95542438D01*
X193500000Y-95542438D02*
X193595238Y-95494819D01*
X193595238Y-95494819D02*
X193833333Y-95494819D01*
X193833333Y-95494819D02*
X193976190Y-95542438D01*
X172738095Y-144204819D02*
X172738095Y-143204819D01*
X172738095Y-143681009D02*
X173309523Y-143681009D01*
X173309523Y-144204819D02*
X173309523Y-143204819D01*
X173928571Y-143633390D02*
X173833333Y-143585771D01*
X173833333Y-143585771D02*
X173785714Y-143538152D01*
X173785714Y-143538152D02*
X173738095Y-143442914D01*
X173738095Y-143442914D02*
X173738095Y-143395295D01*
X173738095Y-143395295D02*
X173785714Y-143300057D01*
X173785714Y-143300057D02*
X173833333Y-143252438D01*
X173833333Y-143252438D02*
X173928571Y-143204819D01*
X173928571Y-143204819D02*
X174119047Y-143204819D01*
X174119047Y-143204819D02*
X174214285Y-143252438D01*
X174214285Y-143252438D02*
X174261904Y-143300057D01*
X174261904Y-143300057D02*
X174309523Y-143395295D01*
X174309523Y-143395295D02*
X174309523Y-143442914D01*
X174309523Y-143442914D02*
X174261904Y-143538152D01*
X174261904Y-143538152D02*
X174214285Y-143585771D01*
X174214285Y-143585771D02*
X174119047Y-143633390D01*
X174119047Y-143633390D02*
X173928571Y-143633390D01*
X173928571Y-143633390D02*
X173833333Y-143681009D01*
X173833333Y-143681009D02*
X173785714Y-143728628D01*
X173785714Y-143728628D02*
X173738095Y-143823866D01*
X173738095Y-143823866D02*
X173738095Y-144014342D01*
X173738095Y-144014342D02*
X173785714Y-144109580D01*
X173785714Y-144109580D02*
X173833333Y-144157200D01*
X173833333Y-144157200D02*
X173928571Y-144204819D01*
X173928571Y-144204819D02*
X174119047Y-144204819D01*
X174119047Y-144204819D02*
X174214285Y-144157200D01*
X174214285Y-144157200D02*
X174261904Y-144109580D01*
X174261904Y-144109580D02*
X174309523Y-144014342D01*
X174309523Y-144014342D02*
X174309523Y-143823866D01*
X174309523Y-143823866D02*
X174261904Y-143728628D01*
X174261904Y-143728628D02*
X174214285Y-143681009D01*
X174214285Y-143681009D02*
X174119047Y-143633390D01*
X200071428Y-120681009D02*
X200214285Y-120728628D01*
X200214285Y-120728628D02*
X200261904Y-120776247D01*
X200261904Y-120776247D02*
X200309523Y-120871485D01*
X200309523Y-120871485D02*
X200309523Y-121014342D01*
X200309523Y-121014342D02*
X200261904Y-121109580D01*
X200261904Y-121109580D02*
X200214285Y-121157200D01*
X200214285Y-121157200D02*
X200119047Y-121204819D01*
X200119047Y-121204819D02*
X199738095Y-121204819D01*
X199738095Y-121204819D02*
X199738095Y-120204819D01*
X199738095Y-120204819D02*
X200071428Y-120204819D01*
X200071428Y-120204819D02*
X200166666Y-120252438D01*
X200166666Y-120252438D02*
X200214285Y-120300057D01*
X200214285Y-120300057D02*
X200261904Y-120395295D01*
X200261904Y-120395295D02*
X200261904Y-120490533D01*
X200261904Y-120490533D02*
X200214285Y-120585771D01*
X200214285Y-120585771D02*
X200166666Y-120633390D01*
X200166666Y-120633390D02*
X200071428Y-120681009D01*
X200071428Y-120681009D02*
X199738095Y-120681009D01*
X187761905Y-128119104D02*
X188238095Y-128119104D01*
X187666667Y-128404819D02*
X188000000Y-127404819D01*
X188000000Y-127404819D02*
X188333333Y-128404819D01*
X96658095Y-108034819D02*
X96658095Y-107034819D01*
X96658095Y-107511009D02*
X97229523Y-107511009D01*
X97229523Y-108034819D02*
X97229523Y-107034819D01*
X98181904Y-107034819D02*
X97705714Y-107034819D01*
X97705714Y-107034819D02*
X97658095Y-107511009D01*
X97658095Y-107511009D02*
X97705714Y-107463390D01*
X97705714Y-107463390D02*
X97800952Y-107415771D01*
X97800952Y-107415771D02*
X98039047Y-107415771D01*
X98039047Y-107415771D02*
X98134285Y-107463390D01*
X98134285Y-107463390D02*
X98181904Y-107511009D01*
X98181904Y-107511009D02*
X98229523Y-107606247D01*
X98229523Y-107606247D02*
X98229523Y-107844342D01*
X98229523Y-107844342D02*
X98181904Y-107939580D01*
X98181904Y-107939580D02*
X98134285Y-107987200D01*
X98134285Y-107987200D02*
X98039047Y-108034819D01*
X98039047Y-108034819D02*
X97800952Y-108034819D01*
X97800952Y-108034819D02*
X97705714Y-107987200D01*
X97705714Y-107987200D02*
X97658095Y-107939580D01*
X186190476Y-135607200D02*
X186333333Y-135654819D01*
X186333333Y-135654819D02*
X186571428Y-135654819D01*
X186571428Y-135654819D02*
X186666666Y-135607200D01*
X186666666Y-135607200D02*
X186714285Y-135559580D01*
X186714285Y-135559580D02*
X186761904Y-135464342D01*
X186761904Y-135464342D02*
X186761904Y-135369104D01*
X186761904Y-135369104D02*
X186714285Y-135273866D01*
X186714285Y-135273866D02*
X186666666Y-135226247D01*
X186666666Y-135226247D02*
X186571428Y-135178628D01*
X186571428Y-135178628D02*
X186380952Y-135131009D01*
X186380952Y-135131009D02*
X186285714Y-135083390D01*
X186285714Y-135083390D02*
X186238095Y-135035771D01*
X186238095Y-135035771D02*
X186190476Y-134940533D01*
X186190476Y-134940533D02*
X186190476Y-134845295D01*
X186190476Y-134845295D02*
X186238095Y-134750057D01*
X186238095Y-134750057D02*
X186285714Y-134702438D01*
X186285714Y-134702438D02*
X186380952Y-134654819D01*
X186380952Y-134654819D02*
X186619047Y-134654819D01*
X186619047Y-134654819D02*
X186761904Y-134702438D01*
X187095238Y-134654819D02*
X187333333Y-135654819D01*
X187333333Y-135654819D02*
X187523809Y-134940533D01*
X187523809Y-134940533D02*
X187714285Y-135654819D01*
X187714285Y-135654819D02*
X187952381Y-134654819D01*
X188857142Y-135654819D02*
X188285714Y-135654819D01*
X188571428Y-135654819D02*
X188571428Y-134654819D01*
X188571428Y-134654819D02*
X188476190Y-134797676D01*
X188476190Y-134797676D02*
X188380952Y-134892914D01*
X188380952Y-134892914D02*
X188285714Y-134940533D01*
X189476190Y-134654819D02*
X189571428Y-134654819D01*
X189571428Y-134654819D02*
X189666666Y-134702438D01*
X189666666Y-134702438D02*
X189714285Y-134750057D01*
X189714285Y-134750057D02*
X189761904Y-134845295D01*
X189761904Y-134845295D02*
X189809523Y-135035771D01*
X189809523Y-135035771D02*
X189809523Y-135273866D01*
X189809523Y-135273866D02*
X189761904Y-135464342D01*
X189761904Y-135464342D02*
X189714285Y-135559580D01*
X189714285Y-135559580D02*
X189666666Y-135607200D01*
X189666666Y-135607200D02*
X189571428Y-135654819D01*
X189571428Y-135654819D02*
X189476190Y-135654819D01*
X189476190Y-135654819D02*
X189380952Y-135607200D01*
X189380952Y-135607200D02*
X189333333Y-135559580D01*
X189333333Y-135559580D02*
X189285714Y-135464342D01*
X189285714Y-135464342D02*
X189238095Y-135273866D01*
X189238095Y-135273866D02*
X189238095Y-135035771D01*
X189238095Y-135035771D02*
X189285714Y-134845295D01*
X189285714Y-134845295D02*
X189333333Y-134750057D01*
X189333333Y-134750057D02*
X189380952Y-134702438D01*
X189380952Y-134702438D02*
X189476190Y-134654819D01*
X186452380Y-144307200D02*
X186547618Y-144354819D01*
X186547618Y-144354819D02*
X186738094Y-144354819D01*
X186738094Y-144354819D02*
X186833332Y-144307200D01*
X186833332Y-144307200D02*
X186880951Y-144211961D01*
X186880951Y-144211961D02*
X186880951Y-144164342D01*
X186880951Y-144164342D02*
X186833332Y-144069104D01*
X186833332Y-144069104D02*
X186738094Y-144021485D01*
X186738094Y-144021485D02*
X186595237Y-144021485D01*
X186595237Y-144021485D02*
X186499999Y-143973866D01*
X186499999Y-143973866D02*
X186452380Y-143878628D01*
X186452380Y-143878628D02*
X186452380Y-143831009D01*
X186452380Y-143831009D02*
X186499999Y-143735771D01*
X186499999Y-143735771D02*
X186595237Y-143688152D01*
X186595237Y-143688152D02*
X186738094Y-143688152D01*
X186738094Y-143688152D02*
X186833332Y-143735771D01*
X187690475Y-144307200D02*
X187595237Y-144354819D01*
X187595237Y-144354819D02*
X187404761Y-144354819D01*
X187404761Y-144354819D02*
X187309523Y-144307200D01*
X187309523Y-144307200D02*
X187261904Y-144211961D01*
X187261904Y-144211961D02*
X187261904Y-143831009D01*
X187261904Y-143831009D02*
X187309523Y-143735771D01*
X187309523Y-143735771D02*
X187404761Y-143688152D01*
X187404761Y-143688152D02*
X187595237Y-143688152D01*
X187595237Y-143688152D02*
X187690475Y-143735771D01*
X187690475Y-143735771D02*
X187738094Y-143831009D01*
X187738094Y-143831009D02*
X187738094Y-143926247D01*
X187738094Y-143926247D02*
X187261904Y-144021485D01*
X188309523Y-144354819D02*
X188214285Y-144307200D01*
X188214285Y-144307200D02*
X188166666Y-144211961D01*
X188166666Y-144211961D02*
X188166666Y-143354819D01*
X189071428Y-144307200D02*
X188976190Y-144354819D01*
X188976190Y-144354819D02*
X188785714Y-144354819D01*
X188785714Y-144354819D02*
X188690476Y-144307200D01*
X188690476Y-144307200D02*
X188642857Y-144211961D01*
X188642857Y-144211961D02*
X188642857Y-143831009D01*
X188642857Y-143831009D02*
X188690476Y-143735771D01*
X188690476Y-143735771D02*
X188785714Y-143688152D01*
X188785714Y-143688152D02*
X188976190Y-143688152D01*
X188976190Y-143688152D02*
X189071428Y-143735771D01*
X189071428Y-143735771D02*
X189119047Y-143831009D01*
X189119047Y-143831009D02*
X189119047Y-143926247D01*
X189119047Y-143926247D02*
X188642857Y-144021485D01*
X189976190Y-144307200D02*
X189880952Y-144354819D01*
X189880952Y-144354819D02*
X189690476Y-144354819D01*
X189690476Y-144354819D02*
X189595238Y-144307200D01*
X189595238Y-144307200D02*
X189547619Y-144259580D01*
X189547619Y-144259580D02*
X189500000Y-144164342D01*
X189500000Y-144164342D02*
X189500000Y-143878628D01*
X189500000Y-143878628D02*
X189547619Y-143783390D01*
X189547619Y-143783390D02*
X189595238Y-143735771D01*
X189595238Y-143735771D02*
X189690476Y-143688152D01*
X189690476Y-143688152D02*
X189880952Y-143688152D01*
X189880952Y-143688152D02*
X189976190Y-143735771D01*
X190261905Y-143688152D02*
X190642857Y-143688152D01*
X190404762Y-143354819D02*
X190404762Y-144211961D01*
X190404762Y-144211961D02*
X190452381Y-144307200D01*
X190452381Y-144307200D02*
X190547619Y-144354819D01*
X190547619Y-144354819D02*
X190642857Y-144354819D01*
X59238095Y-149804819D02*
X59238095Y-148804819D01*
X59238095Y-149281009D02*
X59809523Y-149281009D01*
X59809523Y-149804819D02*
X59809523Y-148804819D01*
X60238095Y-148900057D02*
X60285714Y-148852438D01*
X60285714Y-148852438D02*
X60380952Y-148804819D01*
X60380952Y-148804819D02*
X60619047Y-148804819D01*
X60619047Y-148804819D02*
X60714285Y-148852438D01*
X60714285Y-148852438D02*
X60761904Y-148900057D01*
X60761904Y-148900057D02*
X60809523Y-148995295D01*
X60809523Y-148995295D02*
X60809523Y-149090533D01*
X60809523Y-149090533D02*
X60761904Y-149233390D01*
X60761904Y-149233390D02*
X60190476Y-149804819D01*
X60190476Y-149804819D02*
X60809523Y-149804819D01*
X174166666Y-118374819D02*
X174166666Y-119089104D01*
X174166666Y-119089104D02*
X174119047Y-119231961D01*
X174119047Y-119231961D02*
X174023809Y-119327200D01*
X174023809Y-119327200D02*
X173880952Y-119374819D01*
X173880952Y-119374819D02*
X173785714Y-119374819D01*
X174547619Y-118374819D02*
X175166666Y-118374819D01*
X175166666Y-118374819D02*
X174833333Y-118755771D01*
X174833333Y-118755771D02*
X174976190Y-118755771D01*
X174976190Y-118755771D02*
X175071428Y-118803390D01*
X175071428Y-118803390D02*
X175119047Y-118851009D01*
X175119047Y-118851009D02*
X175166666Y-118946247D01*
X175166666Y-118946247D02*
X175166666Y-119184342D01*
X175166666Y-119184342D02*
X175119047Y-119279580D01*
X175119047Y-119279580D02*
X175071428Y-119327200D01*
X175071428Y-119327200D02*
X174976190Y-119374819D01*
X174976190Y-119374819D02*
X174690476Y-119374819D01*
X174690476Y-119374819D02*
X174595238Y-119327200D01*
X174595238Y-119327200D02*
X174547619Y-119279580D01*
X82000000Y-132654819D02*
X82000000Y-131988152D01*
X82000000Y-132178628D02*
X82047619Y-132083390D01*
X82047619Y-132083390D02*
X82095238Y-132035771D01*
X82095238Y-132035771D02*
X82190476Y-131988152D01*
X82190476Y-131988152D02*
X82285714Y-131988152D01*
X82619048Y-132654819D02*
X82619048Y-131988152D01*
X82619048Y-131654819D02*
X82571429Y-131702438D01*
X82571429Y-131702438D02*
X82619048Y-131750057D01*
X82619048Y-131750057D02*
X82666667Y-131702438D01*
X82666667Y-131702438D02*
X82619048Y-131654819D01*
X82619048Y-131654819D02*
X82619048Y-131750057D01*
X83523809Y-131988152D02*
X83523809Y-132797676D01*
X83523809Y-132797676D02*
X83476190Y-132892914D01*
X83476190Y-132892914D02*
X83428571Y-132940533D01*
X83428571Y-132940533D02*
X83333333Y-132988152D01*
X83333333Y-132988152D02*
X83190476Y-132988152D01*
X83190476Y-132988152D02*
X83095238Y-132940533D01*
X83523809Y-132607200D02*
X83428571Y-132654819D01*
X83428571Y-132654819D02*
X83238095Y-132654819D01*
X83238095Y-132654819D02*
X83142857Y-132607200D01*
X83142857Y-132607200D02*
X83095238Y-132559580D01*
X83095238Y-132559580D02*
X83047619Y-132464342D01*
X83047619Y-132464342D02*
X83047619Y-132178628D01*
X83047619Y-132178628D02*
X83095238Y-132083390D01*
X83095238Y-132083390D02*
X83142857Y-132035771D01*
X83142857Y-132035771D02*
X83238095Y-131988152D01*
X83238095Y-131988152D02*
X83428571Y-131988152D01*
X83428571Y-131988152D02*
X83523809Y-132035771D01*
X84000000Y-132654819D02*
X84000000Y-131654819D01*
X84428571Y-132654819D02*
X84428571Y-132131009D01*
X84428571Y-132131009D02*
X84380952Y-132035771D01*
X84380952Y-132035771D02*
X84285714Y-131988152D01*
X84285714Y-131988152D02*
X84142857Y-131988152D01*
X84142857Y-131988152D02*
X84047619Y-132035771D01*
X84047619Y-132035771D02*
X84000000Y-132083390D01*
X84761905Y-131988152D02*
X85142857Y-131988152D01*
X84904762Y-131654819D02*
X84904762Y-132511961D01*
X84904762Y-132511961D02*
X84952381Y-132607200D01*
X84952381Y-132607200D02*
X85047619Y-132654819D01*
X85047619Y-132654819D02*
X85142857Y-132654819D01*
X205988095Y-150554819D02*
X205988095Y-149554819D01*
X205988095Y-150031009D02*
X206559523Y-150031009D01*
X206559523Y-150554819D02*
X206559523Y-149554819D01*
X207464285Y-149888152D02*
X207464285Y-150554819D01*
X207226190Y-149507200D02*
X206988095Y-150221485D01*
X206988095Y-150221485D02*
X207607142Y-150221485D01*
X60619047Y-132654819D02*
X60523809Y-132607200D01*
X60523809Y-132607200D02*
X60476190Y-132511961D01*
X60476190Y-132511961D02*
X60476190Y-131654819D01*
X61380952Y-132607200D02*
X61285714Y-132654819D01*
X61285714Y-132654819D02*
X61095238Y-132654819D01*
X61095238Y-132654819D02*
X61000000Y-132607200D01*
X61000000Y-132607200D02*
X60952381Y-132511961D01*
X60952381Y-132511961D02*
X60952381Y-132131009D01*
X60952381Y-132131009D02*
X61000000Y-132035771D01*
X61000000Y-132035771D02*
X61095238Y-131988152D01*
X61095238Y-131988152D02*
X61285714Y-131988152D01*
X61285714Y-131988152D02*
X61380952Y-132035771D01*
X61380952Y-132035771D02*
X61428571Y-132131009D01*
X61428571Y-132131009D02*
X61428571Y-132226247D01*
X61428571Y-132226247D02*
X60952381Y-132321485D01*
X61714286Y-131988152D02*
X62095238Y-131988152D01*
X61857143Y-132654819D02*
X61857143Y-131797676D01*
X61857143Y-131797676D02*
X61904762Y-131702438D01*
X61904762Y-131702438D02*
X62000000Y-131654819D01*
X62000000Y-131654819D02*
X62095238Y-131654819D01*
X62285715Y-131988152D02*
X62666667Y-131988152D01*
X62428572Y-131654819D02*
X62428572Y-132511961D01*
X62428572Y-132511961D02*
X62476191Y-132607200D01*
X62476191Y-132607200D02*
X62571429Y-132654819D01*
X62571429Y-132654819D02*
X62666667Y-132654819D01*
X172738095Y-108034819D02*
X172738095Y-107034819D01*
X172738095Y-107511009D02*
X173309523Y-107511009D01*
X173309523Y-108034819D02*
X173309523Y-107034819D01*
X173690476Y-107034819D02*
X174357142Y-107034819D01*
X174357142Y-107034819D02*
X173928571Y-108034819D01*
X71285714Y-143954819D02*
X71285714Y-142954819D01*
X71285714Y-143907200D02*
X71190476Y-143954819D01*
X71190476Y-143954819D02*
X71000000Y-143954819D01*
X71000000Y-143954819D02*
X70904762Y-143907200D01*
X70904762Y-143907200D02*
X70857143Y-143859580D01*
X70857143Y-143859580D02*
X70809524Y-143764342D01*
X70809524Y-143764342D02*
X70809524Y-143478628D01*
X70809524Y-143478628D02*
X70857143Y-143383390D01*
X70857143Y-143383390D02*
X70904762Y-143335771D01*
X70904762Y-143335771D02*
X71000000Y-143288152D01*
X71000000Y-143288152D02*
X71190476Y-143288152D01*
X71190476Y-143288152D02*
X71285714Y-143335771D01*
X71904762Y-143954819D02*
X71809524Y-143907200D01*
X71809524Y-143907200D02*
X71761905Y-143859580D01*
X71761905Y-143859580D02*
X71714286Y-143764342D01*
X71714286Y-143764342D02*
X71714286Y-143478628D01*
X71714286Y-143478628D02*
X71761905Y-143383390D01*
X71761905Y-143383390D02*
X71809524Y-143335771D01*
X71809524Y-143335771D02*
X71904762Y-143288152D01*
X71904762Y-143288152D02*
X72047619Y-143288152D01*
X72047619Y-143288152D02*
X72142857Y-143335771D01*
X72142857Y-143335771D02*
X72190476Y-143383390D01*
X72190476Y-143383390D02*
X72238095Y-143478628D01*
X72238095Y-143478628D02*
X72238095Y-143764342D01*
X72238095Y-143764342D02*
X72190476Y-143859580D01*
X72190476Y-143859580D02*
X72142857Y-143907200D01*
X72142857Y-143907200D02*
X72047619Y-143954819D01*
X72047619Y-143954819D02*
X71904762Y-143954819D01*
X72571429Y-143288152D02*
X72761905Y-143954819D01*
X72761905Y-143954819D02*
X72952381Y-143478628D01*
X72952381Y-143478628D02*
X73142857Y-143954819D01*
X73142857Y-143954819D02*
X73333333Y-143288152D01*
X73714286Y-143288152D02*
X73714286Y-143954819D01*
X73714286Y-143383390D02*
X73761905Y-143335771D01*
X73761905Y-143335771D02*
X73857143Y-143288152D01*
X73857143Y-143288152D02*
X74000000Y-143288152D01*
X74000000Y-143288152D02*
X74095238Y-143335771D01*
X74095238Y-143335771D02*
X74142857Y-143431009D01*
X74142857Y-143431009D02*
X74142857Y-143954819D01*
X205988095Y-92804819D02*
X205988095Y-91804819D01*
X205988095Y-92281009D02*
X206559523Y-92281009D01*
X206559523Y-92804819D02*
X206559523Y-91804819D01*
X206940476Y-91804819D02*
X207559523Y-91804819D01*
X207559523Y-91804819D02*
X207226190Y-92185771D01*
X207226190Y-92185771D02*
X207369047Y-92185771D01*
X207369047Y-92185771D02*
X207464285Y-92233390D01*
X207464285Y-92233390D02*
X207511904Y-92281009D01*
X207511904Y-92281009D02*
X207559523Y-92376247D01*
X207559523Y-92376247D02*
X207559523Y-92614342D01*
X207559523Y-92614342D02*
X207511904Y-92709580D01*
X207511904Y-92709580D02*
X207464285Y-92757200D01*
X207464285Y-92757200D02*
X207369047Y-92804819D01*
X207369047Y-92804819D02*
X207083333Y-92804819D01*
X207083333Y-92804819D02*
X206988095Y-92757200D01*
X206988095Y-92757200D02*
X206940476Y-92709580D01*
X96658095Y-144204819D02*
X96658095Y-143204819D01*
X96658095Y-143681009D02*
X97229523Y-143681009D01*
X97229523Y-144204819D02*
X97229523Y-143204819D01*
X98134285Y-143204819D02*
X97943809Y-143204819D01*
X97943809Y-143204819D02*
X97848571Y-143252438D01*
X97848571Y-143252438D02*
X97800952Y-143300057D01*
X97800952Y-143300057D02*
X97705714Y-143442914D01*
X97705714Y-143442914D02*
X97658095Y-143633390D01*
X97658095Y-143633390D02*
X97658095Y-144014342D01*
X97658095Y-144014342D02*
X97705714Y-144109580D01*
X97705714Y-144109580D02*
X97753333Y-144157200D01*
X97753333Y-144157200D02*
X97848571Y-144204819D01*
X97848571Y-144204819D02*
X98039047Y-144204819D01*
X98039047Y-144204819D02*
X98134285Y-144157200D01*
X98134285Y-144157200D02*
X98181904Y-144109580D01*
X98181904Y-144109580D02*
X98229523Y-144014342D01*
X98229523Y-144014342D02*
X98229523Y-143776247D01*
X98229523Y-143776247D02*
X98181904Y-143681009D01*
X98181904Y-143681009D02*
X98134285Y-143633390D01*
X98134285Y-143633390D02*
X98039047Y-143585771D01*
X98039047Y-143585771D02*
X97848571Y-143585771D01*
X97848571Y-143585771D02*
X97753333Y-143633390D01*
X97753333Y-143633390D02*
X97705714Y-143681009D01*
X97705714Y-143681009D02*
X97658095Y-143776247D01*
X91954819Y-106553333D02*
X92669104Y-106553333D01*
X92669104Y-106553333D02*
X92811961Y-106600952D01*
X92811961Y-106600952D02*
X92907200Y-106696190D01*
X92907200Y-106696190D02*
X92954819Y-106839047D01*
X92954819Y-106839047D02*
X92954819Y-106934285D01*
X92050057Y-106124761D02*
X92002438Y-106077142D01*
X92002438Y-106077142D02*
X91954819Y-105981904D01*
X91954819Y-105981904D02*
X91954819Y-105743809D01*
X91954819Y-105743809D02*
X92002438Y-105648571D01*
X92002438Y-105648571D02*
X92050057Y-105600952D01*
X92050057Y-105600952D02*
X92145295Y-105553333D01*
X92145295Y-105553333D02*
X92240533Y-105553333D01*
X92240533Y-105553333D02*
X92383390Y-105600952D01*
X92383390Y-105600952D02*
X92954819Y-106172380D01*
X92954819Y-106172380D02*
X92954819Y-105553333D01*
X71166667Y-112407200D02*
X71309524Y-112454819D01*
X71309524Y-112454819D02*
X71547619Y-112454819D01*
X71547619Y-112454819D02*
X71642857Y-112407200D01*
X71642857Y-112407200D02*
X71690476Y-112359580D01*
X71690476Y-112359580D02*
X71738095Y-112264342D01*
X71738095Y-112264342D02*
X71738095Y-112169104D01*
X71738095Y-112169104D02*
X71690476Y-112073866D01*
X71690476Y-112073866D02*
X71642857Y-112026247D01*
X71642857Y-112026247D02*
X71547619Y-111978628D01*
X71547619Y-111978628D02*
X71357143Y-111931009D01*
X71357143Y-111931009D02*
X71261905Y-111883390D01*
X71261905Y-111883390D02*
X71214286Y-111835771D01*
X71214286Y-111835771D02*
X71166667Y-111740533D01*
X71166667Y-111740533D02*
X71166667Y-111645295D01*
X71166667Y-111645295D02*
X71214286Y-111550057D01*
X71214286Y-111550057D02*
X71261905Y-111502438D01*
X71261905Y-111502438D02*
X71357143Y-111454819D01*
X71357143Y-111454819D02*
X71595238Y-111454819D01*
X71595238Y-111454819D02*
X71738095Y-111502438D01*
X72071429Y-111454819D02*
X72309524Y-112454819D01*
X72309524Y-112454819D02*
X72500000Y-111740533D01*
X72500000Y-111740533D02*
X72690476Y-112454819D01*
X72690476Y-112454819D02*
X72928572Y-111454819D01*
X73261905Y-111550057D02*
X73309524Y-111502438D01*
X73309524Y-111502438D02*
X73404762Y-111454819D01*
X73404762Y-111454819D02*
X73642857Y-111454819D01*
X73642857Y-111454819D02*
X73738095Y-111502438D01*
X73738095Y-111502438D02*
X73785714Y-111550057D01*
X73785714Y-111550057D02*
X73833333Y-111645295D01*
X73833333Y-111645295D02*
X73833333Y-111740533D01*
X73833333Y-111740533D02*
X73785714Y-111883390D01*
X73785714Y-111883390D02*
X73214286Y-112454819D01*
X73214286Y-112454819D02*
X73833333Y-112454819D01*
X72261904Y-120988152D02*
X72261904Y-121654819D01*
X71833333Y-120988152D02*
X71833333Y-121511961D01*
X71833333Y-121511961D02*
X71880952Y-121607200D01*
X71880952Y-121607200D02*
X71976190Y-121654819D01*
X71976190Y-121654819D02*
X72119047Y-121654819D01*
X72119047Y-121654819D02*
X72214285Y-121607200D01*
X72214285Y-121607200D02*
X72261904Y-121559580D01*
X72738095Y-120988152D02*
X72738095Y-121988152D01*
X72738095Y-121035771D02*
X72833333Y-120988152D01*
X72833333Y-120988152D02*
X73023809Y-120988152D01*
X73023809Y-120988152D02*
X73119047Y-121035771D01*
X73119047Y-121035771D02*
X73166666Y-121083390D01*
X73166666Y-121083390D02*
X73214285Y-121178628D01*
X73214285Y-121178628D02*
X73214285Y-121464342D01*
X73214285Y-121464342D02*
X73166666Y-121559580D01*
X73166666Y-121559580D02*
X73119047Y-121607200D01*
X73119047Y-121607200D02*
X73023809Y-121654819D01*
X73023809Y-121654819D02*
X72833333Y-121654819D01*
X72833333Y-121654819D02*
X72738095Y-121607200D01*
X198023809Y-139907200D02*
X198166666Y-139954819D01*
X198166666Y-139954819D02*
X198404761Y-139954819D01*
X198404761Y-139954819D02*
X198499999Y-139907200D01*
X198499999Y-139907200D02*
X198547618Y-139859580D01*
X198547618Y-139859580D02*
X198595237Y-139764342D01*
X198595237Y-139764342D02*
X198595237Y-139669104D01*
X198595237Y-139669104D02*
X198547618Y-139573866D01*
X198547618Y-139573866D02*
X198499999Y-139526247D01*
X198499999Y-139526247D02*
X198404761Y-139478628D01*
X198404761Y-139478628D02*
X198214285Y-139431009D01*
X198214285Y-139431009D02*
X198119047Y-139383390D01*
X198119047Y-139383390D02*
X198071428Y-139335771D01*
X198071428Y-139335771D02*
X198023809Y-139240533D01*
X198023809Y-139240533D02*
X198023809Y-139145295D01*
X198023809Y-139145295D02*
X198071428Y-139050057D01*
X198071428Y-139050057D02*
X198119047Y-139002438D01*
X198119047Y-139002438D02*
X198214285Y-138954819D01*
X198214285Y-138954819D02*
X198452380Y-138954819D01*
X198452380Y-138954819D02*
X198595237Y-139002438D01*
X198880952Y-138954819D02*
X199452380Y-138954819D01*
X199166666Y-139954819D02*
X199166666Y-138954819D01*
X199738095Y-139669104D02*
X200214285Y-139669104D01*
X199642857Y-139954819D02*
X199976190Y-138954819D01*
X199976190Y-138954819D02*
X200309523Y-139954819D01*
X201214285Y-139954819D02*
X200880952Y-139478628D01*
X200642857Y-139954819D02*
X200642857Y-138954819D01*
X200642857Y-138954819D02*
X201023809Y-138954819D01*
X201023809Y-138954819D02*
X201119047Y-139002438D01*
X201119047Y-139002438D02*
X201166666Y-139050057D01*
X201166666Y-139050057D02*
X201214285Y-139145295D01*
X201214285Y-139145295D02*
X201214285Y-139288152D01*
X201214285Y-139288152D02*
X201166666Y-139383390D01*
X201166666Y-139383390D02*
X201119047Y-139431009D01*
X201119047Y-139431009D02*
X201023809Y-139478628D01*
X201023809Y-139478628D02*
X200642857Y-139478628D01*
X201500000Y-138954819D02*
X202071428Y-138954819D01*
X201785714Y-139954819D02*
X201785714Y-138954819D01*
X58488095Y-92554819D02*
X58488095Y-91554819D01*
X58488095Y-92031009D02*
X59059523Y-92031009D01*
X59059523Y-92554819D02*
X59059523Y-91554819D01*
X60059523Y-92554819D02*
X59488095Y-92554819D01*
X59773809Y-92554819D02*
X59773809Y-91554819D01*
X59773809Y-91554819D02*
X59678571Y-91697676D01*
X59678571Y-91697676D02*
X59583333Y-91792914D01*
X59583333Y-91792914D02*
X59488095Y-91840533D01*
%TO.C,D2*%
D14*
X193060000Y-100236000D02*
X193060000Y-100080000D01*
X193060000Y-97920000D02*
X193060000Y-97764000D01*
X193060000Y-100235516D02*
G75*
G02*
X189828563Y-100080000I-1560000J1235516D01*
G01*
X192540961Y-100080000D02*
G75*
G02*
X190459039Y-100080000I-1040961J1080000D01*
G01*
X190459039Y-97920000D02*
G75*
G02*
X192540961Y-97920000I1040961J-1080000D01*
G01*
X189828563Y-97920000D02*
G75*
G02*
X193060000Y-97764484I1671437J-1080000D01*
G01*
%TO.C,SW7*%
X196500000Y-115550000D02*
X196500000Y-117050000D01*
X197750000Y-119550000D02*
X202250000Y-119550000D01*
X202250000Y-113050000D02*
X197750000Y-113050000D01*
X203500000Y-117050000D02*
X203500000Y-115550000D01*
%TO.C,SW6*%
X184500000Y-122750000D02*
X184500000Y-124250000D01*
X185750000Y-126750000D02*
X190250000Y-126750000D01*
X190250000Y-120250000D02*
X185750000Y-120250000D01*
X191500000Y-124250000D02*
X191500000Y-122750000D01*
%TO.C,SW10*%
X184500000Y-138700000D02*
X184500000Y-140200000D01*
X185750000Y-142700000D02*
X190250000Y-142700000D01*
X190250000Y-136200000D02*
X185750000Y-136200000D01*
X191500000Y-140200000D02*
X191500000Y-138700000D01*
%TO.C,J3*%
X172170000Y-122960000D02*
X172170000Y-130640000D01*
X172170000Y-122960000D02*
X174830000Y-122960000D01*
X172170000Y-130640000D02*
X174830000Y-130640000D01*
X173500000Y-120360000D02*
X174830000Y-120360000D01*
X174830000Y-120360000D02*
X174830000Y-121690000D01*
X174830000Y-122960000D02*
X174830000Y-130640000D01*
%TO.C,SW5*%
X80000000Y-127000000D02*
X80000000Y-128500000D01*
X81250000Y-131000000D02*
X85750000Y-131000000D01*
X85750000Y-124500000D02*
X81250000Y-124500000D01*
X87000000Y-128500000D02*
X87000000Y-127000000D01*
%TO.C,SW12*%
D15*
X67950000Y-103400000D02*
X67950000Y-94600000D01*
X68540000Y-94600000D02*
X67950000Y-94600000D01*
X68540000Y-103400000D02*
X67950000Y-103400000D01*
X68980000Y-96460000D02*
X69370000Y-96460000D01*
X68980000Y-101540000D02*
X68980000Y-96460000D01*
X69220000Y-98980000D02*
X68980000Y-98980000D01*
X69230000Y-96880000D02*
X68980000Y-96880000D01*
X69260000Y-97280000D02*
X68980000Y-97280000D01*
X69370000Y-101540000D02*
X68980000Y-101540000D01*
X69470000Y-98330000D02*
X68980000Y-98330000D01*
X69680000Y-97860000D02*
X68980000Y-97860000D01*
X71130000Y-96460000D02*
X71520000Y-96460000D01*
X71520000Y-96460000D02*
X71520000Y-101540000D01*
X71520000Y-96880000D02*
X71270000Y-96880000D01*
X71520000Y-97280000D02*
X71240000Y-97280000D01*
X71520000Y-97860000D02*
X70820000Y-97860000D01*
X71520000Y-98330000D02*
X71030000Y-98330000D01*
X71520000Y-98980000D02*
X71280000Y-98980000D01*
X71520000Y-101540000D02*
X71130000Y-101540000D01*
X72550000Y-94600000D02*
X71960000Y-94600000D01*
X72550000Y-103400000D02*
X71960000Y-103400000D01*
X72550000Y-103400000D02*
X72550000Y-94600000D01*
D16*
X68080000Y-94650000D02*
G75*
G02*
X68020000Y-94650000I-30000J0D01*
G01*
X68020000Y-94650000D02*
G75*
G02*
X68080000Y-94650000I30000J0D01*
G01*
%TO.C,SW4*%
D14*
X58000000Y-127000000D02*
X58000000Y-128500000D01*
X59250000Y-131000000D02*
X63750000Y-131000000D01*
X63750000Y-124500000D02*
X59250000Y-124500000D01*
X65000000Y-128500000D02*
X65000000Y-127000000D01*
%TO.C,SW3*%
X69000000Y-138000000D02*
X69000000Y-139500000D01*
X70250000Y-142000000D02*
X74750000Y-142000000D01*
X74750000Y-135500000D02*
X70250000Y-135500000D01*
X76000000Y-139500000D02*
X76000000Y-138000000D01*
%TO.C,J2*%
X91170000Y-110260000D02*
X91170000Y-143340000D01*
X91170000Y-110260000D02*
X93830000Y-110260000D01*
X91170000Y-143340000D02*
X93830000Y-143340000D01*
X92500000Y-107660000D02*
X93830000Y-107660000D01*
X93830000Y-107660000D02*
X93830000Y-108990000D01*
X93830000Y-110260000D02*
X93830000Y-143340000D01*
%TO.C,SW2*%
X69000000Y-116000000D02*
X69000000Y-117500000D01*
X70250000Y-120000000D02*
X74750000Y-120000000D01*
X74750000Y-113500000D02*
X70250000Y-113500000D01*
X76000000Y-117500000D02*
X76000000Y-116000000D01*
%TO.C,START*%
X196500000Y-133750000D02*
X196500000Y-135250000D01*
X197750000Y-137750000D02*
X202250000Y-137750000D01*
X202250000Y-131250000D02*
X197750000Y-131250000D01*
X203500000Y-135250000D02*
X203500000Y-133750000D01*
%TD*%
%LPC*%
D17*
%TO.C,USB1*%
X104255000Y-97360000D03*
X112895000Y-97360000D03*
D18*
X104255000Y-93180000D03*
X112895000Y-93180000D03*
D19*
X105685000Y-96860000D03*
X111465000Y-96860000D03*
%TD*%
D20*
%TO.C,D2*%
X192770000Y-99000000D03*
D21*
X190230000Y-99000000D03*
%TD*%
D22*
%TO.C,H8*%
X173500000Y-147500000D03*
%TD*%
D23*
%TO.C,SW7*%
X196750000Y-114050000D03*
X203250000Y-114050000D03*
X196750000Y-118550000D03*
X203250000Y-118550000D03*
%TD*%
%TO.C,SW6*%
X184750000Y-121250000D03*
X191250000Y-121250000D03*
X184750000Y-125750000D03*
X191250000Y-125750000D03*
%TD*%
D22*
%TO.C,H5*%
X97420000Y-103500000D03*
%TD*%
D23*
%TO.C,SW10*%
X184750000Y-137200000D03*
X191250000Y-137200000D03*
X184750000Y-141700000D03*
X191250000Y-141700000D03*
%TD*%
D24*
%TO.C,H2*%
X60000000Y-153500000D03*
%TD*%
D25*
%TO.C,J3*%
X173500000Y-121690000D03*
D26*
X173500000Y-124230000D03*
X173500000Y-126770000D03*
X173500000Y-129310000D03*
%TD*%
D23*
%TO.C,SW5*%
X80250000Y-125500000D03*
X86750000Y-125500000D03*
X80250000Y-130000000D03*
X86750000Y-130000000D03*
%TD*%
D27*
%TO.C,SW12*%
X70250000Y-97000000D03*
X70250000Y-99000000D03*
X70250000Y-101000000D03*
D28*
X70250000Y-103150000D03*
X70250000Y-94850000D03*
%TD*%
D24*
%TO.C,H4*%
X206750000Y-154250000D03*
%TD*%
D23*
%TO.C,SW4*%
X58250000Y-125500000D03*
X64750000Y-125500000D03*
X58250000Y-130000000D03*
X64750000Y-130000000D03*
%TD*%
D22*
%TO.C,H7*%
X173500000Y-103500000D03*
%TD*%
D23*
%TO.C,SW3*%
X69250000Y-136500000D03*
X75750000Y-136500000D03*
X69250000Y-141000000D03*
X75750000Y-141000000D03*
%TD*%
D24*
%TO.C,H3*%
X206750000Y-96500000D03*
%TD*%
D22*
%TO.C,H6*%
X97420000Y-147500000D03*
%TD*%
D25*
%TO.C,J2*%
X92500000Y-108990000D03*
D26*
X92500000Y-111530000D03*
X92500000Y-114070000D03*
X92500000Y-116610000D03*
X92500000Y-119150000D03*
X92500000Y-121690000D03*
X92500000Y-124230000D03*
X92500000Y-126770000D03*
X92500000Y-129310000D03*
X92500000Y-131850000D03*
X92500000Y-134390000D03*
X92500000Y-136930000D03*
X92500000Y-139470000D03*
X92500000Y-142010000D03*
%TD*%
D23*
%TO.C,SW2*%
X69250000Y-114500000D03*
X75750000Y-114500000D03*
X69250000Y-119000000D03*
X75750000Y-119000000D03*
%TD*%
%TO.C,START*%
X196750000Y-132250000D03*
X203250000Y-132250000D03*
X196750000Y-136750000D03*
X203250000Y-136750000D03*
%TD*%
D24*
%TO.C,H1*%
X59250000Y-96250000D03*
%TD*%
D23*
%TO.C,SW1*%
X163410570Y-99430663D03*
X169910570Y-99430663D03*
X163410570Y-94930663D03*
X169910570Y-94930663D03*
%TD*%
%TO.C,SW8*%
X143250000Y-113750000D03*
X136750000Y-113750000D03*
X143250000Y-118250000D03*
X136750000Y-118250000D03*
%TD*%
D25*
%TO.C,J1*%
X78500000Y-93420000D03*
D26*
X78500000Y-95960000D03*
X78500000Y-98500000D03*
X78500000Y-101040000D03*
X78500000Y-103580000D03*
X78500000Y-106120000D03*
X78500000Y-108660000D03*
%TD*%
%LPD*%
M02*
