%TF.GenerationSoftware,KiCad,Pcbnew,10.0.3*%
%TF.CreationDate,2026-08-16T18:23:47+08:00*%
%TF.ProjectId,gamegirl,67616d65-6769-4726-9c2e-6b696361645f,rev?*%
%TF.SameCoordinates,Original*%
%TF.FileFunction,Paste,Bot*%
%TF.FilePolarity,Positive*%
%FSLAX46Y46*%
G04 Gerber Fmt 4.6, Leading zero omitted, Abs format (unit mm)*
G04 Created by KiCad (PCBNEW 10.0.3) date 2026-08-16 18:23:47*
%MOMM*%
%LPD*%
G01*
G04 APERTURE LIST*
G04 Aperture macros list*
%AMRoundRect*
0 Rectangle with rounded corners*
0 $1 Rounding radius*
0 $2 $3 $4 $5 $6 $7 $8 $9 X,Y pos of 4 corners*
0 Add a 4 corners polygon primitive as box body*
4,1,4,$2,$3,$4,$5,$6,$7,$8,$9,$2,$3,0*
0 Add four circle primitives for the rounded corners*
1,1,$1+$1,$2,$3*
1,1,$1+$1,$4,$5*
1,1,$1+$1,$6,$7*
1,1,$1+$1,$8,$9*
0 Add four rect primitives between the rounded corners*
20,1,$1+$1,$2,$3,$4,$5,0*
20,1,$1+$1,$4,$5,$6,$7,0*
20,1,$1+$1,$6,$7,$8,$9,0*
20,1,$1+$1,$8,$9,$2,$3,0*%
G04 Aperture macros list end*
%ADD10RoundRect,0.250000X0.262500X0.450000X-0.262500X0.450000X-0.262500X-0.450000X0.262500X-0.450000X0*%
%ADD11RoundRect,0.250000X0.475000X-0.250000X0.475000X0.250000X-0.475000X0.250000X-0.475000X-0.250000X0*%
%ADD12RoundRect,0.250000X0.450000X-0.262500X0.450000X0.262500X-0.450000X0.262500X-0.450000X-0.262500X0*%
%ADD13RoundRect,0.250000X0.250000X0.475000X-0.250000X0.475000X-0.250000X-0.475000X0.250000X-0.475000X0*%
%ADD14RoundRect,0.150000X-0.512500X-0.150000X0.512500X-0.150000X0.512500X0.150000X-0.512500X0.150000X0*%
%ADD15RoundRect,0.250000X-0.450000X0.262500X-0.450000X-0.262500X0.450000X-0.262500X0.450000X0.262500X0*%
%ADD16O,1.865000X0.630000*%
%ADD17RoundRect,0.250000X-0.475000X0.250000X-0.475000X-0.250000X0.475000X-0.250000X0.475000X0.250000X0*%
%ADD18R,1.500000X0.900000*%
%ADD19R,0.900000X1.500000*%
%ADD20R,1.050000X1.050000*%
%ADD21R,0.600000X1.150000*%
%ADD22R,0.300000X1.150000*%
%ADD23RoundRect,0.218750X-0.218750X-0.256250X0.218750X-0.256250X0.218750X0.256250X-0.218750X0.256250X0*%
%ADD24RoundRect,0.250000X-0.250000X-0.475000X0.250000X-0.475000X0.250000X0.475000X-0.250000X0.475000X0*%
%ADD25RoundRect,0.250000X-0.262500X-0.450000X0.262500X-0.450000X0.262500X0.450000X-0.262500X0.450000X0*%
G04 APERTURE END LIST*
D10*
%TO.C,R10*%
X87412500Y-122500000D03*
X85587500Y-122500000D03*
%TD*%
%TO.C,R13*%
X124073070Y-110430663D03*
X122248070Y-110430663D03*
%TD*%
D11*
%TO.C,C5*%
X84750000Y-115200000D03*
X84750000Y-113300000D03*
%TD*%
D12*
%TO.C,R1*%
X106910570Y-105680663D03*
X106910570Y-103855663D03*
%TD*%
D13*
%TO.C,C4*%
X152200000Y-93250000D03*
X150300000Y-93250000D03*
%TD*%
D14*
%TO.C,U2*%
X119187500Y-97950000D03*
X119187500Y-97000000D03*
X119187500Y-96050000D03*
X121462500Y-96050000D03*
X121462500Y-97950000D03*
%TD*%
D15*
%TO.C,R2*%
X103160570Y-101930663D03*
X103160570Y-103755663D03*
%TD*%
%TO.C,R3*%
X114325000Y-101837500D03*
X114325000Y-103662500D03*
%TD*%
D16*
%TO.C,U3*%
X118145000Y-106910000D03*
X118145000Y-105630000D03*
X118145000Y-104370000D03*
X118145000Y-103100000D03*
X123505000Y-103100000D03*
X123505000Y-104370000D03*
X123505000Y-105630000D03*
X123505000Y-106910000D03*
%TD*%
D17*
%TO.C,C13*%
X84000000Y-93550000D03*
X84000000Y-95450000D03*
%TD*%
D13*
%TO.C,C11*%
X196450000Y-129000000D03*
X194550000Y-129000000D03*
%TD*%
D18*
%TO.C,U1*%
X146545000Y-91922500D03*
X146545000Y-93192500D03*
X146545000Y-94462500D03*
X146545000Y-95732500D03*
X146545000Y-97002500D03*
X146545000Y-98272500D03*
X146545000Y-99542500D03*
X146545000Y-100812500D03*
X146545000Y-102082500D03*
X146545000Y-103352500D03*
X146545000Y-104622500D03*
X146545000Y-105892500D03*
X146545000Y-107162500D03*
X146545000Y-108432500D03*
D19*
X143505000Y-109682500D03*
X142235000Y-109682500D03*
X140965000Y-109682500D03*
X139695000Y-109682500D03*
X138425000Y-109682500D03*
X137155000Y-109682500D03*
X135885000Y-109682500D03*
X134615000Y-109682500D03*
X133345000Y-109682500D03*
X132075000Y-109682500D03*
D18*
X129045000Y-108432500D03*
X129045000Y-107162500D03*
X129045000Y-105892500D03*
X129045000Y-104622500D03*
X129045000Y-103352500D03*
X129045000Y-102082500D03*
X129045000Y-100812500D03*
X129045000Y-99542500D03*
X129045000Y-98272500D03*
X129045000Y-97002500D03*
X129045000Y-95732500D03*
X129045000Y-94462500D03*
X129045000Y-93192500D03*
X129045000Y-91922500D03*
D20*
X140000000Y-100787500D03*
X140000000Y-99262500D03*
X140000000Y-97737500D03*
X138475000Y-100787500D03*
X138475000Y-99262500D03*
X138475000Y-97737500D03*
X136950000Y-100787500D03*
X136950000Y-99262500D03*
X136950000Y-97737500D03*
%TD*%
D12*
%TO.C,R11*%
X195750000Y-124912500D03*
X195750000Y-123087500D03*
%TD*%
D11*
%TO.C,C2*%
X157825000Y-99700000D03*
X157825000Y-97800000D03*
%TD*%
D12*
%TO.C,R7*%
X81250000Y-117912500D03*
X81250000Y-116087500D03*
%TD*%
D13*
%TO.C,C6*%
X72450000Y-131500000D03*
X70550000Y-131500000D03*
%TD*%
D21*
%TO.C,USB1*%
X105375000Y-97920000D03*
X106175000Y-97920000D03*
D22*
X107325000Y-97920000D03*
X108325000Y-97920000D03*
X108825000Y-97920000D03*
X109825000Y-97920000D03*
D21*
X111775000Y-97920000D03*
X110975000Y-97920000D03*
D22*
X110325000Y-97920000D03*
X109325000Y-97920000D03*
X107825000Y-97920000D03*
X106825000Y-97920000D03*
%TD*%
D17*
%TO.C,C8*%
X77000000Y-124800000D03*
X77000000Y-126700000D03*
%TD*%
%TO.C,C12*%
X180500000Y-136800000D03*
X180500000Y-138700000D03*
%TD*%
D23*
%TO.C,D1*%
X93500000Y-93500000D03*
X95075000Y-93500000D03*
%TD*%
D24*
%TO.C,C1*%
X119875000Y-92500000D03*
X121775000Y-92500000D03*
%TD*%
D13*
%TO.C,C9*%
X190450000Y-116750000D03*
X188550000Y-116750000D03*
%TD*%
D12*
%TO.C,R9*%
X65000000Y-120412500D03*
X65000000Y-118587500D03*
%TD*%
D15*
%TO.C,R12*%
X206250000Y-122337500D03*
X206250000Y-124162500D03*
%TD*%
D12*
%TO.C,R5*%
X152575000Y-99500000D03*
X152575000Y-97675000D03*
%TD*%
D15*
%TO.C,R15*%
X181000000Y-143087500D03*
X181000000Y-144912500D03*
%TD*%
D10*
%TO.C,R14*%
X199912500Y-142500000D03*
X198087500Y-142500000D03*
%TD*%
%TO.C,R17*%
X100200000Y-93500000D03*
X98375000Y-93500000D03*
%TD*%
%TO.C,R8*%
X78162500Y-133000000D03*
X76337500Y-133000000D03*
%TD*%
D17*
%TO.C,C10*%
X207500000Y-115300000D03*
X207500000Y-117200000D03*
%TD*%
D25*
%TO.C,R4*%
X113912500Y-108000000D03*
X115737500Y-108000000D03*
%TD*%
D13*
%TO.C,C7*%
X61450000Y-120500000D03*
X59550000Y-120500000D03*
%TD*%
D11*
%TO.C,C3*%
X155575000Y-95450000D03*
X155575000Y-93550000D03*
%TD*%
M02*
