%TF.GenerationSoftware,KiCad,Pcbnew,10.0.3*%
%TF.CreationDate,2026-08-16T18:23:46+08:00*%
%TF.ProjectId,gamegirl,67616d65-6769-4726-9c2e-6b696361645f,rev?*%
%TF.SameCoordinates,Original*%
%TF.FileFunction,Copper,L1,Top*%
%TF.FilePolarity,Positive*%
%FSLAX46Y46*%
G04 Gerber Fmt 4.6, Leading zero omitted, Abs format (unit mm)*
G04 Created by KiCad (PCBNEW 10.0.3) date 2026-08-16 18:23:46*
%MOMM*%
%LPD*%
G01*
G04 APERTURE LIST*
G04 Aperture macros list*
%AMRoundRect*
0 Rectangle with rounded corners*
0 $1 Rounding radius*
0 $2 $3 $4 $5 $6 $7 $8 $9 X,Y pos of 4 corners*
0 Add a 4 corners polygon primitive as box body*
4,1,4,$2,$3,$4,$5,$6,$7,$8,$9,$2,$3,0*
0 Add four circle primitives for the rounded corners*
1,1,$1+$1,$2,$3*
1,1,$1+$1,$4,$5*
1,1,$1+$1,$6,$7*
1,1,$1+$1,$8,$9*
0 Add four rect primitives between the rounded corners*
20,1,$1+$1,$2,$3,$4,$5,0*
20,1,$1+$1,$4,$5,$6,$7,0*
20,1,$1+$1,$6,$7,$8,$9,0*
20,1,$1+$1,$8,$9,$2,$3,0*%
G04 Aperture macros list end*
%TA.AperFunction,ComponentPad*%
%ADD10R,1.800000X1.800000*%
%TD*%
%TA.AperFunction,ComponentPad*%
%ADD11C,1.800000*%
%TD*%
%TA.AperFunction,ComponentPad*%
%ADD12C,5.600000*%
%TD*%
%TA.AperFunction,ComponentPad*%
%ADD13C,2.000000*%
%TD*%
%TA.AperFunction,ComponentPad*%
%ADD14R,1.700000X1.700000*%
%TD*%
%TA.AperFunction,ComponentPad*%
%ADD15C,1.700000*%
%TD*%
%TA.AperFunction,ComponentPad*%
%ADD16O,1.600000X1.600000*%
%TD*%
%TA.AperFunction,ComponentPad*%
%ADD17O,3.000000X2.000000*%
%TD*%
%TA.AperFunction,SMDPad,CuDef*%
%ADD18RoundRect,0.250000X-0.262500X-0.450000X0.262500X-0.450000X0.262500X0.450000X-0.262500X0.450000X0*%
%TD*%
%TA.AperFunction,HeatsinkPad*%
%ADD19C,0.600000*%
%TD*%
%TA.AperFunction,ComponentPad*%
%ADD20C,0.650000*%
%TD*%
%TA.AperFunction,ComponentPad*%
%ADD21O,1.000000X2.100000*%
%TD*%
%TA.AperFunction,ComponentPad*%
%ADD22O,1.000000X1.800000*%
%TD*%
%TA.AperFunction,ViaPad*%
%ADD23C,0.600000*%
%TD*%
%TA.AperFunction,Conductor*%
%ADD24C,0.200000*%
%TD*%
G04 APERTURE END LIST*
D10*
%TO.P,D2,1,K_1*%
%TO.N,GND*%
X192770000Y-99000000D03*
D11*
%TO.P,D2,2,A_2*%
%TO.N,Net-(D2-A)*%
X190230000Y-99000000D03*
%TD*%
D12*
%TO.P,H8,1*%
%TO.N,N/C*%
X173500000Y-147500000D03*
%TD*%
D13*
%TO.P,SW7,1,1_1*%
%TO.N,/B*%
X196750000Y-114050000D03*
X203250000Y-114050000D03*
%TO.P,SW7,2,2_2*%
%TO.N,GND*%
X196750000Y-118550000D03*
X203250000Y-118550000D03*
%TD*%
%TO.P,SW6,1,1_1*%
%TO.N,/A*%
X184750000Y-121250000D03*
X191250000Y-121250000D03*
%TO.P,SW6,2,2_2*%
%TO.N,GND*%
X184750000Y-125750000D03*
X191250000Y-125750000D03*
%TD*%
D12*
%TO.P,H5,1*%
%TO.N,N/C*%
X97420000Y-103500000D03*
%TD*%
D13*
%TO.P,SW10,1,1_1*%
%TO.N,/select*%
X184750000Y-137200000D03*
X191250000Y-137200000D03*
%TO.P,SW10,2,2_2*%
%TO.N,GND*%
X184750000Y-141700000D03*
X191250000Y-141700000D03*
%TD*%
D14*
%TO.P,J3,1,Pin_1_1*%
%TO.N,/GPIO14*%
X173500000Y-121690000D03*
D15*
%TO.P,J3,2,Pin_2_2*%
%TO.N,/GPIO13*%
X173500000Y-124230000D03*
%TO.P,J3,3,Pin_3_3*%
%TO.N,/GPIO17*%
X173500000Y-126770000D03*
%TO.P,J3,4,Pin_4_4*%
%TO.N,/GPIO15*%
X173500000Y-129310000D03*
%TD*%
D13*
%TO.P,SW5,1,1_1*%
%TO.N,/right*%
X80250000Y-125500000D03*
X86750000Y-125500000D03*
%TO.P,SW5,2,2_2*%
%TO.N,GND*%
X80250000Y-130000000D03*
X86750000Y-130000000D03*
%TD*%
D16*
%TO.P,SW12,1,1_1*%
%TO.N,GND*%
X70250000Y-97000000D03*
%TO.P,SW12,2,2_2*%
%TO.N,/GAIN*%
X70250000Y-99000000D03*
%TO.P,SW12,3,3_3*%
%TO.N,VBUS*%
X70250000Y-101000000D03*
D17*
%TO.P,SW12,4,4_4*%
%TO.N,GND*%
X70250000Y-103150000D03*
%TO.P,SW12,5,5_5*%
X70250000Y-94850000D03*
%TD*%
D18*
%TO.P,R16,1*%
%TO.N,/status*%
X183337500Y-99250000D03*
%TO.P,R16,2*%
%TO.N,Net-(D2-A)*%
X185162500Y-99250000D03*
%TD*%
D13*
%TO.P,SW4,1,1_1*%
%TO.N,/left*%
X58250000Y-125500000D03*
X64750000Y-125500000D03*
%TO.P,SW4,2,2_2*%
%TO.N,GND*%
X58250000Y-130000000D03*
X64750000Y-130000000D03*
%TD*%
D12*
%TO.P,H7,1*%
%TO.N,N/C*%
X173500000Y-103500000D03*
%TD*%
D13*
%TO.P,SW3,1,1_1*%
%TO.N,/down*%
X69250000Y-136500000D03*
X75750000Y-136500000D03*
%TO.P,SW3,2,2_2*%
%TO.N,GND*%
X69250000Y-141000000D03*
X75750000Y-141000000D03*
%TD*%
D12*
%TO.P,H6,1*%
%TO.N,N/C*%
X97420000Y-147500000D03*
%TD*%
D14*
%TO.P,J2,1,Pin_1_1*%
%TO.N,+3V3*%
X92500000Y-108990000D03*
D15*
%TO.P,J2,2,Pin_2_2*%
%TO.N,GND*%
X92500000Y-111530000D03*
%TO.P,J2,3,Pin_3_3*%
%TO.N,/GPIO5*%
X92500000Y-114070000D03*
%TO.P,J2,4,Pin_4_4*%
%TO.N,/GPIO4*%
X92500000Y-116610000D03*
%TO.P,J2,5,Pin_5_5*%
%TO.N,/GPIO2*%
X92500000Y-119150000D03*
%TO.P,J2,6,Pin_6_6*%
%TO.N,/GPIO23*%
X92500000Y-121690000D03*
%TO.P,J2,7,Pin_7_7*%
%TO.N,/GPIO18*%
X92500000Y-124230000D03*
%TO.P,J2,8,Pin_8_8*%
%TO.N,+3V3*%
X92500000Y-126770000D03*
%TO.P,J2,9,Pin_9_9*%
%TO.N,/GPIO19*%
X92500000Y-129310000D03*
%TO.P,J2,10,Pin_10_10*%
%TO.N,unconnected-(J2-Pin_10-Pad10)*%
X92500000Y-131850000D03*
%TO.P,J2,11,Pin_11_11*%
%TO.N,unconnected-(J2-Pin_11-Pad11)*%
X92500000Y-134390000D03*
%TO.P,J2,12,Pin_12_12*%
%TO.N,unconnected-(J2-Pin_12-Pad12)*%
X92500000Y-136930000D03*
%TO.P,J2,13,Pin_13_13*%
%TO.N,unconnected-(J2-Pin_13-Pad13)*%
X92500000Y-139470000D03*
%TO.P,J2,14,Pin_14_14*%
%TO.N,unconnected-(J2-Pin_14-Pad14)*%
X92500000Y-142010000D03*
%TD*%
D13*
%TO.P,SW2,1,1_1*%
%TO.N,/up*%
X69250000Y-114500000D03*
X75750000Y-114500000D03*
%TO.P,SW2,2,2_2*%
%TO.N,GND*%
X69250000Y-119000000D03*
X75750000Y-119000000D03*
%TD*%
%TO.P,SW9,1,1_1*%
%TO.N,/start*%
X196750000Y-132250000D03*
X203250000Y-132250000D03*
%TO.P,SW9,2,2_2*%
%TO.N,GND*%
X196750000Y-136750000D03*
X203250000Y-136750000D03*
%TD*%
%TO.P,SW1,1,1_1*%
%TO.N,GND*%
X163410570Y-99430663D03*
X169910570Y-99430663D03*
%TO.P,SW1,2,2_2*%
%TO.N,Net-(U1-EN)*%
X163410570Y-94930663D03*
X169910570Y-94930663D03*
%TD*%
D19*
%TO.P,U1,39,GND_39*%
%TO.N,GND*%
X140000000Y-100025000D03*
X140000000Y-98500000D03*
X139237500Y-100787500D03*
X139237500Y-99262500D03*
X139237500Y-97737500D03*
X138475000Y-100025000D03*
X138475000Y-98500000D03*
X137712500Y-100787500D03*
X137712500Y-99262500D03*
X137712500Y-97737500D03*
X136950000Y-100025000D03*
X136950000Y-98500000D03*
%TD*%
D20*
%TO.P,USB1,*%
%TO.N,*%
X105685000Y-96860000D03*
X111465000Y-96860000D03*
D21*
%TO.P,USB1,12,12_12*%
%TO.N,GND*%
X104255000Y-97360000D03*
%TO.P,USB1,13,13_13*%
X112895000Y-97360000D03*
D22*
%TO.P,USB1,14,14_14*%
X104255000Y-93180000D03*
%TO.P,USB1,15,15_15*%
X112895000Y-93180000D03*
%TD*%
D13*
%TO.P,SW8,1,1_1*%
%TO.N,Net-(U1-IO0)*%
X143250000Y-113750000D03*
X136750000Y-113750000D03*
%TO.P,SW8,2,2_2*%
%TO.N,GND*%
X143250000Y-118250000D03*
X136750000Y-118250000D03*
%TD*%
D14*
%TO.P,J1,1,Pin_1_1*%
%TO.N,VBUS*%
X78500000Y-93420000D03*
D15*
%TO.P,J1,2,Pin_2_2*%
%TO.N,GND*%
X78500000Y-95960000D03*
%TO.P,J1,3,Pin_3_3*%
%TO.N,unconnected-(J1-Pin_3-Pad3)*%
X78500000Y-98500000D03*
%TO.P,J1,4,Pin_4_4*%
%TO.N,/GAIN*%
X78500000Y-101040000D03*
%TO.P,J1,5,Pin_5_5*%
%TO.N,/GPIO22*%
X78500000Y-103580000D03*
%TO.P,J1,6,Pin_6_6*%
%TO.N,/GPIO26*%
X78500000Y-106120000D03*
%TO.P,J1,7,Pin_7_7*%
%TO.N,/GPIO25*%
X78500000Y-108660000D03*
%TD*%
D23*
%TO.N,/GPIO17*%
X142500000Y-106250000D03*
%TO.N,/GPIO25*%
X154000000Y-108250000D03*
%TO.N,+3V3*%
X65000000Y-149750000D03*
%TO.N,/right*%
X142910570Y-96680663D03*
%TO.N,+3V3*%
X116333117Y-96258116D03*
X79250000Y-115000000D03*
X121160570Y-108680663D03*
X123075000Y-97750000D03*
X81000000Y-122000000D03*
X121160570Y-100250000D03*
X181000000Y-147500000D03*
X143825000Y-94250000D03*
%TO.N,/up*%
X84000000Y-118000000D03*
X131750000Y-105750000D03*
%TO.N,GND*%
X82000000Y-112250000D03*
X104250000Y-107750000D03*
X138500000Y-103500000D03*
X101500000Y-100000000D03*
X143500000Y-102750000D03*
X57750000Y-120250000D03*
X93500000Y-93500000D03*
X116500000Y-102250000D03*
X207750000Y-119250000D03*
%TO.N,/B*%
X154250000Y-102250000D03*
%TO.N,/A*%
X148750000Y-101250000D03*
%TO.N,Net-(USB1-CC2)*%
X104910570Y-100930663D03*
X110660570Y-99430663D03*
%TO.N,VBUS*%
X95500000Y-97000000D03*
X97500000Y-99000000D03*
%TO.N,/select*%
X141250000Y-107500000D03*
%TO.N,/start*%
X149000000Y-106250000D03*
%TO.N,/down*%
X144250000Y-101750000D03*
%TO.N,/GPIO14*%
X149000000Y-107500000D03*
%TO.N,/GPIO13*%
X157500000Y-119500000D03*
X142250000Y-111250000D03*
%TO.N,/GPIO15*%
X138500000Y-111500000D03*
%TO.N,/left*%
X131000000Y-105000000D03*
X90250000Y-115500000D03*
%TO.N,/status*%
X132864954Y-100635046D03*
%TO.N,/GPIO19*%
X133500000Y-102750000D03*
%TO.N,/GPIO18*%
X132250000Y-102250000D03*
%TO.N,/GPIO23*%
X124045617Y-95045617D03*
%TO.N,/GPIO2*%
X130500000Y-111250000D03*
%TO.N,/GPIO4*%
X130750000Y-107500000D03*
%TO.N,/GPIO5*%
X126160570Y-106180663D03*
%TO.N,/GPIO25*%
X154000000Y-110500000D03*
%TO.N,/GPIO26*%
X83065000Y-110740000D03*
%TO.N,/GPIO22*%
X125750000Y-94500000D03*
%TD*%
%TO.N,Net-(D2-A)*%
D24*
X185162500Y-99250000D02*
X189980000Y-99250000D01*
X189980000Y-99250000D02*
X190230000Y-99000000D01*
X185162500Y-99250000D02*
X185412500Y-99000000D01*
%TO.N,/GPIO17*%
X169020000Y-126770000D02*
X152000000Y-109750000D01*
X173500000Y-126770000D02*
X169020000Y-126770000D01*
%TO.N,/GPIO25*%
X154000000Y-110500000D02*
X154000000Y-108250000D01*
%TO.N,/GPIO17*%
X146565686Y-109750000D02*
X152000000Y-109750000D01*
X143065686Y-106250000D02*
X146565686Y-109750000D01*
X142500000Y-106250000D02*
X143065686Y-106250000D01*
%TO.N,+3V3*%
X70250000Y-155000000D02*
X65000000Y-149750000D01*
X175750000Y-155000000D02*
X70250000Y-155000000D01*
X181000000Y-149750000D02*
X175750000Y-155000000D01*
X181000000Y-147500000D02*
X181000000Y-149750000D01*
%TO.N,/right*%
X101750000Y-118000000D02*
X94250000Y-125500000D01*
X131500000Y-100118621D02*
X132900000Y-101518622D01*
X132319337Y-96680663D02*
X131500000Y-97500000D01*
X126565685Y-118000000D02*
X101750000Y-118000000D01*
X132900000Y-111665685D02*
X126565685Y-118000000D01*
X142910570Y-96680663D02*
X132319337Y-96680663D01*
X132900000Y-101518622D02*
X132900000Y-111665685D01*
X131500000Y-97500000D02*
X131500000Y-100118621D01*
X94250000Y-125500000D02*
X86750000Y-125500000D01*
%TO.N,+3V3*%
X125075000Y-95750000D02*
X123075000Y-97750000D01*
X79250000Y-120250000D02*
X79250000Y-115000000D01*
X116333117Y-96258116D02*
X120325000Y-100250000D01*
X142325000Y-95750000D02*
X143825000Y-94250000D01*
X81000000Y-122000000D02*
X79250000Y-120250000D01*
X120325000Y-100250000D02*
X121160570Y-100250000D01*
X125075000Y-95750000D02*
X142325000Y-95750000D01*
X121160570Y-100250000D02*
X121160570Y-108680663D01*
%TO.N,/up*%
X91090000Y-122840000D02*
X93324314Y-122840000D01*
X131750000Y-111100000D02*
X131750000Y-105750000D01*
X99414314Y-116750000D02*
X125684314Y-116750000D01*
X86250000Y-118000000D02*
X91090000Y-122840000D01*
X125684314Y-116750000D02*
X130584315Y-111850000D01*
X84000000Y-118000000D02*
X86250000Y-118000000D01*
X93324314Y-122840000D02*
X99414314Y-116750000D01*
X131000000Y-111850000D02*
X131750000Y-111100000D01*
X130584315Y-111850000D02*
X131000000Y-111850000D01*
%TO.N,GND*%
X116500000Y-102250000D02*
X116500000Y-99500000D01*
X191250000Y-141700000D02*
X196200000Y-136750000D01*
X207050000Y-118550000D02*
X207750000Y-119250000D01*
X116500000Y-99500000D02*
X114360000Y-97360000D01*
X143500000Y-102750000D02*
X142750000Y-103500000D01*
X196750000Y-120250000D02*
X196750000Y-118550000D01*
X96280000Y-107750000D02*
X104250000Y-107750000D01*
X142750000Y-103500000D02*
X138500000Y-103500000D01*
X184750000Y-141700000D02*
X191250000Y-141700000D01*
X196750000Y-118550000D02*
X203250000Y-118550000D01*
X203250000Y-118550000D02*
X207050000Y-118550000D01*
X114360000Y-97360000D02*
X112895000Y-97360000D01*
X196750000Y-136750000D02*
X203250000Y-136750000D01*
X101615000Y-100000000D02*
X104255000Y-97360000D01*
X191250000Y-125750000D02*
X196750000Y-120250000D01*
X196200000Y-136750000D02*
X196750000Y-136750000D01*
X163410570Y-99430663D02*
X169910570Y-99430663D01*
X101500000Y-100000000D02*
X101615000Y-100000000D01*
X69250000Y-141000000D02*
X75750000Y-141000000D01*
X92500000Y-111530000D02*
X96280000Y-107750000D01*
X184750000Y-125750000D02*
X191250000Y-125750000D01*
%TO.N,/B*%
X196750000Y-114050000D02*
X203250000Y-114050000D01*
X154250000Y-102250000D02*
X166250000Y-102250000D01*
X166250000Y-102250000D02*
X178050000Y-114050000D01*
X178050000Y-114050000D02*
X196750000Y-114050000D01*
%TO.N,/A*%
X191250000Y-121250000D02*
X184750000Y-121250000D01*
X148750000Y-101250000D02*
X150500000Y-103000000D01*
X183750000Y-121250000D02*
X184750000Y-121250000D01*
X150500000Y-103000000D02*
X165500000Y-103000000D01*
X165500000Y-103000000D02*
X183750000Y-121250000D01*
%TO.N,Net-(USB1-CC2)*%
X110660570Y-99430663D02*
X109160570Y-100930663D01*
X109160570Y-100930663D02*
X104910570Y-100930663D01*
%TO.N,VBUS*%
X70250000Y-101000000D02*
X77830000Y-93420000D01*
X77830000Y-93420000D02*
X78500000Y-93420000D01*
X97500000Y-99000000D02*
X95500000Y-97000000D01*
%TO.N,/select*%
X146750000Y-110500000D02*
X143750000Y-107500000D01*
X175710000Y-128160000D02*
X168660000Y-128160000D01*
X184750000Y-137200000D02*
X191250000Y-137200000D01*
X151000000Y-110500000D02*
X146750000Y-110500000D01*
X184750000Y-137200000D02*
X175710000Y-128160000D01*
X168660000Y-128160000D02*
X151000000Y-110500000D01*
X143750000Y-107500000D02*
X141250000Y-107500000D01*
%TO.N,/start*%
X196750000Y-132250000D02*
X188750000Y-132250000D01*
X166500000Y-106250000D02*
X149000000Y-106250000D01*
X196750000Y-132250000D02*
X203250000Y-132250000D01*
X181500000Y-125000000D02*
X181500000Y-121250000D01*
X181500000Y-121250000D02*
X166500000Y-106250000D01*
X188750000Y-132250000D02*
X181500000Y-125000000D01*
%TO.N,/down*%
X127500000Y-120000000D02*
X104750000Y-120000000D01*
X69250000Y-136500000D02*
X75750000Y-136500000D01*
X144250000Y-103250000D02*
X127500000Y-120000000D01*
X92023654Y-130460000D02*
X85983654Y-136500000D01*
X104750000Y-120000000D02*
X94290000Y-130460000D01*
X94290000Y-130460000D02*
X92023654Y-130460000D01*
X144250000Y-101750000D02*
X144250000Y-103250000D01*
X85983654Y-136500000D02*
X75750000Y-136500000D01*
%TO.N,/GPIO14*%
X173500000Y-118000000D02*
X163000000Y-107500000D01*
X173500000Y-121690000D02*
X173500000Y-118000000D01*
X163000000Y-107500000D02*
X149000000Y-107500000D01*
%TO.N,/GPIO13*%
X157500000Y-119500000D02*
X149400000Y-111400000D01*
X149400000Y-111400000D02*
X142400000Y-111400000D01*
X142400000Y-111400000D02*
X142250000Y-111250000D01*
%TO.N,/GPIO15*%
X164810000Y-129310000D02*
X173500000Y-129310000D01*
X139000000Y-112000000D02*
X147500000Y-112000000D01*
X138500000Y-111500000D02*
X139000000Y-112000000D01*
X147500000Y-112000000D02*
X164810000Y-129310000D01*
%TO.N,/left*%
X92736346Y-115460000D02*
X90290000Y-115460000D01*
X90290000Y-115460000D02*
X90250000Y-115500000D01*
X123250000Y-114750000D02*
X93446346Y-114750000D01*
X131000000Y-105000000D02*
X129250000Y-106750000D01*
X129250000Y-108750000D02*
X123250000Y-114750000D01*
X129250000Y-106750000D02*
X129250000Y-108750000D01*
X93446346Y-114750000D02*
X92736346Y-115460000D01*
%TO.N,/status*%
X182087500Y-98000000D02*
X183337500Y-99250000D01*
X132864954Y-100635046D02*
X134979908Y-102750000D01*
X134979908Y-102750000D02*
X140520092Y-102750000D01*
X140520092Y-102750000D02*
X145270092Y-98000000D01*
X145270092Y-98000000D02*
X182087500Y-98000000D01*
%TO.N,Net-(U1-EN)*%
X169910570Y-94930663D02*
X163410570Y-94930663D01*
%TO.N,/GPIO19*%
X126750000Y-118750000D02*
X133500000Y-112000000D01*
X103060000Y-118750000D02*
X126750000Y-118750000D01*
X92500000Y-129310000D02*
X103060000Y-118750000D01*
X133500000Y-112000000D02*
X133500000Y-102750000D01*
%TO.N,/GPIO18*%
X100750000Y-117500000D02*
X94020000Y-124230000D01*
X131749999Y-112250000D02*
X130750000Y-112250000D01*
X125500000Y-117500000D02*
X100750000Y-117500000D01*
X132500000Y-102500000D02*
X132500000Y-111500000D01*
X130750000Y-112250000D02*
X125500000Y-117500000D01*
X94020000Y-124230000D02*
X92500000Y-124230000D01*
X132500000Y-111500000D02*
X131749999Y-112250000D01*
X132250000Y-102250000D02*
X132500000Y-102500000D01*
%TO.N,/GPIO23*%
X123750000Y-94750000D02*
X96250000Y-94750000D01*
X89000000Y-118190000D02*
X92500000Y-121690000D01*
X96250000Y-94750000D02*
X89000000Y-102000000D01*
X89000000Y-102000000D02*
X89000000Y-118190000D01*
X124045617Y-95045617D02*
X123750000Y-94750000D01*
%TO.N,/GPIO2*%
X129750000Y-111250000D02*
X125000000Y-116000000D01*
X125000000Y-116000000D02*
X95650000Y-116000000D01*
X130500000Y-111250000D02*
X129750000Y-111250000D01*
X95650000Y-116000000D02*
X92500000Y-119150000D01*
%TO.N,/GPIO4*%
X130750000Y-108500000D02*
X130750000Y-107500000D01*
X124000000Y-115250000D02*
X130750000Y-108500000D01*
X93860000Y-115250000D02*
X124000000Y-115250000D01*
X92500000Y-116610000D02*
X93860000Y-115250000D01*
%TO.N,/GPIO5*%
X92500000Y-114070000D02*
X122930000Y-114070000D01*
X126160570Y-110839430D02*
X126160570Y-106180663D01*
X122930000Y-114070000D02*
X126160570Y-110839430D01*
%TO.N,/GPIO26*%
X83065000Y-110685000D02*
X78500000Y-106120000D01*
X83065000Y-110740000D02*
X83065000Y-110685000D01*
%TO.N,/GPIO22*%
X90100000Y-91980000D02*
X123230000Y-91980000D01*
X123230000Y-91980000D02*
X125750000Y-94500000D01*
X78500000Y-103580000D02*
X90100000Y-91980000D01*
%TD*%
%TA.AperFunction,Conductor*%
%TO.N,GND*%
G36*
X115908863Y-95370185D02*
G01*
X115954618Y-95422989D01*
X115964562Y-95492147D01*
X115935537Y-95555703D01*
X115910715Y-95577602D01*
X115822828Y-95636326D01*
X115822824Y-95636329D01*
X115711330Y-95747823D01*
X115711327Y-95747827D01*
X115623726Y-95878930D01*
X115623719Y-95878943D01*
X115563381Y-96024614D01*
X115563378Y-96024626D01*
X115532617Y-96179269D01*
X115532617Y-96336962D01*
X115563378Y-96491605D01*
X115563381Y-96491617D01*
X115623719Y-96637288D01*
X115623726Y-96637301D01*
X115711327Y-96768404D01*
X115711330Y-96768408D01*
X115822824Y-96879902D01*
X115822828Y-96879905D01*
X115953931Y-96967506D01*
X115953944Y-96967513D01*
X116099615Y-97027851D01*
X116099620Y-97027853D01*
X116163713Y-97040602D01*
X116254966Y-97058754D01*
X116316877Y-97091139D01*
X116318456Y-97092690D01*
X119840139Y-100614374D01*
X119840149Y-100614385D01*
X119844479Y-100618715D01*
X119844480Y-100618716D01*
X119956284Y-100730520D01*
X120023767Y-100769481D01*
X120093215Y-100809577D01*
X120245943Y-100850501D01*
X120245946Y-100850501D01*
X120411653Y-100850501D01*
X120411669Y-100850500D01*
X120436070Y-100850500D01*
X120503109Y-100870185D01*
X120548864Y-100922989D01*
X120560070Y-100974500D01*
X120560070Y-108100897D01*
X120540385Y-108167936D01*
X120539172Y-108169788D01*
X120451179Y-108301477D01*
X120451172Y-108301490D01*
X120390834Y-108447161D01*
X120390831Y-108447173D01*
X120360070Y-108601816D01*
X120360070Y-108759509D01*
X120390831Y-108914152D01*
X120390834Y-108914164D01*
X120451172Y-109059835D01*
X120451179Y-109059848D01*
X120538780Y-109190951D01*
X120538783Y-109190955D01*
X120650277Y-109302449D01*
X120650281Y-109302452D01*
X120781384Y-109390053D01*
X120781397Y-109390060D01*
X120927068Y-109450398D01*
X120927073Y-109450400D01*
X121081723Y-109481162D01*
X121081726Y-109481163D01*
X121081728Y-109481163D01*
X121239414Y-109481163D01*
X121239415Y-109481162D01*
X121394067Y-109450400D01*
X121539749Y-109390057D01*
X121670859Y-109302452D01*
X121782359Y-109190952D01*
X121869964Y-109059842D01*
X121930307Y-108914160D01*
X121961070Y-108759505D01*
X121961070Y-108601821D01*
X121961070Y-108601818D01*
X121961069Y-108601816D01*
X121951171Y-108552058D01*
X121930307Y-108447166D01*
X121930305Y-108447161D01*
X121869967Y-108301490D01*
X121869960Y-108301477D01*
X121781968Y-108169788D01*
X121761090Y-108103110D01*
X121761070Y-108100897D01*
X121761070Y-100829765D01*
X121780755Y-100762726D01*
X121781968Y-100760874D01*
X121845598Y-100665646D01*
X121869964Y-100629179D01*
X121930307Y-100483497D01*
X121961070Y-100328842D01*
X121961070Y-100171158D01*
X121961070Y-100171155D01*
X121961069Y-100171153D01*
X121957415Y-100152781D01*
X121930307Y-100016503D01*
X121928963Y-100013259D01*
X121869967Y-99870827D01*
X121869960Y-99870814D01*
X121782359Y-99739711D01*
X121782356Y-99739707D01*
X121670862Y-99628213D01*
X121670858Y-99628210D01*
X121539755Y-99540609D01*
X121539742Y-99540602D01*
X121394071Y-99480264D01*
X121394059Y-99480261D01*
X121239415Y-99449500D01*
X121239412Y-99449500D01*
X121081728Y-99449500D01*
X121081725Y-99449500D01*
X120927080Y-99480261D01*
X120927068Y-99480264D01*
X120781397Y-99540602D01*
X120781384Y-99540609D01*
X120676247Y-99610860D01*
X120609569Y-99631738D01*
X120542189Y-99613253D01*
X120519675Y-99595439D01*
X117167691Y-96243455D01*
X117134206Y-96182132D01*
X117133755Y-96179965D01*
X117111129Y-96066222D01*
X117102854Y-96024619D01*
X117102852Y-96024614D01*
X117042514Y-95878943D01*
X117042507Y-95878930D01*
X116954906Y-95747827D01*
X116954903Y-95747823D01*
X116843409Y-95636329D01*
X116843405Y-95636326D01*
X116755519Y-95577602D01*
X116710714Y-95523990D01*
X116702007Y-95454665D01*
X116732162Y-95391637D01*
X116791605Y-95354918D01*
X116824410Y-95350500D01*
X123222595Y-95350500D01*
X123289634Y-95370185D01*
X123332637Y-95419813D01*
X123333355Y-95419430D01*
X123335044Y-95422591D01*
X123335389Y-95422989D01*
X123335969Y-95424322D01*
X123336224Y-95424799D01*
X123423827Y-95555905D01*
X123423830Y-95555909D01*
X123535324Y-95667403D01*
X123535328Y-95667406D01*
X123666431Y-95755007D01*
X123666444Y-95755014D01*
X123812115Y-95815352D01*
X123812120Y-95815354D01*
X123812124Y-95815354D01*
X123812125Y-95815355D01*
X123875095Y-95827881D01*
X123937005Y-95860266D01*
X123971580Y-95920982D01*
X123967840Y-95990751D01*
X123938584Y-96037179D01*
X123060339Y-96915425D01*
X122999016Y-96948910D01*
X122996850Y-96949361D01*
X122841508Y-96980261D01*
X122841498Y-96980264D01*
X122695827Y-97040602D01*
X122695814Y-97040609D01*
X122564711Y-97128210D01*
X122564707Y-97128213D01*
X122453213Y-97239707D01*
X122453210Y-97239711D01*
X122365609Y-97370814D01*
X122365602Y-97370827D01*
X122305264Y-97516498D01*
X122305261Y-97516510D01*
X122274500Y-97671153D01*
X122274500Y-97828846D01*
X122305261Y-97983489D01*
X122305264Y-97983501D01*
X122365602Y-98129172D01*
X122365609Y-98129185D01*
X122453210Y-98260288D01*
X122453213Y-98260292D01*
X122564707Y-98371786D01*
X122564711Y-98371789D01*
X122695814Y-98459390D01*
X122695827Y-98459397D01*
X122841498Y-98519735D01*
X122841503Y-98519737D01*
X122980885Y-98547462D01*
X122996153Y-98550499D01*
X122996156Y-98550500D01*
X122996158Y-98550500D01*
X123153844Y-98550500D01*
X123153845Y-98550499D01*
X123308497Y-98519737D01*
X123454179Y-98459394D01*
X123585289Y-98371789D01*
X123696789Y-98260289D01*
X123784394Y-98129179D01*
X123790191Y-98115185D01*
X123813049Y-98060000D01*
X123844737Y-97983497D01*
X123864113Y-97886085D01*
X123875638Y-97828150D01*
X123908023Y-97766239D01*
X123909518Y-97764716D01*
X125287416Y-96386819D01*
X125348739Y-96353334D01*
X125375097Y-96350500D01*
X131500903Y-96350500D01*
X131567942Y-96370185D01*
X131613697Y-96422989D01*
X131623641Y-96492147D01*
X131594616Y-96555703D01*
X131588588Y-96562176D01*
X131343756Y-96807008D01*
X131131286Y-97019478D01*
X131019481Y-97131282D01*
X131019480Y-97131284D01*
X130985031Y-97190952D01*
X130940423Y-97268215D01*
X130899499Y-97420943D01*
X130899499Y-97420945D01*
X130899499Y-97589046D01*
X130899500Y-97589059D01*
X130899500Y-100031950D01*
X130899499Y-100031968D01*
X130899499Y-100039563D01*
X130899499Y-100197678D01*
X130915089Y-100255860D01*
X130934129Y-100326917D01*
X130940422Y-100350402D01*
X130940426Y-100350411D01*
X131019475Y-100487330D01*
X131019481Y-100487338D01*
X131138349Y-100606206D01*
X131138355Y-100606211D01*
X131885028Y-101352884D01*
X131918513Y-101414207D01*
X131913529Y-101483899D01*
X131871657Y-101539832D01*
X131866238Y-101543667D01*
X131739711Y-101628210D01*
X131739707Y-101628213D01*
X131628213Y-101739707D01*
X131628210Y-101739711D01*
X131540609Y-101870814D01*
X131540602Y-101870827D01*
X131480264Y-102016498D01*
X131480261Y-102016510D01*
X131449500Y-102171153D01*
X131449500Y-102328846D01*
X131480261Y-102483489D01*
X131480264Y-102483501D01*
X131540602Y-102629172D01*
X131540609Y-102629185D01*
X131628210Y-102760288D01*
X131628213Y-102760292D01*
X131739710Y-102871789D01*
X131844391Y-102941734D01*
X131889196Y-102995346D01*
X131899500Y-103044836D01*
X131899500Y-104496560D01*
X131879815Y-104563599D01*
X131827011Y-104609354D01*
X131757853Y-104619298D01*
X131694297Y-104590273D01*
X131672398Y-104565451D01*
X131621789Y-104489711D01*
X131621786Y-104489707D01*
X131510292Y-104378213D01*
X131510288Y-104378210D01*
X131379185Y-104290609D01*
X131379172Y-104290602D01*
X131233501Y-104230264D01*
X131233489Y-104230261D01*
X131078845Y-104199500D01*
X131078842Y-104199500D01*
X130921158Y-104199500D01*
X130921155Y-104199500D01*
X130766510Y-104230261D01*
X130766498Y-104230264D01*
X130620827Y-104290602D01*
X130620814Y-104290609D01*
X130489711Y-104378210D01*
X130489707Y-104378213D01*
X130378213Y-104489707D01*
X130378210Y-104489711D01*
X130290609Y-104620814D01*
X130290602Y-104620827D01*
X130230264Y-104766498D01*
X130230261Y-104766508D01*
X130199362Y-104921848D01*
X130166977Y-104983759D01*
X130165426Y-104985337D01*
X128881286Y-106269478D01*
X128769481Y-106381282D01*
X128769479Y-106381285D01*
X128724385Y-106459392D01*
X128724384Y-106459393D01*
X128690423Y-106518214D01*
X128690423Y-106518215D01*
X128649499Y-106670943D01*
X128649499Y-106670945D01*
X128649499Y-106839046D01*
X128649500Y-106839059D01*
X128649500Y-108449903D01*
X128629815Y-108516942D01*
X128613181Y-108537584D01*
X126972751Y-110178014D01*
X126911428Y-110211499D01*
X126841736Y-110206515D01*
X126785803Y-110164643D01*
X126761386Y-110099179D01*
X126761070Y-110090333D01*
X126761070Y-106760428D01*
X126780755Y-106693389D01*
X126781968Y-106691537D01*
X126869960Y-106559848D01*
X126869960Y-106559847D01*
X126869964Y-106559842D01*
X126930307Y-106414160D01*
X126961070Y-106259505D01*
X126961070Y-106101821D01*
X126961070Y-106101818D01*
X126961069Y-106101816D01*
X126947528Y-106033740D01*
X126930307Y-105947166D01*
X126898684Y-105870821D01*
X126869967Y-105801490D01*
X126869960Y-105801477D01*
X126782359Y-105670374D01*
X126782356Y-105670370D01*
X126670862Y-105558876D01*
X126670858Y-105558873D01*
X126539755Y-105471272D01*
X126539742Y-105471265D01*
X126394071Y-105410927D01*
X126394059Y-105410924D01*
X126239415Y-105380163D01*
X126239412Y-105380163D01*
X126081728Y-105380163D01*
X126081725Y-105380163D01*
X125927080Y-105410924D01*
X125927068Y-105410927D01*
X125781397Y-105471265D01*
X125781384Y-105471272D01*
X125650281Y-105558873D01*
X125650277Y-105558876D01*
X125538783Y-105670370D01*
X125538780Y-105670374D01*
X125451179Y-105801477D01*
X125451172Y-105801490D01*
X125390834Y-105947161D01*
X125390831Y-105947173D01*
X125360070Y-106101816D01*
X125360070Y-106259509D01*
X125390831Y-106414152D01*
X125390834Y-106414164D01*
X125451172Y-106559835D01*
X125451179Y-106559848D01*
X125539172Y-106691537D01*
X125560050Y-106758214D01*
X125560070Y-106760428D01*
X125560070Y-110539333D01*
X125540385Y-110606372D01*
X125523751Y-110627014D01*
X122717584Y-113433181D01*
X122656261Y-113466666D01*
X122629903Y-113469500D01*
X93785719Y-113469500D01*
X93718680Y-113449815D01*
X93675235Y-113401795D01*
X93655052Y-113362185D01*
X93655051Y-113362184D01*
X93530109Y-113190213D01*
X93379786Y-113039890D01*
X93207817Y-112914949D01*
X93198504Y-112910204D01*
X93147707Y-112862230D01*
X93130912Y-112794409D01*
X93153449Y-112728274D01*
X93198507Y-112689232D01*
X93207555Y-112684622D01*
X93261716Y-112645270D01*
X93261717Y-112645270D01*
X92629408Y-112012962D01*
X92692993Y-111995925D01*
X92807007Y-111930099D01*
X92900099Y-111837007D01*
X92965925Y-111722993D01*
X92982962Y-111659408D01*
X93615270Y-112291717D01*
X93615270Y-112291716D01*
X93654622Y-112237554D01*
X93751095Y-112048217D01*
X93816757Y-111846130D01*
X93816757Y-111846127D01*
X93850000Y-111636246D01*
X93850000Y-111423753D01*
X93816757Y-111213872D01*
X93816757Y-111213869D01*
X93751095Y-111011782D01*
X93654624Y-110822449D01*
X93615270Y-110768282D01*
X93615269Y-110768282D01*
X92982962Y-111400590D01*
X92965925Y-111337007D01*
X92900099Y-111222993D01*
X92807007Y-111129901D01*
X92692993Y-111064075D01*
X92629409Y-111047037D01*
X93299627Y-110376818D01*
X93360950Y-110343333D01*
X93387307Y-110340499D01*
X93397872Y-110340499D01*
X93457483Y-110334091D01*
X93592331Y-110283796D01*
X93707546Y-110197546D01*
X93793796Y-110082331D01*
X93844091Y-109947483D01*
X93850500Y-109887873D01*
X93850499Y-108092128D01*
X93844091Y-108032517D01*
X93793796Y-107897669D01*
X93793795Y-107897668D01*
X93793793Y-107897664D01*
X93707547Y-107782455D01*
X93707544Y-107782452D01*
X93592335Y-107696206D01*
X93592328Y-107696202D01*
X93457482Y-107645908D01*
X93457483Y-107645908D01*
X93397883Y-107639501D01*
X93397881Y-107639500D01*
X93397873Y-107639500D01*
X93397864Y-107639500D01*
X91602129Y-107639500D01*
X91602123Y-107639501D01*
X91542516Y-107645908D01*
X91407671Y-107696202D01*
X91407664Y-107696206D01*
X91292455Y-107782452D01*
X91292452Y-107782455D01*
X91206206Y-107897664D01*
X91206202Y-107897671D01*
X91155908Y-108032517D01*
X91149501Y-108092116D01*
X91149501Y-108092123D01*
X91149500Y-108092135D01*
X91149500Y-109887870D01*
X91149501Y-109887876D01*
X91155908Y-109947483D01*
X91206202Y-110082328D01*
X91206206Y-110082335D01*
X91292452Y-110197544D01*
X91292455Y-110197547D01*
X91407664Y-110283793D01*
X91407671Y-110283797D01*
X91452618Y-110300561D01*
X91542517Y-110334091D01*
X91602127Y-110340500D01*
X91612685Y-110340499D01*
X91679723Y-110360179D01*
X91700372Y-110376818D01*
X92370591Y-111047037D01*
X92307007Y-111064075D01*
X92192993Y-111129901D01*
X92099901Y-111222993D01*
X92034075Y-111337007D01*
X92017037Y-111400591D01*
X91384728Y-110768282D01*
X91384727Y-110768282D01*
X91345380Y-110822439D01*
X91248904Y-111011782D01*
X91183242Y-111213869D01*
X91183242Y-111213872D01*
X91150000Y-111423753D01*
X91150000Y-111636246D01*
X91183242Y-111846127D01*
X91183242Y-111846130D01*
X91248904Y-112048217D01*
X91345375Y-112237550D01*
X91384728Y-112291716D01*
X92017037Y-111659408D01*
X92034075Y-111722993D01*
X92099901Y-111837007D01*
X92192993Y-111930099D01*
X92307007Y-111995925D01*
X92370590Y-112012962D01*
X91738282Y-112645269D01*
X91738282Y-112645270D01*
X91792452Y-112684626D01*
X91792451Y-112684626D01*
X91801495Y-112689234D01*
X91852292Y-112737208D01*
X91869087Y-112805029D01*
X91846550Y-112871164D01*
X91801499Y-112910202D01*
X91792182Y-112914949D01*
X91620213Y-113039890D01*
X91469890Y-113190213D01*
X91344951Y-113362179D01*
X91248444Y-113551585D01*
X91182753Y-113753760D01*
X91149500Y-113963713D01*
X91149500Y-114176286D01*
X91181481Y-114378210D01*
X91182754Y-114386243D01*
X91187668Y-114401368D01*
X91248444Y-114588414D01*
X91294704Y-114679205D01*
X91307600Y-114747875D01*
X91281323Y-114812615D01*
X91224217Y-114852872D01*
X91184219Y-114859500D01*
X90769901Y-114859500D01*
X90702862Y-114839815D01*
X90701010Y-114838602D01*
X90629184Y-114790609D01*
X90629172Y-114790602D01*
X90483501Y-114730264D01*
X90483489Y-114730261D01*
X90328845Y-114699500D01*
X90328842Y-114699500D01*
X90171158Y-114699500D01*
X90171155Y-114699500D01*
X90016510Y-114730261D01*
X90016498Y-114730264D01*
X89870827Y-114790602D01*
X89870809Y-114790612D01*
X89793390Y-114842342D01*
X89726713Y-114863220D01*
X89659333Y-114844735D01*
X89612643Y-114792756D01*
X89600500Y-114739240D01*
X89600500Y-103337857D01*
X94119500Y-103337857D01*
X94119500Y-103662143D01*
X94129054Y-103759152D01*
X94151284Y-103984857D01*
X94151287Y-103984874D01*
X94214545Y-104302902D01*
X94214548Y-104302913D01*
X94308686Y-104613247D01*
X94432786Y-104912849D01*
X94432788Y-104912854D01*
X94585646Y-105198830D01*
X94585657Y-105198848D01*
X94765811Y-105468467D01*
X94765821Y-105468481D01*
X94971546Y-105719158D01*
X95200841Y-105948453D01*
X95200846Y-105948457D01*
X95200847Y-105948458D01*
X95451524Y-106154183D01*
X95721158Y-106334347D01*
X95721167Y-106334352D01*
X95721169Y-106334353D01*
X96007145Y-106487211D01*
X96007147Y-106487211D01*
X96007153Y-106487215D01*
X96306754Y-106611314D01*
X96617077Y-106705449D01*
X96617083Y-106705450D01*
X96617086Y-106705451D01*
X96617097Y-106705454D01*
X96816528Y-106745122D01*
X96935132Y-106768714D01*
X97257857Y-106800500D01*
X97257860Y-106800500D01*
X97582140Y-106800500D01*
X97582143Y-106800500D01*
X97904868Y-106768714D01*
X98068418Y-106736182D01*
X98222902Y-106705454D01*
X98222913Y-106705451D01*
X98222913Y-106705450D01*
X98222923Y-106705449D01*
X98533246Y-106611314D01*
X98832847Y-106487215D01*
X99118842Y-106334347D01*
X99388476Y-106154183D01*
X99639153Y-105948458D01*
X99868458Y-105719153D01*
X100074183Y-105468476D01*
X100254347Y-105198842D01*
X100407215Y-104912847D01*
X100531314Y-104613246D01*
X100625449Y-104302923D01*
X100625451Y-104302913D01*
X100625454Y-104302902D01*
X100666128Y-104098414D01*
X100688714Y-103984868D01*
X100720500Y-103662143D01*
X100720500Y-103337857D01*
X100688714Y-103015132D01*
X100654474Y-102842994D01*
X100625454Y-102697097D01*
X100625451Y-102697086D01*
X100625450Y-102697083D01*
X100625449Y-102697077D01*
X100531314Y-102386754D01*
X100407215Y-102087153D01*
X100405836Y-102084574D01*
X100254353Y-101801169D01*
X100254352Y-101801167D01*
X100254347Y-101801158D01*
X100074183Y-101531524D01*
X99868458Y-101280847D01*
X99868457Y-101280846D01*
X99868453Y-101280841D01*
X99639158Y-101051546D01*
X99505166Y-100941582D01*
X99395786Y-100851816D01*
X104110070Y-100851816D01*
X104110070Y-101009509D01*
X104140831Y-101164152D01*
X104140834Y-101164164D01*
X104201172Y-101309835D01*
X104201179Y-101309848D01*
X104288780Y-101440951D01*
X104288783Y-101440955D01*
X104400277Y-101552449D01*
X104400281Y-101552452D01*
X104531384Y-101640053D01*
X104531397Y-101640060D01*
X104677068Y-101700398D01*
X104677073Y-101700400D01*
X104831723Y-101731162D01*
X104831726Y-101731163D01*
X104831728Y-101731163D01*
X104989414Y-101731163D01*
X104989415Y-101731162D01*
X105144067Y-101700400D01*
X105289749Y-101640057D01*
X105307479Y-101628210D01*
X105421445Y-101552061D01*
X105488123Y-101531183D01*
X105490336Y-101531163D01*
X109073901Y-101531163D01*
X109073917Y-101531164D01*
X109081513Y-101531164D01*
X109239624Y-101531164D01*
X109239627Y-101531164D01*
X109392355Y-101490240D01*
X109462918Y-101449500D01*
X109529286Y-101411183D01*
X109641090Y-101299379D01*
X109641090Y-101299377D01*
X109651294Y-101289174D01*
X109651297Y-101289169D01*
X110675232Y-100265235D01*
X110736553Y-100231752D01*
X110738720Y-100231301D01*
X110811488Y-100216826D01*
X110894067Y-100200400D01*
X111039749Y-100140057D01*
X111170859Y-100052452D01*
X111282359Y-99940952D01*
X111369964Y-99809842D01*
X111430307Y-99664160D01*
X111461070Y-99509505D01*
X111461070Y-99351821D01*
X111461070Y-99351818D01*
X111461069Y-99351816D01*
X111440816Y-99250000D01*
X111430307Y-99197166D01*
X111387142Y-99092955D01*
X111369967Y-99051490D01*
X111369960Y-99051477D01*
X111282359Y-98920374D01*
X111282356Y-98920370D01*
X111170862Y-98808876D01*
X111170858Y-98808873D01*
X111039755Y-98721272D01*
X111039742Y-98721265D01*
X110894071Y-98660927D01*
X110894059Y-98660924D01*
X110739415Y-98630163D01*
X110739412Y-98630163D01*
X110581728Y-98630163D01*
X110581725Y-98630163D01*
X110427080Y-98660924D01*
X110427068Y-98660927D01*
X110281397Y-98721265D01*
X110281384Y-98721272D01*
X110150281Y-98808873D01*
X110150277Y-98808876D01*
X110038783Y-98920370D01*
X110038780Y-98920374D01*
X109951179Y-99051477D01*
X109951172Y-99051490D01*
X109890834Y-99197161D01*
X109890831Y-99197171D01*
X109859931Y-99352513D01*
X109827546Y-99414424D01*
X109825995Y-99416002D01*
X108948154Y-100293844D01*
X108886831Y-100327329D01*
X108860473Y-100330163D01*
X105490336Y-100330163D01*
X105423297Y-100310478D01*
X105421445Y-100309265D01*
X105289755Y-100221272D01*
X105289742Y-100221265D01*
X105144071Y-100160927D01*
X105144059Y-100160924D01*
X104989415Y-100130163D01*
X104989412Y-100130163D01*
X104831728Y-100130163D01*
X104831725Y-100130163D01*
X104677080Y-100160924D01*
X104677068Y-100160927D01*
X104531397Y-100221265D01*
X104531384Y-100221272D01*
X104400281Y-100308873D01*
X104400277Y-100308876D01*
X104288783Y-100420370D01*
X104288780Y-100420374D01*
X104201179Y-100551477D01*
X104201172Y-100551490D01*
X104140834Y-100697161D01*
X104140831Y-100697173D01*
X104110070Y-100851816D01*
X99395786Y-100851816D01*
X99388481Y-100845821D01*
X99388480Y-100845820D01*
X99388476Y-100845817D01*
X99118842Y-100665653D01*
X99118837Y-100665650D01*
X99118830Y-100665646D01*
X98832854Y-100512788D01*
X98832849Y-100512786D01*
X98803854Y-100500776D01*
X98680064Y-100449500D01*
X98533247Y-100388686D01*
X98222913Y-100294548D01*
X98222902Y-100294545D01*
X97904874Y-100231287D01*
X97904857Y-100231284D01*
X97660812Y-100207248D01*
X97582143Y-100199500D01*
X97257857Y-100199500D01*
X97185099Y-100206666D01*
X96935142Y-100231284D01*
X96935125Y-100231287D01*
X96617097Y-100294545D01*
X96617086Y-100294548D01*
X96306752Y-100388686D01*
X96007150Y-100512786D01*
X96007145Y-100512788D01*
X95721169Y-100665646D01*
X95721151Y-100665657D01*
X95451532Y-100845811D01*
X95451518Y-100845821D01*
X95200841Y-101051546D01*
X94971546Y-101280841D01*
X94765821Y-101531518D01*
X94765811Y-101531532D01*
X94585657Y-101801151D01*
X94585646Y-101801169D01*
X94432788Y-102087145D01*
X94432786Y-102087150D01*
X94308686Y-102386752D01*
X94214548Y-102697086D01*
X94214545Y-102697097D01*
X94151287Y-103015125D01*
X94151284Y-103015142D01*
X94130072Y-103230518D01*
X94119500Y-103337857D01*
X89600500Y-103337857D01*
X89600500Y-102300096D01*
X89620185Y-102233057D01*
X89636814Y-102212420D01*
X94565496Y-97283737D01*
X94626817Y-97250254D01*
X94696509Y-97255238D01*
X94752442Y-97297110D01*
X94767736Y-97323967D01*
X94790604Y-97379175D01*
X94790609Y-97379185D01*
X94878210Y-97510288D01*
X94878213Y-97510292D01*
X94989707Y-97621786D01*
X94989711Y-97621789D01*
X95120814Y-97709390D01*
X95120827Y-97709397D01*
X95215799Y-97748735D01*
X95266503Y-97769737D01*
X95331147Y-97782595D01*
X95421849Y-97800638D01*
X95483760Y-97833023D01*
X95485339Y-97834574D01*
X96665425Y-99014660D01*
X96698910Y-99075983D01*
X96699361Y-99078149D01*
X96730261Y-99233491D01*
X96730264Y-99233501D01*
X96790602Y-99379172D01*
X96790609Y-99379185D01*
X96878210Y-99510288D01*
X96878213Y-99510292D01*
X96989707Y-99621786D01*
X96989711Y-99621789D01*
X97120814Y-99709390D01*
X97120827Y-99709397D01*
X97218899Y-99750019D01*
X97266503Y-99769737D01*
X97421153Y-99800499D01*
X97421156Y-99800500D01*
X97421158Y-99800500D01*
X97578844Y-99800500D01*
X97578845Y-99800499D01*
X97733497Y-99769737D01*
X97879179Y-99709394D01*
X98010289Y-99621789D01*
X98121789Y-99510289D01*
X98209394Y-99379179D01*
X98269737Y-99233497D01*
X98300500Y-99078842D01*
X98300500Y-98921158D01*
X98300500Y-98921155D01*
X98300499Y-98921153D01*
X98299901Y-98918145D01*
X98269737Y-98766503D01*
X98262901Y-98750000D01*
X98209397Y-98620827D01*
X98209390Y-98620814D01*
X98121789Y-98489711D01*
X98121786Y-98489707D01*
X98010292Y-98378213D01*
X98010288Y-98378210D01*
X97879185Y-98290609D01*
X97879172Y-98290602D01*
X97733501Y-98230264D01*
X97733491Y-98230261D01*
X97578149Y-98199361D01*
X97516238Y-98166976D01*
X97514660Y-98165425D01*
X96334574Y-96985339D01*
X96326096Y-96969976D01*
X96313953Y-96958045D01*
X96302833Y-96927816D01*
X96301327Y-96925087D01*
X96300500Y-96921440D01*
X96300500Y-96921158D01*
X96269737Y-96766503D01*
X96260055Y-96743130D01*
X96260055Y-96743127D01*
X96246956Y-96711504D01*
X103255000Y-96711504D01*
X103255000Y-97110000D01*
X103955001Y-97110000D01*
X103955001Y-97610000D01*
X103255000Y-97610000D01*
X103255000Y-98008495D01*
X103293427Y-98201681D01*
X103293430Y-98201693D01*
X103368807Y-98383671D01*
X103368814Y-98383684D01*
X103478248Y-98547462D01*
X103478251Y-98547466D01*
X103617533Y-98686748D01*
X103617537Y-98686751D01*
X103781315Y-98796185D01*
X103781328Y-98796192D01*
X103963308Y-98871569D01*
X104005000Y-98879862D01*
X104005000Y-98076997D01*
X104014941Y-98094216D01*
X104070796Y-98150071D01*
X104139205Y-98189567D01*
X104215504Y-98210011D01*
X104294496Y-98210011D01*
X104370795Y-98189567D01*
X104439204Y-98150071D01*
X104495059Y-98094216D01*
X104505000Y-98076997D01*
X104505000Y-98879862D01*
X104546690Y-98871569D01*
X104546692Y-98871569D01*
X104728671Y-98796192D01*
X104728684Y-98796185D01*
X104892462Y-98686751D01*
X104892466Y-98686748D01*
X105031748Y-98547466D01*
X105031751Y-98547462D01*
X105141185Y-98383684D01*
X105141192Y-98383671D01*
X105216569Y-98201693D01*
X105216572Y-98201681D01*
X105254999Y-98008495D01*
X105255000Y-98008492D01*
X105255000Y-97760981D01*
X105274685Y-97693942D01*
X105327489Y-97648187D01*
X105396647Y-97638243D01*
X105426448Y-97646418D01*
X105444211Y-97653776D01*
X105444215Y-97653776D01*
X105444216Y-97653777D01*
X105603692Y-97685500D01*
X105603695Y-97685500D01*
X105766307Y-97685500D01*
X105873598Y-97664157D01*
X105925789Y-97653776D01*
X106076021Y-97591548D01*
X106076023Y-97591547D01*
X106183886Y-97519475D01*
X106211225Y-97501208D01*
X106326208Y-97386225D01*
X106383255Y-97300848D01*
X106416547Y-97251023D01*
X106416549Y-97251019D01*
X106466144Y-97131285D01*
X106478776Y-97100789D01*
X106501741Y-96985339D01*
X106510500Y-96941307D01*
X110639499Y-96941307D01*
X110671222Y-97100783D01*
X110671225Y-97100793D01*
X110733450Y-97251019D01*
X110733452Y-97251023D01*
X110823788Y-97386220D01*
X110823794Y-97386228D01*
X110938771Y-97501205D01*
X110938779Y-97501211D01*
X111073976Y-97591547D01*
X111073980Y-97591549D01*
X111206452Y-97646420D01*
X111224211Y-97653776D01*
X111224215Y-97653776D01*
X111224216Y-97653777D01*
X111383692Y-97685500D01*
X111383695Y-97685500D01*
X111546307Y-97685500D01*
X111653598Y-97664157D01*
X111705789Y-97653776D01*
X111723548Y-97646419D01*
X111793016Y-97638951D01*
X111855495Y-97670225D01*
X111891148Y-97730314D01*
X111895000Y-97760981D01*
X111895000Y-98008495D01*
X111933427Y-98201681D01*
X111933430Y-98201693D01*
X112008807Y-98383671D01*
X112008814Y-98383684D01*
X112118248Y-98547462D01*
X112118251Y-98547466D01*
X112257533Y-98686748D01*
X112257537Y-98686751D01*
X112421315Y-98796185D01*
X112421328Y-98796192D01*
X112603308Y-98871569D01*
X112645000Y-98879862D01*
X112645000Y-98076997D01*
X112654941Y-98094216D01*
X112710796Y-98150071D01*
X112779205Y-98189567D01*
X112855504Y-98210011D01*
X112934496Y-98210011D01*
X113010795Y-98189567D01*
X113079204Y-98150071D01*
X113135059Y-98094216D01*
X113145000Y-98076997D01*
X113145000Y-98879862D01*
X113186690Y-98871569D01*
X113186692Y-98871569D01*
X113368671Y-98796192D01*
X113368684Y-98796185D01*
X113532462Y-98686751D01*
X113532466Y-98686748D01*
X113671748Y-98547466D01*
X113671751Y-98547462D01*
X113781185Y-98383684D01*
X113781192Y-98383671D01*
X113856569Y-98201693D01*
X113856572Y-98201681D01*
X113894999Y-98008495D01*
X113895000Y-98008492D01*
X113895000Y-97610000D01*
X113194999Y-97610000D01*
X113194999Y-97110000D01*
X113895000Y-97110000D01*
X113895000Y-96711508D01*
X113894999Y-96711504D01*
X113856572Y-96518318D01*
X113856569Y-96518306D01*
X113781192Y-96336328D01*
X113781185Y-96336315D01*
X113671751Y-96172537D01*
X113671748Y-96172533D01*
X113532466Y-96033251D01*
X113532462Y-96033248D01*
X113368684Y-95923814D01*
X113368671Y-95923807D01*
X113186691Y-95848429D01*
X113186683Y-95848427D01*
X113145000Y-95840135D01*
X113145000Y-96643002D01*
X113135059Y-96625784D01*
X113079204Y-96569929D01*
X113010795Y-96530433D01*
X112934496Y-96509989D01*
X112855504Y-96509989D01*
X112779205Y-96530433D01*
X112710796Y-96569929D01*
X112654941Y-96625784D01*
X112645000Y-96643002D01*
X112645000Y-95840136D01*
X112644999Y-95840135D01*
X112603316Y-95848427D01*
X112603308Y-95848429D01*
X112421328Y-95923807D01*
X112421315Y-95923814D01*
X112257537Y-96033248D01*
X112257533Y-96033251D01*
X112113941Y-96176844D01*
X112112551Y-96175454D01*
X112062291Y-96209686D01*
X111992446Y-96211553D01*
X111955300Y-96194787D01*
X111856022Y-96128452D01*
X111856019Y-96128450D01*
X111705793Y-96066225D01*
X111705783Y-96066222D01*
X111546307Y-96034500D01*
X111546305Y-96034500D01*
X111383695Y-96034500D01*
X111383693Y-96034500D01*
X111224216Y-96066222D01*
X111224206Y-96066225D01*
X111073980Y-96128450D01*
X111073976Y-96128452D01*
X110938779Y-96218788D01*
X110938771Y-96218794D01*
X110823794Y-96333771D01*
X110823788Y-96333779D01*
X110733452Y-96468976D01*
X110733450Y-96468980D01*
X110671225Y-96619206D01*
X110671222Y-96619216D01*
X110639500Y-96778692D01*
X110639500Y-96778695D01*
X110639500Y-96941305D01*
X110639500Y-96941307D01*
X110639499Y-96941307D01*
X106510500Y-96941307D01*
X106510500Y-96778692D01*
X106478777Y-96619216D01*
X106478776Y-96619215D01*
X106478776Y-96619211D01*
X106458363Y-96569929D01*
X106416549Y-96468980D01*
X106416547Y-96468976D01*
X106326211Y-96333779D01*
X106326205Y-96333771D01*
X106211228Y-96218794D01*
X106211220Y-96218788D01*
X106076023Y-96128452D01*
X106076019Y-96128450D01*
X105925793Y-96066225D01*
X105925783Y-96066222D01*
X105766307Y-96034500D01*
X105766305Y-96034500D01*
X105603695Y-96034500D01*
X105603693Y-96034500D01*
X105444216Y-96066222D01*
X105444206Y-96066225D01*
X105293982Y-96128450D01*
X105194699Y-96194788D01*
X105128021Y-96215665D01*
X105060641Y-96197180D01*
X105036678Y-96176224D01*
X105036059Y-96176844D01*
X104892466Y-96033251D01*
X104892462Y-96033248D01*
X104728684Y-95923814D01*
X104728671Y-95923807D01*
X104546691Y-95848429D01*
X104546683Y-95848427D01*
X104505000Y-95840135D01*
X104505000Y-96643002D01*
X104495059Y-96625784D01*
X104439204Y-96569929D01*
X104370795Y-96530433D01*
X104294496Y-96509989D01*
X104215504Y-96509989D01*
X104139205Y-96530433D01*
X104070796Y-96569929D01*
X104014941Y-96625784D01*
X104005000Y-96643002D01*
X104005000Y-95840136D01*
X104004999Y-95840135D01*
X103963316Y-95848427D01*
X103963308Y-95848429D01*
X103781328Y-95923807D01*
X103781315Y-95923814D01*
X103617537Y-96033248D01*
X103617533Y-96033251D01*
X103478251Y-96172533D01*
X103478248Y-96172537D01*
X103368814Y-96336315D01*
X103368807Y-96336328D01*
X103293430Y-96518306D01*
X103293427Y-96518318D01*
X103255000Y-96711504D01*
X96246956Y-96711504D01*
X96209397Y-96620827D01*
X96209390Y-96620814D01*
X96121789Y-96489711D01*
X96121786Y-96489707D01*
X96010292Y-96378213D01*
X96010288Y-96378210D01*
X95879185Y-96290609D01*
X95879175Y-96290604D01*
X95823967Y-96267736D01*
X95769564Y-96223895D01*
X95747499Y-96157600D01*
X95764778Y-96089901D01*
X95783734Y-96065499D01*
X96462416Y-95386819D01*
X96523739Y-95353334D01*
X96550097Y-95350500D01*
X115841824Y-95350500D01*
X115908863Y-95370185D01*
G37*
%TD.AperFunction*%
%TA.AperFunction,Conductor*%
G36*
X70500000Y-96566989D02*
G01*
X70442992Y-96534076D01*
X70315826Y-96500001D01*
X70184174Y-96500001D01*
X70057008Y-96534076D01*
X70000000Y-96566989D01*
X70000000Y-95349999D01*
X70500000Y-95349999D01*
X70500000Y-96566989D01*
G37*
%TD.AperFunction*%
%TA.AperFunction,Conductor*%
G36*
X122996942Y-92600185D02*
G01*
X123017584Y-92616819D01*
X124516938Y-94116173D01*
X124550423Y-94177496D01*
X124545439Y-94247188D01*
X124503567Y-94303121D01*
X124438103Y-94327538D01*
X124381805Y-94318415D01*
X124279118Y-94275881D01*
X124279106Y-94275878D01*
X124124462Y-94245117D01*
X124124459Y-94245117D01*
X124109743Y-94245117D01*
X124094255Y-94240967D01*
X124080509Y-94241622D01*
X124047743Y-94228504D01*
X123993417Y-94197139D01*
X123993415Y-94197138D01*
X123981785Y-94190423D01*
X123829057Y-94149499D01*
X123670943Y-94149499D01*
X123663347Y-94149499D01*
X123663331Y-94149500D01*
X113927077Y-94149500D01*
X113860038Y-94129815D01*
X113814283Y-94077011D01*
X113804339Y-94007853D01*
X113812516Y-93978047D01*
X113856570Y-93871689D01*
X113856572Y-93871681D01*
X113894999Y-93678495D01*
X113895000Y-93678492D01*
X113895000Y-93430000D01*
X113194999Y-93430000D01*
X113194999Y-92930000D01*
X113895000Y-92930000D01*
X113895000Y-92704500D01*
X113914685Y-92637461D01*
X113967489Y-92591706D01*
X114019000Y-92580500D01*
X122929903Y-92580500D01*
X122996942Y-92600185D01*
G37*
%TD.AperFunction*%
%TA.AperFunction,Conductor*%
G36*
X111838039Y-92600185D02*
G01*
X111883794Y-92652989D01*
X111895000Y-92704500D01*
X111895000Y-92930000D01*
X112595001Y-92930000D01*
X112595001Y-93430000D01*
X111895000Y-93430000D01*
X111895000Y-93678495D01*
X111933427Y-93871681D01*
X111933429Y-93871689D01*
X111977484Y-93978047D01*
X111984953Y-94047517D01*
X111953678Y-94109996D01*
X111893589Y-94145648D01*
X111862923Y-94149500D01*
X105287077Y-94149500D01*
X105220038Y-94129815D01*
X105174283Y-94077011D01*
X105164339Y-94007853D01*
X105172516Y-93978047D01*
X105216570Y-93871689D01*
X105216572Y-93871681D01*
X105254999Y-93678495D01*
X105255000Y-93678492D01*
X105255000Y-93430000D01*
X104554999Y-93430000D01*
X104554999Y-92930000D01*
X105255000Y-92930000D01*
X105255000Y-92704500D01*
X105274685Y-92637461D01*
X105327489Y-92591706D01*
X105379000Y-92580500D01*
X111771000Y-92580500D01*
X111838039Y-92600185D01*
G37*
%TD.AperFunction*%
%TA.AperFunction,Conductor*%
G36*
X207252562Y-91000605D02*
G01*
X207699036Y-91019072D01*
X207709209Y-91019915D01*
X208150114Y-91074873D01*
X208160194Y-91076555D01*
X208595043Y-91167733D01*
X208604951Y-91170242D01*
X209030786Y-91297019D01*
X209040454Y-91300338D01*
X209341114Y-91417656D01*
X209454349Y-91461841D01*
X209463734Y-91465958D01*
X209862854Y-91661076D01*
X209871868Y-91665953D01*
X210253545Y-91893383D01*
X210262124Y-91898989D01*
X210623693Y-92157143D01*
X210631770Y-92163430D01*
X210825680Y-92327664D01*
X210970796Y-92450571D01*
X210978336Y-92457512D01*
X211292487Y-92771663D01*
X211299428Y-92779203D01*
X211586565Y-93118224D01*
X211592860Y-93126312D01*
X211851010Y-93487875D01*
X211856616Y-93496454D01*
X212084046Y-93878131D01*
X212088923Y-93887145D01*
X212284041Y-94286265D01*
X212288158Y-94295650D01*
X212449656Y-94709533D01*
X212452984Y-94719226D01*
X212579753Y-95145035D01*
X212582269Y-95154970D01*
X212673441Y-95589791D01*
X212675128Y-95599900D01*
X212730082Y-96040769D01*
X212730928Y-96050983D01*
X212749394Y-96497437D01*
X212749500Y-96502561D01*
X212749500Y-154497438D01*
X212749394Y-154502562D01*
X212730928Y-154949016D01*
X212730082Y-154959230D01*
X212675128Y-155400099D01*
X212673441Y-155410208D01*
X212582269Y-155845029D01*
X212579753Y-155854964D01*
X212452984Y-156280773D01*
X212449656Y-156290466D01*
X212288158Y-156704349D01*
X212284041Y-156713734D01*
X212088923Y-157112854D01*
X212084046Y-157121868D01*
X211856616Y-157503545D01*
X211851010Y-157512124D01*
X211592860Y-157873687D01*
X211586565Y-157881775D01*
X211299428Y-158220796D01*
X211292487Y-158228336D01*
X210978336Y-158542487D01*
X210970796Y-158549428D01*
X210631775Y-158836565D01*
X210623687Y-158842860D01*
X210262124Y-159101010D01*
X210253545Y-159106616D01*
X209871868Y-159334046D01*
X209862854Y-159338923D01*
X209463734Y-159534041D01*
X209454349Y-159538158D01*
X209040466Y-159699656D01*
X209030773Y-159702984D01*
X208604964Y-159829753D01*
X208595029Y-159832269D01*
X208160208Y-159923441D01*
X208150099Y-159925128D01*
X207709230Y-159980082D01*
X207699016Y-159980928D01*
X207252563Y-159999394D01*
X207247439Y-159999500D01*
X59252561Y-159999500D01*
X59247437Y-159999394D01*
X58800983Y-159980928D01*
X58790769Y-159980082D01*
X58349900Y-159925128D01*
X58339791Y-159923441D01*
X57904970Y-159832269D01*
X57895035Y-159829753D01*
X57469226Y-159702984D01*
X57459533Y-159699656D01*
X57045650Y-159538158D01*
X57036265Y-159534041D01*
X56637145Y-159338923D01*
X56628131Y-159334046D01*
X56246454Y-159106616D01*
X56237875Y-159101010D01*
X55876312Y-158842860D01*
X55868224Y-158836565D01*
X55529203Y-158549428D01*
X55521663Y-158542487D01*
X55207512Y-158228336D01*
X55200571Y-158220796D01*
X54913430Y-157881770D01*
X54907139Y-157873687D01*
X54648989Y-157512124D01*
X54643383Y-157503545D01*
X54415953Y-157121868D01*
X54411076Y-157112854D01*
X54215958Y-156713734D01*
X54211841Y-156704349D01*
X54167656Y-156591114D01*
X54050338Y-156290454D01*
X54047019Y-156280786D01*
X53920242Y-155854951D01*
X53917733Y-155845043D01*
X53826555Y-155410194D01*
X53824873Y-155400114D01*
X53769915Y-154959209D01*
X53769072Y-154949036D01*
X53750606Y-154502562D01*
X53750500Y-154497438D01*
X53750500Y-153378711D01*
X58149500Y-153378711D01*
X58149500Y-153621288D01*
X58181161Y-153861785D01*
X58243947Y-154096104D01*
X58257454Y-154128712D01*
X58336776Y-154320212D01*
X58458064Y-154530289D01*
X58458066Y-154530292D01*
X58458067Y-154530293D01*
X58605733Y-154722736D01*
X58605739Y-154722743D01*
X58777256Y-154894260D01*
X58777262Y-154894265D01*
X58969711Y-155041936D01*
X59179788Y-155163224D01*
X59403900Y-155256054D01*
X59638211Y-155318838D01*
X59818586Y-155342584D01*
X59878711Y-155350500D01*
X59878712Y-155350500D01*
X60121289Y-155350500D01*
X60169388Y-155344167D01*
X60361789Y-155318838D01*
X60596100Y-155256054D01*
X60820212Y-155163224D01*
X61030289Y-155041936D01*
X61222738Y-154894265D01*
X61394265Y-154722738D01*
X61541936Y-154530289D01*
X61663224Y-154320212D01*
X61756054Y-154096100D01*
X61818838Y-153861789D01*
X61850500Y-153621288D01*
X61850500Y-153378712D01*
X61818838Y-153138211D01*
X61756054Y-152903900D01*
X61663224Y-152679788D01*
X61541936Y-152469711D01*
X61394265Y-152277262D01*
X61394260Y-152277256D01*
X61222743Y-152105739D01*
X61222736Y-152105733D01*
X61030293Y-151958067D01*
X61030292Y-151958066D01*
X61030289Y-151958064D01*
X60820212Y-151836776D01*
X60820205Y-151836773D01*
X60596104Y-151743947D01*
X60361785Y-151681161D01*
X60121289Y-151649500D01*
X60121288Y-151649500D01*
X59878712Y-151649500D01*
X59878711Y-151649500D01*
X59638214Y-151681161D01*
X59403895Y-151743947D01*
X59179794Y-151836773D01*
X59179785Y-151836777D01*
X58969706Y-151958067D01*
X58777263Y-152105733D01*
X58777256Y-152105739D01*
X58605739Y-152277256D01*
X58605733Y-152277263D01*
X58458067Y-152469706D01*
X58336777Y-152679785D01*
X58336773Y-152679794D01*
X58243947Y-152903895D01*
X58181161Y-153138214D01*
X58149500Y-153378711D01*
X53750500Y-153378711D01*
X53750500Y-149671153D01*
X64199500Y-149671153D01*
X64199500Y-149828846D01*
X64230261Y-149983489D01*
X64230264Y-149983501D01*
X64290602Y-150129172D01*
X64290609Y-150129185D01*
X64378210Y-150260288D01*
X64378213Y-150260292D01*
X64489707Y-150371786D01*
X64489711Y-150371789D01*
X64620814Y-150459390D01*
X64620827Y-150459397D01*
X64687987Y-150487215D01*
X64766503Y-150519737D01*
X64831147Y-150532595D01*
X64921849Y-150550638D01*
X64983760Y-150583023D01*
X64985339Y-150584574D01*
X69765139Y-155364374D01*
X69765149Y-155364385D01*
X69769479Y-155368715D01*
X69769480Y-155368716D01*
X69881284Y-155480520D01*
X69968095Y-155530639D01*
X69968097Y-155530641D01*
X70018213Y-155559576D01*
X70018215Y-155559577D01*
X70170942Y-155600500D01*
X70170943Y-155600500D01*
X175663331Y-155600500D01*
X175663347Y-155600501D01*
X175670943Y-155600501D01*
X175829054Y-155600501D01*
X175829057Y-155600501D01*
X175981785Y-155559577D01*
X176031904Y-155530639D01*
X176118716Y-155480520D01*
X176230520Y-155368716D01*
X176230520Y-155368714D01*
X176240728Y-155358507D01*
X176240730Y-155358504D01*
X177470523Y-154128711D01*
X204899500Y-154128711D01*
X204899500Y-154371288D01*
X204931161Y-154611785D01*
X204993947Y-154846104D01*
X205075062Y-155041932D01*
X205086776Y-155070212D01*
X205208064Y-155280289D01*
X205208066Y-155280292D01*
X205208067Y-155280293D01*
X205355733Y-155472736D01*
X205355739Y-155472743D01*
X205527256Y-155644260D01*
X205527262Y-155644265D01*
X205719711Y-155791936D01*
X205929788Y-155913224D01*
X206153900Y-156006054D01*
X206388211Y-156068838D01*
X206568586Y-156092584D01*
X206628711Y-156100500D01*
X206628712Y-156100500D01*
X206871289Y-156100500D01*
X206919388Y-156094167D01*
X207111789Y-156068838D01*
X207346100Y-156006054D01*
X207570212Y-155913224D01*
X207780289Y-155791936D01*
X207972738Y-155644265D01*
X208144265Y-155472738D01*
X208291936Y-155280289D01*
X208413224Y-155070212D01*
X208506054Y-154846100D01*
X208568838Y-154611789D01*
X208600500Y-154371288D01*
X208600500Y-154128712D01*
X208568838Y-153888211D01*
X208506054Y-153653900D01*
X208413224Y-153429788D01*
X208291936Y-153219711D01*
X208144265Y-153027262D01*
X208144260Y-153027256D01*
X207972743Y-152855739D01*
X207972736Y-152855733D01*
X207780293Y-152708067D01*
X207780292Y-152708066D01*
X207780289Y-152708064D01*
X207570212Y-152586776D01*
X207570205Y-152586773D01*
X207346104Y-152493947D01*
X207111785Y-152431161D01*
X206871289Y-152399500D01*
X206871288Y-152399500D01*
X206628712Y-152399500D01*
X206628711Y-152399500D01*
X206388214Y-152431161D01*
X206153895Y-152493947D01*
X205929794Y-152586773D01*
X205929785Y-152586777D01*
X205719706Y-152708067D01*
X205527263Y-152855733D01*
X205527256Y-152855739D01*
X205355739Y-153027256D01*
X205355733Y-153027263D01*
X205208067Y-153219706D01*
X205086777Y-153429785D01*
X205086773Y-153429794D01*
X204993947Y-153653895D01*
X204931161Y-153888214D01*
X204899500Y-154128711D01*
X177470523Y-154128711D01*
X181368713Y-150230521D01*
X181368716Y-150230520D01*
X181480520Y-150118716D01*
X181530639Y-150031904D01*
X181559577Y-149981785D01*
X181600500Y-149829058D01*
X181600500Y-149670943D01*
X181600500Y-148079765D01*
X181620185Y-148012726D01*
X181621398Y-148010874D01*
X181709390Y-147879185D01*
X181709390Y-147879184D01*
X181709394Y-147879179D01*
X181769737Y-147733497D01*
X181800500Y-147578842D01*
X181800500Y-147421158D01*
X181800500Y-147421155D01*
X181800499Y-147421153D01*
X181769738Y-147266510D01*
X181769737Y-147266503D01*
X181769735Y-147266498D01*
X181709397Y-147120827D01*
X181709390Y-147120814D01*
X181621789Y-146989711D01*
X181621786Y-146989707D01*
X181510292Y-146878213D01*
X181510288Y-146878210D01*
X181379185Y-146790609D01*
X181379172Y-146790602D01*
X181233501Y-146730264D01*
X181233489Y-146730261D01*
X181078845Y-146699500D01*
X181078842Y-146699500D01*
X180921158Y-146699500D01*
X180921155Y-146699500D01*
X180766510Y-146730261D01*
X180766498Y-146730264D01*
X180620827Y-146790602D01*
X180620814Y-146790609D01*
X180489711Y-146878210D01*
X180489707Y-146878213D01*
X180378213Y-146989707D01*
X180378210Y-146989711D01*
X180290609Y-147120814D01*
X180290602Y-147120827D01*
X180230264Y-147266498D01*
X180230261Y-147266510D01*
X180199500Y-147421153D01*
X180199500Y-147578846D01*
X180230261Y-147733489D01*
X180230264Y-147733501D01*
X180290602Y-147879172D01*
X180290609Y-147879185D01*
X180378602Y-148010874D01*
X180399480Y-148077551D01*
X180399500Y-148079765D01*
X180399500Y-149449903D01*
X180379815Y-149516942D01*
X180363181Y-149537584D01*
X175537584Y-154363181D01*
X175476261Y-154396666D01*
X175449903Y-154399500D01*
X70550097Y-154399500D01*
X70483058Y-154379815D01*
X70462416Y-154363181D01*
X65834574Y-149735339D01*
X65801089Y-149674016D01*
X65800638Y-149671849D01*
X65769738Y-149516510D01*
X65769737Y-149516503D01*
X65742151Y-149449903D01*
X65709397Y-149370827D01*
X65709390Y-149370814D01*
X65621789Y-149239711D01*
X65621786Y-149239707D01*
X65510292Y-149128213D01*
X65510288Y-149128210D01*
X65379185Y-149040609D01*
X65379172Y-149040602D01*
X65233501Y-148980264D01*
X65233489Y-148980261D01*
X65078845Y-148949500D01*
X65078842Y-148949500D01*
X64921158Y-148949500D01*
X64921155Y-148949500D01*
X64766510Y-148980261D01*
X64766498Y-148980264D01*
X64620827Y-149040602D01*
X64620814Y-149040609D01*
X64489711Y-149128210D01*
X64489707Y-149128213D01*
X64378213Y-149239707D01*
X64378210Y-149239711D01*
X64290609Y-149370814D01*
X64290602Y-149370827D01*
X64230264Y-149516498D01*
X64230261Y-149516510D01*
X64199500Y-149671153D01*
X53750500Y-149671153D01*
X53750500Y-147337860D01*
X94119500Y-147337860D01*
X94119500Y-147662139D01*
X94151284Y-147984857D01*
X94151287Y-147984874D01*
X94214545Y-148302902D01*
X94214548Y-148302913D01*
X94308686Y-148613247D01*
X94432786Y-148912849D01*
X94432788Y-148912854D01*
X94585646Y-149198830D01*
X94585657Y-149198848D01*
X94765811Y-149468467D01*
X94765821Y-149468481D01*
X94971546Y-149719158D01*
X95200841Y-149948453D01*
X95200846Y-149948457D01*
X95200847Y-149948458D01*
X95451524Y-150154183D01*
X95721158Y-150334347D01*
X95721167Y-150334352D01*
X95721169Y-150334353D01*
X96007145Y-150487211D01*
X96007147Y-150487211D01*
X96007153Y-150487215D01*
X96306754Y-150611314D01*
X96617077Y-150705449D01*
X96617083Y-150705450D01*
X96617086Y-150705451D01*
X96617097Y-150705454D01*
X96816528Y-150745122D01*
X96935132Y-150768714D01*
X97257857Y-150800500D01*
X97257860Y-150800500D01*
X97582140Y-150800500D01*
X97582143Y-150800500D01*
X97904868Y-150768714D01*
X98062295Y-150737399D01*
X98222902Y-150705454D01*
X98222913Y-150705451D01*
X98222913Y-150705450D01*
X98222923Y-150705449D01*
X98533246Y-150611314D01*
X98832847Y-150487215D01*
X99118842Y-150334347D01*
X99388476Y-150154183D01*
X99639153Y-149948458D01*
X99868458Y-149719153D01*
X100074183Y-149468476D01*
X100254347Y-149198842D01*
X100407215Y-148912847D01*
X100531314Y-148613246D01*
X100625449Y-148302923D01*
X100625451Y-148302913D01*
X100625454Y-148302902D01*
X100670278Y-148077551D01*
X100688714Y-147984868D01*
X100720500Y-147662143D01*
X100720500Y-147337860D01*
X170199500Y-147337860D01*
X170199500Y-147662139D01*
X170231284Y-147984857D01*
X170231287Y-147984874D01*
X170294545Y-148302902D01*
X170294548Y-148302913D01*
X170388686Y-148613247D01*
X170512786Y-148912849D01*
X170512788Y-148912854D01*
X170665646Y-149198830D01*
X170665657Y-149198848D01*
X170845811Y-149468467D01*
X170845821Y-149468481D01*
X171051546Y-149719158D01*
X171280841Y-149948453D01*
X171280846Y-149948457D01*
X171280847Y-149948458D01*
X171531524Y-150154183D01*
X171801158Y-150334347D01*
X171801167Y-150334352D01*
X171801169Y-150334353D01*
X172087145Y-150487211D01*
X172087147Y-150487211D01*
X172087153Y-150487215D01*
X172386754Y-150611314D01*
X172697077Y-150705449D01*
X172697083Y-150705450D01*
X172697086Y-150705451D01*
X172697097Y-150705454D01*
X172896528Y-150745122D01*
X173015132Y-150768714D01*
X173337857Y-150800500D01*
X173337860Y-150800500D01*
X173662140Y-150800500D01*
X173662143Y-150800500D01*
X173984868Y-150768714D01*
X174142295Y-150737399D01*
X174302902Y-150705454D01*
X174302913Y-150705451D01*
X174302913Y-150705450D01*
X174302923Y-150705449D01*
X174613246Y-150611314D01*
X174912847Y-150487215D01*
X175198842Y-150334347D01*
X175468476Y-150154183D01*
X175719153Y-149948458D01*
X175948458Y-149719153D01*
X176154183Y-149468476D01*
X176334347Y-149198842D01*
X176487215Y-148912847D01*
X176611314Y-148613246D01*
X176705449Y-148302923D01*
X176705451Y-148302913D01*
X176705454Y-148302902D01*
X176750278Y-148077551D01*
X176768714Y-147984868D01*
X176800500Y-147662143D01*
X176800500Y-147337857D01*
X176768714Y-147015132D01*
X176724054Y-146790609D01*
X176705454Y-146697097D01*
X176705451Y-146697086D01*
X176705450Y-146697083D01*
X176705449Y-146697077D01*
X176611314Y-146386754D01*
X176487215Y-146087153D01*
X176334347Y-145801158D01*
X176154183Y-145531524D01*
X175948458Y-145280847D01*
X175948457Y-145280846D01*
X175948453Y-145280841D01*
X175719158Y-145051546D01*
X175468481Y-144845821D01*
X175468480Y-144845820D01*
X175468476Y-144845817D01*
X175198842Y-144665653D01*
X175198837Y-144665650D01*
X175198830Y-144665646D01*
X174912854Y-144512788D01*
X174912849Y-144512786D01*
X174613247Y-144388686D01*
X174302913Y-144294548D01*
X174302902Y-144294545D01*
X173984874Y-144231287D01*
X173984857Y-144231284D01*
X173740812Y-144207248D01*
X173662143Y-144199500D01*
X173337857Y-144199500D01*
X173265099Y-144206666D01*
X173015142Y-144231284D01*
X173015125Y-144231287D01*
X172697097Y-144294545D01*
X172697086Y-144294548D01*
X172386752Y-144388686D01*
X172087150Y-144512786D01*
X172087145Y-144512788D01*
X171801169Y-144665646D01*
X171801151Y-144665657D01*
X171531532Y-144845811D01*
X171531518Y-144845821D01*
X171280841Y-145051546D01*
X171051546Y-145280841D01*
X170845821Y-145531518D01*
X170845811Y-145531532D01*
X170665657Y-145801151D01*
X170665646Y-145801169D01*
X170512788Y-146087145D01*
X170512786Y-146087150D01*
X170388686Y-146386752D01*
X170294548Y-146697086D01*
X170294545Y-146697097D01*
X170231287Y-147015125D01*
X170231284Y-147015142D01*
X170199500Y-147337860D01*
X100720500Y-147337860D01*
X100720500Y-147337857D01*
X100688714Y-147015132D01*
X100644054Y-146790609D01*
X100625454Y-146697097D01*
X100625451Y-146697086D01*
X100625450Y-146697083D01*
X100625449Y-146697077D01*
X100531314Y-146386754D01*
X100407215Y-146087153D01*
X100254347Y-145801158D01*
X100074183Y-145531524D01*
X99868458Y-145280847D01*
X99868457Y-145280846D01*
X99868453Y-145280841D01*
X99639158Y-145051546D01*
X99388481Y-144845821D01*
X99388480Y-144845820D01*
X99388476Y-144845817D01*
X99118842Y-144665653D01*
X99118837Y-144665650D01*
X99118830Y-144665646D01*
X98832854Y-144512788D01*
X98832849Y-144512786D01*
X98533247Y-144388686D01*
X98222913Y-144294548D01*
X98222902Y-144294545D01*
X97904874Y-144231287D01*
X97904857Y-144231284D01*
X97660812Y-144207248D01*
X97582143Y-144199500D01*
X97257857Y-144199500D01*
X97185099Y-144206666D01*
X96935142Y-144231284D01*
X96935125Y-144231287D01*
X96617097Y-144294545D01*
X96617086Y-144294548D01*
X96306752Y-144388686D01*
X96007150Y-144512786D01*
X96007145Y-144512788D01*
X95721169Y-144665646D01*
X95721151Y-144665657D01*
X95451532Y-144845811D01*
X95451518Y-144845821D01*
X95200841Y-145051546D01*
X94971546Y-145280841D01*
X94765821Y-145531518D01*
X94765811Y-145531532D01*
X94585657Y-145801151D01*
X94585646Y-145801169D01*
X94432788Y-146087145D01*
X94432786Y-146087150D01*
X94308686Y-146386752D01*
X94214548Y-146697086D01*
X94214545Y-146697097D01*
X94151287Y-147015125D01*
X94151284Y-147015142D01*
X94119500Y-147337860D01*
X53750500Y-147337860D01*
X53750500Y-140881947D01*
X67750000Y-140881947D01*
X67750000Y-141118052D01*
X67786934Y-141351247D01*
X67859897Y-141575802D01*
X67967087Y-141786174D01*
X68027338Y-141869104D01*
X68027340Y-141869105D01*
X68726212Y-141170233D01*
X68737482Y-141212292D01*
X68809890Y-141337708D01*
X68912292Y-141440110D01*
X69037708Y-141512518D01*
X69079765Y-141523787D01*
X68380893Y-142222658D01*
X68463828Y-142282914D01*
X68674197Y-142390102D01*
X68898752Y-142463065D01*
X68898751Y-142463065D01*
X69131948Y-142500000D01*
X69368052Y-142500000D01*
X69601247Y-142463065D01*
X69825802Y-142390102D01*
X70036163Y-142282918D01*
X70036169Y-142282914D01*
X70119104Y-142222658D01*
X70119105Y-142222658D01*
X69420233Y-141523787D01*
X69462292Y-141512518D01*
X69587708Y-141440110D01*
X69690110Y-141337708D01*
X69762518Y-141212292D01*
X69773787Y-141170234D01*
X70472658Y-141869105D01*
X70472658Y-141869104D01*
X70532914Y-141786169D01*
X70532918Y-141786163D01*
X70640102Y-141575802D01*
X70713065Y-141351247D01*
X70750000Y-141118052D01*
X70750000Y-140881947D01*
X74250000Y-140881947D01*
X74250000Y-141118052D01*
X74286934Y-141351247D01*
X74359897Y-141575802D01*
X74467087Y-141786174D01*
X74527338Y-141869104D01*
X74527340Y-141869105D01*
X75226212Y-141170233D01*
X75237482Y-141212292D01*
X75309890Y-141337708D01*
X75412292Y-141440110D01*
X75537708Y-141512518D01*
X75579765Y-141523787D01*
X74880893Y-142222658D01*
X74963828Y-142282914D01*
X75174197Y-142390102D01*
X75398752Y-142463065D01*
X75398751Y-142463065D01*
X75631948Y-142500000D01*
X75868052Y-142500000D01*
X76101247Y-142463065D01*
X76325802Y-142390102D01*
X76536163Y-142282918D01*
X76536169Y-142282914D01*
X76619104Y-142222658D01*
X76619105Y-142222658D01*
X75920233Y-141523787D01*
X75962292Y-141512518D01*
X76087708Y-141440110D01*
X76190110Y-141337708D01*
X76262518Y-141212292D01*
X76273787Y-141170234D01*
X76972658Y-141869105D01*
X76972658Y-141869104D01*
X77032914Y-141786169D01*
X77032918Y-141786163D01*
X77140102Y-141575802D01*
X77213065Y-141351247D01*
X77250000Y-141118052D01*
X77250000Y-140881947D01*
X77213065Y-140648752D01*
X77140102Y-140424197D01*
X77032914Y-140213828D01*
X76972658Y-140130894D01*
X76972658Y-140130893D01*
X76273787Y-140829765D01*
X76262518Y-140787708D01*
X76190110Y-140662292D01*
X76087708Y-140559890D01*
X75962292Y-140487482D01*
X75920234Y-140476212D01*
X76619105Y-139777340D01*
X76619104Y-139777338D01*
X76536174Y-139717087D01*
X76325802Y-139609897D01*
X76101247Y-139536934D01*
X76101248Y-139536934D01*
X75868052Y-139500000D01*
X75631948Y-139500000D01*
X75398752Y-139536934D01*
X75174197Y-139609897D01*
X74963830Y-139717084D01*
X74880894Y-139777340D01*
X75579766Y-140476212D01*
X75537708Y-140487482D01*
X75412292Y-140559890D01*
X75309890Y-140662292D01*
X75237482Y-140787708D01*
X75226212Y-140829766D01*
X74527340Y-140130894D01*
X74467084Y-140213830D01*
X74359897Y-140424197D01*
X74286934Y-140648752D01*
X74250000Y-140881947D01*
X70750000Y-140881947D01*
X70713065Y-140648752D01*
X70640102Y-140424197D01*
X70532914Y-140213828D01*
X70472658Y-140130894D01*
X70472658Y-140130893D01*
X69773787Y-140829765D01*
X69762518Y-140787708D01*
X69690110Y-140662292D01*
X69587708Y-140559890D01*
X69462292Y-140487482D01*
X69420234Y-140476212D01*
X70119105Y-139777340D01*
X70119104Y-139777339D01*
X70036174Y-139717087D01*
X69825802Y-139609897D01*
X69601247Y-139536934D01*
X69601248Y-139536934D01*
X69368052Y-139500000D01*
X69131948Y-139500000D01*
X68898752Y-139536934D01*
X68674197Y-139609897D01*
X68463830Y-139717084D01*
X68380894Y-139777340D01*
X69079766Y-140476212D01*
X69037708Y-140487482D01*
X68912292Y-140559890D01*
X68809890Y-140662292D01*
X68737482Y-140787708D01*
X68726212Y-140829766D01*
X68027340Y-140130894D01*
X67967084Y-140213830D01*
X67859897Y-140424197D01*
X67786934Y-140648752D01*
X67750000Y-140881947D01*
X53750500Y-140881947D01*
X53750500Y-136381902D01*
X67749500Y-136381902D01*
X67749500Y-136618097D01*
X67786446Y-136851368D01*
X67859433Y-137075996D01*
X67917578Y-137190110D01*
X67966657Y-137286433D01*
X68105483Y-137477510D01*
X68272490Y-137644517D01*
X68463567Y-137783343D01*
X68535874Y-137820185D01*
X68674003Y-137890566D01*
X68674005Y-137890566D01*
X68674008Y-137890568D01*
X68794412Y-137929689D01*
X68898631Y-137963553D01*
X69131903Y-138000500D01*
X69131908Y-138000500D01*
X69368097Y-138000500D01*
X69601368Y-137963553D01*
X69825992Y-137890568D01*
X70036433Y-137783343D01*
X70227510Y-137644517D01*
X70394517Y-137477510D01*
X70533343Y-137286433D01*
X70593583Y-137168204D01*
X70641558Y-137117409D01*
X70704068Y-137100500D01*
X74295932Y-137100500D01*
X74362971Y-137120185D01*
X74406416Y-137168203D01*
X74466657Y-137286433D01*
X74605483Y-137477510D01*
X74772490Y-137644517D01*
X74963567Y-137783343D01*
X75035874Y-137820185D01*
X75174003Y-137890566D01*
X75174005Y-137890566D01*
X75174008Y-137890568D01*
X75294412Y-137929689D01*
X75398631Y-137963553D01*
X75631903Y-138000500D01*
X75631908Y-138000500D01*
X75868097Y-138000500D01*
X76101368Y-137963553D01*
X76325992Y-137890568D01*
X76536433Y-137783343D01*
X76727510Y-137644517D01*
X76894517Y-137477510D01*
X77033343Y-137286433D01*
X77093583Y-137168204D01*
X77141558Y-137117409D01*
X77204068Y-137100500D01*
X85896985Y-137100500D01*
X85897001Y-137100501D01*
X85904597Y-137100501D01*
X86062708Y-137100501D01*
X86062711Y-137100501D01*
X86215439Y-137059577D01*
X86230002Y-137051168D01*
X86269171Y-137028555D01*
X86269182Y-137028547D01*
X86269194Y-137028541D01*
X86352370Y-136980520D01*
X86464174Y-136868716D01*
X86464174Y-136868714D01*
X86474378Y-136858511D01*
X86474382Y-136858506D01*
X91035723Y-132297164D01*
X91097044Y-132263681D01*
X91166736Y-132268665D01*
X91222669Y-132310537D01*
X91241331Y-132346525D01*
X91246010Y-132360926D01*
X91248444Y-132368416D01*
X91344951Y-132557820D01*
X91469890Y-132729786D01*
X91620213Y-132880109D01*
X91792182Y-133005050D01*
X91800946Y-133009516D01*
X91851742Y-133057491D01*
X91868536Y-133125312D01*
X91845998Y-133191447D01*
X91800946Y-133230484D01*
X91792182Y-133234949D01*
X91620213Y-133359890D01*
X91469890Y-133510213D01*
X91344951Y-133682179D01*
X91248444Y-133871585D01*
X91182753Y-134073760D01*
X91149500Y-134283713D01*
X91149500Y-134496286D01*
X91182753Y-134706239D01*
X91248444Y-134908414D01*
X91344951Y-135097820D01*
X91469890Y-135269786D01*
X91620213Y-135420109D01*
X91792182Y-135545050D01*
X91800946Y-135549516D01*
X91851742Y-135597491D01*
X91868536Y-135665312D01*
X91845998Y-135731447D01*
X91800946Y-135770484D01*
X91792182Y-135774949D01*
X91620213Y-135899890D01*
X91469890Y-136050213D01*
X91344951Y-136222179D01*
X91248444Y-136411585D01*
X91182753Y-136613760D01*
X91165541Y-136722433D01*
X91149500Y-136823713D01*
X91149500Y-137036287D01*
X91182754Y-137246243D01*
X91208604Y-137325802D01*
X91248444Y-137448414D01*
X91344951Y-137637820D01*
X91469890Y-137809786D01*
X91620213Y-137960109D01*
X91792182Y-138085050D01*
X91800946Y-138089516D01*
X91851742Y-138137491D01*
X91868536Y-138205312D01*
X91845998Y-138271447D01*
X91800946Y-138310484D01*
X91792182Y-138314949D01*
X91620213Y-138439890D01*
X91469890Y-138590213D01*
X91344951Y-138762179D01*
X91248444Y-138951585D01*
X91182753Y-139153760D01*
X91149500Y-139363713D01*
X91149500Y-139576286D01*
X91182753Y-139786239D01*
X91248444Y-139988414D01*
X91344951Y-140177820D01*
X91469890Y-140349786D01*
X91620213Y-140500109D01*
X91792182Y-140625050D01*
X91800946Y-140629516D01*
X91851742Y-140677491D01*
X91868536Y-140745312D01*
X91845998Y-140811447D01*
X91800946Y-140850484D01*
X91792182Y-140854949D01*
X91620213Y-140979890D01*
X91469890Y-141130213D01*
X91344951Y-141302179D01*
X91248444Y-141491585D01*
X91182753Y-141693760D01*
X91154981Y-141869105D01*
X91149500Y-141903713D01*
X91149500Y-142116287D01*
X91182754Y-142326243D01*
X91239211Y-142500000D01*
X91248444Y-142528414D01*
X91344951Y-142717820D01*
X91469890Y-142889786D01*
X91620213Y-143040109D01*
X91792179Y-143165048D01*
X91792181Y-143165049D01*
X91792184Y-143165051D01*
X91981588Y-143261557D01*
X92183757Y-143327246D01*
X92393713Y-143360500D01*
X92393714Y-143360500D01*
X92606286Y-143360500D01*
X92606287Y-143360500D01*
X92816243Y-143327246D01*
X93018412Y-143261557D01*
X93207816Y-143165051D01*
X93229789Y-143149086D01*
X93379786Y-143040109D01*
X93379788Y-143040106D01*
X93379792Y-143040104D01*
X93530104Y-142889792D01*
X93655051Y-142717816D01*
X93751557Y-142528412D01*
X93817246Y-142326243D01*
X93850500Y-142116287D01*
X93850500Y-141903713D01*
X93817246Y-141693757D01*
X93780917Y-141581947D01*
X183250000Y-141581947D01*
X183250000Y-141818052D01*
X183286934Y-142051247D01*
X183359897Y-142275802D01*
X183467087Y-142486174D01*
X183527338Y-142569104D01*
X183527340Y-142569105D01*
X184226212Y-141870233D01*
X184237482Y-141912292D01*
X184309890Y-142037708D01*
X184412292Y-142140110D01*
X184537708Y-142212518D01*
X184579765Y-142223787D01*
X183880893Y-142922658D01*
X183963828Y-142982914D01*
X184174197Y-143090102D01*
X184398752Y-143163065D01*
X184398751Y-143163065D01*
X184631948Y-143200000D01*
X184868052Y-143200000D01*
X185101247Y-143163065D01*
X185325802Y-143090102D01*
X185536163Y-142982918D01*
X185536169Y-142982914D01*
X185619104Y-142922658D01*
X185619105Y-142922658D01*
X184920233Y-142223787D01*
X184962292Y-142212518D01*
X185087708Y-142140110D01*
X185190110Y-142037708D01*
X185262518Y-141912292D01*
X185273787Y-141870233D01*
X185972658Y-142569105D01*
X185972658Y-142569104D01*
X186032914Y-142486169D01*
X186032918Y-142486163D01*
X186140102Y-142275802D01*
X186213065Y-142051247D01*
X186250000Y-141818052D01*
X186250000Y-141581947D01*
X189750000Y-141581947D01*
X189750000Y-141818052D01*
X189786934Y-142051247D01*
X189859897Y-142275802D01*
X189967087Y-142486174D01*
X190027338Y-142569104D01*
X190027340Y-142569105D01*
X190726212Y-141870233D01*
X190737482Y-141912292D01*
X190809890Y-142037708D01*
X190912292Y-142140110D01*
X191037708Y-142212518D01*
X191079765Y-142223787D01*
X190380893Y-142922658D01*
X190463828Y-142982914D01*
X190674197Y-143090102D01*
X190898752Y-143163065D01*
X190898751Y-143163065D01*
X191131948Y-143200000D01*
X191368052Y-143200000D01*
X191601247Y-143163065D01*
X191825802Y-143090102D01*
X192036163Y-142982918D01*
X192036169Y-142982914D01*
X192119104Y-142922658D01*
X192119105Y-142922658D01*
X191420233Y-142223787D01*
X191462292Y-142212518D01*
X191587708Y-142140110D01*
X191690110Y-142037708D01*
X191762518Y-141912292D01*
X191773787Y-141870234D01*
X192472658Y-142569105D01*
X192472658Y-142569104D01*
X192532914Y-142486169D01*
X192532918Y-142486163D01*
X192640102Y-142275802D01*
X192713065Y-142051247D01*
X192750000Y-141818052D01*
X192750000Y-141581947D01*
X192713065Y-141348752D01*
X192640102Y-141124197D01*
X192532914Y-140913828D01*
X192472658Y-140830894D01*
X192472658Y-140830893D01*
X191773787Y-141529765D01*
X191762518Y-141487708D01*
X191690110Y-141362292D01*
X191587708Y-141259890D01*
X191462292Y-141187482D01*
X191420234Y-141176212D01*
X192119105Y-140477340D01*
X192119104Y-140477338D01*
X192036174Y-140417087D01*
X191825802Y-140309897D01*
X191601247Y-140236934D01*
X191601248Y-140236934D01*
X191368052Y-140200000D01*
X191131948Y-140200000D01*
X190898752Y-140236934D01*
X190674197Y-140309897D01*
X190463830Y-140417084D01*
X190380894Y-140477340D01*
X191079766Y-141176212D01*
X191037708Y-141187482D01*
X190912292Y-141259890D01*
X190809890Y-141362292D01*
X190737482Y-141487708D01*
X190726212Y-141529766D01*
X190027340Y-140830894D01*
X189967084Y-140913830D01*
X189859897Y-141124197D01*
X189786934Y-141348752D01*
X189750000Y-141581947D01*
X186250000Y-141581947D01*
X186213065Y-141348752D01*
X186140102Y-141124197D01*
X186032914Y-140913828D01*
X185972658Y-140830894D01*
X185972658Y-140830893D01*
X185273787Y-141529765D01*
X185262518Y-141487708D01*
X185190110Y-141362292D01*
X185087708Y-141259890D01*
X184962292Y-141187482D01*
X184920234Y-141176212D01*
X185619105Y-140477340D01*
X185619104Y-140477339D01*
X185536174Y-140417087D01*
X185325802Y-140309897D01*
X185101247Y-140236934D01*
X185101248Y-140236934D01*
X184868052Y-140200000D01*
X184631948Y-140200000D01*
X184398752Y-140236934D01*
X184174197Y-140309897D01*
X183963830Y-140417084D01*
X183880894Y-140477340D01*
X184579766Y-141176212D01*
X184537708Y-141187482D01*
X184412292Y-141259890D01*
X184309890Y-141362292D01*
X184237482Y-141487708D01*
X184226212Y-141529765D01*
X183527340Y-140830894D01*
X183467084Y-140913830D01*
X183359897Y-141124197D01*
X183286934Y-141348752D01*
X183250000Y-141581947D01*
X93780917Y-141581947D01*
X93751557Y-141491588D01*
X93751555Y-141491585D01*
X93751555Y-141491583D01*
X93698705Y-141387861D01*
X93655051Y-141302184D01*
X93655049Y-141302181D01*
X93655048Y-141302179D01*
X93530109Y-141130213D01*
X93379786Y-140979890D01*
X93207820Y-140854951D01*
X93207115Y-140854591D01*
X93199054Y-140850485D01*
X93148259Y-140802512D01*
X93131463Y-140734692D01*
X93153999Y-140668556D01*
X93199054Y-140629515D01*
X93207816Y-140625051D01*
X93297503Y-140559890D01*
X93379786Y-140500109D01*
X93379788Y-140500106D01*
X93379792Y-140500104D01*
X93530104Y-140349792D01*
X93530106Y-140349788D01*
X93530109Y-140349786D01*
X93655048Y-140177820D01*
X93655047Y-140177820D01*
X93655051Y-140177816D01*
X93751557Y-139988412D01*
X93817246Y-139786243D01*
X93850500Y-139576287D01*
X93850500Y-139363713D01*
X93817246Y-139153757D01*
X93751557Y-138951588D01*
X93655051Y-138762184D01*
X93655049Y-138762181D01*
X93655048Y-138762179D01*
X93530109Y-138590213D01*
X93379786Y-138439890D01*
X93207820Y-138314951D01*
X93207115Y-138314591D01*
X93199054Y-138310485D01*
X93148259Y-138262512D01*
X93131463Y-138194692D01*
X93153999Y-138128556D01*
X93199054Y-138089515D01*
X93207816Y-138085051D01*
X93229789Y-138069086D01*
X93379786Y-137960109D01*
X93379788Y-137960106D01*
X93379792Y-137960104D01*
X93530104Y-137809792D01*
X93530106Y-137809788D01*
X93530109Y-137809786D01*
X93655048Y-137637820D01*
X93655047Y-137637820D01*
X93655051Y-137637816D01*
X93751557Y-137448412D01*
X93817246Y-137246243D01*
X93850500Y-137036287D01*
X93850500Y-136823713D01*
X93817246Y-136613757D01*
X93751557Y-136411588D01*
X93655051Y-136222184D01*
X93655049Y-136222181D01*
X93655048Y-136222179D01*
X93530109Y-136050213D01*
X93379786Y-135899890D01*
X93207820Y-135774951D01*
X93207115Y-135774591D01*
X93199054Y-135770485D01*
X93148259Y-135722512D01*
X93131463Y-135654692D01*
X93153999Y-135588556D01*
X93199054Y-135549515D01*
X93207816Y-135545051D01*
X93315125Y-135467087D01*
X93379786Y-135420109D01*
X93379788Y-135420106D01*
X93379792Y-135420104D01*
X93530104Y-135269792D01*
X93530106Y-135269788D01*
X93530109Y-135269786D01*
X93646611Y-135109433D01*
X93655051Y-135097816D01*
X93751557Y-134908412D01*
X93817246Y-134706243D01*
X93850500Y-134496287D01*
X93850500Y-134283713D01*
X93817246Y-134073757D01*
X93751557Y-133871588D01*
X93655051Y-133682184D01*
X93655049Y-133682181D01*
X93655048Y-133682179D01*
X93530109Y-133510213D01*
X93379786Y-133359890D01*
X93207820Y-133234951D01*
X93207115Y-133234591D01*
X93199054Y-133230485D01*
X93148259Y-133182512D01*
X93131463Y-133114692D01*
X93153999Y-133048556D01*
X93199054Y-133009515D01*
X93207816Y-133005051D01*
X93229789Y-132989086D01*
X93379786Y-132880109D01*
X93379788Y-132880106D01*
X93379792Y-132880104D01*
X93530104Y-132729792D01*
X93530106Y-132729788D01*
X93530109Y-132729786D01*
X93655048Y-132557820D01*
X93655047Y-132557820D01*
X93655051Y-132557816D01*
X93751557Y-132368412D01*
X93817246Y-132166243D01*
X93850500Y-131956287D01*
X93850500Y-131743713D01*
X93817246Y-131533757D01*
X93751557Y-131331588D01*
X93705296Y-131240795D01*
X93692400Y-131172125D01*
X93718677Y-131107385D01*
X93775783Y-131067128D01*
X93815781Y-131060500D01*
X94203331Y-131060500D01*
X94203347Y-131060501D01*
X94210943Y-131060501D01*
X94369054Y-131060501D01*
X94369057Y-131060501D01*
X94521785Y-131019577D01*
X94607294Y-130970208D01*
X94658716Y-130940520D01*
X94770520Y-130828716D01*
X94770520Y-130828714D01*
X94780724Y-130818511D01*
X94780727Y-130818506D01*
X104962416Y-120636819D01*
X105023739Y-120603334D01*
X105050097Y-120600500D01*
X127413331Y-120600500D01*
X127413347Y-120600501D01*
X127420943Y-120600501D01*
X127579054Y-120600501D01*
X127579057Y-120600501D01*
X127731785Y-120559577D01*
X127781904Y-120530639D01*
X127868716Y-120480520D01*
X127980520Y-120368716D01*
X127980520Y-120368714D01*
X127990728Y-120358507D01*
X127990730Y-120358504D01*
X130217287Y-118131947D01*
X135250000Y-118131947D01*
X135250000Y-118368052D01*
X135286934Y-118601247D01*
X135359897Y-118825802D01*
X135467087Y-119036174D01*
X135527338Y-119119104D01*
X135527340Y-119119105D01*
X136226212Y-118420233D01*
X136237482Y-118462292D01*
X136309890Y-118587708D01*
X136412292Y-118690110D01*
X136537708Y-118762518D01*
X136579765Y-118773787D01*
X135880893Y-119472658D01*
X135963828Y-119532914D01*
X136174197Y-119640102D01*
X136398752Y-119713065D01*
X136398751Y-119713065D01*
X136631948Y-119750000D01*
X136868052Y-119750000D01*
X137101247Y-119713065D01*
X137325802Y-119640102D01*
X137536163Y-119532918D01*
X137536169Y-119532914D01*
X137619104Y-119472658D01*
X137619105Y-119472658D01*
X136920233Y-118773787D01*
X136962292Y-118762518D01*
X137087708Y-118690110D01*
X137190110Y-118587708D01*
X137262518Y-118462292D01*
X137273787Y-118420234D01*
X137972658Y-119119105D01*
X137972658Y-119119104D01*
X138032914Y-119036169D01*
X138032918Y-119036163D01*
X138140102Y-118825802D01*
X138213065Y-118601247D01*
X138250000Y-118368052D01*
X138250000Y-118131947D01*
X141750000Y-118131947D01*
X141750000Y-118368052D01*
X141786934Y-118601247D01*
X141859897Y-118825802D01*
X141967087Y-119036174D01*
X142027338Y-119119104D01*
X142027340Y-119119105D01*
X142726212Y-118420233D01*
X142737482Y-118462292D01*
X142809890Y-118587708D01*
X142912292Y-118690110D01*
X143037708Y-118762518D01*
X143079765Y-118773787D01*
X142380893Y-119472658D01*
X142463828Y-119532914D01*
X142674197Y-119640102D01*
X142898752Y-119713065D01*
X142898751Y-119713065D01*
X143131948Y-119750000D01*
X143368052Y-119750000D01*
X143601247Y-119713065D01*
X143825802Y-119640102D01*
X144036163Y-119532918D01*
X144036169Y-119532914D01*
X144119104Y-119472658D01*
X144119105Y-119472658D01*
X143420233Y-118773787D01*
X143462292Y-118762518D01*
X143587708Y-118690110D01*
X143690110Y-118587708D01*
X143762518Y-118462292D01*
X143773787Y-118420234D01*
X144472658Y-119119105D01*
X144472658Y-119119104D01*
X144532914Y-119036169D01*
X144532918Y-119036163D01*
X144640102Y-118825802D01*
X144713065Y-118601247D01*
X144750000Y-118368052D01*
X144750000Y-118131947D01*
X144713065Y-117898752D01*
X144640102Y-117674197D01*
X144532914Y-117463828D01*
X144472658Y-117380894D01*
X144472658Y-117380893D01*
X143773787Y-118079765D01*
X143762518Y-118037708D01*
X143690110Y-117912292D01*
X143587708Y-117809890D01*
X143462292Y-117737482D01*
X143420234Y-117726212D01*
X144119105Y-117027340D01*
X144119104Y-117027338D01*
X144036174Y-116967087D01*
X143825802Y-116859897D01*
X143601247Y-116786934D01*
X143601248Y-116786934D01*
X143368052Y-116750000D01*
X143131948Y-116750000D01*
X142898752Y-116786934D01*
X142674197Y-116859897D01*
X142463830Y-116967084D01*
X142380894Y-117027340D01*
X143079766Y-117726212D01*
X143037708Y-117737482D01*
X142912292Y-117809890D01*
X142809890Y-117912292D01*
X142737482Y-118037708D01*
X142726212Y-118079766D01*
X142027340Y-117380894D01*
X141967084Y-117463830D01*
X141859897Y-117674197D01*
X141786934Y-117898752D01*
X141750000Y-118131947D01*
X138250000Y-118131947D01*
X138213065Y-117898752D01*
X138140102Y-117674197D01*
X138032914Y-117463828D01*
X137972658Y-117380894D01*
X137972658Y-117380893D01*
X137273787Y-118079765D01*
X137262518Y-118037708D01*
X137190110Y-117912292D01*
X137087708Y-117809890D01*
X136962292Y-117737482D01*
X136920234Y-117726212D01*
X137619105Y-117027340D01*
X137619104Y-117027339D01*
X137536174Y-116967087D01*
X137325802Y-116859897D01*
X137101247Y-116786934D01*
X137101248Y-116786934D01*
X136868052Y-116750000D01*
X136631948Y-116750000D01*
X136398752Y-116786934D01*
X136174197Y-116859897D01*
X135963830Y-116967084D01*
X135880894Y-117027340D01*
X136579766Y-117726212D01*
X136537708Y-117737482D01*
X136412292Y-117809890D01*
X136309890Y-117912292D01*
X136237482Y-118037708D01*
X136226212Y-118079766D01*
X135527340Y-117380894D01*
X135467084Y-117463830D01*
X135359897Y-117674197D01*
X135286934Y-117898752D01*
X135250000Y-118131947D01*
X130217287Y-118131947D01*
X135082873Y-113266360D01*
X135144194Y-113232877D01*
X135213886Y-113237861D01*
X135269819Y-113279733D01*
X135294236Y-113345197D01*
X135288486Y-113392352D01*
X135286448Y-113398623D01*
X135286447Y-113398630D01*
X135249500Y-113631902D01*
X135249500Y-113868097D01*
X135286446Y-114101368D01*
X135359433Y-114325996D01*
X135442849Y-114489707D01*
X135466657Y-114536433D01*
X135605483Y-114727510D01*
X135772490Y-114894517D01*
X135963567Y-115033343D01*
X136047278Y-115075996D01*
X136174003Y-115140566D01*
X136174005Y-115140566D01*
X136174008Y-115140568D01*
X136294412Y-115179689D01*
X136398631Y-115213553D01*
X136631903Y-115250500D01*
X136631908Y-115250500D01*
X136868097Y-115250500D01*
X137101368Y-115213553D01*
X137325992Y-115140568D01*
X137536433Y-115033343D01*
X137727510Y-114894517D01*
X137894517Y-114727510D01*
X138033343Y-114536433D01*
X138140568Y-114325992D01*
X138213553Y-114101368D01*
X138250500Y-113868097D01*
X138250500Y-113631902D01*
X138213553Y-113398631D01*
X138170576Y-113266362D01*
X138140568Y-113174008D01*
X138140566Y-113174005D01*
X138140566Y-113174003D01*
X138084002Y-113062991D01*
X138033343Y-112963567D01*
X137894517Y-112772490D01*
X137727510Y-112605483D01*
X137536433Y-112466657D01*
X137503002Y-112449623D01*
X137325996Y-112359433D01*
X137101368Y-112286446D01*
X136868097Y-112249500D01*
X136868092Y-112249500D01*
X136631908Y-112249500D01*
X136631903Y-112249500D01*
X136398630Y-112286447D01*
X136398623Y-112286448D01*
X136392352Y-112288486D01*
X136322511Y-112290476D01*
X136262681Y-112254391D01*
X136231858Y-112191687D01*
X136239827Y-112122274D01*
X136266359Y-112082874D01*
X140405509Y-107943724D01*
X140466830Y-107910241D01*
X140536522Y-107915225D01*
X140592455Y-107957097D01*
X140596290Y-107962517D01*
X140628207Y-108010284D01*
X140628213Y-108010292D01*
X140739707Y-108121786D01*
X140739711Y-108121789D01*
X140870814Y-108209390D01*
X140870827Y-108209397D01*
X140990371Y-108258913D01*
X141016503Y-108269737D01*
X141171153Y-108300499D01*
X141171156Y-108300500D01*
X141171158Y-108300500D01*
X141328844Y-108300500D01*
X141328845Y-108300499D01*
X141483497Y-108269737D01*
X141629179Y-108209394D01*
X141683663Y-108172989D01*
X141760875Y-108121398D01*
X141827553Y-108100520D01*
X141829766Y-108100500D01*
X143449903Y-108100500D01*
X143516942Y-108120185D01*
X143537584Y-108136819D01*
X145988583Y-110587819D01*
X146022068Y-110649142D01*
X146017084Y-110718834D01*
X145975212Y-110774767D01*
X145909748Y-110799184D01*
X145900902Y-110799500D01*
X142978018Y-110799500D01*
X142910979Y-110779815D01*
X142874914Y-110744388D01*
X142871788Y-110739709D01*
X142760292Y-110628213D01*
X142760288Y-110628210D01*
X142629185Y-110540609D01*
X142629172Y-110540602D01*
X142483501Y-110480264D01*
X142483489Y-110480261D01*
X142328845Y-110449500D01*
X142328842Y-110449500D01*
X142171158Y-110449500D01*
X142171155Y-110449500D01*
X142016510Y-110480261D01*
X142016498Y-110480264D01*
X141870827Y-110540602D01*
X141870814Y-110540609D01*
X141739711Y-110628210D01*
X141739707Y-110628213D01*
X141628213Y-110739707D01*
X141628210Y-110739711D01*
X141540609Y-110870814D01*
X141540602Y-110870827D01*
X141480264Y-111016498D01*
X141480261Y-111016510D01*
X141449500Y-111171153D01*
X141449500Y-111275500D01*
X141429815Y-111342539D01*
X141377011Y-111388294D01*
X141325500Y-111399500D01*
X139397956Y-111399500D01*
X139330917Y-111379815D01*
X139285162Y-111327011D01*
X139276339Y-111299691D01*
X139272874Y-111282274D01*
X139269737Y-111266503D01*
X139247937Y-111213872D01*
X139209397Y-111120827D01*
X139209390Y-111120814D01*
X139121789Y-110989711D01*
X139121786Y-110989707D01*
X139010292Y-110878213D01*
X139010288Y-110878210D01*
X138879185Y-110790609D01*
X138879172Y-110790602D01*
X138733501Y-110730264D01*
X138733489Y-110730261D01*
X138578845Y-110699500D01*
X138578842Y-110699500D01*
X138421158Y-110699500D01*
X138421155Y-110699500D01*
X138266510Y-110730261D01*
X138266498Y-110730264D01*
X138120827Y-110790602D01*
X138120814Y-110790609D01*
X137989711Y-110878210D01*
X137989707Y-110878213D01*
X137878213Y-110989707D01*
X137878210Y-110989711D01*
X137790609Y-111120814D01*
X137790602Y-111120827D01*
X137730264Y-111266498D01*
X137730261Y-111266510D01*
X137699500Y-111421153D01*
X137699500Y-111578846D01*
X137730261Y-111733489D01*
X137730264Y-111733501D01*
X137790602Y-111879172D01*
X137790609Y-111879185D01*
X137878210Y-112010288D01*
X137878213Y-112010292D01*
X137989707Y-112121786D01*
X137989711Y-112121789D01*
X138120814Y-112209390D01*
X138120827Y-112209397D01*
X138217646Y-112249500D01*
X138266503Y-112269737D01*
X138421158Y-112300500D01*
X138421847Y-112300637D01*
X138483758Y-112333022D01*
X138485337Y-112334573D01*
X138631284Y-112480520D01*
X138631286Y-112480521D01*
X138631290Y-112480524D01*
X138750762Y-112549500D01*
X138768216Y-112559577D01*
X138920943Y-112600501D01*
X138920945Y-112600501D01*
X139086654Y-112600501D01*
X139086670Y-112600500D01*
X141987078Y-112600500D01*
X142054117Y-112620185D01*
X142099872Y-112672989D01*
X142109816Y-112742147D01*
X142087397Y-112797382D01*
X142040283Y-112862230D01*
X141966657Y-112963566D01*
X141859433Y-113174003D01*
X141786446Y-113398631D01*
X141749500Y-113631902D01*
X141749500Y-113868097D01*
X141786446Y-114101368D01*
X141859433Y-114325996D01*
X141942849Y-114489707D01*
X141966657Y-114536433D01*
X142105483Y-114727510D01*
X142272490Y-114894517D01*
X142463567Y-115033343D01*
X142547278Y-115075996D01*
X142674003Y-115140566D01*
X142674005Y-115140566D01*
X142674008Y-115140568D01*
X142794412Y-115179689D01*
X142898631Y-115213553D01*
X143131903Y-115250500D01*
X143131908Y-115250500D01*
X143368097Y-115250500D01*
X143601368Y-115213553D01*
X143825992Y-115140568D01*
X144036433Y-115033343D01*
X144227510Y-114894517D01*
X144394517Y-114727510D01*
X144533343Y-114536433D01*
X144640568Y-114325992D01*
X144713553Y-114101368D01*
X144750500Y-113868097D01*
X144750500Y-113631902D01*
X144713553Y-113398631D01*
X144670576Y-113266362D01*
X144640568Y-113174008D01*
X144640566Y-113174005D01*
X144640566Y-113174003D01*
X144584002Y-113062991D01*
X144533343Y-112963567D01*
X144412602Y-112797383D01*
X144389124Y-112731580D01*
X144404949Y-112663526D01*
X144455055Y-112614831D01*
X144512922Y-112600500D01*
X147199903Y-112600500D01*
X147266942Y-112620185D01*
X147287583Y-112636818D01*
X164441284Y-129790520D01*
X164441286Y-129790521D01*
X164441290Y-129790524D01*
X164526666Y-129839815D01*
X164578216Y-129869577D01*
X164730943Y-129910501D01*
X164730945Y-129910501D01*
X164896654Y-129910501D01*
X164896670Y-129910500D01*
X172214281Y-129910500D01*
X172281320Y-129930185D01*
X172324765Y-129978205D01*
X172344947Y-130017814D01*
X172344948Y-130017815D01*
X172469890Y-130189786D01*
X172620213Y-130340109D01*
X172792179Y-130465048D01*
X172792181Y-130465049D01*
X172792184Y-130465051D01*
X172981588Y-130561557D01*
X173183757Y-130627246D01*
X173393713Y-130660500D01*
X173393714Y-130660500D01*
X173606286Y-130660500D01*
X173606287Y-130660500D01*
X173816243Y-130627246D01*
X174018412Y-130561557D01*
X174207816Y-130465051D01*
X174361280Y-130353554D01*
X174379786Y-130340109D01*
X174379788Y-130340106D01*
X174379792Y-130340104D01*
X174530104Y-130189792D01*
X174530106Y-130189788D01*
X174530109Y-130189786D01*
X174655048Y-130017820D01*
X174655047Y-130017820D01*
X174655051Y-130017816D01*
X174751557Y-129828412D01*
X174817246Y-129626243D01*
X174850500Y-129416287D01*
X174850500Y-129203713D01*
X174817246Y-128993757D01*
X174794195Y-128922816D01*
X174792201Y-128852977D01*
X174828281Y-128793144D01*
X174890982Y-128762316D01*
X174912127Y-128760500D01*
X175409903Y-128760500D01*
X175476942Y-128780185D01*
X175497584Y-128796819D01*
X183297200Y-136596435D01*
X183330685Y-136657758D01*
X183327450Y-136722433D01*
X183286447Y-136848628D01*
X183249500Y-137081902D01*
X183249500Y-137318097D01*
X183286446Y-137551368D01*
X183359433Y-137775996D01*
X183417810Y-137890566D01*
X183466657Y-137986433D01*
X183605483Y-138177510D01*
X183772490Y-138344517D01*
X183963567Y-138483343D01*
X184062991Y-138534002D01*
X184174003Y-138590566D01*
X184174005Y-138590566D01*
X184174008Y-138590568D01*
X184294412Y-138629689D01*
X184398631Y-138663553D01*
X184631903Y-138700500D01*
X184631908Y-138700500D01*
X184868097Y-138700500D01*
X185101368Y-138663553D01*
X185325992Y-138590568D01*
X185536433Y-138483343D01*
X185727510Y-138344517D01*
X185894517Y-138177510D01*
X186033343Y-137986433D01*
X186093583Y-137868204D01*
X186141558Y-137817409D01*
X186204068Y-137800500D01*
X189795932Y-137800500D01*
X189862971Y-137820185D01*
X189906416Y-137868203D01*
X189966657Y-137986433D01*
X190105483Y-138177510D01*
X190272490Y-138344517D01*
X190463567Y-138483343D01*
X190562991Y-138534002D01*
X190674003Y-138590566D01*
X190674005Y-138590566D01*
X190674008Y-138590568D01*
X190794412Y-138629689D01*
X190898631Y-138663553D01*
X191131903Y-138700500D01*
X191131908Y-138700500D01*
X191368097Y-138700500D01*
X191601368Y-138663553D01*
X191825992Y-138590568D01*
X192036433Y-138483343D01*
X192227510Y-138344517D01*
X192394517Y-138177510D01*
X192533343Y-137986433D01*
X192628081Y-137800500D01*
X192640566Y-137775996D01*
X192640566Y-137775995D01*
X192640568Y-137775992D01*
X192713553Y-137551368D01*
X192750500Y-137318097D01*
X192750500Y-137081902D01*
X192729005Y-136946197D01*
X192713553Y-136848632D01*
X192713552Y-136848628D01*
X192713552Y-136848627D01*
X192654015Y-136665393D01*
X192649068Y-136650167D01*
X192643148Y-136631947D01*
X195250000Y-136631947D01*
X195250000Y-136868052D01*
X195286934Y-137101247D01*
X195359897Y-137325802D01*
X195467087Y-137536174D01*
X195527338Y-137619104D01*
X195527340Y-137619105D01*
X196226212Y-136920233D01*
X196237482Y-136962292D01*
X196309890Y-137087708D01*
X196412292Y-137190110D01*
X196537708Y-137262518D01*
X196579765Y-137273787D01*
X195880893Y-137972658D01*
X195963828Y-138032914D01*
X196174197Y-138140102D01*
X196398752Y-138213065D01*
X196398751Y-138213065D01*
X196631948Y-138250000D01*
X196868052Y-138250000D01*
X197101247Y-138213065D01*
X197325802Y-138140102D01*
X197536163Y-138032918D01*
X197536169Y-138032914D01*
X197619104Y-137972658D01*
X197619105Y-137972658D01*
X196920233Y-137273787D01*
X196962292Y-137262518D01*
X197087708Y-137190110D01*
X197190110Y-137087708D01*
X197262518Y-136962292D01*
X197273787Y-136920233D01*
X197972658Y-137619105D01*
X197972658Y-137619104D01*
X198032914Y-137536169D01*
X198032918Y-137536163D01*
X198140102Y-137325802D01*
X198213065Y-137101247D01*
X198250000Y-136868052D01*
X198250000Y-136631947D01*
X201750000Y-136631947D01*
X201750000Y-136868052D01*
X201786934Y-137101247D01*
X201859897Y-137325802D01*
X201967087Y-137536174D01*
X202027338Y-137619104D01*
X202027340Y-137619105D01*
X202726212Y-136920233D01*
X202737482Y-136962292D01*
X202809890Y-137087708D01*
X202912292Y-137190110D01*
X203037708Y-137262518D01*
X203079765Y-137273787D01*
X202380893Y-137972658D01*
X202463828Y-138032914D01*
X202674197Y-138140102D01*
X202898752Y-138213065D01*
X202898751Y-138213065D01*
X203131948Y-138250000D01*
X203368052Y-138250000D01*
X203601247Y-138213065D01*
X203825802Y-138140102D01*
X204036163Y-138032918D01*
X204036169Y-138032914D01*
X204119104Y-137972658D01*
X204119105Y-137972658D01*
X203420233Y-137273787D01*
X203462292Y-137262518D01*
X203587708Y-137190110D01*
X203690110Y-137087708D01*
X203762518Y-136962292D01*
X203773787Y-136920234D01*
X204472658Y-137619105D01*
X204472658Y-137619104D01*
X204532914Y-137536169D01*
X204532918Y-137536163D01*
X204640102Y-137325802D01*
X204713065Y-137101247D01*
X204750000Y-136868052D01*
X204750000Y-136631947D01*
X204713065Y-136398752D01*
X204640102Y-136174197D01*
X204532914Y-135963828D01*
X204472658Y-135880894D01*
X204472658Y-135880893D01*
X203773787Y-136579765D01*
X203762518Y-136537708D01*
X203690110Y-136412292D01*
X203587708Y-136309890D01*
X203462292Y-136237482D01*
X203420234Y-136226212D01*
X204119105Y-135527340D01*
X204119104Y-135527338D01*
X204036174Y-135467087D01*
X203825802Y-135359897D01*
X203601247Y-135286934D01*
X203601248Y-135286934D01*
X203368052Y-135250000D01*
X203131948Y-135250000D01*
X202898752Y-135286934D01*
X202674197Y-135359897D01*
X202463830Y-135467084D01*
X202380894Y-135527340D01*
X203079766Y-136226212D01*
X203037708Y-136237482D01*
X202912292Y-136309890D01*
X202809890Y-136412292D01*
X202737482Y-136537708D01*
X202726212Y-136579766D01*
X202027340Y-135880894D01*
X201967084Y-135963830D01*
X201859897Y-136174197D01*
X201786934Y-136398752D01*
X201750000Y-136631947D01*
X198250000Y-136631947D01*
X198213065Y-136398752D01*
X198140102Y-136174197D01*
X198032914Y-135963828D01*
X197972658Y-135880894D01*
X197972658Y-135880893D01*
X197273787Y-136579765D01*
X197262518Y-136537708D01*
X197190110Y-136412292D01*
X197087708Y-136309890D01*
X196962292Y-136237482D01*
X196920234Y-136226212D01*
X197619105Y-135527340D01*
X197619104Y-135527339D01*
X197536174Y-135467087D01*
X197325802Y-135359897D01*
X197101247Y-135286934D01*
X197101248Y-135286934D01*
X196868052Y-135250000D01*
X196631948Y-135250000D01*
X196398752Y-135286934D01*
X196174197Y-135359897D01*
X195963830Y-135467084D01*
X195880894Y-135527340D01*
X196579766Y-136226212D01*
X196537708Y-136237482D01*
X196412292Y-136309890D01*
X196309890Y-136412292D01*
X196237482Y-136537708D01*
X196226212Y-136579766D01*
X195527340Y-135880894D01*
X195467084Y-135963830D01*
X195359897Y-136174197D01*
X195286934Y-136398752D01*
X195250000Y-136631947D01*
X192643148Y-136631947D01*
X192640568Y-136624008D01*
X192640566Y-136624005D01*
X192640566Y-136624003D01*
X192533342Y-136413566D01*
X192394517Y-136222490D01*
X192227510Y-136055483D01*
X192036433Y-135916657D01*
X192003526Y-135899890D01*
X191825996Y-135809433D01*
X191601368Y-135736446D01*
X191368097Y-135699500D01*
X191368092Y-135699500D01*
X191131908Y-135699500D01*
X191131903Y-135699500D01*
X190898631Y-135736446D01*
X190674003Y-135809433D01*
X190463566Y-135916657D01*
X190398639Y-135963830D01*
X190272490Y-136055483D01*
X190272488Y-136055485D01*
X190272487Y-136055485D01*
X190105485Y-136222487D01*
X190105485Y-136222488D01*
X190105483Y-136222490D01*
X190094591Y-136237482D01*
X189966657Y-136413566D01*
X189906417Y-136531795D01*
X189858442Y-136582591D01*
X189795932Y-136599500D01*
X186204068Y-136599500D01*
X186137029Y-136579815D01*
X186093583Y-136531795D01*
X186033342Y-136413566D01*
X185894517Y-136222490D01*
X185727510Y-136055483D01*
X185536433Y-135916657D01*
X185503526Y-135899890D01*
X185325996Y-135809433D01*
X185101368Y-135736446D01*
X184868097Y-135699500D01*
X184868092Y-135699500D01*
X184631908Y-135699500D01*
X184631903Y-135699500D01*
X184398628Y-135736447D01*
X184272433Y-135777450D01*
X184202592Y-135779445D01*
X184146435Y-135747200D01*
X176197590Y-127798355D01*
X176197588Y-127798352D01*
X176078717Y-127679481D01*
X176078716Y-127679480D01*
X175991904Y-127629360D01*
X175991904Y-127629359D01*
X175991900Y-127629358D01*
X175941785Y-127600423D01*
X175789057Y-127559499D01*
X175630943Y-127559499D01*
X175623347Y-127559499D01*
X175623331Y-127559500D01*
X174815781Y-127559500D01*
X174748742Y-127539815D01*
X174702987Y-127487011D01*
X174693043Y-127417853D01*
X174705296Y-127379205D01*
X174731476Y-127327823D01*
X174751557Y-127288412D01*
X174817246Y-127086243D01*
X174850500Y-126876287D01*
X174850500Y-126663713D01*
X174817246Y-126453757D01*
X174751557Y-126251588D01*
X174655051Y-126062184D01*
X174655049Y-126062181D01*
X174655048Y-126062179D01*
X174530109Y-125890213D01*
X174379786Y-125739890D01*
X174207820Y-125614951D01*
X174207115Y-125614591D01*
X174199054Y-125610485D01*
X174148259Y-125562512D01*
X174131463Y-125494692D01*
X174153999Y-125428556D01*
X174199054Y-125389515D01*
X174207816Y-125385051D01*
X174311267Y-125309890D01*
X174379786Y-125260109D01*
X174379793Y-125260103D01*
X174439896Y-125200000D01*
X174530104Y-125109792D01*
X174530106Y-125109788D01*
X174530109Y-125109786D01*
X174655048Y-124937820D01*
X174655047Y-124937820D01*
X174655051Y-124937816D01*
X174751557Y-124748412D01*
X174817246Y-124546243D01*
X174850500Y-124336287D01*
X174850500Y-124123713D01*
X174817246Y-123913757D01*
X174751557Y-123711588D01*
X174655051Y-123522184D01*
X174655049Y-123522181D01*
X174655048Y-123522179D01*
X174530109Y-123350213D01*
X174416569Y-123236673D01*
X174383084Y-123175350D01*
X174388068Y-123105658D01*
X174429940Y-123049725D01*
X174460915Y-123032810D01*
X174592331Y-122983796D01*
X174707546Y-122897546D01*
X174793796Y-122782331D01*
X174844091Y-122647483D01*
X174850500Y-122587873D01*
X174850499Y-120792128D01*
X174844091Y-120732517D01*
X174843346Y-120730520D01*
X174793797Y-120597671D01*
X174793793Y-120597664D01*
X174707547Y-120482455D01*
X174707544Y-120482452D01*
X174592335Y-120396206D01*
X174592328Y-120396202D01*
X174457482Y-120345908D01*
X174457483Y-120345908D01*
X174397883Y-120339501D01*
X174397881Y-120339500D01*
X174397873Y-120339500D01*
X174397865Y-120339500D01*
X174224500Y-120339500D01*
X174157461Y-120319815D01*
X174111706Y-120267011D01*
X174100500Y-120215500D01*
X174100500Y-117920945D01*
X174100500Y-117920943D01*
X174059577Y-117768216D01*
X174005296Y-117674197D01*
X173980524Y-117631290D01*
X173980521Y-117631286D01*
X173980520Y-117631284D01*
X173868716Y-117519480D01*
X173868715Y-117519479D01*
X173864385Y-117515149D01*
X173864374Y-117515139D01*
X163487590Y-107138355D01*
X163480521Y-107131286D01*
X163480520Y-107131284D01*
X163411414Y-107062178D01*
X163389758Y-107022515D01*
X163377932Y-107000858D01*
X163382916Y-106931166D01*
X163408673Y-106896760D01*
X163424788Y-106875232D01*
X163472468Y-106857448D01*
X163490252Y-106850816D01*
X163499098Y-106850500D01*
X166199903Y-106850500D01*
X166266942Y-106870185D01*
X166287584Y-106886819D01*
X180863181Y-121462416D01*
X180896666Y-121523739D01*
X180899500Y-121550097D01*
X180899500Y-124913330D01*
X180899499Y-124913348D01*
X180899499Y-125079054D01*
X180899498Y-125079054D01*
X180940424Y-125231789D01*
X180940425Y-125231790D01*
X180956772Y-125260103D01*
X180956773Y-125260104D01*
X181019477Y-125368712D01*
X181019481Y-125368717D01*
X181138349Y-125487585D01*
X181138355Y-125487590D01*
X188265139Y-132614374D01*
X188265149Y-132614385D01*
X188269479Y-132618715D01*
X188269480Y-132618716D01*
X188381284Y-132730520D01*
X188381286Y-132730521D01*
X188381290Y-132730524D01*
X188518209Y-132809573D01*
X188518216Y-132809577D01*
X188630019Y-132839534D01*
X188670942Y-132850500D01*
X188670943Y-132850500D01*
X195295932Y-132850500D01*
X195362971Y-132870185D01*
X195406416Y-132918203D01*
X195466657Y-133036433D01*
X195605483Y-133227510D01*
X195772490Y-133394517D01*
X195963567Y-133533343D01*
X196062991Y-133584002D01*
X196174003Y-133640566D01*
X196174005Y-133640566D01*
X196174008Y-133640568D01*
X196294412Y-133679689D01*
X196398631Y-133713553D01*
X196631903Y-133750500D01*
X196631908Y-133750500D01*
X196868097Y-133750500D01*
X197101368Y-133713553D01*
X197325992Y-133640568D01*
X197536433Y-133533343D01*
X197727510Y-133394517D01*
X197894517Y-133227510D01*
X198033343Y-133036433D01*
X198093583Y-132918204D01*
X198141558Y-132867409D01*
X198204068Y-132850500D01*
X201795932Y-132850500D01*
X201862971Y-132870185D01*
X201906416Y-132918203D01*
X201966657Y-133036433D01*
X202105483Y-133227510D01*
X202272490Y-133394517D01*
X202463567Y-133533343D01*
X202562991Y-133584002D01*
X202674003Y-133640566D01*
X202674005Y-133640566D01*
X202674008Y-133640568D01*
X202794412Y-133679689D01*
X202898631Y-133713553D01*
X203131903Y-133750500D01*
X203131908Y-133750500D01*
X203368097Y-133750500D01*
X203601368Y-133713553D01*
X203825992Y-133640568D01*
X204036433Y-133533343D01*
X204227510Y-133394517D01*
X204394517Y-133227510D01*
X204533343Y-133036433D01*
X204640568Y-132825992D01*
X204713553Y-132601368D01*
X204750449Y-132368416D01*
X204750500Y-132368097D01*
X204750500Y-132131902D01*
X204713553Y-131898631D01*
X204679689Y-131794412D01*
X204640568Y-131674008D01*
X204640566Y-131674005D01*
X204640566Y-131674003D01*
X204569108Y-131533760D01*
X204533343Y-131463567D01*
X204394517Y-131272490D01*
X204227510Y-131105483D01*
X204036433Y-130966657D01*
X203825996Y-130859433D01*
X203601368Y-130786446D01*
X203368097Y-130749500D01*
X203368092Y-130749500D01*
X203131908Y-130749500D01*
X203131903Y-130749500D01*
X202898631Y-130786446D01*
X202674003Y-130859433D01*
X202463566Y-130966657D01*
X202390732Y-131019575D01*
X202272490Y-131105483D01*
X202272488Y-131105485D01*
X202272487Y-131105485D01*
X202105485Y-131272487D01*
X202105485Y-131272488D01*
X202105483Y-131272490D01*
X202097907Y-131282918D01*
X201966657Y-131463566D01*
X201906417Y-131581795D01*
X201858442Y-131632591D01*
X201795932Y-131649500D01*
X198204068Y-131649500D01*
X198137029Y-131629815D01*
X198093583Y-131581795D01*
X198069108Y-131533760D01*
X198033343Y-131463567D01*
X197894517Y-131272490D01*
X197727510Y-131105483D01*
X197536433Y-130966657D01*
X197325996Y-130859433D01*
X197101368Y-130786446D01*
X196868097Y-130749500D01*
X196868092Y-130749500D01*
X196631908Y-130749500D01*
X196631903Y-130749500D01*
X196398631Y-130786446D01*
X196174003Y-130859433D01*
X195963566Y-130966657D01*
X195890732Y-131019575D01*
X195772490Y-131105483D01*
X195772488Y-131105485D01*
X195772487Y-131105485D01*
X195605485Y-131272487D01*
X195605485Y-131272488D01*
X195605483Y-131272490D01*
X195597907Y-131282918D01*
X195466657Y-131463566D01*
X195406417Y-131581795D01*
X195358442Y-131632591D01*
X195295932Y-131649500D01*
X189050097Y-131649500D01*
X188983058Y-131629815D01*
X188962416Y-131613181D01*
X184808073Y-127458838D01*
X184774588Y-127397515D01*
X184779572Y-127327823D01*
X184821444Y-127271890D01*
X184876357Y-127248684D01*
X185101246Y-127213066D01*
X185101247Y-127213065D01*
X185325802Y-127140102D01*
X185536163Y-127032918D01*
X185536169Y-127032914D01*
X185619104Y-126972658D01*
X185619105Y-126972658D01*
X184920233Y-126273787D01*
X184962292Y-126262518D01*
X185087708Y-126190110D01*
X185190110Y-126087708D01*
X185262518Y-125962292D01*
X185273787Y-125920233D01*
X185972658Y-126619105D01*
X185972658Y-126619104D01*
X186032914Y-126536169D01*
X186032918Y-126536163D01*
X186140102Y-126325802D01*
X186213065Y-126101247D01*
X186250000Y-125868052D01*
X186250000Y-125631947D01*
X189750000Y-125631947D01*
X189750000Y-125868052D01*
X189786934Y-126101247D01*
X189859897Y-126325802D01*
X189967087Y-126536174D01*
X190027338Y-126619104D01*
X190027340Y-126619105D01*
X190726212Y-125920233D01*
X190737482Y-125962292D01*
X190809890Y-126087708D01*
X190912292Y-126190110D01*
X191037708Y-126262518D01*
X191079765Y-126273787D01*
X190380893Y-126972658D01*
X190463828Y-127032914D01*
X190674197Y-127140102D01*
X190898752Y-127213065D01*
X190898751Y-127213065D01*
X191131948Y-127250000D01*
X191368052Y-127250000D01*
X191601247Y-127213065D01*
X191825802Y-127140102D01*
X192036163Y-127032918D01*
X192036169Y-127032914D01*
X192119104Y-126972658D01*
X192119105Y-126972658D01*
X191420233Y-126273787D01*
X191462292Y-126262518D01*
X191587708Y-126190110D01*
X191690110Y-126087708D01*
X191762518Y-125962292D01*
X191773787Y-125920234D01*
X192472658Y-126619105D01*
X192472658Y-126619104D01*
X192532914Y-126536169D01*
X192532918Y-126536163D01*
X192640102Y-126325802D01*
X192713065Y-126101247D01*
X192750000Y-125868052D01*
X192750000Y-125631947D01*
X192713065Y-125398752D01*
X192640102Y-125174197D01*
X192532914Y-124963828D01*
X192472658Y-124880894D01*
X192472658Y-124880893D01*
X191773787Y-125579765D01*
X191762518Y-125537708D01*
X191690110Y-125412292D01*
X191587708Y-125309890D01*
X191462292Y-125237482D01*
X191420234Y-125226212D01*
X192119105Y-124527340D01*
X192119104Y-124527338D01*
X192036174Y-124467087D01*
X191825802Y-124359897D01*
X191601247Y-124286934D01*
X191601248Y-124286934D01*
X191368052Y-124250000D01*
X191131948Y-124250000D01*
X190898752Y-124286934D01*
X190674197Y-124359897D01*
X190463830Y-124467084D01*
X190380894Y-124527340D01*
X191079766Y-125226212D01*
X191037708Y-125237482D01*
X190912292Y-125309890D01*
X190809890Y-125412292D01*
X190737482Y-125537708D01*
X190726212Y-125579766D01*
X190027340Y-124880894D01*
X189967084Y-124963830D01*
X189859897Y-125174197D01*
X189786934Y-125398752D01*
X189750000Y-125631947D01*
X186250000Y-125631947D01*
X186213065Y-125398752D01*
X186140102Y-125174197D01*
X186032914Y-124963828D01*
X185972658Y-124880894D01*
X185972658Y-124880893D01*
X185273787Y-125579765D01*
X185262518Y-125537708D01*
X185190110Y-125412292D01*
X185087708Y-125309890D01*
X184962292Y-125237482D01*
X184920234Y-125226212D01*
X185619105Y-124527340D01*
X185619104Y-124527339D01*
X185536174Y-124467087D01*
X185325802Y-124359897D01*
X185101247Y-124286934D01*
X185101248Y-124286934D01*
X184868052Y-124250000D01*
X184631948Y-124250000D01*
X184398752Y-124286934D01*
X184174197Y-124359897D01*
X183963830Y-124467084D01*
X183880894Y-124527340D01*
X184579766Y-125226212D01*
X184537708Y-125237482D01*
X184412292Y-125309890D01*
X184309890Y-125412292D01*
X184237482Y-125537708D01*
X184226212Y-125579766D01*
X183527340Y-124880894D01*
X183467084Y-124963830D01*
X183359897Y-125174197D01*
X183286934Y-125398752D01*
X183251315Y-125623643D01*
X183221386Y-125686778D01*
X183162074Y-125723709D01*
X183092212Y-125722711D01*
X183041161Y-125691926D01*
X182136819Y-124787584D01*
X182122115Y-124760656D01*
X182105523Y-124734838D01*
X182104631Y-124728637D01*
X182103334Y-124726261D01*
X182100500Y-124699903D01*
X182100500Y-121170945D01*
X182100500Y-121170943D01*
X182059577Y-121018216D01*
X181990536Y-120898632D01*
X181980524Y-120881290D01*
X181980521Y-120881286D01*
X181980520Y-120881284D01*
X181868716Y-120769480D01*
X181868715Y-120769479D01*
X181864385Y-120765149D01*
X181864374Y-120765139D01*
X166987590Y-105888355D01*
X166987588Y-105888352D01*
X166868717Y-105769481D01*
X166868709Y-105769475D01*
X166748621Y-105700143D01*
X166748621Y-105700142D01*
X166748617Y-105700141D01*
X166731785Y-105690423D01*
X166579057Y-105649499D01*
X166420943Y-105649499D01*
X166413347Y-105649499D01*
X166413331Y-105649500D01*
X149579766Y-105649500D01*
X149512727Y-105629815D01*
X149510875Y-105628602D01*
X149379185Y-105540609D01*
X149379172Y-105540602D01*
X149233501Y-105480264D01*
X149233489Y-105480261D01*
X149078845Y-105449500D01*
X149078842Y-105449500D01*
X148921158Y-105449500D01*
X148921155Y-105449500D01*
X148766510Y-105480261D01*
X148766498Y-105480264D01*
X148620827Y-105540602D01*
X148620814Y-105540609D01*
X148489711Y-105628210D01*
X148489707Y-105628213D01*
X148378213Y-105739707D01*
X148378210Y-105739711D01*
X148290609Y-105870814D01*
X148290602Y-105870827D01*
X148230264Y-106016498D01*
X148230261Y-106016510D01*
X148199500Y-106171153D01*
X148199500Y-106328846D01*
X148230261Y-106483489D01*
X148230264Y-106483501D01*
X148290602Y-106629172D01*
X148290609Y-106629185D01*
X148378210Y-106760288D01*
X148378213Y-106760292D01*
X148405240Y-106787319D01*
X148438725Y-106848642D01*
X148433741Y-106918334D01*
X148405240Y-106962681D01*
X148378213Y-106989707D01*
X148378210Y-106989711D01*
X148290609Y-107120814D01*
X148290602Y-107120827D01*
X148230264Y-107266498D01*
X148230261Y-107266510D01*
X148199500Y-107421153D01*
X148199500Y-107578846D01*
X148230261Y-107733489D01*
X148230264Y-107733501D01*
X148290602Y-107879172D01*
X148290609Y-107879185D01*
X148378210Y-108010288D01*
X148378213Y-108010292D01*
X148489707Y-108121786D01*
X148489711Y-108121789D01*
X148620814Y-108209390D01*
X148620827Y-108209397D01*
X148740371Y-108258913D01*
X148766503Y-108269737D01*
X148921153Y-108300499D01*
X148921156Y-108300500D01*
X148921158Y-108300500D01*
X149078844Y-108300500D01*
X149078845Y-108300499D01*
X149233497Y-108269737D01*
X149379179Y-108209394D01*
X149433663Y-108172989D01*
X149510875Y-108121398D01*
X149577553Y-108100520D01*
X149579766Y-108100500D01*
X153075500Y-108100500D01*
X153142539Y-108120185D01*
X153188294Y-108172989D01*
X153199500Y-108224500D01*
X153199500Y-108328846D01*
X153230261Y-108483489D01*
X153230264Y-108483501D01*
X153290602Y-108629172D01*
X153290609Y-108629185D01*
X153369595Y-108747395D01*
X153377688Y-108759507D01*
X153378602Y-108760874D01*
X153399480Y-108827551D01*
X153399500Y-108829765D01*
X153399500Y-109920234D01*
X153394171Y-109938379D01*
X153393834Y-109957288D01*
X153380335Y-109985501D01*
X153379815Y-109987273D01*
X153378601Y-109989126D01*
X153346289Y-110037483D01*
X153292677Y-110082287D01*
X153223351Y-110090994D01*
X153160324Y-110060839D01*
X153155507Y-110056272D01*
X152487590Y-109388355D01*
X152487588Y-109388352D01*
X152368717Y-109269481D01*
X152368716Y-109269480D01*
X152281904Y-109219360D01*
X152281904Y-109219359D01*
X152281900Y-109219358D01*
X152231785Y-109190423D01*
X152079057Y-109149499D01*
X151920943Y-109149499D01*
X151913347Y-109149499D01*
X151913331Y-109149500D01*
X146865783Y-109149500D01*
X146798744Y-109129815D01*
X146778102Y-109113181D01*
X143553276Y-105888355D01*
X143553274Y-105888352D01*
X143434403Y-105769481D01*
X143434395Y-105769475D01*
X143314307Y-105700143D01*
X143314307Y-105700142D01*
X143314303Y-105700141D01*
X143297471Y-105690423D01*
X143144743Y-105649499D01*
X143144740Y-105649499D01*
X143079764Y-105649499D01*
X143061620Y-105644171D01*
X143042711Y-105643834D01*
X143014493Y-105630333D01*
X143012725Y-105629814D01*
X143010873Y-105628601D01*
X142962516Y-105596290D01*
X142917711Y-105542678D01*
X142909004Y-105473353D01*
X142939158Y-105410326D01*
X142943707Y-105405526D01*
X144608506Y-103740728D01*
X144608511Y-103740724D01*
X144618714Y-103730520D01*
X144618716Y-103730520D01*
X144730520Y-103618716D01*
X144798516Y-103500943D01*
X144809577Y-103481785D01*
X144850500Y-103329057D01*
X144850500Y-103170943D01*
X144850500Y-102329765D01*
X144870185Y-102262726D01*
X144871398Y-102260874D01*
X144959390Y-102129185D01*
X144959390Y-102129184D01*
X144959394Y-102129179D01*
X145019737Y-101983497D01*
X145050500Y-101828842D01*
X145050500Y-101671158D01*
X145050500Y-101671155D01*
X145050499Y-101671153D01*
X145042570Y-101631290D01*
X145019737Y-101516503D01*
X145012582Y-101499228D01*
X144959397Y-101370827D01*
X144959390Y-101370814D01*
X144871790Y-101239712D01*
X144871784Y-101239705D01*
X144803232Y-101171153D01*
X147949500Y-101171153D01*
X147949500Y-101328846D01*
X147980261Y-101483489D01*
X147980264Y-101483501D01*
X148040602Y-101629172D01*
X148040609Y-101629185D01*
X148128210Y-101760288D01*
X148128213Y-101760292D01*
X148239707Y-101871786D01*
X148239711Y-101871789D01*
X148370814Y-101959390D01*
X148370827Y-101959397D01*
X148449457Y-101991966D01*
X148516503Y-102019737D01*
X148581147Y-102032595D01*
X148671849Y-102050638D01*
X148733760Y-102083023D01*
X148735337Y-102084572D01*
X150131284Y-103480520D01*
X150131286Y-103480521D01*
X150131290Y-103480524D01*
X150251798Y-103550098D01*
X150268216Y-103559577D01*
X150420943Y-103600501D01*
X150420945Y-103600501D01*
X150586654Y-103600501D01*
X150586670Y-103600500D01*
X165199903Y-103600500D01*
X165266942Y-103620185D01*
X165287584Y-103636819D01*
X183281912Y-121631148D01*
X183312162Y-121680510D01*
X183359433Y-121825996D01*
X183407921Y-121921158D01*
X183466657Y-122036433D01*
X183605483Y-122227510D01*
X183772490Y-122394517D01*
X183963567Y-122533343D01*
X184062991Y-122584002D01*
X184174003Y-122640566D01*
X184174005Y-122640566D01*
X184174008Y-122640568D01*
X184294412Y-122679689D01*
X184398631Y-122713553D01*
X184631903Y-122750500D01*
X184631908Y-122750500D01*
X184868097Y-122750500D01*
X185101368Y-122713553D01*
X185114180Y-122709390D01*
X185325992Y-122640568D01*
X185536433Y-122533343D01*
X185727510Y-122394517D01*
X185894517Y-122227510D01*
X186033343Y-122036433D01*
X186093583Y-121918204D01*
X186141558Y-121867409D01*
X186204068Y-121850500D01*
X189795932Y-121850500D01*
X189862971Y-121870185D01*
X189906416Y-121918203D01*
X189966657Y-122036433D01*
X190105483Y-122227510D01*
X190272490Y-122394517D01*
X190463567Y-122533343D01*
X190562991Y-122584002D01*
X190674003Y-122640566D01*
X190674005Y-122640566D01*
X190674008Y-122640568D01*
X190794412Y-122679689D01*
X190898631Y-122713553D01*
X191131903Y-122750500D01*
X191131908Y-122750500D01*
X191368097Y-122750500D01*
X191601368Y-122713553D01*
X191614180Y-122709390D01*
X191825992Y-122640568D01*
X192036433Y-122533343D01*
X192227510Y-122394517D01*
X192394517Y-122227510D01*
X192533343Y-122036433D01*
X192640568Y-121825992D01*
X192713553Y-121601368D01*
X192716349Y-121583713D01*
X192750500Y-121368097D01*
X192750500Y-121131902D01*
X192713553Y-120898631D01*
X192640566Y-120674003D01*
X192567440Y-120530486D01*
X192533343Y-120463567D01*
X192394517Y-120272490D01*
X192227510Y-120105483D01*
X192036433Y-119966657D01*
X191825996Y-119859433D01*
X191805439Y-119852753D01*
X191724407Y-119826424D01*
X191601368Y-119786446D01*
X191368097Y-119749500D01*
X191368092Y-119749500D01*
X191131908Y-119749500D01*
X191131903Y-119749500D01*
X190898631Y-119786446D01*
X190674003Y-119859433D01*
X190463566Y-119966657D01*
X190376669Y-120029792D01*
X190272490Y-120105483D01*
X190272488Y-120105485D01*
X190272487Y-120105485D01*
X190105485Y-120272487D01*
X190105485Y-120272488D01*
X190105483Y-120272490D01*
X190071099Y-120319815D01*
X189966657Y-120463566D01*
X189957033Y-120482455D01*
X189917738Y-120559577D01*
X189906417Y-120581795D01*
X189858442Y-120632591D01*
X189795932Y-120649500D01*
X186204068Y-120649500D01*
X186137029Y-120629815D01*
X186093583Y-120581795D01*
X186033343Y-120463567D01*
X185894517Y-120272490D01*
X185727510Y-120105483D01*
X185536433Y-119966657D01*
X185325996Y-119859433D01*
X185101368Y-119786446D01*
X184868097Y-119749500D01*
X184868092Y-119749500D01*
X184631908Y-119749500D01*
X184631903Y-119749500D01*
X184398631Y-119786446D01*
X184174003Y-119859433D01*
X183963566Y-119966657D01*
X183772491Y-120105482D01*
X183701285Y-120176688D01*
X183639961Y-120210172D01*
X183570270Y-120205187D01*
X183525923Y-120176687D01*
X181781183Y-118431947D01*
X195250000Y-118431947D01*
X195250000Y-118668052D01*
X195286934Y-118901247D01*
X195359897Y-119125802D01*
X195467087Y-119336174D01*
X195527338Y-119419104D01*
X195527340Y-119419105D01*
X196226212Y-118720233D01*
X196237482Y-118762292D01*
X196309890Y-118887708D01*
X196412292Y-118990110D01*
X196537708Y-119062518D01*
X196579765Y-119073787D01*
X195880893Y-119772658D01*
X195963828Y-119832914D01*
X196174197Y-119940102D01*
X196398752Y-120013065D01*
X196398751Y-120013065D01*
X196631948Y-120050000D01*
X196868052Y-120050000D01*
X197101247Y-120013065D01*
X197325802Y-119940102D01*
X197536163Y-119832918D01*
X197536169Y-119832914D01*
X197619104Y-119772658D01*
X197619105Y-119772658D01*
X196920233Y-119073787D01*
X196962292Y-119062518D01*
X197087708Y-118990110D01*
X197190110Y-118887708D01*
X197262518Y-118762292D01*
X197273787Y-118720233D01*
X197972658Y-119419105D01*
X197972658Y-119419104D01*
X198032914Y-119336169D01*
X198032918Y-119336163D01*
X198140102Y-119125802D01*
X198213065Y-118901247D01*
X198250000Y-118668052D01*
X198250000Y-118431947D01*
X201750000Y-118431947D01*
X201750000Y-118668052D01*
X201786934Y-118901247D01*
X201859897Y-119125802D01*
X201967087Y-119336174D01*
X202027338Y-119419104D01*
X202027340Y-119419105D01*
X202726212Y-118720233D01*
X202737482Y-118762292D01*
X202809890Y-118887708D01*
X202912292Y-118990110D01*
X203037708Y-119062518D01*
X203079765Y-119073787D01*
X202380893Y-119772658D01*
X202463828Y-119832914D01*
X202674197Y-119940102D01*
X202898752Y-120013065D01*
X202898751Y-120013065D01*
X203131948Y-120050000D01*
X203368052Y-120050000D01*
X203601247Y-120013065D01*
X203825802Y-119940102D01*
X204036163Y-119832918D01*
X204036169Y-119832914D01*
X204119104Y-119772658D01*
X204119105Y-119772658D01*
X203420233Y-119073787D01*
X203462292Y-119062518D01*
X203587708Y-118990110D01*
X203690110Y-118887708D01*
X203762518Y-118762292D01*
X203773787Y-118720234D01*
X204472658Y-119419105D01*
X204472658Y-119419104D01*
X204532914Y-119336169D01*
X204532918Y-119336163D01*
X204640102Y-119125802D01*
X204713065Y-118901247D01*
X204750000Y-118668052D01*
X204750000Y-118431947D01*
X204713065Y-118198752D01*
X204640102Y-117974197D01*
X204532914Y-117763828D01*
X204472658Y-117680894D01*
X204472658Y-117680893D01*
X203773787Y-118379765D01*
X203762518Y-118337708D01*
X203690110Y-118212292D01*
X203587708Y-118109890D01*
X203462292Y-118037482D01*
X203420234Y-118026212D01*
X204119105Y-117327340D01*
X204119104Y-117327338D01*
X204036174Y-117267087D01*
X203825802Y-117159897D01*
X203601247Y-117086934D01*
X203601248Y-117086934D01*
X203368052Y-117050000D01*
X203131948Y-117050000D01*
X202898752Y-117086934D01*
X202674197Y-117159897D01*
X202463830Y-117267084D01*
X202380894Y-117327340D01*
X203079766Y-118026212D01*
X203037708Y-118037482D01*
X202912292Y-118109890D01*
X202809890Y-118212292D01*
X202737482Y-118337708D01*
X202726212Y-118379766D01*
X202027340Y-117680894D01*
X201967084Y-117763830D01*
X201859897Y-117974197D01*
X201786934Y-118198752D01*
X201750000Y-118431947D01*
X198250000Y-118431947D01*
X198213065Y-118198752D01*
X198140102Y-117974197D01*
X198032914Y-117763828D01*
X197972658Y-117680894D01*
X197972658Y-117680893D01*
X197273787Y-118379765D01*
X197262518Y-118337708D01*
X197190110Y-118212292D01*
X197087708Y-118109890D01*
X196962292Y-118037482D01*
X196920234Y-118026212D01*
X197619105Y-117327340D01*
X197619104Y-117327339D01*
X197536174Y-117267087D01*
X197325802Y-117159897D01*
X197101247Y-117086934D01*
X197101248Y-117086934D01*
X196868052Y-117050000D01*
X196631948Y-117050000D01*
X196398752Y-117086934D01*
X196174197Y-117159897D01*
X195963830Y-117267084D01*
X195880894Y-117327340D01*
X196579766Y-118026212D01*
X196537708Y-118037482D01*
X196412292Y-118109890D01*
X196309890Y-118212292D01*
X196237482Y-118337708D01*
X196226212Y-118379766D01*
X195527340Y-117680894D01*
X195467084Y-117763830D01*
X195359897Y-117974197D01*
X195286934Y-118198752D01*
X195250000Y-118431947D01*
X181781183Y-118431947D01*
X178211417Y-114862181D01*
X178177932Y-114800858D01*
X178182916Y-114731166D01*
X178224788Y-114675233D01*
X178290252Y-114650816D01*
X178299098Y-114650500D01*
X195295932Y-114650500D01*
X195362971Y-114670185D01*
X195406416Y-114718203D01*
X195466657Y-114836433D01*
X195605483Y-115027510D01*
X195772490Y-115194517D01*
X195963567Y-115333343D01*
X196053512Y-115379172D01*
X196174003Y-115440566D01*
X196174005Y-115440566D01*
X196174008Y-115440568D01*
X196287710Y-115477512D01*
X196398631Y-115513553D01*
X196631903Y-115550500D01*
X196631908Y-115550500D01*
X196868097Y-115550500D01*
X197101368Y-115513553D01*
X197109613Y-115510874D01*
X197325992Y-115440568D01*
X197536433Y-115333343D01*
X197727510Y-115194517D01*
X197894517Y-115027510D01*
X198033343Y-114836433D01*
X198093583Y-114718204D01*
X198141558Y-114667409D01*
X198204068Y-114650500D01*
X201795932Y-114650500D01*
X201862971Y-114670185D01*
X201906416Y-114718203D01*
X201966657Y-114836433D01*
X202105483Y-115027510D01*
X202272490Y-115194517D01*
X202463567Y-115333343D01*
X202553512Y-115379172D01*
X202674003Y-115440566D01*
X202674005Y-115440566D01*
X202674008Y-115440568D01*
X202787710Y-115477512D01*
X202898631Y-115513553D01*
X203131903Y-115550500D01*
X203131908Y-115550500D01*
X203368097Y-115550500D01*
X203601368Y-115513553D01*
X203609613Y-115510874D01*
X203825992Y-115440568D01*
X204036433Y-115333343D01*
X204227510Y-115194517D01*
X204394517Y-115027510D01*
X204533343Y-114836433D01*
X204640568Y-114625992D01*
X204713553Y-114401368D01*
X204725491Y-114325996D01*
X204750500Y-114168097D01*
X204750500Y-113931902D01*
X204713553Y-113698631D01*
X204640566Y-113474003D01*
X204580178Y-113355485D01*
X204533343Y-113263567D01*
X204394517Y-113072490D01*
X204227510Y-112905483D01*
X204036433Y-112766657D01*
X204009147Y-112752754D01*
X203825996Y-112659433D01*
X203601368Y-112586446D01*
X203368097Y-112549500D01*
X203368092Y-112549500D01*
X203131908Y-112549500D01*
X203131903Y-112549500D01*
X202898631Y-112586446D01*
X202674003Y-112659433D01*
X202463566Y-112766657D01*
X202392290Y-112818443D01*
X202272490Y-112905483D01*
X202272488Y-112905485D01*
X202272487Y-112905485D01*
X202105485Y-113072487D01*
X202105485Y-113072488D01*
X202105483Y-113072490D01*
X202045862Y-113154550D01*
X201966657Y-113263566D01*
X201958420Y-113279733D01*
X201916409Y-113362185D01*
X201906417Y-113381795D01*
X201858442Y-113432591D01*
X201795932Y-113449500D01*
X198204068Y-113449500D01*
X198137029Y-113429815D01*
X198093583Y-113381795D01*
X198033343Y-113263567D01*
X197894517Y-113072490D01*
X197727510Y-112905483D01*
X197536433Y-112766657D01*
X197509147Y-112752754D01*
X197325996Y-112659433D01*
X197101368Y-112586446D01*
X196868097Y-112549500D01*
X196868092Y-112549500D01*
X196631908Y-112549500D01*
X196631903Y-112549500D01*
X196398631Y-112586446D01*
X196174003Y-112659433D01*
X195963566Y-112766657D01*
X195892290Y-112818443D01*
X195772490Y-112905483D01*
X195772488Y-112905485D01*
X195772487Y-112905485D01*
X195605485Y-113072487D01*
X195605485Y-113072488D01*
X195605483Y-113072490D01*
X195545862Y-113154550D01*
X195466657Y-113263566D01*
X195458420Y-113279733D01*
X195416409Y-113362185D01*
X195406417Y-113381795D01*
X195358442Y-113432591D01*
X195295932Y-113449500D01*
X178350097Y-113449500D01*
X178283058Y-113429815D01*
X178262416Y-113413181D01*
X168187092Y-103337857D01*
X170199500Y-103337857D01*
X170199500Y-103662143D01*
X170209054Y-103759152D01*
X170231284Y-103984857D01*
X170231287Y-103984874D01*
X170294545Y-104302902D01*
X170294548Y-104302913D01*
X170388686Y-104613247D01*
X170512786Y-104912849D01*
X170512788Y-104912854D01*
X170665646Y-105198830D01*
X170665657Y-105198848D01*
X170845811Y-105468467D01*
X170845821Y-105468481D01*
X171051546Y-105719158D01*
X171280841Y-105948453D01*
X171280846Y-105948457D01*
X171280847Y-105948458D01*
X171531524Y-106154183D01*
X171801158Y-106334347D01*
X171801167Y-106334352D01*
X171801169Y-106334353D01*
X172087145Y-106487211D01*
X172087147Y-106487211D01*
X172087153Y-106487215D01*
X172386754Y-106611314D01*
X172697077Y-106705449D01*
X172697083Y-106705450D01*
X172697086Y-106705451D01*
X172697097Y-106705454D01*
X172896528Y-106745122D01*
X173015132Y-106768714D01*
X173337857Y-106800500D01*
X173337860Y-106800500D01*
X173662140Y-106800500D01*
X173662143Y-106800500D01*
X173984868Y-106768714D01*
X174148418Y-106736182D01*
X174302902Y-106705454D01*
X174302913Y-106705451D01*
X174302913Y-106705450D01*
X174302923Y-106705449D01*
X174613246Y-106611314D01*
X174912847Y-106487215D01*
X175198842Y-106334347D01*
X175468476Y-106154183D01*
X175719153Y-105948458D01*
X175948458Y-105719153D01*
X176154183Y-105468476D01*
X176334347Y-105198842D01*
X176487215Y-104912847D01*
X176611314Y-104613246D01*
X176705449Y-104302923D01*
X176705451Y-104302913D01*
X176705454Y-104302902D01*
X176746128Y-104098414D01*
X176768714Y-103984868D01*
X176800500Y-103662143D01*
X176800500Y-103337857D01*
X176768714Y-103015132D01*
X176734474Y-102842994D01*
X176705454Y-102697097D01*
X176705451Y-102697086D01*
X176705450Y-102697083D01*
X176705449Y-102697077D01*
X176611314Y-102386754D01*
X176487215Y-102087153D01*
X176485836Y-102084574D01*
X176334353Y-101801169D01*
X176334352Y-101801167D01*
X176334347Y-101801158D01*
X176154183Y-101531524D01*
X175948458Y-101280847D01*
X175948457Y-101280846D01*
X175948453Y-101280841D01*
X175719158Y-101051546D01*
X175468481Y-100845821D01*
X175468480Y-100845820D01*
X175468476Y-100845817D01*
X175198842Y-100665653D01*
X175198837Y-100665650D01*
X175198830Y-100665646D01*
X174912854Y-100512788D01*
X174912849Y-100512786D01*
X174883854Y-100500776D01*
X174760064Y-100449500D01*
X174613247Y-100388686D01*
X174302913Y-100294548D01*
X174302902Y-100294545D01*
X173984874Y-100231287D01*
X173984857Y-100231284D01*
X173740812Y-100207248D01*
X173662143Y-100199500D01*
X173337857Y-100199500D01*
X173265099Y-100206666D01*
X173015142Y-100231284D01*
X173015125Y-100231287D01*
X172697097Y-100294545D01*
X172697086Y-100294548D01*
X172386752Y-100388686D01*
X172087150Y-100512786D01*
X172087145Y-100512788D01*
X171801169Y-100665646D01*
X171801151Y-100665657D01*
X171531532Y-100845811D01*
X171531518Y-100845821D01*
X171280841Y-101051546D01*
X171051546Y-101280841D01*
X170845821Y-101531518D01*
X170845811Y-101531532D01*
X170665657Y-101801151D01*
X170665646Y-101801169D01*
X170512788Y-102087145D01*
X170512786Y-102087150D01*
X170388686Y-102386752D01*
X170294548Y-102697086D01*
X170294545Y-102697097D01*
X170231287Y-103015125D01*
X170231284Y-103015142D01*
X170210072Y-103230518D01*
X170199500Y-103337857D01*
X168187092Y-103337857D01*
X166737590Y-101888355D01*
X166737588Y-101888352D01*
X166618717Y-101769481D01*
X166618709Y-101769475D01*
X166499066Y-101700400D01*
X166499063Y-101700399D01*
X166499061Y-101700398D01*
X166481785Y-101690423D01*
X166329057Y-101649499D01*
X166170943Y-101649499D01*
X166163347Y-101649499D01*
X166163331Y-101649500D01*
X154829766Y-101649500D01*
X154762727Y-101629815D01*
X154760875Y-101628602D01*
X154629185Y-101540609D01*
X154629172Y-101540602D01*
X154483501Y-101480264D01*
X154483489Y-101480261D01*
X154328845Y-101449500D01*
X154328842Y-101449500D01*
X154171158Y-101449500D01*
X154171155Y-101449500D01*
X154016510Y-101480261D01*
X154016498Y-101480264D01*
X153870827Y-101540602D01*
X153870814Y-101540609D01*
X153739711Y-101628210D01*
X153739707Y-101628213D01*
X153628213Y-101739707D01*
X153628210Y-101739711D01*
X153540609Y-101870814D01*
X153540602Y-101870827D01*
X153480264Y-102016498D01*
X153480261Y-102016510D01*
X153449500Y-102171153D01*
X153449500Y-102275500D01*
X153429815Y-102342539D01*
X153377011Y-102388294D01*
X153325500Y-102399500D01*
X150800098Y-102399500D01*
X150733059Y-102379815D01*
X150712417Y-102363181D01*
X149584573Y-101235337D01*
X149551088Y-101174014D01*
X149550637Y-101171847D01*
X149541957Y-101128210D01*
X149519737Y-101016503D01*
X149516838Y-101009505D01*
X149459397Y-100870827D01*
X149459390Y-100870814D01*
X149371789Y-100739711D01*
X149371786Y-100739707D01*
X149260292Y-100628213D01*
X149260288Y-100628210D01*
X149129185Y-100540609D01*
X149129172Y-100540602D01*
X148983501Y-100480264D01*
X148983489Y-100480261D01*
X148828845Y-100449500D01*
X148828842Y-100449500D01*
X148671158Y-100449500D01*
X148671155Y-100449500D01*
X148516510Y-100480261D01*
X148516498Y-100480264D01*
X148370827Y-100540602D01*
X148370814Y-100540609D01*
X148239711Y-100628210D01*
X148239707Y-100628213D01*
X148128213Y-100739707D01*
X148128210Y-100739711D01*
X148040609Y-100870814D01*
X148040602Y-100870827D01*
X147980264Y-101016498D01*
X147980261Y-101016510D01*
X147949500Y-101171153D01*
X144803232Y-101171153D01*
X144760292Y-101128213D01*
X144760288Y-101128210D01*
X144629185Y-101040609D01*
X144629172Y-101040602D01*
X144483501Y-100980264D01*
X144483489Y-100980261D01*
X144328845Y-100949500D01*
X144328842Y-100949500D01*
X144171158Y-100949500D01*
X144171155Y-100949500D01*
X144016510Y-100980261D01*
X144016498Y-100980264D01*
X143870827Y-101040602D01*
X143870814Y-101040609D01*
X143739711Y-101128210D01*
X143739707Y-101128213D01*
X143628213Y-101239707D01*
X143628210Y-101239711D01*
X143540609Y-101370814D01*
X143540602Y-101370827D01*
X143480264Y-101516498D01*
X143480261Y-101516510D01*
X143449500Y-101671153D01*
X143449500Y-101828846D01*
X143480261Y-101983489D01*
X143480264Y-101983501D01*
X143540602Y-102129172D01*
X143540609Y-102129185D01*
X143628602Y-102260874D01*
X143649480Y-102327551D01*
X143649500Y-102329765D01*
X143649500Y-102949903D01*
X143629815Y-103016942D01*
X143613181Y-103037584D01*
X134234626Y-112416138D01*
X134173303Y-112449623D01*
X134103611Y-112444639D01*
X134047678Y-112402767D01*
X134023261Y-112337303D01*
X134038113Y-112269030D01*
X134039512Y-112266537D01*
X134059577Y-112231784D01*
X134100501Y-112079057D01*
X134100501Y-111920942D01*
X134100501Y-111913347D01*
X134100500Y-111913329D01*
X134100500Y-103329765D01*
X134104966Y-103313633D01*
X134104499Y-103298528D01*
X134116639Y-103271477D01*
X134118160Y-103265985D01*
X134121257Y-103260820D01*
X134121789Y-103260289D01*
X134209394Y-103129179D01*
X134229889Y-103079699D01*
X134234598Y-103071848D01*
X134253816Y-103054124D01*
X134270215Y-103033774D01*
X134279085Y-103030821D01*
X134285961Y-103024481D01*
X134311709Y-103019962D01*
X134336509Y-103011707D01*
X134345569Y-103014019D01*
X134354779Y-103012403D01*
X134378879Y-103022520D01*
X134404208Y-103028984D01*
X134415883Y-103038054D01*
X134419202Y-103039447D01*
X134420948Y-103041988D01*
X134428619Y-103047947D01*
X134611192Y-103230520D01*
X134611194Y-103230521D01*
X134611198Y-103230524D01*
X134748117Y-103309573D01*
X134748120Y-103309575D01*
X134748124Y-103309577D01*
X134900851Y-103350501D01*
X134900853Y-103350501D01*
X135066562Y-103350501D01*
X135066578Y-103350500D01*
X140433423Y-103350500D01*
X140433439Y-103350501D01*
X140441035Y-103350501D01*
X140599146Y-103350501D01*
X140599149Y-103350501D01*
X140751877Y-103309577D01*
X140831239Y-103263757D01*
X140888808Y-103230520D01*
X141000612Y-103118716D01*
X141000612Y-103118714D01*
X141010816Y-103108511D01*
X141010819Y-103108506D01*
X145482508Y-98636819D01*
X145543831Y-98603334D01*
X145570189Y-98600500D01*
X161947720Y-98600500D01*
X162014759Y-98620185D01*
X162060514Y-98672989D01*
X162070458Y-98742147D01*
X162058205Y-98780794D01*
X162020468Y-98854857D01*
X161947504Y-99079415D01*
X161910570Y-99312610D01*
X161910570Y-99548715D01*
X161947504Y-99781910D01*
X162020467Y-100006465D01*
X162127657Y-100216837D01*
X162187908Y-100299767D01*
X162187910Y-100299768D01*
X162886782Y-99600896D01*
X162898052Y-99642955D01*
X162970460Y-99768371D01*
X163072862Y-99870773D01*
X163198278Y-99943181D01*
X163240335Y-99954450D01*
X162541463Y-100653321D01*
X162624398Y-100713577D01*
X162834767Y-100820765D01*
X163059322Y-100893728D01*
X163059321Y-100893728D01*
X163292518Y-100930663D01*
X163528622Y-100930663D01*
X163761817Y-100893728D01*
X163986372Y-100820765D01*
X164196733Y-100713581D01*
X164196739Y-100713577D01*
X164279674Y-100653321D01*
X164279675Y-100653321D01*
X163580803Y-99954450D01*
X163622862Y-99943181D01*
X163748278Y-99870773D01*
X163850680Y-99768371D01*
X163923088Y-99642955D01*
X163934357Y-99600897D01*
X164633228Y-100299768D01*
X164633228Y-100299767D01*
X164693484Y-100216832D01*
X164693488Y-100216826D01*
X164800672Y-100006465D01*
X164873635Y-99781910D01*
X164910570Y-99548715D01*
X164910570Y-99312610D01*
X164873635Y-99079415D01*
X164800671Y-98854857D01*
X164762935Y-98780794D01*
X164750039Y-98712125D01*
X164776316Y-98647385D01*
X164833422Y-98607128D01*
X164873420Y-98600500D01*
X168447720Y-98600500D01*
X168514759Y-98620185D01*
X168560514Y-98672989D01*
X168570458Y-98742147D01*
X168558205Y-98780794D01*
X168520468Y-98854857D01*
X168447504Y-99079415D01*
X168410570Y-99312610D01*
X168410570Y-99548715D01*
X168447504Y-99781910D01*
X168520467Y-100006465D01*
X168627657Y-100216837D01*
X168687908Y-100299767D01*
X168687910Y-100299768D01*
X169386782Y-99600896D01*
X169398052Y-99642955D01*
X169470460Y-99768371D01*
X169572862Y-99870773D01*
X169698278Y-99943181D01*
X169740335Y-99954450D01*
X169041463Y-100653321D01*
X169124398Y-100713577D01*
X169334767Y-100820765D01*
X169559322Y-100893728D01*
X169559321Y-100893728D01*
X169792518Y-100930663D01*
X170028622Y-100930663D01*
X170261817Y-100893728D01*
X170486372Y-100820765D01*
X170696733Y-100713581D01*
X170696739Y-100713577D01*
X170779674Y-100653321D01*
X170779675Y-100653321D01*
X170080803Y-99954450D01*
X170122862Y-99943181D01*
X170248278Y-99870773D01*
X170350680Y-99768371D01*
X170423088Y-99642955D01*
X170434357Y-99600897D01*
X171133228Y-100299768D01*
X171133228Y-100299767D01*
X171193484Y-100216832D01*
X171193488Y-100216826D01*
X171300672Y-100006465D01*
X171373635Y-99781910D01*
X171410570Y-99548715D01*
X171410570Y-99312610D01*
X171373635Y-99079415D01*
X171300671Y-98854857D01*
X171262935Y-98780794D01*
X171250039Y-98712125D01*
X171276316Y-98647385D01*
X171333422Y-98607128D01*
X171373420Y-98600500D01*
X181787403Y-98600500D01*
X181854442Y-98620185D01*
X181875084Y-98636819D01*
X182288181Y-99049916D01*
X182321666Y-99111239D01*
X182324500Y-99137597D01*
X182324500Y-99750001D01*
X182324501Y-99750019D01*
X182335000Y-99852796D01*
X182335001Y-99852799D01*
X182390185Y-100019331D01*
X182390187Y-100019336D01*
X182420353Y-100068243D01*
X182482288Y-100168656D01*
X182606344Y-100292712D01*
X182755666Y-100384814D01*
X182922203Y-100439999D01*
X183024991Y-100450500D01*
X183650008Y-100450499D01*
X183650016Y-100450498D01*
X183650019Y-100450498D01*
X183706302Y-100444748D01*
X183752797Y-100439999D01*
X183919334Y-100384814D01*
X184068656Y-100292712D01*
X184162319Y-100199049D01*
X184223642Y-100165564D01*
X184293334Y-100170548D01*
X184337681Y-100199049D01*
X184431344Y-100292712D01*
X184580666Y-100384814D01*
X184747203Y-100439999D01*
X184849991Y-100450500D01*
X185475008Y-100450499D01*
X185475016Y-100450498D01*
X185475019Y-100450498D01*
X185531302Y-100444748D01*
X185577797Y-100439999D01*
X185744334Y-100384814D01*
X185893656Y-100292712D01*
X186017712Y-100168656D01*
X186109814Y-100019334D01*
X186137595Y-99935495D01*
X186177368Y-99878051D01*
X186241884Y-99851228D01*
X186255301Y-99850500D01*
X189053629Y-99850500D01*
X189120668Y-99870185D01*
X189153946Y-99901613D01*
X189161757Y-99912363D01*
X189161759Y-99912366D01*
X189317636Y-100068243D01*
X189317641Y-100068247D01*
X189473192Y-100181260D01*
X189495978Y-100197815D01*
X189609897Y-100255860D01*
X189692393Y-100297895D01*
X189692396Y-100297896D01*
X189787647Y-100328844D01*
X189902049Y-100366015D01*
X190119778Y-100400500D01*
X190119779Y-100400500D01*
X190340221Y-100400500D01*
X190340222Y-100400500D01*
X190557951Y-100366015D01*
X190761841Y-100299768D01*
X190767603Y-100297896D01*
X190767606Y-100297895D01*
X190777782Y-100292710D01*
X190964022Y-100197815D01*
X191142365Y-100068242D01*
X191192924Y-100017682D01*
X191254245Y-99984198D01*
X191323936Y-99989182D01*
X191379870Y-100031053D01*
X191396786Y-100062030D01*
X191426646Y-100142087D01*
X191426649Y-100142093D01*
X191512809Y-100257187D01*
X191512812Y-100257190D01*
X191627906Y-100343350D01*
X191627913Y-100343354D01*
X191762620Y-100393596D01*
X191762627Y-100393598D01*
X191822155Y-100399999D01*
X191822172Y-100400000D01*
X192520000Y-100400000D01*
X192520000Y-99375277D01*
X192596306Y-99419333D01*
X192710756Y-99450000D01*
X192829244Y-99450000D01*
X192943694Y-99419333D01*
X193020000Y-99375277D01*
X193020000Y-100400000D01*
X193717828Y-100400000D01*
X193717844Y-100399999D01*
X193777372Y-100393598D01*
X193777379Y-100393596D01*
X193912086Y-100343354D01*
X193912093Y-100343350D01*
X194027187Y-100257190D01*
X194027190Y-100257187D01*
X194113350Y-100142093D01*
X194113354Y-100142086D01*
X194163596Y-100007379D01*
X194163598Y-100007372D01*
X194169999Y-99947844D01*
X194170000Y-99947827D01*
X194170000Y-99250000D01*
X193145278Y-99250000D01*
X193189333Y-99173694D01*
X193220000Y-99059244D01*
X193220000Y-98940756D01*
X193189333Y-98826306D01*
X193145278Y-98750000D01*
X194170000Y-98750000D01*
X194170000Y-98052172D01*
X194169999Y-98052155D01*
X194163598Y-97992627D01*
X194163596Y-97992620D01*
X194113354Y-97857913D01*
X194113350Y-97857906D01*
X194027190Y-97742812D01*
X194027187Y-97742809D01*
X193912093Y-97656649D01*
X193912086Y-97656645D01*
X193777379Y-97606403D01*
X193777372Y-97606401D01*
X193717844Y-97600000D01*
X193020000Y-97600000D01*
X193020000Y-98624722D01*
X192943694Y-98580667D01*
X192829244Y-98550000D01*
X192710756Y-98550000D01*
X192596306Y-98580667D01*
X192520000Y-98624722D01*
X192520000Y-97600000D01*
X191822155Y-97600000D01*
X191762627Y-97606401D01*
X191762620Y-97606403D01*
X191627913Y-97656645D01*
X191627906Y-97656649D01*
X191512812Y-97742809D01*
X191512809Y-97742812D01*
X191426649Y-97857906D01*
X191426643Y-97857918D01*
X191396785Y-97937969D01*
X191354914Y-97993903D01*
X191289449Y-98018319D01*
X191221176Y-98003467D01*
X191192923Y-97982316D01*
X191142363Y-97931756D01*
X191142358Y-97931752D01*
X190964025Y-97802187D01*
X190964024Y-97802186D01*
X190964022Y-97802185D01*
X190890376Y-97764660D01*
X190767606Y-97702104D01*
X190767603Y-97702103D01*
X190557952Y-97633985D01*
X190406516Y-97610000D01*
X190340222Y-97599500D01*
X190119778Y-97599500D01*
X190053484Y-97610000D01*
X189902047Y-97633985D01*
X189692396Y-97702103D01*
X189692393Y-97702104D01*
X189495974Y-97802187D01*
X189317641Y-97931752D01*
X189317636Y-97931756D01*
X189161756Y-98087636D01*
X189161752Y-98087641D01*
X189032187Y-98265974D01*
X188932104Y-98462393D01*
X188932102Y-98462399D01*
X188899151Y-98563817D01*
X188859714Y-98621493D01*
X188795356Y-98648692D01*
X188781220Y-98649500D01*
X186255301Y-98649500D01*
X186188262Y-98629815D01*
X186142507Y-98577011D01*
X186137595Y-98564504D01*
X186109814Y-98480666D01*
X186017712Y-98331344D01*
X185893656Y-98207288D01*
X185767030Y-98129185D01*
X185744336Y-98115187D01*
X185744331Y-98115185D01*
X185742862Y-98114698D01*
X185577797Y-98060001D01*
X185577795Y-98060000D01*
X185475010Y-98049500D01*
X184849998Y-98049500D01*
X184849980Y-98049501D01*
X184747203Y-98060000D01*
X184747200Y-98060001D01*
X184580668Y-98115185D01*
X184580663Y-98115187D01*
X184431342Y-98207289D01*
X184337681Y-98300951D01*
X184276358Y-98334436D01*
X184206666Y-98329452D01*
X184162319Y-98300951D01*
X184068657Y-98207289D01*
X184068656Y-98207288D01*
X183942030Y-98129185D01*
X183919336Y-98115187D01*
X183919331Y-98115185D01*
X183917862Y-98114698D01*
X183752797Y-98060001D01*
X183752795Y-98060000D01*
X183650016Y-98049500D01*
X183037597Y-98049500D01*
X182970558Y-98029815D01*
X182949916Y-98013181D01*
X182575090Y-97638355D01*
X182575088Y-97638352D01*
X182456217Y-97519481D01*
X182456209Y-97519475D01*
X182336566Y-97450400D01*
X182336563Y-97450399D01*
X182336561Y-97450398D01*
X182319285Y-97440423D01*
X182166557Y-97399499D01*
X182008443Y-97399499D01*
X182000847Y-97399499D01*
X182000831Y-97399500D01*
X145191032Y-97399500D01*
X145150111Y-97410464D01*
X145150111Y-97410465D01*
X145112843Y-97420451D01*
X145038306Y-97440423D01*
X145038301Y-97440426D01*
X144901382Y-97519475D01*
X144901374Y-97519481D01*
X144841799Y-97579057D01*
X144789572Y-97631284D01*
X144789570Y-97631286D01*
X142535906Y-99884951D01*
X140307676Y-102113181D01*
X140246353Y-102146666D01*
X140219995Y-102149500D01*
X135280006Y-102149500D01*
X135212967Y-102129815D01*
X135192325Y-102113181D01*
X133699527Y-100620383D01*
X133666042Y-100559060D01*
X133665591Y-100556893D01*
X133665454Y-100556204D01*
X133634691Y-100401549D01*
X133634689Y-100401544D01*
X133574351Y-100255873D01*
X133574344Y-100255860D01*
X133486743Y-100124757D01*
X133486740Y-100124753D01*
X133375246Y-100013259D01*
X133375242Y-100013256D01*
X133244139Y-99925655D01*
X133244126Y-99925648D01*
X133098455Y-99865310D01*
X133098443Y-99865307D01*
X132943799Y-99834546D01*
X132943796Y-99834546D01*
X132786112Y-99834546D01*
X132786109Y-99834546D01*
X132631464Y-99865307D01*
X132631452Y-99865310D01*
X132485781Y-99925648D01*
X132485763Y-99925658D01*
X132372861Y-100001097D01*
X132342567Y-100010582D01*
X132312817Y-100021679D01*
X132309460Y-100020948D01*
X132306184Y-100021975D01*
X132275569Y-100013576D01*
X132244544Y-100006827D01*
X132240828Y-100004045D01*
X132238804Y-100003490D01*
X132216290Y-99985676D01*
X132136819Y-99906205D01*
X132103334Y-99844882D01*
X132100500Y-99818524D01*
X132100500Y-97800097D01*
X132120185Y-97733058D01*
X132136819Y-97712416D01*
X132531753Y-97317482D01*
X132593076Y-97283997D01*
X132619434Y-97281163D01*
X142330804Y-97281163D01*
X142397843Y-97300848D01*
X142399695Y-97302061D01*
X142531384Y-97390053D01*
X142531397Y-97390060D01*
X142652986Y-97440423D01*
X142677073Y-97450400D01*
X142831723Y-97481162D01*
X142831726Y-97481163D01*
X142831728Y-97481163D01*
X142989414Y-97481163D01*
X142989415Y-97481162D01*
X143144067Y-97450400D01*
X143289749Y-97390057D01*
X143420859Y-97302452D01*
X143532359Y-97190952D01*
X143619964Y-97059842D01*
X143680307Y-96914160D01*
X143711070Y-96759505D01*
X143711070Y-96601821D01*
X143711070Y-96601818D01*
X143711069Y-96601816D01*
X143701896Y-96555703D01*
X143680307Y-96447166D01*
X143674898Y-96434108D01*
X143619967Y-96301490D01*
X143619960Y-96301477D01*
X143532359Y-96170374D01*
X143532356Y-96170370D01*
X143420862Y-96058876D01*
X143420858Y-96058873D01*
X143289755Y-95971272D01*
X143289742Y-95971265D01*
X143223059Y-95943645D01*
X143168655Y-95899805D01*
X143146590Y-95833511D01*
X143163869Y-95765811D01*
X143182825Y-95741408D01*
X143839662Y-95084572D01*
X143900983Y-95051089D01*
X143903150Y-95050638D01*
X143961085Y-95039113D01*
X144058497Y-95019737D01*
X144204179Y-94959394D01*
X144335289Y-94871789D01*
X144394513Y-94812565D01*
X161910070Y-94812565D01*
X161910070Y-95048760D01*
X161947016Y-95282031D01*
X162020003Y-95506659D01*
X162108221Y-95679794D01*
X162127227Y-95717096D01*
X162266053Y-95908173D01*
X162433060Y-96075180D01*
X162624137Y-96214006D01*
X162681934Y-96243455D01*
X162834573Y-96321229D01*
X162834575Y-96321229D01*
X162834578Y-96321231D01*
X162929863Y-96352191D01*
X163059201Y-96394216D01*
X163292473Y-96431163D01*
X163292478Y-96431163D01*
X163528667Y-96431163D01*
X163761938Y-96394216D01*
X163986562Y-96321231D01*
X164197003Y-96214006D01*
X164388080Y-96075180D01*
X164555087Y-95908173D01*
X164693913Y-95717096D01*
X164754153Y-95598867D01*
X164802128Y-95548072D01*
X164864638Y-95531163D01*
X168456502Y-95531163D01*
X168523541Y-95550848D01*
X168566986Y-95598866D01*
X168627227Y-95717096D01*
X168766053Y-95908173D01*
X168933060Y-96075180D01*
X169124137Y-96214006D01*
X169181934Y-96243455D01*
X169334573Y-96321229D01*
X169334575Y-96321229D01*
X169334578Y-96321231D01*
X169429863Y-96352191D01*
X169559201Y-96394216D01*
X169792473Y-96431163D01*
X169792478Y-96431163D01*
X170028667Y-96431163D01*
X170261938Y-96394216D01*
X170309657Y-96378711D01*
X204899500Y-96378711D01*
X204899500Y-96621288D01*
X204931161Y-96861785D01*
X204993947Y-97096104D01*
X205080232Y-97304413D01*
X205086776Y-97320212D01*
X205208064Y-97530289D01*
X205208066Y-97530292D01*
X205208067Y-97530293D01*
X205355733Y-97722736D01*
X205355739Y-97722743D01*
X205527256Y-97894260D01*
X205527263Y-97894266D01*
X205576116Y-97931752D01*
X205719711Y-98041936D01*
X205929788Y-98163224D01*
X206153900Y-98256054D01*
X206388211Y-98318838D01*
X206568586Y-98342584D01*
X206628711Y-98350500D01*
X206628712Y-98350500D01*
X206871289Y-98350500D01*
X206919388Y-98344167D01*
X207111789Y-98318838D01*
X207346100Y-98256054D01*
X207570212Y-98163224D01*
X207780289Y-98041936D01*
X207972738Y-97894265D01*
X208144265Y-97722738D01*
X208291936Y-97530289D01*
X208413224Y-97320212D01*
X208506054Y-97096100D01*
X208568838Y-96861789D01*
X208600500Y-96621288D01*
X208600500Y-96378712D01*
X208599377Y-96370185D01*
X208581368Y-96233387D01*
X208568838Y-96138211D01*
X208506054Y-95903900D01*
X208495716Y-95878943D01*
X208483076Y-95848427D01*
X208413224Y-95679788D01*
X208291936Y-95469711D01*
X208154527Y-95290636D01*
X208144266Y-95277263D01*
X208144260Y-95277256D01*
X207972743Y-95105739D01*
X207972736Y-95105733D01*
X207780293Y-94958067D01*
X207780292Y-94958066D01*
X207780289Y-94958064D01*
X207603050Y-94855735D01*
X207570214Y-94836777D01*
X207570205Y-94836773D01*
X207346104Y-94743947D01*
X207111785Y-94681161D01*
X206871289Y-94649500D01*
X206871288Y-94649500D01*
X206628712Y-94649500D01*
X206628711Y-94649500D01*
X206388214Y-94681161D01*
X206153895Y-94743947D01*
X205929794Y-94836773D01*
X205929785Y-94836777D01*
X205719706Y-94958067D01*
X205527263Y-95105733D01*
X205527256Y-95105739D01*
X205355739Y-95277256D01*
X205355733Y-95277263D01*
X205208067Y-95469706D01*
X205086777Y-95679785D01*
X205086773Y-95679794D01*
X204993947Y-95903895D01*
X204931161Y-96138214D01*
X204899500Y-96378711D01*
X170309657Y-96378711D01*
X170486562Y-96321231D01*
X170697003Y-96214006D01*
X170888080Y-96075180D01*
X171055087Y-95908173D01*
X171193913Y-95717096D01*
X171301138Y-95506655D01*
X171374123Y-95282031D01*
X171379181Y-95250098D01*
X171411070Y-95048760D01*
X171411070Y-94812565D01*
X171374123Y-94579294D01*
X171340259Y-94475075D01*
X171301138Y-94354671D01*
X171301136Y-94354668D01*
X171301136Y-94354666D01*
X171202185Y-94160465D01*
X171193913Y-94144230D01*
X171055087Y-93953153D01*
X170888080Y-93786146D01*
X170697003Y-93647320D01*
X170486566Y-93540096D01*
X170261938Y-93467109D01*
X170028667Y-93430163D01*
X170028662Y-93430163D01*
X169792478Y-93430163D01*
X169792473Y-93430163D01*
X169559201Y-93467109D01*
X169334573Y-93540096D01*
X169124136Y-93647320D01*
X169015120Y-93726525D01*
X168933060Y-93786146D01*
X168933058Y-93786148D01*
X168933057Y-93786148D01*
X168766055Y-93953150D01*
X168766055Y-93953151D01*
X168766053Y-93953153D01*
X168720023Y-94016508D01*
X168627227Y-94144229D01*
X168613509Y-94171153D01*
X168575823Y-94245117D01*
X168566987Y-94262458D01*
X168519012Y-94313254D01*
X168456502Y-94330163D01*
X164864638Y-94330163D01*
X164797599Y-94310478D01*
X164754153Y-94262458D01*
X164746373Y-94247188D01*
X164693913Y-94144230D01*
X164555087Y-93953153D01*
X164388080Y-93786146D01*
X164197003Y-93647320D01*
X163986566Y-93540096D01*
X163761938Y-93467109D01*
X163528667Y-93430163D01*
X163528662Y-93430163D01*
X163292478Y-93430163D01*
X163292473Y-93430163D01*
X163059201Y-93467109D01*
X162834573Y-93540096D01*
X162624136Y-93647320D01*
X162515120Y-93726525D01*
X162433060Y-93786146D01*
X162433058Y-93786148D01*
X162433057Y-93786148D01*
X162266055Y-93953150D01*
X162266055Y-93953151D01*
X162266053Y-93953153D01*
X162220023Y-94016508D01*
X162127227Y-94144229D01*
X162020003Y-94354666D01*
X161947016Y-94579294D01*
X161910070Y-94812565D01*
X144394513Y-94812565D01*
X144446789Y-94760289D01*
X144452329Y-94751998D01*
X144461144Y-94738807D01*
X144534390Y-94629185D01*
X144534390Y-94629184D01*
X144534394Y-94629179D01*
X144535071Y-94627546D01*
X144582792Y-94512335D01*
X144594737Y-94483497D01*
X144625500Y-94328842D01*
X144625500Y-94171158D01*
X144625500Y-94171155D01*
X144625499Y-94171153D01*
X144606773Y-94077011D01*
X144594737Y-94016503D01*
X144591154Y-94007853D01*
X144534397Y-93870827D01*
X144534390Y-93870814D01*
X144446789Y-93739711D01*
X144446786Y-93739707D01*
X144335292Y-93628213D01*
X144335288Y-93628210D01*
X144204185Y-93540609D01*
X144204172Y-93540602D01*
X144058501Y-93480264D01*
X144058489Y-93480261D01*
X143903845Y-93449500D01*
X143903842Y-93449500D01*
X143746158Y-93449500D01*
X143746155Y-93449500D01*
X143591510Y-93480261D01*
X143591498Y-93480264D01*
X143445827Y-93540602D01*
X143445814Y-93540609D01*
X143314711Y-93628210D01*
X143314707Y-93628213D01*
X143203213Y-93739707D01*
X143203210Y-93739711D01*
X143115609Y-93870814D01*
X143115602Y-93870827D01*
X143055264Y-94016498D01*
X143055261Y-94016508D01*
X143024361Y-94171850D01*
X142991976Y-94233761D01*
X142990425Y-94235339D01*
X142112584Y-95113181D01*
X142051261Y-95146666D01*
X142024903Y-95149500D01*
X126510759Y-95149500D01*
X126443720Y-95129815D01*
X126397965Y-95077011D01*
X126388021Y-95007853D01*
X126407657Y-94956609D01*
X126434907Y-94915826D01*
X126459394Y-94879179D01*
X126519737Y-94733497D01*
X126550500Y-94578842D01*
X126550500Y-94421158D01*
X126550500Y-94421155D01*
X126550499Y-94421153D01*
X126542569Y-94381286D01*
X126519737Y-94266503D01*
X126506175Y-94233761D01*
X126459397Y-94120827D01*
X126459390Y-94120814D01*
X126371789Y-93989711D01*
X126371786Y-93989707D01*
X126260292Y-93878213D01*
X126260288Y-93878210D01*
X126129185Y-93790609D01*
X126129172Y-93790602D01*
X125983501Y-93730264D01*
X125983491Y-93730261D01*
X125828149Y-93699361D01*
X125766238Y-93666976D01*
X125764660Y-93665425D01*
X123717590Y-91618355D01*
X123717588Y-91618352D01*
X123598717Y-91499481D01*
X123598716Y-91499480D01*
X123511904Y-91449360D01*
X123511904Y-91449359D01*
X123511900Y-91449358D01*
X123461785Y-91420423D01*
X123309057Y-91379499D01*
X123150943Y-91379499D01*
X123143347Y-91379499D01*
X123143331Y-91379500D01*
X90179057Y-91379500D01*
X90020942Y-91379500D01*
X89868215Y-91420423D01*
X89868214Y-91420423D01*
X89868212Y-91420424D01*
X89868209Y-91420425D01*
X89818096Y-91449359D01*
X89818095Y-91449360D01*
X89789346Y-91465958D01*
X89731285Y-91499479D01*
X89731282Y-91499481D01*
X80062181Y-101168583D01*
X80000858Y-101202068D01*
X79931166Y-101197084D01*
X79875233Y-101155212D01*
X79850816Y-101089748D01*
X79850500Y-101080902D01*
X79850500Y-100933713D01*
X79836579Y-100845821D01*
X79817246Y-100723757D01*
X79751557Y-100521588D01*
X79655051Y-100332184D01*
X79655049Y-100332181D01*
X79655048Y-100332179D01*
X79530109Y-100160213D01*
X79379786Y-100009890D01*
X79207820Y-99884951D01*
X79207115Y-99884591D01*
X79199054Y-99880485D01*
X79148259Y-99832512D01*
X79131463Y-99764692D01*
X79153999Y-99698556D01*
X79199054Y-99659515D01*
X79207816Y-99655051D01*
X79253602Y-99621786D01*
X79379786Y-99530109D01*
X79379788Y-99530106D01*
X79379792Y-99530104D01*
X79530104Y-99379792D01*
X79530106Y-99379788D01*
X79530109Y-99379786D01*
X79655048Y-99207820D01*
X79655047Y-99207820D01*
X79655051Y-99207816D01*
X79751557Y-99018412D01*
X79817246Y-98816243D01*
X79850500Y-98606287D01*
X79850500Y-98393713D01*
X79817246Y-98183757D01*
X79751557Y-97981588D01*
X79655051Y-97792184D01*
X79655049Y-97792181D01*
X79655048Y-97792179D01*
X79530109Y-97620213D01*
X79379786Y-97469890D01*
X79207817Y-97344949D01*
X79198504Y-97340204D01*
X79147707Y-97292230D01*
X79130912Y-97224409D01*
X79153449Y-97158274D01*
X79198507Y-97119232D01*
X79207555Y-97114622D01*
X79261716Y-97075270D01*
X79261717Y-97075270D01*
X78629408Y-96442962D01*
X78692993Y-96425925D01*
X78807007Y-96360099D01*
X78900099Y-96267007D01*
X78965925Y-96152993D01*
X78982962Y-96089408D01*
X79615270Y-96721717D01*
X79615270Y-96721716D01*
X79654622Y-96667554D01*
X79751095Y-96478217D01*
X79816757Y-96276130D01*
X79816757Y-96276127D01*
X79850000Y-96066246D01*
X79850000Y-95853753D01*
X79816757Y-95643872D01*
X79816757Y-95643869D01*
X79751095Y-95441782D01*
X79654624Y-95252449D01*
X79615270Y-95198282D01*
X79615269Y-95198282D01*
X78982962Y-95830590D01*
X78965925Y-95767007D01*
X78900099Y-95652993D01*
X78807007Y-95559901D01*
X78692993Y-95494075D01*
X78629409Y-95477037D01*
X79299627Y-94806818D01*
X79360950Y-94773333D01*
X79387307Y-94770499D01*
X79397872Y-94770499D01*
X79457483Y-94764091D01*
X79592331Y-94713796D01*
X79707546Y-94627546D01*
X79793796Y-94512331D01*
X79844091Y-94377483D01*
X79850500Y-94317873D01*
X79850499Y-92522128D01*
X79844091Y-92462517D01*
X79842224Y-92457512D01*
X79793797Y-92327671D01*
X79793793Y-92327664D01*
X79707547Y-92212455D01*
X79707544Y-92212452D01*
X79592335Y-92126206D01*
X79592328Y-92126202D01*
X79457482Y-92075908D01*
X79457483Y-92075908D01*
X79397883Y-92069501D01*
X79397881Y-92069500D01*
X79397873Y-92069500D01*
X79397864Y-92069500D01*
X77602129Y-92069500D01*
X77602123Y-92069501D01*
X77542516Y-92075908D01*
X77407671Y-92126202D01*
X77407664Y-92126206D01*
X77292455Y-92212452D01*
X77292452Y-92212455D01*
X77206206Y-92327664D01*
X77206202Y-92327671D01*
X77155908Y-92462517D01*
X77151831Y-92500445D01*
X77149501Y-92522123D01*
X77149500Y-92522135D01*
X77149500Y-93199901D01*
X77129815Y-93266940D01*
X77113181Y-93287582D01*
X71707375Y-98693388D01*
X71646052Y-98726873D01*
X71576360Y-98721889D01*
X71520427Y-98680017D01*
X71501763Y-98644025D01*
X71488541Y-98603334D01*
X71455220Y-98500781D01*
X71362287Y-98318390D01*
X71320077Y-98260292D01*
X71241971Y-98152786D01*
X71176512Y-98087327D01*
X71143027Y-98026004D01*
X71148011Y-97956312D01*
X71176512Y-97911964D01*
X71241585Y-97846891D01*
X71361859Y-97681349D01*
X71454755Y-97499029D01*
X71517990Y-97304413D01*
X71526609Y-97250000D01*
X70683010Y-97250000D01*
X70715924Y-97192992D01*
X70749999Y-97065826D01*
X70749999Y-96934174D01*
X70715924Y-96807008D01*
X70683010Y-96750000D01*
X71526609Y-96750000D01*
X71517990Y-96695586D01*
X71454755Y-96500970D01*
X71378949Y-96352191D01*
X71366053Y-96283522D01*
X71392329Y-96218781D01*
X71433140Y-96185411D01*
X71536169Y-96132916D01*
X71727186Y-95994133D01*
X71894133Y-95827186D01*
X72032914Y-95636171D01*
X72140102Y-95425802D01*
X72213065Y-95201247D01*
X72229102Y-95100000D01*
X71083009Y-95100000D01*
X71115923Y-95042992D01*
X71149998Y-94915826D01*
X71149998Y-94784174D01*
X71115923Y-94657008D01*
X71083009Y-94600000D01*
X72229102Y-94600000D01*
X72213065Y-94498752D01*
X72140102Y-94274197D01*
X72032914Y-94063828D01*
X71894133Y-93872813D01*
X71727186Y-93705866D01*
X71536171Y-93567085D01*
X71325802Y-93459897D01*
X71101247Y-93386934D01*
X71101248Y-93386934D01*
X70868052Y-93350000D01*
X70500000Y-93350000D01*
X70500000Y-94350001D01*
X70000000Y-94350001D01*
X70000000Y-93350000D01*
X69631948Y-93350000D01*
X69398752Y-93386934D01*
X69174197Y-93459897D01*
X68963828Y-93567085D01*
X68772813Y-93705866D01*
X68605866Y-93872813D01*
X68467085Y-94063828D01*
X68359897Y-94274197D01*
X68286934Y-94498752D01*
X68270898Y-94600000D01*
X69416991Y-94600000D01*
X69384077Y-94657008D01*
X69350002Y-94784174D01*
X69350002Y-94915826D01*
X69384077Y-95042992D01*
X69416991Y-95100000D01*
X68270898Y-95100000D01*
X68286934Y-95201247D01*
X68359897Y-95425802D01*
X68467085Y-95636171D01*
X68605866Y-95827186D01*
X68772813Y-95994133D01*
X68963828Y-96132914D01*
X69066860Y-96185412D01*
X69117656Y-96233387D01*
X69134451Y-96301208D01*
X69121050Y-96352192D01*
X69045244Y-96500970D01*
X68982009Y-96695586D01*
X68973391Y-96750000D01*
X69816990Y-96750000D01*
X69784076Y-96807008D01*
X69750001Y-96934174D01*
X69750001Y-97065826D01*
X69784076Y-97192992D01*
X69816990Y-97250000D01*
X68973391Y-97250000D01*
X68982009Y-97304413D01*
X69045244Y-97499029D01*
X69138140Y-97681349D01*
X69258417Y-97846894D01*
X69258417Y-97846895D01*
X69323487Y-97911965D01*
X69356972Y-97973288D01*
X69351988Y-98042980D01*
X69323488Y-98087327D01*
X69258027Y-98152788D01*
X69137715Y-98318386D01*
X69044781Y-98500776D01*
X68981522Y-98695465D01*
X68949500Y-98897648D01*
X68949500Y-99102351D01*
X68981522Y-99304534D01*
X69044781Y-99499223D01*
X69101664Y-99610860D01*
X69124180Y-99655051D01*
X69137715Y-99681613D01*
X69258028Y-99847213D01*
X69323134Y-99912319D01*
X69356619Y-99973642D01*
X69351635Y-100043334D01*
X69323134Y-100087681D01*
X69258032Y-100152782D01*
X69258028Y-100152786D01*
X69137715Y-100318386D01*
X69044781Y-100500776D01*
X68981522Y-100695465D01*
X68949500Y-100897648D01*
X68949500Y-101102351D01*
X68981522Y-101304534D01*
X69044781Y-101499223D01*
X69120605Y-101648034D01*
X69133501Y-101716703D01*
X69107225Y-101781444D01*
X69066416Y-101814813D01*
X68963830Y-101867083D01*
X68772813Y-102005866D01*
X68605866Y-102172813D01*
X68467085Y-102363828D01*
X68359897Y-102574197D01*
X68286934Y-102798752D01*
X68270898Y-102900000D01*
X69416991Y-102900000D01*
X69384077Y-102957008D01*
X69350002Y-103084174D01*
X69350002Y-103215826D01*
X69384077Y-103342992D01*
X69416991Y-103400000D01*
X68270898Y-103400000D01*
X68286934Y-103501247D01*
X68359897Y-103725802D01*
X68467085Y-103936171D01*
X68605866Y-104127186D01*
X68772813Y-104294133D01*
X68963828Y-104432914D01*
X69174197Y-104540102D01*
X69398752Y-104613065D01*
X69398751Y-104613065D01*
X69631948Y-104650000D01*
X70000000Y-104650000D01*
X70000000Y-103649999D01*
X70500000Y-103649999D01*
X70500000Y-104650000D01*
X70868052Y-104650000D01*
X71101247Y-104613065D01*
X71325802Y-104540102D01*
X71536171Y-104432914D01*
X71727186Y-104294133D01*
X71894133Y-104127186D01*
X72032914Y-103936171D01*
X72140102Y-103725802D01*
X72213065Y-103501247D01*
X72229102Y-103400000D01*
X71083009Y-103400000D01*
X71115923Y-103342992D01*
X71149998Y-103215826D01*
X71149998Y-103084174D01*
X71115923Y-102957008D01*
X71083009Y-102900000D01*
X72229102Y-102900000D01*
X72213065Y-102798752D01*
X72140102Y-102574197D01*
X72032914Y-102363828D01*
X71894133Y-102172813D01*
X71727186Y-102005866D01*
X71536171Y-101867085D01*
X71433584Y-101814814D01*
X71382788Y-101766839D01*
X71365993Y-101699018D01*
X71379395Y-101648034D01*
X71455216Y-101499228D01*
X71455218Y-101499223D01*
X71455220Y-101499219D01*
X71518477Y-101304534D01*
X71550500Y-101102352D01*
X71550500Y-100897648D01*
X71518746Y-100697166D01*
X71518478Y-100695472D01*
X71518477Y-100695471D01*
X71518477Y-100695466D01*
X71513825Y-100681151D01*
X71511832Y-100611312D01*
X71544075Y-100555158D01*
X77335130Y-94764104D01*
X77343458Y-94759557D01*
X77349201Y-94751998D01*
X77373628Y-94743082D01*
X77396451Y-94730621D01*
X77407666Y-94730660D01*
X77414836Y-94728044D01*
X77433202Y-94730750D01*
X77450022Y-94730810D01*
X77458245Y-94732659D01*
X77542517Y-94764091D01*
X77602127Y-94770500D01*
X77626469Y-94770499D01*
X77639904Y-94773522D01*
X77658888Y-94784062D01*
X77679723Y-94790179D01*
X77700372Y-94806818D01*
X78370591Y-95477037D01*
X78307007Y-95494075D01*
X78192993Y-95559901D01*
X78099901Y-95652993D01*
X78034075Y-95767007D01*
X78017037Y-95830591D01*
X77384728Y-95198282D01*
X77384727Y-95198282D01*
X77345380Y-95252439D01*
X77248904Y-95441782D01*
X77183242Y-95643869D01*
X77183242Y-95643872D01*
X77150000Y-95853753D01*
X77150000Y-96066246D01*
X77183242Y-96276127D01*
X77183242Y-96276130D01*
X77248904Y-96478217D01*
X77345375Y-96667550D01*
X77384728Y-96721716D01*
X78017037Y-96089408D01*
X78034075Y-96152993D01*
X78099901Y-96267007D01*
X78192993Y-96360099D01*
X78307007Y-96425925D01*
X78370590Y-96442962D01*
X77738282Y-97075269D01*
X77738282Y-97075270D01*
X77792452Y-97114626D01*
X77792451Y-97114626D01*
X77801495Y-97119234D01*
X77852292Y-97167208D01*
X77869087Y-97235029D01*
X77846550Y-97301164D01*
X77801499Y-97340202D01*
X77792182Y-97344949D01*
X77620213Y-97469890D01*
X77469890Y-97620213D01*
X77344951Y-97792179D01*
X77248444Y-97981585D01*
X77182753Y-98183760D01*
X77151088Y-98383684D01*
X77149500Y-98393713D01*
X77149500Y-98606287D01*
X77153282Y-98630163D01*
X77181586Y-98808873D01*
X77182754Y-98816243D01*
X77216841Y-98921153D01*
X77248444Y-99018414D01*
X77344951Y-99207820D01*
X77469890Y-99379786D01*
X77620213Y-99530109D01*
X77792182Y-99655050D01*
X77800946Y-99659516D01*
X77851742Y-99707491D01*
X77868536Y-99775312D01*
X77845998Y-99841447D01*
X77800946Y-99880484D01*
X77792182Y-99884949D01*
X77620213Y-100009890D01*
X77469890Y-100160213D01*
X77344951Y-100332179D01*
X77248444Y-100521585D01*
X77182753Y-100723760D01*
X77159562Y-100870185D01*
X77149500Y-100933713D01*
X77149500Y-101146287D01*
X77153439Y-101171158D01*
X77178414Y-101328846D01*
X77182754Y-101356243D01*
X77246506Y-101552452D01*
X77248444Y-101558414D01*
X77344951Y-101747820D01*
X77469890Y-101919786D01*
X77620213Y-102070109D01*
X77792182Y-102195050D01*
X77800946Y-102199516D01*
X77851742Y-102247491D01*
X77868536Y-102315312D01*
X77845998Y-102381447D01*
X77800946Y-102420484D01*
X77792182Y-102424949D01*
X77620213Y-102549890D01*
X77469890Y-102700213D01*
X77344951Y-102872179D01*
X77248444Y-103061585D01*
X77248443Y-103061587D01*
X77248443Y-103061588D01*
X77182754Y-103263757D01*
X77149500Y-103473713D01*
X77149500Y-103686287D01*
X77182754Y-103896243D01*
X77195727Y-103936171D01*
X77248444Y-104098414D01*
X77344951Y-104287820D01*
X77469890Y-104459786D01*
X77620213Y-104610109D01*
X77792182Y-104735050D01*
X77800946Y-104739516D01*
X77851742Y-104787491D01*
X77868536Y-104855312D01*
X77845998Y-104921447D01*
X77800946Y-104960484D01*
X77792182Y-104964949D01*
X77620213Y-105089890D01*
X77469890Y-105240213D01*
X77344951Y-105412179D01*
X77248444Y-105601585D01*
X77182753Y-105803760D01*
X77149500Y-106013713D01*
X77149500Y-106226286D01*
X77182753Y-106436239D01*
X77182753Y-106436241D01*
X77182754Y-106436243D01*
X77240330Y-106613444D01*
X77248444Y-106638414D01*
X77344951Y-106827820D01*
X77469890Y-106999786D01*
X77620213Y-107150109D01*
X77792182Y-107275050D01*
X77800946Y-107279516D01*
X77851742Y-107327491D01*
X77868536Y-107395312D01*
X77845998Y-107461447D01*
X77800946Y-107500484D01*
X77792182Y-107504949D01*
X77620213Y-107629890D01*
X77469890Y-107780213D01*
X77344951Y-107952179D01*
X77248444Y-108141585D01*
X77182753Y-108343760D01*
X77149500Y-108553713D01*
X77149500Y-108766286D01*
X77178555Y-108949735D01*
X77182754Y-108976243D01*
X77247265Y-109174787D01*
X77248444Y-109178414D01*
X77344951Y-109367820D01*
X77469890Y-109539786D01*
X77620213Y-109690109D01*
X77792179Y-109815048D01*
X77792181Y-109815049D01*
X77792184Y-109815051D01*
X77981588Y-109911557D01*
X78183757Y-109977246D01*
X78393713Y-110010500D01*
X78393714Y-110010500D01*
X78606286Y-110010500D01*
X78606287Y-110010500D01*
X78816243Y-109977246D01*
X79018412Y-109911557D01*
X79207816Y-109815051D01*
X79229789Y-109799086D01*
X79379786Y-109690109D01*
X79379788Y-109690106D01*
X79379792Y-109690104D01*
X79530104Y-109539792D01*
X79530106Y-109539788D01*
X79530109Y-109539786D01*
X79655048Y-109367820D01*
X79655047Y-109367820D01*
X79655051Y-109367816D01*
X79751557Y-109178412D01*
X79817246Y-108976243D01*
X79850500Y-108766287D01*
X79850500Y-108619097D01*
X79870185Y-108552058D01*
X79922989Y-108506303D01*
X79992147Y-108496359D01*
X80055703Y-108525384D01*
X80062181Y-108531416D01*
X82228181Y-110697416D01*
X82261666Y-110758739D01*
X82264500Y-110785097D01*
X82264500Y-110818846D01*
X82295261Y-110973489D01*
X82295264Y-110973501D01*
X82355602Y-111119172D01*
X82355609Y-111119185D01*
X82443210Y-111250288D01*
X82443213Y-111250292D01*
X82554707Y-111361786D01*
X82554711Y-111361789D01*
X82685814Y-111449390D01*
X82685827Y-111449397D01*
X82831498Y-111509735D01*
X82831503Y-111509737D01*
X82986153Y-111540499D01*
X82986156Y-111540500D01*
X82986158Y-111540500D01*
X83143844Y-111540500D01*
X83143845Y-111540499D01*
X83298497Y-111509737D01*
X83444179Y-111449394D01*
X83575289Y-111361789D01*
X83686789Y-111250289D01*
X83774394Y-111119179D01*
X83834737Y-110973497D01*
X83865500Y-110818842D01*
X83865500Y-110661158D01*
X83865500Y-110661155D01*
X83865499Y-110661153D01*
X83853739Y-110602034D01*
X83834737Y-110506503D01*
X83834735Y-110506498D01*
X83774397Y-110360827D01*
X83774390Y-110360814D01*
X83686789Y-110229711D01*
X83686786Y-110229707D01*
X83575292Y-110118213D01*
X83575288Y-110118210D01*
X83444185Y-110030609D01*
X83444172Y-110030602D01*
X83298501Y-109970264D01*
X83298489Y-109970261D01*
X83211808Y-109953019D01*
X83149897Y-109920634D01*
X83148318Y-109919083D01*
X79833757Y-106604522D01*
X79800272Y-106543199D01*
X79803507Y-106478523D01*
X79817246Y-106436243D01*
X79850500Y-106226287D01*
X79850500Y-106013713D01*
X79817246Y-105803757D01*
X79751557Y-105601588D01*
X79655051Y-105412184D01*
X79655049Y-105412181D01*
X79655048Y-105412179D01*
X79530109Y-105240213D01*
X79379786Y-105089890D01*
X79207820Y-104964951D01*
X79205078Y-104963554D01*
X79199054Y-104960485D01*
X79148259Y-104912512D01*
X79131463Y-104844692D01*
X79153999Y-104778556D01*
X79199054Y-104739515D01*
X79207816Y-104735051D01*
X79229789Y-104719086D01*
X79379786Y-104610109D01*
X79379788Y-104610106D01*
X79379792Y-104610104D01*
X79530104Y-104459792D01*
X79530106Y-104459788D01*
X79530109Y-104459786D01*
X79655048Y-104287820D01*
X79655047Y-104287820D01*
X79655051Y-104287816D01*
X79751557Y-104098412D01*
X79817246Y-103896243D01*
X79850500Y-103686287D01*
X79850500Y-103473713D01*
X79817246Y-103263757D01*
X79803506Y-103221473D01*
X79801512Y-103151635D01*
X79833755Y-103095478D01*
X90312416Y-92616819D01*
X90373739Y-92583334D01*
X90400097Y-92580500D01*
X103131000Y-92580500D01*
X103198039Y-92600185D01*
X103243794Y-92652989D01*
X103255000Y-92704500D01*
X103255000Y-92930000D01*
X103955001Y-92930000D01*
X103955001Y-93430000D01*
X103255000Y-93430000D01*
X103255000Y-93678495D01*
X103293427Y-93871681D01*
X103293429Y-93871689D01*
X103337484Y-93978047D01*
X103344953Y-94047517D01*
X103313678Y-94109996D01*
X103253589Y-94145648D01*
X103222923Y-94149500D01*
X96170940Y-94149500D01*
X96130019Y-94160464D01*
X96130019Y-94160465D01*
X96092751Y-94170451D01*
X96018214Y-94190423D01*
X96018209Y-94190426D01*
X95881290Y-94269475D01*
X95881282Y-94269481D01*
X88519481Y-101631282D01*
X88519475Y-101631290D01*
X88479576Y-101700399D01*
X88479576Y-101700400D01*
X88440423Y-101768215D01*
X88399499Y-101920943D01*
X88399499Y-101920945D01*
X88399499Y-102089046D01*
X88399500Y-102089059D01*
X88399500Y-118103330D01*
X88399499Y-118103348D01*
X88399499Y-118269054D01*
X88399498Y-118269054D01*
X88407816Y-118300097D01*
X88440423Y-118421785D01*
X88463810Y-118462292D01*
X88469358Y-118471900D01*
X88469359Y-118471904D01*
X88469360Y-118471904D01*
X88514448Y-118550001D01*
X88519479Y-118558714D01*
X88519481Y-118558717D01*
X88638349Y-118677585D01*
X88638355Y-118677590D01*
X91166241Y-121205476D01*
X91199726Y-121266799D01*
X91196492Y-121331473D01*
X91182753Y-121373757D01*
X91149500Y-121583713D01*
X91149500Y-121750902D01*
X91129815Y-121817941D01*
X91077011Y-121863696D01*
X91007853Y-121873640D01*
X90944297Y-121844615D01*
X90937819Y-121838583D01*
X86737590Y-117638355D01*
X86737588Y-117638352D01*
X86618717Y-117519481D01*
X86618716Y-117519480D01*
X86531904Y-117469360D01*
X86531904Y-117469359D01*
X86531900Y-117469358D01*
X86481785Y-117440423D01*
X86329057Y-117399499D01*
X86170943Y-117399499D01*
X86163347Y-117399499D01*
X86163331Y-117399500D01*
X84579766Y-117399500D01*
X84512727Y-117379815D01*
X84510875Y-117378602D01*
X84379185Y-117290609D01*
X84379172Y-117290602D01*
X84233501Y-117230264D01*
X84233489Y-117230261D01*
X84078845Y-117199500D01*
X84078842Y-117199500D01*
X83921158Y-117199500D01*
X83921155Y-117199500D01*
X83766510Y-117230261D01*
X83766498Y-117230264D01*
X83620827Y-117290602D01*
X83620814Y-117290609D01*
X83489711Y-117378210D01*
X83489707Y-117378213D01*
X83378213Y-117489707D01*
X83378210Y-117489711D01*
X83290609Y-117620814D01*
X83290602Y-117620827D01*
X83230264Y-117766498D01*
X83230261Y-117766510D01*
X83199500Y-117921153D01*
X83199500Y-118078846D01*
X83230261Y-118233489D01*
X83230264Y-118233501D01*
X83290602Y-118379172D01*
X83290609Y-118379185D01*
X83378210Y-118510288D01*
X83378213Y-118510292D01*
X83489707Y-118621786D01*
X83489711Y-118621789D01*
X83620814Y-118709390D01*
X83620827Y-118709397D01*
X83766498Y-118769735D01*
X83766503Y-118769737D01*
X83875792Y-118791476D01*
X83921153Y-118800499D01*
X83921156Y-118800500D01*
X83921158Y-118800500D01*
X84078844Y-118800500D01*
X84078845Y-118800499D01*
X84233497Y-118769737D01*
X84379179Y-118709394D01*
X84379185Y-118709390D01*
X84510875Y-118621398D01*
X84577553Y-118600520D01*
X84579766Y-118600500D01*
X85949903Y-118600500D01*
X86016942Y-118620185D01*
X86037583Y-118636818D01*
X90721284Y-123320520D01*
X90721286Y-123320521D01*
X90721290Y-123320524D01*
X90812380Y-123373114D01*
X90858216Y-123399577D01*
X91010943Y-123440501D01*
X91010945Y-123440501D01*
X91176654Y-123440501D01*
X91176670Y-123440500D01*
X91184219Y-123440500D01*
X91251258Y-123460185D01*
X91297013Y-123512989D01*
X91306957Y-123582147D01*
X91294704Y-123620795D01*
X91248444Y-123711585D01*
X91182753Y-123913760D01*
X91151762Y-124109432D01*
X91149500Y-124123713D01*
X91149500Y-124336287D01*
X91157208Y-124384957D01*
X91182753Y-124546240D01*
X91244794Y-124737182D01*
X91246789Y-124807023D01*
X91210709Y-124866856D01*
X91148008Y-124897684D01*
X91126863Y-124899500D01*
X88204068Y-124899500D01*
X88137029Y-124879815D01*
X88093583Y-124831795D01*
X88092924Y-124830501D01*
X88033343Y-124713567D01*
X87894517Y-124522490D01*
X87727510Y-124355483D01*
X87536433Y-124216657D01*
X87325996Y-124109433D01*
X87101368Y-124036446D01*
X86868097Y-123999500D01*
X86868092Y-123999500D01*
X86631908Y-123999500D01*
X86631903Y-123999500D01*
X86398631Y-124036446D01*
X86174003Y-124109433D01*
X85963566Y-124216657D01*
X85917674Y-124250000D01*
X85772490Y-124355483D01*
X85772488Y-124355485D01*
X85772487Y-124355485D01*
X85605485Y-124522487D01*
X85605485Y-124522488D01*
X85605483Y-124522490D01*
X85545862Y-124604550D01*
X85466657Y-124713566D01*
X85359433Y-124924003D01*
X85286446Y-125148631D01*
X85249500Y-125381902D01*
X85249500Y-125618097D01*
X85286446Y-125851368D01*
X85359433Y-126075996D01*
X85466657Y-126286433D01*
X85605483Y-126477510D01*
X85772490Y-126644517D01*
X85963567Y-126783343D01*
X86017655Y-126810902D01*
X86174003Y-126890566D01*
X86174005Y-126890566D01*
X86174008Y-126890568D01*
X86198676Y-126898583D01*
X86398631Y-126963553D01*
X86631903Y-127000500D01*
X86631908Y-127000500D01*
X86868097Y-127000500D01*
X87101368Y-126963553D01*
X87325992Y-126890568D01*
X87536433Y-126783343D01*
X87727510Y-126644517D01*
X87894517Y-126477510D01*
X88033343Y-126286433D01*
X88093583Y-126168204D01*
X88141558Y-126117409D01*
X88204068Y-126100500D01*
X91126863Y-126100500D01*
X91193902Y-126120185D01*
X91239657Y-126172989D01*
X91249601Y-126242147D01*
X91244794Y-126262818D01*
X91182753Y-126453759D01*
X91149500Y-126663713D01*
X91149500Y-126876286D01*
X91169173Y-127000500D01*
X91182754Y-127086243D01*
X91223961Y-127213066D01*
X91248444Y-127288414D01*
X91344951Y-127477820D01*
X91469890Y-127649786D01*
X91620213Y-127800109D01*
X91792182Y-127925050D01*
X91800946Y-127929516D01*
X91851742Y-127977491D01*
X91868536Y-128045312D01*
X91845998Y-128111447D01*
X91800946Y-128150484D01*
X91792182Y-128154949D01*
X91620213Y-128279890D01*
X91469890Y-128430213D01*
X91344951Y-128602179D01*
X91248444Y-128791585D01*
X91182753Y-128993760D01*
X91149500Y-129203713D01*
X91149500Y-129416286D01*
X91172244Y-129559890D01*
X91182754Y-129626243D01*
X91248443Y-129828412D01*
X91344949Y-130017816D01*
X91397013Y-130089477D01*
X91420492Y-130155283D01*
X91404666Y-130223337D01*
X91384375Y-130250042D01*
X85771238Y-135863181D01*
X85709915Y-135896666D01*
X85683557Y-135899500D01*
X77204068Y-135899500D01*
X77137029Y-135879815D01*
X77093583Y-135831795D01*
X77082189Y-135809433D01*
X77033343Y-135713567D01*
X76894517Y-135522490D01*
X76727510Y-135355483D01*
X76536433Y-135216657D01*
X76325996Y-135109433D01*
X76101368Y-135036446D01*
X75868097Y-134999500D01*
X75868092Y-134999500D01*
X75631908Y-134999500D01*
X75631903Y-134999500D01*
X75398631Y-135036446D01*
X75174003Y-135109433D01*
X74963566Y-135216657D01*
X74917674Y-135250000D01*
X74772490Y-135355483D01*
X74772488Y-135355485D01*
X74772487Y-135355485D01*
X74605485Y-135522487D01*
X74605485Y-135522488D01*
X74605483Y-135522490D01*
X74557483Y-135588556D01*
X74466657Y-135713566D01*
X74406417Y-135831795D01*
X74358442Y-135882591D01*
X74295932Y-135899500D01*
X70704068Y-135899500D01*
X70637029Y-135879815D01*
X70593583Y-135831795D01*
X70582189Y-135809433D01*
X70533343Y-135713567D01*
X70394517Y-135522490D01*
X70227510Y-135355483D01*
X70036433Y-135216657D01*
X69825996Y-135109433D01*
X69601368Y-135036446D01*
X69368097Y-134999500D01*
X69368092Y-134999500D01*
X69131908Y-134999500D01*
X69131903Y-134999500D01*
X68898631Y-135036446D01*
X68674003Y-135109433D01*
X68463566Y-135216657D01*
X68417674Y-135250000D01*
X68272490Y-135355483D01*
X68272488Y-135355485D01*
X68272487Y-135355485D01*
X68105485Y-135522487D01*
X68105485Y-135522488D01*
X68105483Y-135522490D01*
X68057483Y-135588556D01*
X67966657Y-135713566D01*
X67859433Y-135924003D01*
X67786446Y-136148631D01*
X67749500Y-136381902D01*
X53750500Y-136381902D01*
X53750500Y-129881947D01*
X56750000Y-129881947D01*
X56750000Y-130118052D01*
X56786934Y-130351247D01*
X56859897Y-130575802D01*
X56967087Y-130786174D01*
X57027338Y-130869104D01*
X57027340Y-130869105D01*
X57726212Y-130170233D01*
X57737482Y-130212292D01*
X57809890Y-130337708D01*
X57912292Y-130440110D01*
X58037708Y-130512518D01*
X58079765Y-130523787D01*
X57380893Y-131222658D01*
X57463828Y-131282914D01*
X57674197Y-131390102D01*
X57898752Y-131463065D01*
X57898751Y-131463065D01*
X58131948Y-131500000D01*
X58368052Y-131500000D01*
X58601247Y-131463065D01*
X58825802Y-131390102D01*
X59036163Y-131282918D01*
X59036169Y-131282914D01*
X59119104Y-131222658D01*
X59119105Y-131222658D01*
X58420233Y-130523787D01*
X58462292Y-130512518D01*
X58587708Y-130440110D01*
X58690110Y-130337708D01*
X58762518Y-130212292D01*
X58773787Y-130170234D01*
X59472658Y-130869105D01*
X59472658Y-130869104D01*
X59532914Y-130786169D01*
X59532918Y-130786163D01*
X59640102Y-130575802D01*
X59713065Y-130351247D01*
X59750000Y-130118052D01*
X59750000Y-129881947D01*
X63250000Y-129881947D01*
X63250000Y-130118052D01*
X63286934Y-130351247D01*
X63359897Y-130575802D01*
X63467087Y-130786174D01*
X63527338Y-130869104D01*
X63527340Y-130869105D01*
X64226212Y-130170233D01*
X64237482Y-130212292D01*
X64309890Y-130337708D01*
X64412292Y-130440110D01*
X64537708Y-130512518D01*
X64579765Y-130523787D01*
X63880893Y-131222658D01*
X63963828Y-131282914D01*
X64174197Y-131390102D01*
X64398752Y-131463065D01*
X64398751Y-131463065D01*
X64631948Y-131500000D01*
X64868052Y-131500000D01*
X65101247Y-131463065D01*
X65325802Y-131390102D01*
X65536163Y-131282918D01*
X65536169Y-131282914D01*
X65619104Y-131222658D01*
X65619105Y-131222658D01*
X64920233Y-130523787D01*
X64962292Y-130512518D01*
X65087708Y-130440110D01*
X65190110Y-130337708D01*
X65262518Y-130212292D01*
X65273787Y-130170234D01*
X65972658Y-130869105D01*
X65972658Y-130869104D01*
X66032914Y-130786169D01*
X66032918Y-130786163D01*
X66140102Y-130575802D01*
X66213065Y-130351247D01*
X66250000Y-130118052D01*
X66250000Y-129881947D01*
X78750000Y-129881947D01*
X78750000Y-130118052D01*
X78786934Y-130351247D01*
X78859897Y-130575802D01*
X78967087Y-130786174D01*
X79027338Y-130869104D01*
X79027340Y-130869105D01*
X79726212Y-130170233D01*
X79737482Y-130212292D01*
X79809890Y-130337708D01*
X79912292Y-130440110D01*
X80037708Y-130512518D01*
X80079765Y-130523787D01*
X79380893Y-131222658D01*
X79463828Y-131282914D01*
X79674197Y-131390102D01*
X79898752Y-131463065D01*
X79898751Y-131463065D01*
X80131948Y-131500000D01*
X80368052Y-131500000D01*
X80601247Y-131463065D01*
X80825802Y-131390102D01*
X81036163Y-131282918D01*
X81036169Y-131282914D01*
X81119104Y-131222658D01*
X81119105Y-131222658D01*
X80420233Y-130523787D01*
X80462292Y-130512518D01*
X80587708Y-130440110D01*
X80690110Y-130337708D01*
X80762518Y-130212292D01*
X80773787Y-130170234D01*
X81472658Y-130869105D01*
X81472658Y-130869104D01*
X81532914Y-130786169D01*
X81532918Y-130786163D01*
X81640102Y-130575802D01*
X81713065Y-130351247D01*
X81750000Y-130118052D01*
X81750000Y-129881947D01*
X85250000Y-129881947D01*
X85250000Y-130118052D01*
X85286934Y-130351247D01*
X85359897Y-130575802D01*
X85467087Y-130786174D01*
X85527338Y-130869104D01*
X85527340Y-130869105D01*
X86226212Y-130170233D01*
X86237482Y-130212292D01*
X86309890Y-130337708D01*
X86412292Y-130440110D01*
X86537708Y-130512518D01*
X86579765Y-130523787D01*
X85880893Y-131222658D01*
X85963828Y-131282914D01*
X86174197Y-131390102D01*
X86398752Y-131463065D01*
X86398751Y-131463065D01*
X86631948Y-131500000D01*
X86868052Y-131500000D01*
X87101247Y-131463065D01*
X87325802Y-131390102D01*
X87536163Y-131282918D01*
X87536169Y-131282914D01*
X87619104Y-131222658D01*
X87619105Y-131222658D01*
X86920233Y-130523787D01*
X86962292Y-130512518D01*
X87087708Y-130440110D01*
X87190110Y-130337708D01*
X87262518Y-130212292D01*
X87273787Y-130170234D01*
X87972658Y-130869105D01*
X87972658Y-130869104D01*
X88032914Y-130786169D01*
X88032918Y-130786163D01*
X88140102Y-130575802D01*
X88213065Y-130351247D01*
X88250000Y-130118052D01*
X88250000Y-129881947D01*
X88213065Y-129648752D01*
X88140102Y-129424197D01*
X88032914Y-129213828D01*
X87972658Y-129130894D01*
X87972658Y-129130893D01*
X87273787Y-129829765D01*
X87262518Y-129787708D01*
X87190110Y-129662292D01*
X87087708Y-129559890D01*
X86962292Y-129487482D01*
X86920234Y-129476212D01*
X87619105Y-128777340D01*
X87619104Y-128777338D01*
X87536174Y-128717087D01*
X87325802Y-128609897D01*
X87101247Y-128536934D01*
X87101248Y-128536934D01*
X86868052Y-128500000D01*
X86631948Y-128500000D01*
X86398752Y-128536934D01*
X86174197Y-128609897D01*
X85963830Y-128717084D01*
X85880894Y-128777340D01*
X86579766Y-129476212D01*
X86537708Y-129487482D01*
X86412292Y-129559890D01*
X86309890Y-129662292D01*
X86237482Y-129787708D01*
X86226212Y-129829766D01*
X85527340Y-129130894D01*
X85467084Y-129213830D01*
X85359897Y-129424197D01*
X85286934Y-129648752D01*
X85250000Y-129881947D01*
X81750000Y-129881947D01*
X81713065Y-129648752D01*
X81640102Y-129424197D01*
X81532914Y-129213828D01*
X81472658Y-129130894D01*
X81472658Y-129130893D01*
X80773787Y-129829765D01*
X80762518Y-129787708D01*
X80690110Y-129662292D01*
X80587708Y-129559890D01*
X80462292Y-129487482D01*
X80420234Y-129476212D01*
X81119105Y-128777340D01*
X81119104Y-128777339D01*
X81036174Y-128717087D01*
X80825802Y-128609897D01*
X80601247Y-128536934D01*
X80601248Y-128536934D01*
X80368052Y-128500000D01*
X80131948Y-128500000D01*
X79898752Y-128536934D01*
X79674197Y-128609897D01*
X79463830Y-128717084D01*
X79380894Y-128777340D01*
X80079766Y-129476212D01*
X80037708Y-129487482D01*
X79912292Y-129559890D01*
X79809890Y-129662292D01*
X79737482Y-129787708D01*
X79726212Y-129829766D01*
X79027340Y-129130894D01*
X78967084Y-129213830D01*
X78859897Y-129424197D01*
X78786934Y-129648752D01*
X78750000Y-129881947D01*
X66250000Y-129881947D01*
X66213065Y-129648752D01*
X66140102Y-129424197D01*
X66032914Y-129213828D01*
X65972658Y-129130894D01*
X65972658Y-129130893D01*
X65273787Y-129829765D01*
X65262518Y-129787708D01*
X65190110Y-129662292D01*
X65087708Y-129559890D01*
X64962292Y-129487482D01*
X64920234Y-129476212D01*
X65619105Y-128777340D01*
X65619104Y-128777339D01*
X65536174Y-128717087D01*
X65325802Y-128609897D01*
X65101247Y-128536934D01*
X65101248Y-128536934D01*
X64868052Y-128500000D01*
X64631948Y-128500000D01*
X64398752Y-128536934D01*
X64174197Y-128609897D01*
X63963830Y-128717084D01*
X63880894Y-128777340D01*
X64579766Y-129476212D01*
X64537708Y-129487482D01*
X64412292Y-129559890D01*
X64309890Y-129662292D01*
X64237482Y-129787708D01*
X64226212Y-129829766D01*
X63527340Y-129130894D01*
X63467084Y-129213830D01*
X63359897Y-129424197D01*
X63286934Y-129648752D01*
X63250000Y-129881947D01*
X59750000Y-129881947D01*
X59713065Y-129648752D01*
X59640102Y-129424197D01*
X59532914Y-129213828D01*
X59472658Y-129130894D01*
X59472658Y-129130893D01*
X58773787Y-129829765D01*
X58762518Y-129787708D01*
X58690110Y-129662292D01*
X58587708Y-129559890D01*
X58462292Y-129487482D01*
X58420234Y-129476212D01*
X59119105Y-128777340D01*
X59119104Y-128777339D01*
X59036174Y-128717087D01*
X58825802Y-128609897D01*
X58601247Y-128536934D01*
X58601248Y-128536934D01*
X58368052Y-128500000D01*
X58131948Y-128500000D01*
X57898752Y-128536934D01*
X57674197Y-128609897D01*
X57463830Y-128717084D01*
X57380894Y-128777340D01*
X58079766Y-129476212D01*
X58037708Y-129487482D01*
X57912292Y-129559890D01*
X57809890Y-129662292D01*
X57737482Y-129787708D01*
X57726212Y-129829766D01*
X57027340Y-129130894D01*
X56967084Y-129213830D01*
X56859897Y-129424197D01*
X56786934Y-129648752D01*
X56750000Y-129881947D01*
X53750500Y-129881947D01*
X53750500Y-125381902D01*
X56749500Y-125381902D01*
X56749500Y-125618097D01*
X56786446Y-125851368D01*
X56859433Y-126075996D01*
X56966657Y-126286433D01*
X57105483Y-126477510D01*
X57272490Y-126644517D01*
X57463567Y-126783343D01*
X57517655Y-126810902D01*
X57674003Y-126890566D01*
X57674005Y-126890566D01*
X57674008Y-126890568D01*
X57698676Y-126898583D01*
X57898631Y-126963553D01*
X58131903Y-127000500D01*
X58131908Y-127000500D01*
X58368097Y-127000500D01*
X58601368Y-126963553D01*
X58825992Y-126890568D01*
X59036433Y-126783343D01*
X59227510Y-126644517D01*
X59394517Y-126477510D01*
X59533343Y-126286433D01*
X59640568Y-126075992D01*
X59713553Y-125851368D01*
X59729608Y-125749999D01*
X59750500Y-125618097D01*
X59750500Y-125381902D01*
X63249500Y-125381902D01*
X63249500Y-125618097D01*
X63286446Y-125851368D01*
X63359433Y-126075996D01*
X63466657Y-126286433D01*
X63605483Y-126477510D01*
X63772490Y-126644517D01*
X63963567Y-126783343D01*
X64017655Y-126810902D01*
X64174003Y-126890566D01*
X64174005Y-126890566D01*
X64174008Y-126890568D01*
X64198676Y-126898583D01*
X64398631Y-126963553D01*
X64631903Y-127000500D01*
X64631908Y-127000500D01*
X64868097Y-127000500D01*
X65101368Y-126963553D01*
X65325992Y-126890568D01*
X65536433Y-126783343D01*
X65727510Y-126644517D01*
X65894517Y-126477510D01*
X66033343Y-126286433D01*
X66140568Y-126075992D01*
X66213553Y-125851368D01*
X66229608Y-125749999D01*
X66250500Y-125618097D01*
X66250500Y-125381902D01*
X78749500Y-125381902D01*
X78749500Y-125618097D01*
X78786446Y-125851368D01*
X78859433Y-126075996D01*
X78966657Y-126286433D01*
X79105483Y-126477510D01*
X79272490Y-126644517D01*
X79463567Y-126783343D01*
X79517655Y-126810902D01*
X79674003Y-126890566D01*
X79674005Y-126890566D01*
X79674008Y-126890568D01*
X79698676Y-126898583D01*
X79898631Y-126963553D01*
X80131903Y-127000500D01*
X80131908Y-127000500D01*
X80368097Y-127000500D01*
X80601368Y-126963553D01*
X80825992Y-126890568D01*
X81036433Y-126783343D01*
X81227510Y-126644517D01*
X81394517Y-126477510D01*
X81533343Y-126286433D01*
X81640568Y-126075992D01*
X81713553Y-125851368D01*
X81729608Y-125749999D01*
X81750500Y-125618097D01*
X81750500Y-125381902D01*
X81713553Y-125148631D01*
X81653506Y-124963828D01*
X81640568Y-124924008D01*
X81640566Y-124924005D01*
X81640566Y-124924003D01*
X81580961Y-124807023D01*
X81533343Y-124713567D01*
X81394517Y-124522490D01*
X81227510Y-124355483D01*
X81036433Y-124216657D01*
X80825996Y-124109433D01*
X80601368Y-124036446D01*
X80368097Y-123999500D01*
X80368092Y-123999500D01*
X80131908Y-123999500D01*
X80131903Y-123999500D01*
X79898631Y-124036446D01*
X79674003Y-124109433D01*
X79463566Y-124216657D01*
X79417674Y-124250000D01*
X79272490Y-124355483D01*
X79272488Y-124355485D01*
X79272487Y-124355485D01*
X79105485Y-124522487D01*
X79105485Y-124522488D01*
X79105483Y-124522490D01*
X79045862Y-124604550D01*
X78966657Y-124713566D01*
X78859433Y-124924003D01*
X78786446Y-125148631D01*
X78749500Y-125381902D01*
X66250500Y-125381902D01*
X66213553Y-125148631D01*
X66153506Y-124963828D01*
X66140568Y-124924008D01*
X66140566Y-124924005D01*
X66140566Y-124924003D01*
X66080961Y-124807023D01*
X66033343Y-124713567D01*
X65894517Y-124522490D01*
X65727510Y-124355483D01*
X65536433Y-124216657D01*
X65325996Y-124109433D01*
X65101368Y-124036446D01*
X64868097Y-123999500D01*
X64868092Y-123999500D01*
X64631908Y-123999500D01*
X64631903Y-123999500D01*
X64398631Y-124036446D01*
X64174003Y-124109433D01*
X63963566Y-124216657D01*
X63917674Y-124250000D01*
X63772490Y-124355483D01*
X63772488Y-124355485D01*
X63772487Y-124355485D01*
X63605485Y-124522487D01*
X63605485Y-124522488D01*
X63605483Y-124522490D01*
X63545862Y-124604550D01*
X63466657Y-124713566D01*
X63359433Y-124924003D01*
X63286446Y-125148631D01*
X63249500Y-125381902D01*
X59750500Y-125381902D01*
X59713553Y-125148631D01*
X59653506Y-124963828D01*
X59640568Y-124924008D01*
X59640566Y-124924005D01*
X59640566Y-124924003D01*
X59580961Y-124807023D01*
X59533343Y-124713567D01*
X59394517Y-124522490D01*
X59227510Y-124355483D01*
X59036433Y-124216657D01*
X58825996Y-124109433D01*
X58601368Y-124036446D01*
X58368097Y-123999500D01*
X58368092Y-123999500D01*
X58131908Y-123999500D01*
X58131903Y-123999500D01*
X57898631Y-124036446D01*
X57674003Y-124109433D01*
X57463566Y-124216657D01*
X57417674Y-124250000D01*
X57272490Y-124355483D01*
X57272488Y-124355485D01*
X57272487Y-124355485D01*
X57105485Y-124522487D01*
X57105485Y-124522488D01*
X57105483Y-124522490D01*
X57045862Y-124604550D01*
X56966657Y-124713566D01*
X56859433Y-124924003D01*
X56786446Y-125148631D01*
X56749500Y-125381902D01*
X53750500Y-125381902D01*
X53750500Y-118881947D01*
X67750000Y-118881947D01*
X67750000Y-119118052D01*
X67786934Y-119351247D01*
X67859897Y-119575802D01*
X67967087Y-119786174D01*
X68027338Y-119869104D01*
X68027340Y-119869105D01*
X68726212Y-119170233D01*
X68737482Y-119212292D01*
X68809890Y-119337708D01*
X68912292Y-119440110D01*
X69037708Y-119512518D01*
X69079765Y-119523787D01*
X68380893Y-120222658D01*
X68463828Y-120282914D01*
X68674197Y-120390102D01*
X68898752Y-120463065D01*
X68898751Y-120463065D01*
X69131948Y-120500000D01*
X69368052Y-120500000D01*
X69601247Y-120463065D01*
X69825802Y-120390102D01*
X70036163Y-120282918D01*
X70036169Y-120282914D01*
X70119104Y-120222658D01*
X70119105Y-120222658D01*
X69420233Y-119523787D01*
X69462292Y-119512518D01*
X69587708Y-119440110D01*
X69690110Y-119337708D01*
X69762518Y-119212292D01*
X69773787Y-119170234D01*
X70472658Y-119869105D01*
X70472658Y-119869104D01*
X70532914Y-119786169D01*
X70532918Y-119786163D01*
X70640102Y-119575802D01*
X70713065Y-119351247D01*
X70750000Y-119118052D01*
X70750000Y-118881947D01*
X74250000Y-118881947D01*
X74250000Y-119118052D01*
X74286934Y-119351247D01*
X74359897Y-119575802D01*
X74467087Y-119786174D01*
X74527338Y-119869104D01*
X74527340Y-119869105D01*
X75226212Y-119170233D01*
X75237482Y-119212292D01*
X75309890Y-119337708D01*
X75412292Y-119440110D01*
X75537708Y-119512518D01*
X75579765Y-119523787D01*
X74880893Y-120222658D01*
X74963828Y-120282914D01*
X75174197Y-120390102D01*
X75398752Y-120463065D01*
X75398751Y-120463065D01*
X75631948Y-120500000D01*
X75868052Y-120500000D01*
X76101247Y-120463065D01*
X76325802Y-120390102D01*
X76536163Y-120282918D01*
X76536169Y-120282914D01*
X76619104Y-120222658D01*
X76619105Y-120222658D01*
X75920233Y-119523787D01*
X75962292Y-119512518D01*
X76087708Y-119440110D01*
X76190110Y-119337708D01*
X76262518Y-119212292D01*
X76273787Y-119170234D01*
X76972658Y-119869105D01*
X76972658Y-119869104D01*
X77032914Y-119786169D01*
X77032918Y-119786163D01*
X77140102Y-119575802D01*
X77213065Y-119351247D01*
X77250000Y-119118052D01*
X77250000Y-118881947D01*
X77213065Y-118648752D01*
X77140102Y-118424197D01*
X77032914Y-118213828D01*
X76972658Y-118130894D01*
X76972658Y-118130893D01*
X76273787Y-118829765D01*
X76262518Y-118787708D01*
X76190110Y-118662292D01*
X76087708Y-118559890D01*
X75962292Y-118487482D01*
X75920234Y-118476212D01*
X76619105Y-117777340D01*
X76619104Y-117777338D01*
X76536174Y-117717087D01*
X76325802Y-117609897D01*
X76101247Y-117536934D01*
X76101248Y-117536934D01*
X75868052Y-117500000D01*
X75631948Y-117500000D01*
X75398752Y-117536934D01*
X75174197Y-117609897D01*
X74963830Y-117717084D01*
X74880894Y-117777340D01*
X75579766Y-118476212D01*
X75537708Y-118487482D01*
X75412292Y-118559890D01*
X75309890Y-118662292D01*
X75237482Y-118787708D01*
X75226212Y-118829766D01*
X74527340Y-118130894D01*
X74467084Y-118213830D01*
X74359897Y-118424197D01*
X74286934Y-118648752D01*
X74250000Y-118881947D01*
X70750000Y-118881947D01*
X70713065Y-118648752D01*
X70640102Y-118424197D01*
X70532914Y-118213828D01*
X70472658Y-118130894D01*
X70472658Y-118130893D01*
X69773787Y-118829765D01*
X69762518Y-118787708D01*
X69690110Y-118662292D01*
X69587708Y-118559890D01*
X69462292Y-118487482D01*
X69420234Y-118476212D01*
X70119105Y-117777340D01*
X70119104Y-117777339D01*
X70036174Y-117717087D01*
X69825802Y-117609897D01*
X69601247Y-117536934D01*
X69601248Y-117536934D01*
X69368052Y-117500000D01*
X69131948Y-117500000D01*
X68898752Y-117536934D01*
X68674197Y-117609897D01*
X68463830Y-117717084D01*
X68380894Y-117777340D01*
X69079766Y-118476212D01*
X69037708Y-118487482D01*
X68912292Y-118559890D01*
X68809890Y-118662292D01*
X68737482Y-118787708D01*
X68726212Y-118829766D01*
X68027340Y-118130894D01*
X67967084Y-118213830D01*
X67859897Y-118424197D01*
X67786934Y-118648752D01*
X67750000Y-118881947D01*
X53750500Y-118881947D01*
X53750500Y-114381902D01*
X67749500Y-114381902D01*
X67749500Y-114618097D01*
X67786446Y-114851368D01*
X67859433Y-115075996D01*
X67939685Y-115233497D01*
X67966657Y-115286433D01*
X68105483Y-115477510D01*
X68272490Y-115644517D01*
X68463567Y-115783343D01*
X68562991Y-115834002D01*
X68674003Y-115890566D01*
X68674005Y-115890566D01*
X68674008Y-115890568D01*
X68773789Y-115922989D01*
X68898631Y-115963553D01*
X69131903Y-116000500D01*
X69131908Y-116000500D01*
X69368097Y-116000500D01*
X69601368Y-115963553D01*
X69825992Y-115890568D01*
X70036433Y-115783343D01*
X70227510Y-115644517D01*
X70394517Y-115477510D01*
X70533343Y-115286433D01*
X70640568Y-115075992D01*
X70713553Y-114851368D01*
X70715575Y-114838602D01*
X70750500Y-114618097D01*
X70750500Y-114381902D01*
X74249500Y-114381902D01*
X74249500Y-114618097D01*
X74286446Y-114851368D01*
X74359433Y-115075996D01*
X74439685Y-115233497D01*
X74466657Y-115286433D01*
X74605483Y-115477510D01*
X74772490Y-115644517D01*
X74963567Y-115783343D01*
X75062991Y-115834002D01*
X75174003Y-115890566D01*
X75174005Y-115890566D01*
X75174008Y-115890568D01*
X75273789Y-115922989D01*
X75398631Y-115963553D01*
X75631903Y-116000500D01*
X75631908Y-116000500D01*
X75868097Y-116000500D01*
X76101368Y-115963553D01*
X76325992Y-115890568D01*
X76536433Y-115783343D01*
X76727510Y-115644517D01*
X76894517Y-115477510D01*
X77033343Y-115286433D01*
X77140568Y-115075992D01*
X77190878Y-114921153D01*
X78449500Y-114921153D01*
X78449500Y-115078846D01*
X78480261Y-115233489D01*
X78480264Y-115233501D01*
X78540602Y-115379172D01*
X78540609Y-115379185D01*
X78628602Y-115510874D01*
X78649480Y-115577551D01*
X78649500Y-115579765D01*
X78649500Y-120163330D01*
X78649499Y-120163348D01*
X78649499Y-120329054D01*
X78649498Y-120329054D01*
X78657390Y-120358507D01*
X78690423Y-120481785D01*
X78718631Y-120530642D01*
X78719358Y-120531900D01*
X78719359Y-120531904D01*
X78719360Y-120531904D01*
X78769479Y-120618714D01*
X78769481Y-120618717D01*
X78888349Y-120737585D01*
X78888355Y-120737590D01*
X80165425Y-122014660D01*
X80198910Y-122075983D01*
X80199361Y-122078149D01*
X80230261Y-122233491D01*
X80230264Y-122233501D01*
X80290602Y-122379172D01*
X80290609Y-122379185D01*
X80378210Y-122510288D01*
X80378213Y-122510292D01*
X80489707Y-122621786D01*
X80489711Y-122621789D01*
X80620814Y-122709390D01*
X80620827Y-122709397D01*
X80720060Y-122750500D01*
X80766503Y-122769737D01*
X80921153Y-122800499D01*
X80921156Y-122800500D01*
X80921158Y-122800500D01*
X81078844Y-122800500D01*
X81078845Y-122800499D01*
X81233497Y-122769737D01*
X81379179Y-122709394D01*
X81510289Y-122621789D01*
X81621789Y-122510289D01*
X81709394Y-122379179D01*
X81769737Y-122233497D01*
X81800500Y-122078842D01*
X81800500Y-121921158D01*
X81800500Y-121921155D01*
X81800499Y-121921153D01*
X81790361Y-121870185D01*
X81769737Y-121766503D01*
X81734118Y-121680510D01*
X81709397Y-121620827D01*
X81709390Y-121620814D01*
X81621789Y-121489711D01*
X81621786Y-121489707D01*
X81510292Y-121378213D01*
X81510288Y-121378210D01*
X81379185Y-121290609D01*
X81379172Y-121290602D01*
X81233501Y-121230264D01*
X81233491Y-121230261D01*
X81078151Y-121199362D01*
X81016241Y-121166977D01*
X81014662Y-121165426D01*
X79886819Y-120037583D01*
X79853334Y-119976260D01*
X79850500Y-119949902D01*
X79850500Y-115579765D01*
X79870185Y-115512726D01*
X79871398Y-115510874D01*
X79959390Y-115379185D01*
X79959390Y-115379184D01*
X79959394Y-115379179D01*
X80019737Y-115233497D01*
X80050500Y-115078842D01*
X80050500Y-114921158D01*
X80050500Y-114921155D01*
X80050499Y-114921153D01*
X80028909Y-114812615D01*
X80019737Y-114766503D01*
X80012021Y-114747875D01*
X79959397Y-114620827D01*
X79959390Y-114620814D01*
X79871789Y-114489711D01*
X79871786Y-114489707D01*
X79760292Y-114378213D01*
X79760288Y-114378210D01*
X79629185Y-114290609D01*
X79629172Y-114290602D01*
X79483501Y-114230264D01*
X79483489Y-114230261D01*
X79328845Y-114199500D01*
X79328842Y-114199500D01*
X79171158Y-114199500D01*
X79171155Y-114199500D01*
X79016510Y-114230261D01*
X79016498Y-114230264D01*
X78870827Y-114290602D01*
X78870814Y-114290609D01*
X78739711Y-114378210D01*
X78739707Y-114378213D01*
X78628213Y-114489707D01*
X78628210Y-114489711D01*
X78540609Y-114620814D01*
X78540602Y-114620827D01*
X78480264Y-114766498D01*
X78480261Y-114766510D01*
X78449500Y-114921153D01*
X77190878Y-114921153D01*
X77213553Y-114851368D01*
X77215575Y-114838602D01*
X77250500Y-114618097D01*
X77250500Y-114381902D01*
X77213553Y-114148631D01*
X77140566Y-113924003D01*
X77033342Y-113713566D01*
X77022491Y-113698631D01*
X76894517Y-113522490D01*
X76727510Y-113355483D01*
X76536433Y-113216657D01*
X76452730Y-113174008D01*
X76325996Y-113109433D01*
X76101368Y-113036446D01*
X75868097Y-112999500D01*
X75868092Y-112999500D01*
X75631908Y-112999500D01*
X75631903Y-112999500D01*
X75398631Y-113036446D01*
X75174003Y-113109433D01*
X74963566Y-113216657D01*
X74854550Y-113295862D01*
X74772490Y-113355483D01*
X74772488Y-113355485D01*
X74772487Y-113355485D01*
X74605485Y-113522487D01*
X74605485Y-113522488D01*
X74605483Y-113522490D01*
X74584342Y-113551588D01*
X74466657Y-113713566D01*
X74359433Y-113924003D01*
X74286446Y-114148631D01*
X74249500Y-114381902D01*
X70750500Y-114381902D01*
X70713553Y-114148631D01*
X70640566Y-113924003D01*
X70533342Y-113713566D01*
X70522491Y-113698631D01*
X70394517Y-113522490D01*
X70227510Y-113355483D01*
X70036433Y-113216657D01*
X69952730Y-113174008D01*
X69825996Y-113109433D01*
X69601368Y-113036446D01*
X69368097Y-112999500D01*
X69368092Y-112999500D01*
X69131908Y-112999500D01*
X69131903Y-112999500D01*
X68898631Y-113036446D01*
X68674003Y-113109433D01*
X68463566Y-113216657D01*
X68354550Y-113295862D01*
X68272490Y-113355483D01*
X68272488Y-113355485D01*
X68272487Y-113355485D01*
X68105485Y-113522487D01*
X68105485Y-113522488D01*
X68105483Y-113522490D01*
X68084342Y-113551588D01*
X67966657Y-113713566D01*
X67859433Y-113924003D01*
X67786446Y-114148631D01*
X67749500Y-114381902D01*
X53750500Y-114381902D01*
X53750500Y-96502561D01*
X53750606Y-96497437D01*
X53755181Y-96386819D01*
X53765856Y-96128711D01*
X57399500Y-96128711D01*
X57399500Y-96371288D01*
X57429849Y-96601821D01*
X57431162Y-96611789D01*
X57437996Y-96637295D01*
X57493947Y-96846104D01*
X57582483Y-97059848D01*
X57586776Y-97070212D01*
X57708064Y-97280289D01*
X57708066Y-97280292D01*
X57708067Y-97280293D01*
X57855733Y-97472736D01*
X57855739Y-97472743D01*
X58027256Y-97644260D01*
X58027263Y-97644266D01*
X58092002Y-97693942D01*
X58219711Y-97791936D01*
X58429788Y-97913224D01*
X58653900Y-98006054D01*
X58888211Y-98068838D01*
X59068586Y-98092584D01*
X59128711Y-98100500D01*
X59128712Y-98100500D01*
X59371289Y-98100500D01*
X59419388Y-98094167D01*
X59611789Y-98068838D01*
X59846100Y-98006054D01*
X60070212Y-97913224D01*
X60280289Y-97791936D01*
X60472738Y-97644265D01*
X60644265Y-97472738D01*
X60791936Y-97280289D01*
X60913224Y-97070212D01*
X61006054Y-96846100D01*
X61068838Y-96611789D01*
X61100500Y-96371288D01*
X61100500Y-96128712D01*
X61068838Y-95888211D01*
X61006054Y-95653900D01*
X60913224Y-95429788D01*
X60791936Y-95219711D01*
X60738408Y-95149952D01*
X60729562Y-95138423D01*
X60644266Y-95027263D01*
X60644260Y-95027256D01*
X60472743Y-94855739D01*
X60472736Y-94855733D01*
X60315965Y-94735439D01*
X60280293Y-94708067D01*
X60280292Y-94708066D01*
X60280289Y-94708064D01*
X60070212Y-94586776D01*
X60070205Y-94586773D01*
X59846104Y-94493947D01*
X59611785Y-94431161D01*
X59371289Y-94399500D01*
X59371288Y-94399500D01*
X59128712Y-94399500D01*
X59128711Y-94399500D01*
X58888214Y-94431161D01*
X58653895Y-94493947D01*
X58429794Y-94586773D01*
X58429785Y-94586777D01*
X58219706Y-94708067D01*
X58027263Y-94855733D01*
X58027256Y-94855739D01*
X57855739Y-95027256D01*
X57855733Y-95027263D01*
X57708067Y-95219706D01*
X57586777Y-95429785D01*
X57586773Y-95429794D01*
X57493947Y-95653895D01*
X57431161Y-95888214D01*
X57399500Y-96128711D01*
X53765856Y-96128711D01*
X53769072Y-96050961D01*
X53769915Y-96040792D01*
X53824874Y-95599881D01*
X53826554Y-95589809D01*
X53917734Y-95154950D01*
X53920241Y-95145054D01*
X54047021Y-94719205D01*
X54050336Y-94709553D01*
X54211842Y-94295646D01*
X54215958Y-94286265D01*
X54411080Y-93887137D01*
X54415953Y-93878131D01*
X54419792Y-93871689D01*
X54643389Y-93496444D01*
X54648982Y-93487884D01*
X54907152Y-93126294D01*
X54913420Y-93118240D01*
X55200581Y-92779191D01*
X55207500Y-92771675D01*
X55521675Y-92457500D01*
X55529191Y-92450581D01*
X55868240Y-92163420D01*
X55876294Y-92157152D01*
X56237884Y-91898982D01*
X56246444Y-91893389D01*
X56628139Y-91665948D01*
X56637137Y-91661080D01*
X57036268Y-91465956D01*
X57045650Y-91461841D01*
X57459553Y-91300336D01*
X57469205Y-91297021D01*
X57895054Y-91170241D01*
X57904950Y-91167734D01*
X58339809Y-91076554D01*
X58349881Y-91074874D01*
X58790792Y-91019915D01*
X58800961Y-91019072D01*
X59247437Y-91000605D01*
X59252561Y-91000500D01*
X59315892Y-91000500D01*
X207184108Y-91000500D01*
X207247439Y-91000500D01*
X207252562Y-91000605D01*
G37*
%TD.AperFunction*%
%TD*%
M02*
